<svg width="24" height="24" viewBox="0 0 24 24" fill="none" xmlns="http://www.w3.org/2000/svg">
<path d="M6.16665 4.71327C6.96749 4.71327 7.62004 4.06073 7.62004 3.24999V1.78672C7.62004 0.985871 6.96749 0.333328 6.16665 0.333328C5.3658 0.333328 4.71326 0.985871 4.71326 1.78672V3.24011C4.71326 4.05084 5.3658 4.71327 6.16665 4.71327ZM17.8333 4.71327C18.644 4.71327 19.2966 4.06073 19.2966 3.24999V1.78672C19.2966 0.985871 18.644 0.333328 17.8333 0.333328C17.0226 0.333328 16.3799 0.985871 16.3799 1.78672V3.24011C16.37 4.05084 17.0226 4.71327 17.8333 4.71327ZM20.75 1.78672V3.24011C20.75 4.85169 19.4449 6.15677 17.8333 6.15677C16.2217 6.15677 14.9166 4.85169 14.9166 3.24011V1.78672H9.08331V3.24011C9.08331 4.86158 7.77823 6.16666 6.16665 6.16666C4.55506 6.16666 3.24998 4.86158 3.24998 3.24999V1.78672C1.6384 1.78672 0.333313 3.10169 0.333313 4.71327V20.75C0.333313 22.3616 1.6384 23.6667 3.24998 23.6667H20.75C22.3616 23.6667 23.6666 22.3616 23.6666 20.75V4.71327C23.6666 3.10169 22.3616 1.78672 20.75 1.78672ZM20.75 19.2966C20.75 20.1073 20.0974 20.75 19.2966 20.75H4.71326C3.91241 20.75 3.24998 20.0975 3.24998 19.2966V10.5466C3.24998 9.74576 3.90252 9.09322 4.71326 9.09322H19.2966C20.1073 9.09322 20.75 9.74576 20.75 10.5466V19.2966ZM15.6285 11.6144C16.1822 12.1681 16.1822 13.0678 15.6285 13.6314L10.3884 18.8715C9.83473 19.4251 8.93501 19.4251 8.37145 18.8715C7.81778 18.3178 7.81778 17.4181 8.37145 16.8545L13.6116 11.6144C14.1652 11.0607 15.065 11.0607 15.6285 11.6144ZM8.37145 11.6144C8.92512 11.0607 9.82484 11.0607 10.3884 11.6144L15.6285 16.8545C16.1822 17.4082 16.1822 18.3079 15.6285 18.8715C15.0748 19.4251 14.1751 19.4251 13.6116 18.8715L8.37145 13.6314C7.81778 13.0678 7.81778 12.1681 8.37145 11.6144Z" fill="white"/>
</svg>
