<svg width="25" height="28" viewBox="0 0 25 28" fill="none" xmlns="http://www.w3.org/2000/svg">
<path d="M24.2936 22.5736C21.3588 21.2483 21.2472 15.5594 21.245 15.4159V11.5994C21.245 7.92617 19.0004 4.76761 15.8108 3.42272C15.804 1.53423 14.2659 0 12.376 0C10.486 0 8.94796 1.53432 8.94105 3.42263C5.75158 4.76752 3.50696 7.92608 3.50696 11.5993V15.4158C3.50488 15.5594 3.39316 21.2482 0.458317 22.5735C0.123991 22.7245 -0.0597549 23.0885 0.017543 23.4471C0.0947507 23.8058 0.411929 24.062 0.778835 24.062H8.21893C8.37145 24.901 8.76818 25.6816 9.37497 26.3138C10.1809 27.1535 11.2467 27.6159 12.3758 27.6159C13.5051 27.6159 14.5709 27.1535 15.3767 26.3138C15.9836 25.6815 16.3803 24.9009 16.5327 24.062H23.9728C24.3397 24.062 24.6568 23.8059 24.7341 23.4471C24.8115 23.0885 24.6279 22.7246 24.2936 22.5736ZM20.4276 19.8483C20.7361 20.7837 21.173 21.723 21.7925 22.5046H2.95938C3.57875 21.7231 4.0156 20.7838 4.32412 19.8483H20.4276ZM12.376 1.55746C13.2308 1.55746 13.9536 2.1319 14.1798 2.91489C13.5972 2.79405 12.9938 2.73034 12.376 2.73034C11.7581 2.73034 11.1548 2.79401 10.5721 2.91489C10.7983 2.13194 11.5211 1.55746 12.376 1.55746ZM5.06442 15.4206V11.5992C5.06442 7.5677 8.34433 4.2878 12.376 4.2878C16.4076 4.2878 19.6875 7.5677 19.6875 11.5992V15.427C19.6885 15.5441 19.7068 16.7752 20.017 18.2908H4.7347C5.04516 16.7738 5.06348 15.5405 5.06442 15.4206ZM12.376 26.0586C11.1873 26.0586 10.15 25.2016 9.81701 24.062H14.9348C14.6019 25.2016 13.5647 26.0586 12.376 26.0586Z" fill="#C1BBEB"/>
<path d="M12.3761 5.38086C9.02563 5.38086 6.2998 8.10659 6.2998 11.457C6.2998 11.8871 6.64848 12.2358 7.07856 12.2358C7.50864 12.2358 7.85731 11.8871 7.85731 11.457C7.85731 8.9654 9.88443 6.93832 12.3762 6.93832C12.8062 6.93832 13.1549 6.58965 13.1549 6.15957C13.1549 5.72944 12.8062 5.38086 12.3761 5.38086Z" fill="#C1BBEB"/>
</svg>
