<svg width="32" height="32" viewBox="0 0 32 32" fill="none" xmlns="http://www.w3.org/2000/svg">
<path d="M25.3677 18.9391V9.86768C25.3677 4.70215 21.1655 0.5 16 0.5C10.8345 0.5 6.63232 4.70215 6.63232 9.86768V18.9397C4.96704 19.4224 3.73828 20.9544 3.73828 22.8374C3.73828 25.0386 5.5293 26.8296 7.73096 26.8296H11.377V26.877C11.377 29.4263 13.4507 31.5 16 31.5C18.5493 31.5 20.6231 29.4263 20.6231 26.8769V26.8296H24.2691C26.4707 26.8296 28.2617 25.0386 28.2617 22.7583C28.2617 20.9406 27.033 19.4198 25.3677 18.9391ZM9.63232 9.86768C9.63232 6.35645 12.4888 3.5 16 3.5C19.5112 3.5 22.3677 6.35645 22.3677 9.86768V18.7661H9.63232V9.86768ZM17.6231 26.8769C17.6231 27.772 16.895 28.5 16 28.5C15.105 28.5 14.377 27.772 14.377 26.8769V26.8296H17.623V26.8769H17.6231ZM24.269 23.8296H7.73096C7.1836 23.8296 6.73828 23.3843 6.73828 22.7583C6.73828 22.2114 7.18359 21.7661 7.73096 21.7661H24.2691C24.8164 21.7661 25.2617 22.2114 25.2617 22.8374C25.2617 23.3843 24.8164 23.8296 24.269 23.8296Z" fill="black"/>
</svg>
