<svg width="24" height="24" viewBox="0 0 24 24" fill="none" xmlns="http://www.w3.org/2000/svg">
<path d="M18 5.25H16.5V4.5C16.5 4.30109 16.421 4.11032 16.2803 3.96967C16.1397 3.82902 15.9489 3.75 15.75 3.75C15.5511 3.75 15.3603 3.82902 15.2197 3.96967C15.079 4.11032 15 4.30109 15 4.5V5.25H12.75V4.5C12.75 4.30109 12.671 4.11032 12.5303 3.96967C12.3897 3.82902 12.1989 3.75 12 3.75C11.8011 3.75 11.6103 3.82902 11.4697 3.96967C11.329 4.11032 11.25 4.30109 11.25 4.5V5.25H9V4.5C9 4.30109 8.92098 4.11032 8.78033 3.96967C8.63968 3.82902 8.44891 3.75 8.25 3.75C8.05109 3.75 7.86032 3.82902 7.71967 3.96967C7.57902 4.11032 7.5 4.30109 7.5 4.5V5.25H6C5.40326 5.25 4.83097 5.48705 4.40901 5.90901C3.98705 6.33097 3.75 6.90326 3.75 7.5V18C3.75 18.5967 3.98705 19.169 4.40901 19.591C4.83097 20.0129 5.40326 20.25 6 20.25H18C18.5967 20.25 19.169 20.0129 19.591 19.591C20.0129 19.169 20.25 18.5967 20.25 18V7.5C20.25 6.90326 20.0129 6.33097 19.591 5.90901C19.169 5.48705 18.5967 5.25 18 5.25ZM5.25 7.5C5.25 7.30109 5.32902 7.11032 5.46967 6.96967C5.61032 6.82902 5.80109 6.75 6 6.75H7.5V7.5C7.5 7.69891 7.57902 7.88968 7.71967 8.03033C7.86032 8.17098 8.05109 8.25 8.25 8.25C8.44891 8.25 8.63968 8.17098 8.78033 8.03033C8.92098 7.88968 9 7.69891 9 7.5V6.75H11.25V7.5C11.25 7.69891 11.329 7.88968 11.4697 8.03033C11.6103 8.17098 11.8011 8.25 12 8.25C12.1989 8.25 12.3897 8.17098 12.5303 8.03033C12.671 7.88968 12.75 7.69891 12.75 7.5V6.75H15V7.5C15 7.69891 15.079 7.88968 15.2197 8.03033C15.3603 8.17098 15.5511 8.25 15.75 8.25C15.9489 8.25 16.1397 8.17098 16.2803 8.03033C16.421 7.88968 16.5 7.69891 16.5 7.5V6.75H18C18.1989 6.75 18.3897 6.82902 18.5303 6.96967C18.671 7.11032 18.75 7.30109 18.75 7.5V9.75H5.25V7.5ZM18.75 18C18.75 18.1989 18.671 18.3897 18.5303 18.5303C18.3897 18.671 18.1989 18.75 18 18.75H6C5.80109 18.75 5.61032 18.671 5.46967 18.5303C5.32902 18.3897 5.25 18.1989 5.25 18V11.25H18.75V18Z" fill="#FB7D5B"/>
</svg>
