<svg width="40" height="40" viewBox="0 0 40 40" fill="none" xmlns="http://www.w3.org/2000/svg">
<path d="M30 8.75H27.5V7.5C27.5 7.16848 27.3683 6.85054 27.1339 6.61612C26.8995 6.3817 26.5815 6.25 26.25 6.25C25.9185 6.25 25.6005 6.3817 25.3661 6.61612C25.1317 6.85054 25 7.16848 25 7.5V8.75H21.25V7.5C21.25 7.16848 21.1183 6.85054 20.8839 6.61612C20.6495 6.3817 20.3315 6.25 20 6.25C19.6685 6.25 19.3505 6.3817 19.1161 6.61612C18.8817 6.85054 18.75 7.16848 18.75 7.5V8.75H15V7.5C15 7.16848 14.8683 6.85054 14.6339 6.61612C14.3995 6.3817 14.0815 6.25 13.75 6.25C13.4185 6.25 13.1005 6.3817 12.8661 6.61612C12.6317 6.85054 12.5 7.16848 12.5 7.5V8.75H10C9.00544 8.75 8.05161 9.14509 7.34835 9.84835C6.64509 10.5516 6.25 11.5054 6.25 12.5V30C6.25 30.9946 6.64509 31.9484 7.34835 32.6517C8.05161 33.3549 9.00544 33.75 10 33.75H30C30.9946 33.75 31.9484 33.3549 32.6517 32.6517C33.3549 31.9484 33.75 30.9946 33.75 30V12.5C33.75 11.5054 33.3549 10.5516 32.6517 9.84835C31.9484 9.14509 30.9946 8.75 30 8.75ZM8.75 12.5C8.75 12.1685 8.8817 11.8505 9.11612 11.6161C9.35054 11.3817 9.66848 11.25 10 11.25H12.5V12.5C12.5 12.8315 12.6317 13.1495 12.8661 13.3839C13.1005 13.6183 13.4185 13.75 13.75 13.75C14.0815 13.75 14.3995 13.6183 14.6339 13.3839C14.8683 13.1495 15 12.8315 15 12.5V11.25H18.75V12.5C18.75 12.8315 18.8817 13.1495 19.1161 13.3839C19.3505 13.6183 19.6685 13.75 20 13.75C20.3315 13.75 20.6495 13.6183 20.8839 13.3839C21.1183 13.1495 21.25 12.8315 21.25 12.5V11.25H25V12.5C25 12.8315 25.1317 13.1495 25.3661 13.3839C25.6005 13.6183 25.9185 13.75 26.25 13.75C26.5815 13.75 26.8995 13.6183 27.1339 13.3839C27.3683 13.1495 27.5 12.8315 27.5 12.5V11.25H30C30.3315 11.25 30.6495 11.3817 30.8839 11.6161C31.1183 11.8505 31.25 12.1685 31.25 12.5V16.25H8.75V12.5ZM31.25 30C31.25 30.3315 31.1183 30.6495 30.8839 30.8839C30.6495 31.1183 30.3315 31.25 30 31.25H10C9.66848 31.25 9.35054 31.1183 9.11612 30.8839C8.8817 30.6495 8.75 30.3315 8.75 30V18.75H31.25V30Z" fill="#C1BBEB"/>
</svg>
