<svg width="38" height="34" viewBox="0 0 38 34" fill="none" xmlns="http://www.w3.org/2000/svg">
<path d="M32.3327 0.333008H15.666C14.3399 0.333008 13.0682 0.859792 12.1305 1.79747C11.1928 2.73516 10.666 4.00693 10.666 5.33301V8.66634H5.66602C4.33993 8.66634 3.06816 9.19313 2.13048 10.1308C1.1928 11.0685 0.666016 12.3403 0.666016 13.6663V23.6663C0.665474 24.7008 0.985775 25.7099 1.58278 26.5546C2.17978 27.3994 3.02409 28.0382 3.99935 28.383V31.9997C3.99986 32.295 4.07883 32.5849 4.22818 32.8397C4.37754 33.0944 4.59191 33.305 4.84935 33.4497C5.09844 33.5908 5.3797 33.6655 5.66602 33.6663C5.96515 33.6663 6.25876 33.5857 6.51602 33.433L14.466 28.6663H22.3327C23.6588 28.6663 24.9305 28.1396 25.8682 27.2019C26.8059 26.2642 27.3327 24.9924 27.3327 23.6663V22.6163L31.4827 25.0997C31.7399 25.2523 32.0335 25.3329 32.3327 25.333C32.619 25.3321 32.9003 25.2575 33.1493 25.1163C33.4068 24.9716 33.6212 24.7611 33.7705 24.5063C33.9199 24.2516 33.9988 23.9617 33.9993 23.6663V20.0497C34.9746 19.7049 35.8189 19.0661 36.4159 18.2213C37.0129 17.3766 37.3332 16.3674 37.3327 15.333V5.33301C37.3327 4.00693 36.8059 2.73516 35.8682 1.79747C34.9305 0.859792 33.6588 0.333008 32.3327 0.333008ZM23.9993 23.6663C23.9993 24.1084 23.8238 24.5323 23.5112 24.8449C23.1986 25.1574 22.7747 25.333 22.3327 25.333H13.9993C13.7002 25.3331 13.4066 25.4137 13.1493 25.5663L7.33268 29.0497V26.9997C7.33268 26.5576 7.15709 26.1337 6.84453 25.8212C6.53197 25.5086 6.10804 25.333 5.66602 25.333C5.22399 25.333 4.80007 25.1574 4.4875 24.8449C4.17494 24.5323 3.99935 24.1084 3.99935 23.6663V13.6663C3.99935 13.2243 4.17494 12.8004 4.4875 12.4878C4.80007 12.1753 5.22399 11.9997 5.66602 11.9997H10.666V15.333C10.666 16.6591 11.1928 17.9309 12.1305 18.8685C13.0682 19.8062 14.3399 20.333 15.666 20.333H23.5327L23.9993 20.6163V23.6663ZM33.9993 15.333C33.9993 15.775 33.8238 16.199 33.5112 16.5115C33.1986 16.8241 32.7747 16.9997 32.3327 16.9997C31.8907 16.9997 31.4667 17.1753 31.1542 17.4878C30.8416 17.8004 30.666 18.2243 30.666 18.6663V20.7163L24.8493 17.233C24.5921 17.0804 24.2985 16.9998 23.9993 16.9997H15.666C15.224 16.9997 14.8001 16.8241 14.4875 16.5115C14.1749 16.199 13.9993 15.775 13.9993 15.333V5.33301C13.9993 4.89098 14.1749 4.46706 14.4875 4.1545C14.8001 3.84194 15.224 3.66634 15.666 3.66634H32.3327C32.7747 3.66634 33.1986 3.84194 33.5112 4.1545C33.8238 4.46706 33.9993 4.89098 33.9993 5.33301V15.333Z" fill="#4D44B5"/>
</svg>
