<svg width="38" height="34" viewBox="0 0 38 34" fill="none" xmlns="http://www.w3.org/2000/svg">
<path d="M32.3327 0.333984H15.666C14.3399 0.333984 13.0682 0.860769 12.1305 1.79845C11.1928 2.73613 10.666 4.0079 10.666 5.33398V8.66732H5.66602C4.33993 8.66732 3.06816 9.1941 2.13048 10.1318C1.1928 11.0695 0.666016 12.3412 0.666016 13.6673V23.6673C0.665474 24.7017 0.985775 25.7109 1.58278 26.5556C2.17978 27.4004 3.02409 28.0392 3.99935 28.384V32.0007C3.99986 32.296 4.07883 32.5859 4.22818 32.8406C4.37754 33.0954 4.59191 33.3059 4.84935 33.4507C5.09844 33.5918 5.3797 33.6664 5.66602 33.6673C5.96515 33.6672 6.25876 33.5866 6.51602 33.434L14.466 28.6673H22.3327C23.6588 28.6673 24.9305 28.1405 25.8682 27.2029C26.8059 26.2652 27.3327 24.9934 27.3327 23.6673V22.6173L31.4827 25.1007C31.7399 25.2533 32.0335 25.3339 32.3327 25.334C32.619 25.3331 32.9003 25.2585 33.1493 25.1173C33.4068 24.9726 33.6212 24.7621 33.7705 24.5073C33.9199 24.2525 33.9988 23.9626 33.9993 23.6673V20.0507C34.9746 19.7058 35.8189 19.067 36.4159 18.2223C37.0129 17.3775 37.3332 16.3684 37.3327 15.334V5.33398C37.3327 4.0079 36.8059 2.73613 35.8682 1.79845C34.9305 0.860769 33.6588 0.333984 32.3327 0.333984ZM23.9993 23.6673C23.9993 24.1093 23.8238 24.5333 23.5112 24.8458C23.1986 25.1584 22.7747 25.334 22.3327 25.334H13.9993C13.7002 25.3341 13.4066 25.4147 13.1493 25.5673L7.33268 29.0507V27.0007C7.33268 26.5586 7.15709 26.1347 6.84453 25.8221C6.53197 25.5096 6.10804 25.334 5.66602 25.334C5.22399 25.334 4.80007 25.1584 4.4875 24.8458C4.17494 24.5333 3.99935 24.1093 3.99935 23.6673V13.6673C3.99935 13.2253 4.17494 12.8014 4.4875 12.4888C4.80007 12.1762 5.22399 12.0007 5.66602 12.0007H10.666V15.334C10.666 16.6601 11.1928 17.9318 12.1305 18.8695C13.0682 19.8072 14.3399 20.334 15.666 20.334H23.5327L23.9993 20.6173V23.6673ZM33.9993 15.334C33.9993 15.776 33.8238 16.1999 33.5112 16.5125C33.1986 16.8251 32.7747 17.0007 32.3327 17.0007C31.8907 17.0007 31.4667 17.1762 31.1542 17.4888C30.8416 17.8014 30.666 18.2253 30.666 18.6673V20.7173L24.8493 17.234C24.5921 17.0813 24.2985 17.0007 23.9993 17.0007H15.666C15.224 17.0007 14.8001 16.8251 14.4875 16.5125C14.1749 16.1999 13.9993 15.776 13.9993 15.334V5.33398C13.9993 4.89196 14.1749 4.46803 14.4875 4.15547C14.8001 3.84291 15.224 3.66732 15.666 3.66732H32.3327C32.7747 3.66732 33.1986 3.84291 33.5112 4.15547C33.8238 4.46803 33.9993 4.89196 33.9993 5.33398V15.334Z" fill="#C1BBEB"/>
</svg>
