<svg width="24" height="25" viewBox="0 0 24 25" fill="none" xmlns="http://www.w3.org/2000/svg">
<path d="M12.0099 17.3024C11.1599 17.3024 10.2999 17.0824 9.62995 16.6524L3.60995 12.7224C2.48995 11.9924 1.81995 10.7624 1.81995 9.4224C1.81995 8.0824 2.48995 6.8524 3.60995 6.1224L9.63995 2.2024C10.9799 1.3324 13.0699 1.3324 14.3999 2.2124L20.3899 6.1424C21.4999 6.8724 22.1699 8.1024 22.1699 9.4324C22.1699 10.7624 21.4999 11.9924 20.3899 12.7224L14.3999 16.6524C13.7299 17.0924 12.8699 17.3024 12.0099 17.3024ZM12.0099 3.0524C11.4399 3.0524 10.8699 3.1824 10.4599 3.4624L4.43995 7.3824C3.73995 7.8424 3.32995 8.5824 3.32995 9.4224C3.32995 10.2624 3.72995 11.0024 4.43995 11.4624L10.4599 15.3924C11.2899 15.9324 12.7499 15.9324 13.5799 15.3924L19.5699 11.4624C20.2699 11.0024 20.6699 10.2624 20.6699 9.4224C20.6699 8.5824 20.2699 7.8424 19.5699 7.3824L13.5799 3.4524C13.1599 3.1924 12.5899 3.0524 12.0099 3.0524Z" fill="white"/>
<path d="M12.0001 23.0523C11.5601 23.0523 11.1101 22.9923 10.7501 22.8723L7.56006 21.8123C6.05006 21.3123 4.86006 19.6623 4.87006 18.0723L4.88006 13.3823C4.88006 12.9723 5.22006 12.6323 5.63006 12.6323C6.04006 12.6323 6.38006 12.9723 6.38006 13.3823L6.37006 18.0723C6.37006 19.0123 7.15006 20.0923 8.04006 20.3923L11.2301 21.4523C11.6301 21.5823 12.3701 21.5823 12.7701 21.4523L15.9601 20.3923C16.8501 20.0923 17.6301 19.0123 17.6301 18.0823V13.4423C17.6301 13.0323 17.9701 12.6923 18.3801 12.6923C18.7901 12.6923 19.1301 13.0323 19.1301 13.4423V18.0823C19.1301 19.6723 17.9501 21.3123 16.4401 21.8223L13.2501 22.8823C12.8901 22.9923 12.4401 23.0523 12.0001 23.0523Z" fill="white"/>
<path d="M21.4 16.0524C20.99 16.0524 20.65 15.7124 20.65 15.3024V9.30237C20.65 8.89237 20.99 8.55237 21.4 8.55237C21.81 8.55237 22.15 8.89237 22.15 9.30237V15.3024C22.15 15.7124 21.81 16.0524 21.4 16.0524Z" fill="white"/>
</svg>
