<svg width="40" height="40" viewBox="0 0 40 40" fill="none" xmlns="http://www.w3.org/2000/svg">
<path d="M20.0167 28.3334C18.6 28.3334 17.1667 27.9667 16.05 27.2501L6.01666 20.7001C4.14999 19.4834 3.03333 17.4334 3.03333 15.2001C3.03333 12.9667 4.14999 10.9167 6.01666 9.70006L16.0667 3.16672C18.3 1.71672 21.7833 1.71672 24 3.18339L33.9833 9.73339C35.8333 10.9501 36.95 13.0001 36.95 15.2167C36.95 17.4334 35.8333 19.4834 33.9833 20.7001L24 27.2501C22.8833 27.9834 21.45 28.3334 20.0167 28.3334ZM20.0167 4.58339C19.0667 4.58339 18.1167 4.80006 17.4333 5.26672L7.39999 11.8001C6.23332 12.5667 5.54999 13.8001 5.54999 15.2001C5.54999 16.6001 6.21666 17.8334 7.39999 18.6001L17.4333 25.1501C18.8167 26.0501 21.25 26.0501 22.6333 25.1501L32.6167 18.6001C33.7833 17.8334 34.45 16.6001 34.45 15.2001C34.45 13.8001 33.7833 12.5667 32.6167 11.8001L22.6333 5.25006C21.9333 4.81672 20.9833 4.58339 20.0167 4.58339Z" fill="#C1BBEB"/>
<path d="M20 37.9167C19.2667 37.9167 18.5167 37.8167 17.9167 37.6167L12.6 35.85C10.0833 35.0167 8.10001 32.2667 8.11668 29.6167L8.13335 21.8C8.13335 21.1167 8.70002 20.55 9.38335 20.55C10.0667 20.55 10.6333 21.1167 10.6333 21.8L10.6167 29.6167C10.6167 31.1834 11.9167 32.9834 13.4 33.4834L18.7167 35.25C19.3833 35.4667 20.6167 35.4667 21.2834 35.25L26.6 33.4834C28.0834 32.9834 29.3834 31.1834 29.3834 29.6334V21.9C29.3834 21.2167 29.95 20.65 30.6334 20.65C31.3167 20.65 31.8834 21.2167 31.8834 21.9V29.6334C31.8834 32.2834 29.9167 35.0167 27.4 35.8667L22.0834 37.6334C21.4834 37.8167 20.7333 37.9167 20 37.9167Z" fill="#C1BBEB"/>
<path d="M35.6667 26.25C34.9834 26.25 34.4167 25.6833 34.4167 25V15C34.4167 14.3167 34.9834 13.75 35.6667 13.75C36.35 13.75 36.9167 14.3167 36.9167 15V25C36.9167 25.6833 36.35 26.25 35.6667 26.25Z" fill="#C1BBEB"/>
</svg>
