<svg width="26" height="20" viewBox="0 0 26 20" fill="none" xmlns="http://www.w3.org/2000/svg">
<g clip-path="url(#clip0_33_59)">
<path fill-rule="evenodd" clip-rule="evenodd" d="M9.63969 19.2969H5.08856C4.06157 19.2969 3.22919 18.4645 3.22919 17.4375V12.274C3.22919 11.3753 3.87191 10.6055 4.75573 10.445C6.06597 10.2064 8.32511 9.79547 9.60312 9.56366C10.3066 9.43537 11.0268 9.43537 11.7303 9.56366C13.0083 9.79547 15.2674 10.2064 16.5776 10.445C17.4615 10.6055 18.1042 11.3753 18.1042 12.274C18.1042 13.6258 18.1042 15.9909 18.1042 17.4375C18.1042 18.4645 17.2718 19.2969 16.2448 19.2969H9.63969ZM15.5184 11.5123L15.5209 11.5154C15.6294 11.6778 15.6548 11.8817 15.5897 12.0658L15.1521 13.3053C15.0951 13.4671 14.973 13.5985 14.8156 13.6673L13.9925 14.0262L14.3197 14.6813C14.4115 14.8641 14.4065 15.0804 14.3073 15.2595L12.7529 18.0573H16.2448C16.5869 18.0573 16.8646 17.7796 16.8646 17.4375C16.8646 15.9909 16.8646 13.6258 16.8646 12.274C16.8646 11.9747 16.6502 11.7181 16.3558 11.6641L15.5184 11.5123ZM13.8233 11.2036L11.5084 10.7828C10.9518 10.6818 10.3816 10.6818 9.82501 10.7828L7.51009 11.2036L7.01549 11.9455L7.26031 12.6385L8.43544 13.1504C8.591 13.2186 8.71186 13.3475 8.77012 13.5074C8.82839 13.6673 8.81785 13.8439 8.74161 13.9958L8.26809 14.9428L9.99855 18.0573H11.3348L13.0653 14.9428L12.5918 13.9958C12.5155 13.8439 12.505 13.6673 12.5632 13.5074C12.6215 13.3475 12.7424 13.2186 12.8979 13.1504L14.0731 12.6385L14.3179 11.9455L13.8233 11.2036ZM5.81496 11.5123L4.97762 11.6641C4.68322 11.7181 4.46877 11.9747 4.46877 12.274V17.4375C4.46877 17.7796 4.74644 18.0573 5.08856 18.0573H8.58047L7.02603 15.2595C6.92686 15.0804 6.92191 14.8641 7.01364 14.6813L7.34089 14.0262L6.5178 13.6673C6.36037 13.5985 6.23828 13.4671 6.18125 13.3053L5.74368 12.0658C5.6786 11.8817 5.70401 11.6778 5.81248 11.5154L5.81496 11.5123ZM15.0052 14.9583V16.1979C15.0052 16.54 15.2829 16.8177 15.625 16.8177C15.9671 16.8177 16.2448 16.54 16.2448 16.1979V14.9583C16.2448 14.6162 15.9671 14.3385 15.625 14.3385C15.2829 14.3385 15.0052 14.6162 15.0052 14.9583ZM10.6667 0.703125C8.44349 0.703125 6.63804 2.50858 6.63804 4.73177C6.63804 6.95496 8.44349 8.76042 10.6667 8.76042C12.8899 8.76042 14.6953 6.95496 14.6953 4.73177C14.6953 2.50858 12.8899 0.703125 10.6667 0.703125ZM10.6667 1.94271C12.2062 1.94271 13.4557 3.19221 13.4557 4.73177C13.4557 6.27133 12.2062 7.52083 10.6667 7.52083C9.12712 7.52083 7.87762 6.27133 7.87762 4.73177C7.87762 3.19221 9.12712 1.94271 10.6667 1.94271Z" fill="white"/>
</g>
<path d="M19.6208 7.66666H24.3458C24.7822 7.66666 25.1333 8.03238 25.1333 8.48697C25.1333 8.94156 24.7822 9.30728 24.3458 9.30728H19.6208C19.1844 9.30728 18.8333 8.94156 18.8333 8.48697C18.8333 8.03238 19.1844 7.66666 19.6208 7.66666Z" fill="white"/>
<defs>
<clipPath id="clip0_33_59">
<rect width="19.8333" height="19.8333" fill="white" transform="translate(0.75 0.0833282)"/>
</clipPath>
</defs>
</svg>
