<svg width="34" height="34" viewBox="0 0 34 34" fill="none" xmlns="http://www.w3.org/2000/svg">
<path d="M26.9508 4.23067H21.0559C20.4636 2.59477 18.9124 1.41016 17.079 1.41016C15.2457 1.41016 13.6944 2.59477 13.1021 4.23067H7.20723C5.65595 4.23067 4.38672 5.4999 4.38672 7.05118V26.7948C4.38672 28.3461 5.65595 29.6153 7.20723 29.6153H26.9508C28.5021 29.6153 29.7713 28.3461 29.7713 26.7948V7.05118C29.7713 5.4999 28.5021 4.23067 26.9508 4.23067ZM16.3034 4.23067C16.5008 4.01913 16.7688 3.8781 17.079 3.8781C17.3893 3.8781 17.6572 4.01913 17.8547 4.23067C18.0239 4.414 18.1367 4.66785 18.1367 4.9358C18.1367 5.514 17.6572 5.99349 17.079 5.99349C16.5008 5.99349 16.0213 5.514 16.0213 4.9358C16.0213 4.66785 16.1342 4.414 16.3034 4.23067ZM26.9508 7.05118V22.2678C23.4534 20.2653 18.8136 19.7435 17.079 19.7435C15.3444 19.7435 10.7047 20.2653 7.20723 22.2678V7.05118H26.9508ZM7.20723 26.7948V25.7089C9.66108 23.4948 14.7098 22.564 17.079 22.564C19.4483 22.564 24.497 23.4948 26.9508 25.7089V26.7948H7.20723Z" fill="white"/>
<path d="M17.0785 18.3327C19.8144 18.3327 22.0144 16.1327 22.0144 13.3968C22.0144 10.6609 19.8144 8.46094 17.0785 8.46094C14.3426 8.46094 12.1426 10.6609 12.1426 13.3968C12.1426 16.1327 14.3426 18.3327 17.0785 18.3327ZM17.0785 11.2815C18.249 11.2815 19.1939 12.2263 19.1939 13.3968C19.1939 14.5673 18.249 15.5122 17.0785 15.5122C15.908 15.5122 14.9631 14.5673 14.9631 13.3968C14.9631 12.2263 15.908 11.2815 17.0785 11.2815Z" fill="white"/>
</svg>
