<svg width="24" height="6" viewBox="0 0 24 6" fill="none" xmlns="http://www.w3.org/2000/svg">
<path d="M12.0021 0.359985C11.6553 0.359985 11.3118 0.428302 10.9914 0.561035C10.6709 0.693767 10.3798 0.888317 10.1345 1.13358C9.88927 1.37883 9.69472 1.67 9.56199 1.99044C9.42925 2.31089 9.36094 2.65434 9.36094 3.00119C9.36094 3.34803 9.42925 3.69148 9.56199 4.01193C9.69472 4.33237 9.88927 4.62354 10.1345 4.8688C10.3798 5.11405 10.6709 5.3086 10.9914 5.44134C11.3118 5.57407 11.6553 5.64239 12.0021 5.64239C12.7026 5.64223 13.3744 5.36381 13.8696 4.86837C14.3648 4.37294 14.6429 3.70108 14.6427 3.00059C14.6426 2.3001 14.3642 1.62836 13.8687 1.13315C13.3733 0.637942 12.7014 0.359826 12.0009 0.359985H12.0021ZM3.60214 0.359985C3.25529 0.359985 2.91184 0.428302 2.59139 0.561035C2.27095 0.693767 1.97979 0.888317 1.73453 1.13358C1.48927 1.37883 1.29472 1.67 1.16199 1.99044C1.02925 2.31089 0.960938 2.65434 0.960938 3.00119C0.960938 3.34803 1.02925 3.69148 1.16199 4.01193C1.29472 4.33237 1.48927 4.62354 1.73453 4.8688C1.97979 5.11405 2.27095 5.3086 2.59139 5.44134C2.91184 5.57407 3.25529 5.64239 3.60214 5.64239C4.30263 5.64223 4.97436 5.36381 5.46957 4.86837C5.96478 4.37294 6.2429 3.70108 6.24274 3.00059C6.24258 2.3001 5.96416 1.62836 5.46872 1.13315C4.97329 0.637942 4.30143 0.359826 3.60094 0.359985H3.60214ZM20.4021 0.359985C20.0553 0.359985 19.7118 0.428302 19.3914 0.561035C19.0709 0.693767 18.7798 0.888317 18.5345 1.13358C18.2893 1.37883 18.0947 1.67 17.962 1.99044C17.8293 2.31089 17.7609 2.65434 17.7609 3.00119C17.7609 3.34803 17.8293 3.69148 17.962 4.01193C18.0947 4.33237 18.2893 4.62354 18.5345 4.8688C18.7798 5.11405 19.0709 5.3086 19.3914 5.44134C19.7118 5.57407 20.0553 5.64239 20.4021 5.64239C21.1026 5.64223 21.7744 5.36381 22.2696 4.86837C22.7648 4.37294 23.0429 3.70108 23.0427 3.00059C23.0426 2.3001 22.7642 1.62836 22.2687 1.13315C21.7733 0.637942 21.1014 0.359826 20.4009 0.359985H20.4021Z" fill="#A098AE"/>
</svg>
