<svg width="20" height="22" viewBox="0 0 20 22" fill="none" xmlns="http://www.w3.org/2000/svg">
<path d="M14.1329 1.26904L12.2581 3.2542L17.2939 8.58623L19.1688 6.60107C20.1372 5.57568 20.1372 3.91455 19.1688 2.88916L17.6425 1.26904C16.6741 0.243652 15.1052 0.243652 14.1368 1.26904H14.1329ZM11.3826 4.18115L2.35303 13.746C1.95017 14.1726 1.65577 14.7017 1.49307 15.28L0.121781 20.2142C0.024939 20.5628 0.114034 20.936 0.354203 21.1903C0.594373 21.4446 0.946879 21.539 1.27227 21.4405L5.93233 19.9886C6.47852 19.8163 6.97823 19.5046 7.38109 19.078L16.4184 9.51318L11.3826 4.18115Z" fill='white'/>
</svg>
