<svg width="22" height="16" viewBox="0 0 22 16" fill="none" xmlns="http://www.w3.org/2000/svg">
<path d="M19 0H3C2.20435 0 1.44129 0.316071 0.87868 0.87868C0.31607 1.44129 0 2.20435 0 3V13C0 13.7956 0.31607 14.5587 0.87868 15.1213C1.44129 15.6839 2.20435 16 3 16H19C19.7956 16 20.5587 15.6839 21.1213 15.1213C21.6839 14.5587 22 13.7956 22 13V3C22 2.20435 21.6839 1.44129 21.1213 0.87868C20.5587 0.316071 19.7956 0 19 0ZM20 12.75L15.1 8.35L20 4.92V12.75ZM2 4.92L6.9 8.35L2 12.75V4.92ZM8.58 9.53L10.43 10.82C10.5974 10.9361 10.7963 10.9984 11 10.9984C11.2037 10.9984 11.4026 10.9361 11.57 10.82L13.42 9.53L18.42 14H3.6L8.58 9.53ZM3 2H19C19.1857 2.00149 19.3674 2.05467 19.5245 2.15358C19.6817 2.25249 19.8083 2.39322 19.89 2.56L11 8.78L2.11 2.56C2.19171 2.39322 2.31826 2.25249 2.47545 2.15358C2.63265 2.05467 2.81428 2.00149 3 2Z" fill="white"/>
</svg>
