<svg width="32" height="32" viewBox="0 0 32 32" fill="none" xmlns="http://www.w3.org/2000/svg">
<path d="M12.263 2.66663L11.4166 6.46611C10.9353 6.69774 10.4751 6.96454 10.0338 7.26558L6.32029 6.09631L2.58331 12.5703L5.39842 15.1484C5.28843 15.9648 5.33825 16.3672 5.39842 16.8515L2.58331 19.4296L6.32029 25.9036L10.0338 24.7343C10.4751 25.0354 10.9353 25.3022 11.4166 25.5338L12.263 29.3333H19.737L20.5833 25.5338C21.0647 25.3022 21.5248 25.0354 21.9661 24.7343L25.6797 25.9036L29.4166 19.4296L26.6015 16.8515C26.6245 16.5681 26.6664 16.2845 26.6666 16C26.6677 15.7068 26.6215 15.4107 26.6015 15.1484L29.4166 12.5703L25.6797 6.09631L21.9661 7.26558C21.5248 6.96454 21.0647 6.69774 20.5833 6.46611L19.737 2.66663H12.263ZM14.4036 5.33329H17.5963L18.2552 8.29163L18.9166 8.55204C19.6649 8.84507 20.3643 9.24841 20.9922 9.74996L21.5495 10.1927L24.4401 9.28381L26.0364 12.0494L23.8021 14.0989L23.9088 14.802C24.0345 15.5796 24.0101 16.4745 23.9088 17.1979L23.8021 17.901L26.0364 19.9505L24.4401 22.7161L21.5495 21.8073L20.9922 22.25C20.3643 22.7515 19.6649 23.1548 18.9166 23.4479L18.2552 23.7083L17.5963 26.6666H14.4036L13.7448 23.7083L13.0833 23.4479C12.3351 23.1548 11.6356 22.7515 11.0078 22.25L10.4505 21.8073L7.55988 22.7161L5.96352 19.9505L8.1979 17.901L8.09113 17.1979C7.96089 16.4046 7.98089 15.4967 8.09113 14.802L8.1979 14.0989L5.96352 12.0494L7.55988 9.28381L10.4505 10.1927L11.0078 9.74996C11.6356 9.24841 12.3351 8.84507 13.0833 8.55204L13.7448 8.29163L14.4036 5.33329ZM16 10.6666C13.0703 10.6666 10.6666 13.0702 10.6666 16C10.6666 18.9297 13.0703 21.3333 16 21.3333C18.9297 21.3333 21.3333 18.9297 21.3333 16C21.3333 13.0702 18.9297 10.6666 16 10.6666ZM16 13.3333C17.4885 13.3333 18.6666 14.5114 18.6666 16C18.6666 17.4885 17.4885 18.6666 16 18.6666C14.5114 18.6666 13.3333 17.4885 13.3333 16C13.3333 14.5114 14.5114 13.3333 16 13.3333Z" fill="#A098AE"/>
</svg>
