<svg width="364" height="364" viewBox="0 0 364 364" fill="none" xmlns="http://www.w3.org/2000/svg">
<path d="M78.624 41.8665C72.8922 43.7593 67.1265 45.6012 61.3267 47.3921C55.6872 44.1549 50.0913 40.8692 44.5391 37.5349L47.6185 16.1973C58.7278 17.7989 69.854 19.2112 80.9973 20.4342C80.2208 27.5832 79.4297 34.7273 78.624 41.8665Z" fill="#FCC43E" stroke="#263238" stroke-miterlimit="10"/>
<path d="M120.849 45.5949C115.209 47.7303 109.531 49.8148 103.814 51.8484C98.0236 48.8296 92.2967 45.7817 86.6328 42.7047L88.8168 21.2578C99.9795 22.3935 111.142 23.3375 122.305 24.0897C121.819 31.2581 121.334 38.4265 120.849 45.5949Z" stroke="#263238" stroke-miterlimit="10"/>
<path d="M163.074 47.5524C157.536 49.9208 151.955 52.2407 146.33 54.5121C140.433 51.7602 134.585 48.9574 128.785 46.1037C129.207 38.9256 129.632 31.7524 130.059 24.584C141.222 25.244 152.409 25.7172 163.62 26.0036L163.074 47.5524Z" fill="#FCC43E" stroke="#263238" stroke-miterlimit="10"/>
<path d="M205.415 47.7274C199.998 50.324 194.519 52.8768 188.976 55.386C182.973 52.8817 177.008 50.3264 171.082 47.7201L171.453 26.1641C182.645 26.363 193.839 26.363 205.036 26.1641C205.162 33.3567 205.288 40.5445 205.415 47.7274Z" stroke="#263238" stroke-miterlimit="10"/>
<path d="M247.698 46.1198C242.359 48.9445 236.989 51.7278 231.587 54.47C225.486 52.2229 219.42 49.92 213.387 47.5613C213.212 40.3783 213.035 33.1954 212.855 26.0125C224.047 25.7358 235.234 25.2675 246.416 24.6074L247.698 46.1198Z" fill="#FCC43E" stroke="#263238" stroke-miterlimit="10"/>
<path d="M289.898 42.7418C284.695 45.7945 279.444 48.8012 274.144 51.7617C267.951 49.7719 261.795 47.7237 255.675 45.6174L254.219 24.1123C265.381 23.3649 276.544 22.4257 287.707 21.2949C288.444 28.4536 289.175 35.6025 289.898 42.7418Z" stroke="#263238" stroke-miterlimit="10"/>
<path d="M331.97 37.5804C326.889 40.8515 321.761 44.0766 316.587 47.2555C310.307 45.5326 304.063 43.749 297.856 41.9047C297.074 34.7606 296.293 27.6189 295.512 20.4797C306.674 19.2566 317.803 17.8467 328.898 16.25C329.927 23.3747 330.951 30.4848 331.97 37.5804Z" fill="#FCC43E" stroke="#263238" stroke-miterlimit="10"/>
<path d="M34.3047 14.1816C136.418 30.3578 240.441 30.3578 342.554 14.1816" stroke="#263238" stroke-miterlimit="10"/>
<path d="M299.934 66.248H58.2383V207.48H299.934V66.248Z" fill="white" stroke="#263238" stroke-miterlimit="10"/>
<path d="M201.881 97.8871V93.6574C201.881 92.6746 201.801 91.2405 201.641 89.3404C201.481 87.4403 201.393 86.1663 201.393 85.5111C201.393 84.8559 201.393 84.0551 201.459 83.1597C201.524 82.2642 201.524 81.5726 201.524 81.114C201.432 81.4052 201.061 82.9316 200.411 85.6931C198.731 92.8226 197.53 96.3874 196.807 96.3874C196.621 96.3966 196.435 96.3671 196.261 96.3007C196.086 96.2343 195.928 96.1324 195.795 96.0016C195.542 95.7157 195.411 95.3419 195.431 94.9605C195.23 92.7759 194.818 90.6158 194.201 88.5105C193.371 85.249 192.679 82.752 192.104 81.0193C191.687 88.7847 191.478 94.0408 191.478 96.7878L191.522 97.7779C191.541 98.0674 191.461 98.3549 191.296 98.5933C191.207 98.6957 191.094 98.7751 190.967 98.8245C190.84 98.8739 190.703 98.892 190.568 98.8772C190.284 98.8901 190.004 98.8053 189.774 98.6369C189.683 98.5761 189.607 98.494 189.554 98.3977C189.501 98.3014 189.471 98.1937 189.469 98.0837C189.469 95.8317 189.639 92.4586 189.978 87.9645C190.318 83.4703 190.488 80.0996 190.488 77.8525C190.356 77.6488 190.288 77.4107 190.291 77.1682C190.291 77.0429 190.329 76.9205 190.401 76.8176C190.473 76.7147 190.574 76.6364 190.692 76.5931C190.964 76.4615 191.263 76.3942 191.565 76.3965C192.051 76.3965 192.987 78.6145 194.375 83.0505C195.764 87.4864 196.627 90.5537 196.967 92.2524C197.062 91.9248 197.266 91.1094 197.571 89.799C197.877 88.4886 198.205 87.1345 198.547 85.7222C198.889 84.3099 199.275 82.8685 199.675 81.427C200.607 78.1073 201.393 76.4475 202.034 76.4475C202.328 76.4481 202.615 76.5314 202.864 76.6877C202.984 76.7513 203.083 76.847 203.151 76.9641C203.219 77.0811 203.253 77.2148 203.25 77.3502C203.25 78.9445 203.315 81.3251 203.461 84.4919C203.607 87.6587 203.672 89.9592 203.672 91.3933L203.585 94.8805C203.585 95.128 203.65 95.9142 203.781 97.2392L203.847 97.8798C203.94 98.1115 203.989 98.3583 203.992 98.6078C203.978 98.9137 203.871 99.208 203.687 99.4523C203.603 99.5919 203.485 99.7071 203.343 99.7864C203.201 99.8656 203.041 99.9061 202.878 99.9037C202.223 99.9546 201.881 99.2703 201.881 97.8871Z" fill="#FCC43E"/>
<path d="M213.3 91.5095L213.657 93.5407C213.714 94.2049 213.819 94.8642 213.97 95.5135C214.128 96.1886 214.233 96.875 214.283 97.5665C214.309 97.7614 214.269 97.9593 214.171 98.1293C214.072 98.2992 213.919 98.4316 213.737 98.5056C213.362 98.5249 212.989 98.4472 212.653 98.28C212.516 98.1821 212.408 98.0495 212.34 97.8959C212.272 97.7422 212.247 97.5732 212.267 97.4064C212.219 96.0337 212.056 94.6675 211.779 93.3223L208.518 92.8345C208.3 93.6245 208.145 94.4302 208.052 95.2442C207.982 95.8852 207.878 96.5219 207.739 97.1515C207.549 97.9669 207.185 98.3746 206.661 98.3746C206.397 98.3775 206.141 98.2901 205.933 98.1271C205.831 98.0549 205.747 97.9589 205.69 97.8473C205.633 97.7356 205.604 97.6118 205.606 97.4864L205.686 97.1952C207.124 91.6853 208.231 86.0939 208.998 80.4512C208.998 80.3056 209.049 79.8616 209.093 79.1263C209.202 77.5101 209.406 76.4836 209.704 76.0395H210.818C211.097 76.0323 211.373 76.1056 211.612 76.2507C211.719 76.3175 211.806 76.4111 211.866 76.5221C211.926 76.6331 211.956 76.7579 211.954 76.884C212.021 79.3902 212.245 81.8896 212.623 84.3679C212.989 86.7332 213.215 89.1178 213.3 91.5095ZM211.568 92.1647C211.492 91.6076 211.46 91.0453 211.473 90.4831C211.473 89.675 211.43 88.6776 211.335 87.491C211.24 86.3044 211.117 84.9139 210.942 83.3414C210.767 81.7689 210.651 80.6187 210.585 79.9052C209.585 85.4526 208.94 89.362 208.649 91.6333C209.577 92.0004 210.569 92.1809 211.568 92.1647Z" fill="#FCC43E"/>
<path d="M218.31 97.6969L218.244 95.1562C218.244 95.1562 218.244 94.7703 218.295 94.0278C218.208 93.7463 218.033 91.2565 217.771 86.5585C217.509 81.8605 217.366 78.9897 217.341 77.9462H217.21C215.419 77.9462 214.531 77.5895 214.531 76.9634C214.537 76.8547 214.573 76.7497 214.635 76.6599C214.697 76.5701 214.782 76.4988 214.881 76.4538C215.101 76.323 215.352 76.2527 215.609 76.25L220.1 76.5558H220.632C221.36 76.5558 221.666 76.8251 221.666 77.3493C221.668 77.4776 221.639 77.6046 221.58 77.7189C221.522 77.8332 221.436 77.9313 221.331 78.0045C221.11 78.1682 220.841 78.2552 220.566 78.252L219.052 78.0263L218.987 78.3685C218.987 80.4603 219.169 83.5882 219.533 87.7524C219.897 91.9166 220.081 95.0518 220.086 97.1582C220.082 97.2918 220.048 97.4229 219.986 97.5415C219.925 97.66 219.837 97.763 219.729 97.8425C219.515 98.0347 219.238 98.141 218.95 98.141L218.31 97.6969Z" fill="#FCC43E"/>
<path d="M225.213 78.303L225.082 86.5585C225.677 86.6889 226.285 86.7451 226.894 86.726H228.088C228.165 86.3748 228.192 86.0145 228.168 85.6558C228.168 85.0443 228.096 83.6902 227.95 81.6081C227.804 79.526 227.732 77.9681 227.732 76.898C227.729 76.7794 227.754 76.6619 227.805 76.5545C227.855 76.4472 227.93 76.353 228.023 76.2792C228.169 76.1327 228.362 76.0425 228.569 76.0244C228.711 76.0191 228.854 76.0363 228.991 76.0753C229.113 76.1096 229.232 76.1534 229.348 76.2064L229.653 76.3156C229.653 79.1839 229.758 83.3723 229.966 88.8808C230.175 94.3894 230.282 97.2359 230.287 97.4203C230.274 97.5308 230.235 97.6369 230.175 97.7302C230.114 97.8236 230.033 97.9019 229.937 97.959C229.717 98.1362 229.441 98.2314 229.158 98.2283C228.874 98.2283 228.649 98.0172 228.474 97.595C228.263 96.9953 228.145 96.3668 228.125 95.7313C228.066 94.9087 228.03 94.1952 228.008 93.591C228.008 93.3289 228.008 93.0377 228.008 92.7028C228.008 92.2515 228.008 91.7346 228.008 91.1522C228.008 90.1257 228.008 89.536 228.008 89.3759V89.2448L228.059 88.2912L227.863 87.9854C227.667 88.0308 227.466 88.0527 227.266 88.0509L225.133 87.7452V91.5453L225.329 96.9835C225.334 97.2802 225.25 97.5715 225.089 97.8207C225.011 97.9409 224.903 98.038 224.775 98.1021C224.647 98.1661 224.504 98.1946 224.361 98.1847C223.924 98.1847 223.633 97.7843 223.451 96.9762C223.258 95.8928 223.173 94.7931 223.196 93.6929L223.298 88.6479C223.315 88.0723 223.298 87.4961 223.247 86.9225V86.7624C223.334 85.6073 223.378 84.9593 223.378 84.8186L223.152 77.3566C223.15 77.1 223.246 76.8523 223.422 76.665C223.505 76.5717 223.607 76.4969 223.721 76.4455C223.835 76.3941 223.959 76.3672 224.084 76.3665C224.863 76.3301 225.213 76.9926 225.213 78.303Z" fill="#FCC43E"/>
<path d="M239.24 105.501H185.994C185.801 105.501 185.615 105.424 185.479 105.288C185.342 105.151 185.266 104.966 185.266 104.773C185.266 104.58 185.342 104.395 185.479 104.258C185.615 104.122 185.801 104.045 185.994 104.045H239.24C239.433 104.045 239.618 104.122 239.754 104.258C239.891 104.395 239.968 104.58 239.968 104.773C239.968 104.966 239.891 105.151 239.754 105.288C239.618 105.424 239.433 105.501 239.24 105.501Z" fill="#FCC43E"/>
<path d="M185.994 103.034C185.801 103.034 185.615 102.957 185.479 102.82C185.342 102.684 185.266 102.499 185.266 102.306C185.266 102.113 185.342 101.927 185.479 101.791C185.615 101.654 185.801 101.578 185.994 101.578L234.311 101.09C234.504 101.09 234.689 101.167 234.826 101.303C234.962 101.44 235.039 101.625 235.039 101.818C235.039 102.011 234.962 102.196 234.826 102.333C234.689 102.469 234.504 102.546 234.311 102.546L186.001 103.034H185.994Z" fill="#FCC43E"/>
<path d="M181.553 87.7524C181.433 87.7518 181.316 87.7218 181.21 87.6651L174.804 84.2144C174.634 84.1226 174.508 83.9672 174.452 83.7822C174.397 83.5972 174.418 83.3978 174.509 83.2279C174.601 83.058 174.756 82.9315 174.941 82.8762C175.126 82.8209 175.326 82.8414 175.496 82.9331L181.902 86.3838C182.045 86.4609 182.158 86.5836 182.223 86.7323C182.288 86.881 182.302 87.0472 182.262 87.2045C182.222 87.3619 182.13 87.5012 182.001 87.6005C181.873 87.6998 181.715 87.7533 181.553 87.7524Z" fill="#FCC43E"/>
<path d="M184.024 83.3195C183.892 83.3172 183.764 83.2795 183.653 83.2103L178.724 80.2546C178.628 80.2149 178.541 80.1551 178.47 80.0791C178.399 80.0032 178.345 79.9128 178.312 79.8142C178.278 79.7156 178.267 79.611 178.277 79.5074C178.288 79.4039 178.32 79.3038 178.373 79.214C178.426 79.1242 178.497 79.0466 178.582 78.9866C178.667 78.9267 178.764 78.8856 178.866 78.8662C178.968 78.8469 179.073 78.8496 179.175 78.8744C179.276 78.8991 179.37 78.9453 179.452 79.0097L184.388 81.9654C184.553 82.0651 184.671 82.226 184.718 82.4129C184.764 82.5999 184.734 82.7976 184.635 82.9627C184.572 83.0693 184.483 83.158 184.376 83.2204C184.269 83.2829 184.148 83.3169 184.024 83.3195Z" fill="#FCC43E"/>
<path d="M236.277 85.2858C236.141 85.2855 236.008 85.2471 235.893 85.1752C235.778 85.1032 235.685 85.0004 235.625 84.8785C235.565 84.7565 235.541 84.6203 235.554 84.4851C235.568 84.35 235.619 84.2213 235.702 84.1137L240.63 77.7073C240.748 77.5538 240.922 77.4534 241.114 77.4281C241.306 77.4029 241.5 77.4548 241.653 77.5726C241.807 77.6904 241.907 77.8643 241.933 78.0561C241.958 78.248 241.906 78.442 241.788 78.5955L236.859 85.0019C236.791 85.0909 236.703 85.1629 236.602 85.2122C236.501 85.2614 236.389 85.2866 236.277 85.2858Z" fill="#FCC43E"/>
<path d="M237.268 90.7089C237.172 90.7094 237.077 90.691 236.988 90.6548C236.899 90.6186 236.819 90.5652 236.751 90.4977C236.615 90.3613 236.539 90.1768 236.539 89.9845C236.539 89.7922 236.615 89.6077 236.751 89.4713L244.147 82.0748C244.212 81.9986 244.293 81.9367 244.383 81.893C244.473 81.8493 244.572 81.8247 244.672 81.8209C244.772 81.817 244.872 81.8339 244.966 81.8705C245.059 81.9071 245.144 81.9626 245.215 82.0335C245.286 82.1045 245.341 82.1893 245.378 82.2828C245.415 82.3762 245.431 82.4761 245.428 82.5764C245.424 82.6767 245.399 82.775 245.356 82.8654C245.312 82.9557 245.25 83.036 245.174 83.1013L237.777 90.4977C237.642 90.6322 237.459 90.7081 237.268 90.7089Z" fill="#FCC43E"/>
<path d="M299.934 201.736H58.2383V207.48H299.934V201.736Z" fill="#263238" stroke="#263238" stroke-miterlimit="10"/>
<path d="M187.823 132.06L188.245 120.463C188.245 120.325 188.283 120.189 188.353 120.07C188.424 119.951 188.524 119.853 188.645 119.786C188.878 119.629 189.151 119.54 189.431 119.531L190.159 120.259V122.247C190.159 126.551 190.128 129.762 190.065 131.878L191.383 131.776C192.293 131.776 192.744 132.075 192.744 132.664C192.744 133.254 192.14 133.676 190.917 133.676C190.429 133.676 190.189 133.8 190.189 134.04C190.189 134.972 190.225 136.224 190.312 137.884C190.303 138.865 190.418 139.844 190.655 140.796C190.599 141.091 190.57 141.391 190.567 141.691C190.556 141.95 190.628 142.204 190.771 142.419V143.147C190.771 144.188 190.414 144.705 189.694 144.705C189.473 144.707 189.256 144.647 189.067 144.533C188.878 144.418 188.724 144.254 188.623 144.057C188.38 143.661 188.249 143.205 188.245 142.74V142.601C188.406 142.118 188.49 141.612 188.492 141.102L188.157 137.076L188.201 135.278C188.204 134.851 188.175 134.426 188.114 134.004L185.609 134.222C184.96 134.19 184.336 133.956 183.826 133.552C183.814 133.014 183.883 132.476 184.03 131.958C183.881 131.181 183.813 130.39 183.826 129.599C183.864 128.182 183.981 126.767 184.175 125.362C184.363 123.972 184.477 122.572 184.517 121.169V113.525C184.501 113.309 184.558 113.094 184.678 112.914C184.78 112.783 185.012 112.717 185.369 112.717C185.709 112.711 186.042 112.811 186.323 113.001C186.451 113.076 186.557 113.182 186.632 113.309C186.708 113.436 186.749 113.581 186.752 113.729L186.549 116.947V117.675C186.547 117.92 186.576 118.165 186.636 118.403V118.541C186.736 119.382 186.782 120.228 186.774 121.074C186.774 122.028 186.665 123.681 186.447 126.018C186.228 128.354 186.126 129.905 186.126 130.648C186.116 131.173 186.138 131.698 186.192 132.22C186.739 132.22 187.286 132.166 187.823 132.06Z" fill="#FCC43E"/>
<path d="M204.565 132.744L204.994 136.064C204.994 136.222 204.955 136.378 204.88 136.518C204.805 136.658 204.697 136.777 204.565 136.865C204.264 137.069 203.909 137.178 203.545 137.178C203.182 137.178 202.825 137.075 202.519 136.879C202.383 136.81 202.269 136.707 202.187 136.579C202.105 136.451 202.059 136.303 202.053 136.151L201.762 132.125V131.82L199.221 132.002C197.925 132.002 197.277 131.565 197.277 130.691C197.281 130.424 197.379 130.166 197.554 129.963C197.644 129.858 197.756 129.775 197.881 129.718C198.007 129.662 198.144 129.633 198.282 129.636L200.983 129.781C201.334 129.783 201.684 129.756 202.031 129.701L201.762 126.665C201.762 125.137 202.257 124.379 203.218 124.379C203.375 124.375 203.531 124.403 203.676 124.461C203.822 124.52 203.953 124.609 204.062 124.722C204.275 124.953 204.39 125.259 204.383 125.573V126.076C204.383 128.544 204.579 129.781 204.987 129.781L207.637 129.621C209.217 129.621 210.003 130.036 210.003 130.873C210.006 131.028 209.973 131.181 209.907 131.321C209.842 131.461 209.745 131.584 209.624 131.681C209.373 131.901 209.048 132.018 208.714 132.009L206.021 131.769C205.082 131.769 204.565 132.089 204.565 132.744Z" fill="#FCC43E"/>
<path d="M215.312 126.125C215.312 116.603 216.948 111.842 220.219 111.842C220.483 111.849 220.737 111.938 220.947 112.097C221.059 112.172 221.15 112.274 221.213 112.393C221.275 112.513 221.306 112.646 221.304 112.781C221.287 112.95 221.229 113.113 221.135 113.255C221.042 113.397 220.914 113.514 220.765 113.596C220.403 113.848 219.991 114.017 219.557 114.091C219.171 114.426 218.829 115.387 218.508 116.96C218.013 119.526 217.701 122.124 217.577 124.735C217.817 124.691 218.06 124.669 218.305 124.669C221.314 124.669 223.083 128.066 223.612 134.861C223.735 136.266 223.794 137.475 223.794 138.501C223.794 139.528 223.794 140.227 223.75 140.627C223.712 141.079 223.626 141.525 223.495 141.959C223.387 142.393 223.186 142.798 222.906 143.146C222.548 143.517 222.112 143.803 221.63 143.985C221.147 144.166 220.631 144.238 220.117 144.194C217.249 144.034 215.657 139.909 215.342 131.818L215.312 126.125ZM220.445 142.454C221.231 142.454 221.632 141.522 221.632 139.644C221.616 137.534 221.479 135.427 221.224 133.332C220.69 128.731 219.797 126.305 218.545 126.052C218.179 126.264 217.895 126.592 217.737 126.984C217.598 127.397 217.534 127.831 217.547 128.265C217.547 128.775 217.547 129.256 217.547 129.721C217.547 130.187 217.547 130.835 217.591 131.658C217.635 132.481 217.657 133.26 217.715 133.995C217.773 134.73 217.846 135.524 217.941 136.383C218.013 137.154 218.133 137.919 218.297 138.676C218.443 139.353 218.618 139.986 218.807 140.576C219.215 141.828 219.761 142.447 220.445 142.454Z" fill="#FCC43E"/>
<path d="M231.5 128.354L229.76 128.412C227.926 128.412 227.009 128.019 227.009 127.218C227.005 127.092 227.028 126.966 227.077 126.849C227.126 126.732 227.199 126.627 227.293 126.541C227.496 126.371 227.756 126.283 228.021 126.294H236.218C238.586 126.294 239.768 126.658 239.763 127.386C239.758 128.114 238.152 128.478 234.944 128.478C233.575 128.478 232.491 128.434 231.682 128.354H231.5ZM238.482 132.22L228.843 132.016C227.62 132.016 227.009 131.718 227.009 131.106C227.003 130.979 227.026 130.853 227.075 130.736C227.124 130.619 227.198 130.514 227.293 130.429C227.495 130.256 227.755 130.166 228.021 130.174H234.878C237.989 130.174 239.542 130.538 239.538 131.266C239.543 131.396 239.519 131.526 239.467 131.646C239.416 131.766 239.338 131.872 239.239 131.958C239.025 132.135 238.753 132.228 238.475 132.22H238.482Z" fill="#FCC43E"/>
<path d="M249.215 141.502H248.13C247.829 141.524 247.528 141.466 247.257 141.335C247.162 141.259 247.088 141.161 247.041 141.049C246.994 140.937 246.975 140.815 246.987 140.694C246.987 140.388 247.046 140.185 247.162 140.097C247.436 139.986 247.734 139.944 248.028 139.973C248.502 139.973 248.756 139.791 248.756 139.42C248.756 137.256 248.572 134.035 248.203 129.76C247.834 125.484 247.65 122.329 247.65 120.296L247.708 119.087C247.708 118.053 247.286 117.536 246.441 117.536L245.604 117.573C244.92 117.573 244.57 117.333 244.57 116.845C244.57 116.262 245.553 115.979 247.482 115.979C248.502 115.979 249.12 116.161 249.346 116.525C249.214 117.066 249.143 117.62 249.135 118.177C249.176 119.104 249.268 120.027 249.412 120.943C249.589 122.21 249.681 123.487 249.688 124.765C249.688 125.974 249.819 128.311 250.074 131.791C250.329 135.271 250.467 137.877 250.467 139.624V139.828C251.042 139.77 251.486 139.733 251.807 139.733C252.833 139.733 253.35 140.01 253.35 140.556C253.35 141.102 251.974 141.502 249.215 141.502Z" fill="#FCC43E"/>
<path d="M254.709 121.664C254.709 118.965 255.231 117.267 256.275 116.568C256.731 116.278 257.263 116.131 257.803 116.146C261.293 116.146 263.038 121.749 263.038 132.955C263.038 138.483 261.732 141.247 259.121 141.247C257.18 141.247 255.882 138.553 255.226 133.166C254.826 129.346 254.654 125.505 254.709 121.664ZM256.595 125.406L256.966 128.631C256.933 131.517 257.201 134.398 257.767 137.228C258.146 138.917 258.713 139.762 259.456 139.762C259.813 139.762 260.126 139.434 260.402 138.779C260.714 138.015 260.917 137.211 261.007 136.391C261.211 135.041 261.328 133.68 261.356 132.314C261.356 131.344 261.334 130.412 261.291 129.519C261.247 128.626 261.189 127.57 261.116 126.352C261.039 125.229 260.901 124.111 260.701 123.003C260.523 122.021 260.292 121.049 260.009 120.091C259.427 118.111 258.553 117.048 257.396 116.895C257.089 117.118 256.84 117.41 256.668 117.747C256.529 118.107 256.464 118.49 256.479 118.876L256.595 125.406Z" fill="#FCC43E"/>
<path d="M191.158 186.666H190.503C189.105 186.666 188.406 186.338 188.406 185.683C188.402 185.561 188.435 185.44 188.5 185.337C188.565 185.233 188.659 185.151 188.77 185.101C189.04 184.963 189.341 184.896 189.644 184.904C189.976 184.903 190.3 185.002 190.575 185.188C191.187 184.999 191.667 184.365 192.031 183.288C192.346 182.433 192.526 181.534 192.563 180.623C192.563 179.895 192.563 179.371 192.563 178.993C192.563 178.614 192.563 178.126 192.519 177.537C192.475 176.947 192.454 176.445 192.395 176.081C192.337 175.717 192.264 175.251 192.162 174.741C192.084 174.315 191.962 173.898 191.798 173.496C191.639 173.141 191.454 172.798 191.245 172.47C191.052 172.157 190.806 171.882 190.517 171.654C189.85 171.185 189.054 170.931 188.239 170.926C187.998 170.959 187.753 170.913 187.54 170.794C187.328 170.676 187.159 170.493 187.059 170.271C186.899 169.848 186.823 169.398 186.833 168.946L187.037 167.184C186.922 164.737 186.61 162.302 186.105 159.904L186.761 159.293H189.884C190.947 159.293 191.471 159.584 191.471 160.174V160.363L190.743 160.887H189.789V160.785H188.158C188.222 162.241 188.464 164.988 188.886 169.026C188.945 169.026 189.192 169.063 189.614 169.092L190.532 169.194C191.041 169.255 191.535 169.41 191.988 169.652C192.741 170.275 193.255 171.14 193.444 172.098C194.075 174.225 194.389 176.433 194.376 178.65C194.425 179.867 194.364 181.085 194.194 182.29C194.07 182.732 193.924 183.167 193.757 183.594C193.631 183.984 193.442 184.35 193.196 184.678C192.628 185.446 191.939 186.117 191.158 186.666Z" fill="#FCC43E"/>
<path d="M203.067 176.679L203.424 179.46C203.424 179.597 203.388 179.733 203.321 179.853C203.253 179.972 203.156 180.073 203.038 180.144C202.791 180.317 202.496 180.408 202.194 180.406C201.887 180.41 201.586 180.324 201.327 180.159C201.211 180.098 201.113 180.008 201.044 179.896C200.974 179.785 200.937 179.657 200.934 179.525L200.694 176.155V175.9L198.561 176.053C197.476 176.053 196.938 175.681 196.938 174.946C196.934 174.716 197.017 174.492 197.171 174.32C197.247 174.23 197.344 174.159 197.452 174.113C197.561 174.066 197.679 174.045 197.797 174.051L200.061 174.167C200.353 174.169 200.645 174.147 200.934 174.102L200.716 171.554C200.716 170.28 201.124 169.639 201.946 169.639C202.082 169.629 202.218 169.65 202.344 169.701C202.47 169.751 202.583 169.83 202.674 169.93C202.767 170.027 202.839 170.141 202.887 170.266C202.934 170.391 202.956 170.525 202.951 170.658V171.081C202.951 173.148 203.118 174.182 203.453 174.182L205.681 174.043C206.999 174.043 207.661 174.4 207.661 175.099C207.664 175.229 207.636 175.358 207.581 175.475C207.525 175.593 207.443 175.696 207.341 175.776C207.138 175.949 206.88 176.045 206.613 176.045L204.349 175.863C203.475 175.849 203.067 176.126 203.067 176.679Z" fill="#FCC43E"/>
<path d="M218.217 185.982L212.393 186.309C212.046 186.316 211.705 186.214 211.418 186.018C211.286 185.939 211.177 185.827 211.101 185.693C211.026 185.559 210.987 185.408 210.988 185.254V185.123C211.58 184.454 212.037 183.678 212.335 182.837C212.699 181.9 212.942 181.281 213.063 180.98C214.387 178.4 215.476 175.705 216.317 172.929C217.049 170.353 217.41 167.686 217.387 165.008C217.387 162.176 216.776 160.706 215.553 160.64C215.131 160.844 214.825 161.368 214.694 162.3C214.563 163.232 214.162 163.574 213.551 163.574C212.939 163.574 212.634 163.217 212.634 162.504C212.613 161.996 212.699 161.489 212.885 161.017C213.072 160.544 213.356 160.116 213.718 159.759C213.899 159.576 214.114 159.431 214.352 159.332C214.589 159.233 214.844 159.183 215.102 159.184C215.641 159.132 216.184 159.206 216.69 159.401C217.195 159.595 217.649 159.905 218.014 160.305C218.386 160.743 218.668 161.25 218.843 161.798C218.96 162.242 219.047 162.591 219.091 162.846C219.135 163.101 219.164 163.443 219.193 163.851C219.229 164.462 219.244 165.35 219.244 166.515C219.194 168.05 218.97 169.574 218.574 171.058C218.207 172.672 217.72 174.256 217.118 175.797C216.594 177.093 215.924 178.651 215.131 180.464C214.337 182.276 213.755 183.681 213.405 184.635C214.904 184.406 216.417 184.289 217.933 184.286C218.472 184.635 218.742 184.948 218.742 185.225C218.717 185.382 218.656 185.532 218.566 185.663C218.475 185.794 218.356 185.903 218.217 185.982Z" fill="#FCC43E"/>
<path d="M225.141 172.994L223.685 173.045C222.157 173.045 221.385 172.718 221.385 172.048C221.38 171.942 221.398 171.837 221.439 171.738C221.479 171.64 221.54 171.552 221.618 171.48C221.791 171.331 222.016 171.256 222.244 171.269H229.109C231.096 171.269 232.086 171.575 232.086 172.186C232.086 172.798 230.74 173.096 228.046 173.096C227.135 173.109 226.224 173.075 225.316 172.994H225.141ZM230.965 176.234L222.885 176.067C221.858 176.067 221.348 175.812 221.348 175.339C221.344 175.233 221.362 175.127 221.402 175.029C221.442 174.931 221.504 174.843 221.581 174.771C221.757 174.625 221.98 174.55 222.207 174.56H227.951C230.558 174.56 231.861 174.865 231.861 175.477C231.864 175.586 231.843 175.694 231.799 175.793C231.755 175.893 231.689 175.981 231.606 176.052C231.43 176.182 231.213 176.247 230.994 176.234H230.965Z" fill="#FCC43E"/>
<path d="M323.958 175.935L324.497 253.343H328.748V218.894H333.466V253.343H337.892V218.894H342.362V253.343H346.315V218.916H349.955V253.343H354.199V214.65C354.199 214.65 357.504 201.451 352.35 194.375C347.196 187.299 337.266 186.367 337.266 186.367L335.431 173.991L330.816 109.417L335.038 100.441C335.038 100.441 346.125 98.33 345.601 96.2188C345.077 94.1076 337.12 94.639 337.12 94.639L338.576 90.191C338.576 90.191 340.687 90.191 340.687 88.3127C340.687 86.4345 338.11 85.7283 337.404 86.6674C336.698 87.6066 337.404 89.0116 337.404 89.0116L333.567 93.2922L334.354 88.0798C334.354 88.0798 336.232 86.9004 335.526 85.7283C334.82 84.5562 332.01 85.0003 332.01 86.4563V87.8614L328.646 93.0811C328.646 93.0811 314.778 85.2624 310.876 93.0811C305.78 103.273 323.368 109.454 323.368 109.454L323.958 175.935Z" stroke="#263238" stroke-miterlimit="10"/>
<path d="M334.448 186.84C334.448 186.84 327.852 194.382 329.737 197.214C331.623 200.046 338.692 198.153 338.692 195.802C338.692 193.45 336.806 187.313 334.448 186.84Z" stroke="#263238" stroke-miterlimit="10"/>
<path d="M349.532 203.839C349.532 203.839 341.051 197.716 341.051 202.9C341.051 208.083 345.295 212.8 347.181 211.854C349.066 210.908 352.349 209 349.532 203.839Z" stroke="#263238" stroke-miterlimit="10"/>
<path d="M334.447 203.839C334.447 203.839 330.203 207.617 331.623 209.969C333.042 212.32 338.218 216.572 338.218 212.801C338.218 209.03 337.279 203.344 334.447 203.839Z" stroke="#263238" stroke-miterlimit="10"/>
<path d="M310.695 111.631H318.667" stroke="#263238" stroke-miterlimit="10"/>
<path d="M310.695 114.98H315.624" stroke="#263238" stroke-miterlimit="10"/>
<path d="M310.695 117.855H318.667" stroke="#263238" stroke-miterlimit="10"/>
<path d="M310.695 121.205H315.624" stroke="#263238" stroke-miterlimit="10"/>
<path d="M310.695 124.072H318.667" stroke="#263238" stroke-miterlimit="10"/>
<path d="M310.695 127.422H315.624" stroke="#263238" stroke-miterlimit="10"/>
<path d="M310.695 130.297H318.667" stroke="#263238" stroke-miterlimit="10"/>
<path d="M310.695 133.646H315.624" stroke="#263238" stroke-miterlimit="10"/>
<path d="M310.695 136.514H318.667" stroke="#263238" stroke-miterlimit="10"/>
<path d="M310.695 139.863H315.624" stroke="#263238" stroke-miterlimit="10"/>
<path d="M310.695 142.738H318.667" stroke="#263238" stroke-miterlimit="10"/>
<path d="M310.695 146.088H315.624" stroke="#263238" stroke-miterlimit="10"/>
<path d="M310.695 148.955H318.667" stroke="#263238" stroke-miterlimit="10"/>
<path d="M310.695 152.305H315.624" stroke="#263238" stroke-miterlimit="10"/>
<path d="M310.695 155.18H318.667" stroke="#263238" stroke-miterlimit="10"/>
<path d="M310.695 158.529H315.624" stroke="#263238" stroke-miterlimit="10"/>
<path d="M310.695 161.396H318.667" stroke="#263238" stroke-miterlimit="10"/>
<path d="M310.695 164.754H315.624" stroke="#263238" stroke-miterlimit="10"/>
<path d="M310.695 167.621H318.667" stroke="#263238" stroke-miterlimit="10"/>
<path d="M310.695 170.971H315.624" stroke="#263238" stroke-miterlimit="10"/>
<path d="M310.695 173.838H318.667" stroke="#263238" stroke-miterlimit="10"/>
<path d="M310.695 177.195H315.624" stroke="#263238" stroke-miterlimit="10"/>
<path d="M310.695 180.062H318.667" stroke="#263238" stroke-miterlimit="10"/>
<path d="M310.695 183.412H315.624" stroke="#263238" stroke-miterlimit="10"/>
<path d="M310.695 186.215H318.667" stroke="#263238" stroke-miterlimit="10"/>
<path d="M310.695 189.562H315.624" stroke="#263238" stroke-miterlimit="10"/>
<path d="M310.695 192.432H318.667" stroke="#263238" stroke-miterlimit="10"/>
<path d="M310.695 195.781H315.624" stroke="#263238" stroke-miterlimit="10"/>
<path d="M310.695 198.656H318.667" stroke="#263238" stroke-miterlimit="10"/>
<path d="M310.695 202.004H315.624" stroke="#263238" stroke-miterlimit="10"/>
<path d="M310.695 204.873H318.667" stroke="#263238" stroke-miterlimit="10"/>
<path d="M310.695 208.229H315.624" stroke="#263238" stroke-miterlimit="10"/>
<path d="M310.695 211.098H318.667" stroke="#263238" stroke-miterlimit="10"/>
<path d="M310.695 214.447H315.624" stroke="#263238" stroke-miterlimit="10"/>
<path d="M310.695 217.322H318.667" stroke="#263238" stroke-miterlimit="10"/>
<path d="M310.695 220.67H315.624" stroke="#263238" stroke-miterlimit="10"/>
<path d="M310.695 223.539H318.667" stroke="#263238" stroke-miterlimit="10"/>
<path d="M310.695 226.889H315.624" stroke="#263238" stroke-miterlimit="10"/>
<path d="M310.695 229.764H318.667" stroke="#263238" stroke-miterlimit="10"/>
<path d="M310.695 233.111H315.624" stroke="#263238" stroke-miterlimit="10"/>
<path d="M310.695 235.98H318.667" stroke="#263238" stroke-miterlimit="10"/>
<path d="M310.695 239.33H315.624" stroke="#263238" stroke-miterlimit="10"/>
<path d="M310.695 242.205H318.667" stroke="#263238" stroke-miterlimit="10"/>
<path d="M310.695 245.555H315.624" stroke="#263238" stroke-miterlimit="10"/>
<path d="M310.695 248.422H318.667" stroke="#263238" stroke-miterlimit="10"/>
<path d="M310.695 251.771H315.624" stroke="#263238" stroke-miterlimit="10"/>
<path d="M331.4 97.0557C331.4 97.7082 331.207 98.3461 330.844 98.8886C330.481 99.4311 329.966 99.8538 329.363 100.103C328.76 100.353 328.096 100.417 327.456 100.29C326.817 100.162 326.229 99.8469 325.768 99.385C325.307 98.9231 324.994 98.3348 324.867 97.6946C324.741 97.0544 324.807 96.3911 325.058 95.7886C325.309 95.1861 325.732 94.6716 326.276 94.3101C326.819 93.9486 327.457 93.7564 328.11 93.7578C328.543 93.7578 328.971 93.8432 329.371 94.009C329.77 94.1748 330.134 94.4179 330.439 94.7242C330.745 95.0305 330.987 95.3941 331.152 95.7942C331.317 96.1943 331.401 96.6229 331.4 97.0557Z" stroke="#263238" stroke-miterlimit="10"/>
<path d="M328.226 100.106C329.44 100.106 330.424 99.1218 330.424 97.9075C330.424 96.6933 329.44 95.709 328.226 95.709C327.012 95.709 326.027 96.6933 326.027 97.9075C326.027 99.1218 327.012 100.106 328.226 100.106Z" fill="#263238"/>
<path d="M320.172 107.911C320.172 107.911 325.421 106.208 326.76 103.281L328.711 104.009" stroke="#263238" stroke-miterlimit="10"/>
<path d="M331.158 115.023C331.158 115.023 328.245 120.884 326.273 121.612C324.3 122.34 323.361 125.252 325.545 127.436C326.927 128.807 328.441 130.039 330.066 131.112L332.453 132.758L331.158 115.023Z" stroke="#263238" stroke-miterlimit="10"/>
<path d="M323.645 138.262C323.645 138.262 325.057 136.457 326.273 140.366C327.488 144.275 325.785 148.17 327.983 149.881C330.182 151.592 331.157 154.518 329.199 156.469C327.241 158.42 323.921 159.272 323.921 159.272L323.645 138.262Z" stroke="#263238" stroke-miterlimit="10"/>
<path d="M319.199 89.8555C319.199 89.8555 321.885 99.1302 313.105 103.032" stroke="#263238" stroke-miterlimit="10"/>
<path d="M315.41 94.9375C315.41 95.1117 315.359 95.2821 315.262 95.4269C315.165 95.5718 315.027 95.6847 314.866 95.7513C314.705 95.818 314.528 95.8355 314.357 95.8015C314.187 95.7675 314.03 95.6836 313.906 95.5604C313.783 95.4372 313.699 95.2802 313.665 95.1094C313.631 94.9385 313.649 94.7614 313.715 94.6004C313.782 94.4395 313.895 94.3019 314.04 94.2051C314.185 94.1083 314.355 94.0566 314.529 94.0566C314.762 94.0585 314.985 94.152 315.15 94.3167C315.315 94.4815 315.408 94.7045 315.41 94.9375Z" stroke="#263238" stroke-miterlimit="10"/>
<path d="M334.108 155.689C334.108 155.689 331.647 161.098 329.696 163.545C327.745 165.991 327.25 167.687 329.449 168.91C331.265 169.843 333.14 170.658 335.061 171.349L334.108 155.689Z" stroke="#263238" stroke-miterlimit="10"/>
<path d="M356.726 78.7832H306.145V256.903H356.726V78.7832Z" stroke="#263238" stroke-miterlimit="10"/>
<path d="M50.2305 70.622L14.4297 72.4355L16.8311 119.84L52.6319 118.027L50.2305 70.622Z" stroke="#263238" stroke-miterlimit="10"/>
<path d="M35.2919 95.135C35.2919 95.135 29.9047 86.1588 25.4203 88.5466C20.9358 90.9344 22.7267 94.2323 26.3157 95.732L29.9047 97.2244C29.9047 97.2244 24.2191 95.732 22.7267 100.515C21.2343 105.298 24.5175 106.798 26.9127 107.067C29.3078 107.336 33.1953 104.381 33.1953 104.381C33.1953 104.381 27.8081 109.164 32.8968 111.857C37.9855 114.551 42.7685 111.559 43.0888 108.268C43.2624 106.347 42.9469 104.414 42.1715 102.648C43.4899 102.469 44.7189 101.881 45.6854 100.967C46.6519 100.053 47.3072 98.8584 47.5587 97.552C48.7527 92.769 46.6633 90.6724 43.067 90.6724C39.4707 90.6724 35.2919 95.135 35.2919 95.135Z" stroke="#FCC43E" stroke-miterlimit="10"/>
<path d="M39.4789 100.814C39.4789 101.523 39.2684 102.217 38.874 102.808C38.4796 103.398 37.9191 103.858 37.2633 104.129C36.6075 104.401 35.8858 104.472 35.1896 104.334C34.4934 104.195 33.8539 103.853 33.352 103.351C32.8501 102.85 32.5082 102.21 32.3697 101.514C32.2313 100.818 32.3023 100.096 32.574 99.4402C32.8456 98.7844 33.3056 98.2238 33.8959 97.8295C34.4861 97.4351 35.18 97.2246 35.8898 97.2246C36.8411 97.2265 37.7529 97.6053 38.4255 98.2779C39.0982 98.9506 39.4769 99.8624 39.4789 100.814Z" stroke="#FCC43E" stroke-miterlimit="10"/>
<path d="M18.1602 79.0311L47.1855 77.5605" stroke="#263238" stroke-miterlimit="10"/>
<path d="M18.4844 85.3202L47.5097 83.8496" stroke="#263238" stroke-miterlimit="10"/>
<path d="M53.4121 130.618L17.6953 127.568L13.6575 174.862L49.3742 177.911L53.4121 130.618Z" stroke="#263238" stroke-miterlimit="10"/>
<path d="M20.5 134.613L49.4526 137.081" stroke="#263238" stroke-miterlimit="10"/>
<path d="M19.9609 140.889L48.9208 143.357" stroke="#263238" stroke-miterlimit="10"/>
<path d="M19.4297 147.158L48.3822 149.633" stroke="#263238" stroke-miterlimit="10"/>
<path d="M18.8906 153.434L47.8505 155.909" stroke="#263238" stroke-miterlimit="10"/>
<path d="M18.3594 159.709L47.3119 162.184" stroke="#263238" stroke-miterlimit="10"/>
<path d="M17.8203 165.984L46.7802 168.452" stroke="#263238" stroke-miterlimit="10"/>
<path d="M37.1328 291.369V213.291" stroke="#FCC43E" stroke-linecap="round" stroke-linejoin="round"/>
<path d="M36.5517 284.321C36.5517 284.321 32.4385 278.453 27.1532 275.519C21.8679 272.586 13.0664 272.607 13.0664 272.607C13.0664 272.607 17.762 289.606 36.5517 284.321Z" fill="#FCC43E"/>
<path d="M37.125 284.321C37.125 284.321 41.2382 278.453 46.5162 275.519C51.7942 272.586 60.6103 272.607 60.6103 272.607C60.6103 272.607 55.9147 289.606 37.125 284.321Z" fill="#FCC43E"/>
<path d="M36.5517 263.188C36.5517 263.188 32.4385 257.32 27.1532 254.387C21.8679 251.453 13.0664 251.475 13.0664 251.475C13.0664 251.475 17.762 268.473 36.5517 263.188Z" fill="#FCC43E"/>
<path d="M37.125 263.188C37.125 263.188 41.2382 257.32 46.5162 254.387C51.7942 251.453 60.6103 251.475 60.6103 251.475C60.6103 251.475 55.9147 268.473 37.125 263.188Z" fill="#FCC43E"/>
<path d="M36.5517 242.053C36.5517 242.053 32.4385 236.186 27.1532 233.252C21.8679 230.318 13.0664 230.34 13.0664 230.34C13.0664 230.34 17.762 247.339 36.5517 242.053Z" fill="#FCC43E"/>
<path d="M37.125 242.053C37.125 242.053 41.2382 236.186 46.5162 233.252C51.7942 230.318 60.6103 230.34 60.6103 230.34C60.6103 230.34 55.9147 247.339 37.125 242.053Z" fill="#FCC43E"/>
<path d="M36.5517 220.928C36.5517 220.928 32.4385 215.053 27.1532 212.119C21.8679 209.185 13.0664 209.207 13.0664 209.207C13.0664 209.207 17.762 226.206 36.5517 220.928Z" fill="#FCC43E"/>
<path d="M37.125 220.928C37.125 220.928 41.2382 215.053 46.5162 212.119C51.7942 209.185 60.6103 209.207 60.6103 209.207C60.6103 209.207 55.9147 226.206 37.125 220.928Z" fill="#FCC43E"/>
<path d="M37.126 213.305C37.126 213.305 32.4304 206.986 32.1902 200.929C31.9499 194.872 35.9248 187.031 35.9248 187.031C35.9248 187.031 50.3246 198.912 37.126 213.305Z" fill="#FCC43E"/>
<path d="M27.6641 289.402H45.6602L41.1612 338.637H32.1631L27.6641 289.402Z" fill="#263238" stroke="#263238" stroke-miterlimit="10"/>
<path d="M264.658 283.344C264.326 287.893 264.326 292.46 264.658 297.008C265.219 304.536 265.452 320.006 265.095 324.054C264.738 328.101 263.129 336.626 264.083 337.762C265.037 338.897 269.732 339.094 271.654 338.366C273.576 337.638 274.719 338.184 274.661 336.757C274.603 335.33 273.482 325.539 273.394 323.333C273.307 321.127 276.961 308.482 278.985 300.597C281.009 292.713 279.881 284.166 279.56 282.616C279.24 281.065 278.57 280.701 278.57 280.701C278.57 280.701 270.905 283.482 264.658 283.344Z" fill="white" stroke="#263238" stroke-miterlimit="10"/>
<path d="M271.544 339.314C273.371 339.314 274.747 338.186 274.689 336.759C274.653 335.863 274.165 330.003 273.83 327.295C272.809 328.247 271.521 328.862 270.139 329.057C268.242 329.439 266.271 329.068 264.642 328.023C264.089 332.129 262.779 337.305 263.478 338.135C264.439 339.249 269.491 339.351 271.544 339.314Z" fill="#263238" stroke="#263238" stroke-miterlimit="10"/>
<path d="M271.545 339.313C273.373 339.313 274.749 338.184 274.69 336.757C274.694 336.726 274.694 336.694 274.69 336.663C270.322 337.573 265.43 336.663 263.341 336.219C263.193 336.857 263.244 337.525 263.486 338.133C264.44 339.247 269.492 339.349 271.545 339.313Z" fill="white" stroke="#263238" stroke-miterlimit="10"/>
<path d="M245.134 280.055C245.134 280.055 244.45 293.202 246.918 300.14C249.385 307.078 252.014 324.222 251.351 325.948C250.689 327.673 249.706 333.06 248.978 333.33C248.25 333.599 245.636 334.684 245.673 335.652C245.709 336.62 248.949 338.673 251.387 338.819C253.826 338.964 256.767 339.816 258.828 336.577C260.404 334.093 261.137 331.167 260.917 328.234C260.83 326.05 259.257 323.203 259.206 321.995C259.155 320.786 261.929 305.127 261.885 298.08C261.842 291.033 259.301 282.159 259.301 282.159L245.134 280.055Z" fill="white" stroke="#263238" stroke-miterlimit="10"/>
<path d="M254.664 323.633C253.005 324.812 251.65 326.369 250.711 328.175C250.136 330.359 249.488 333.14 248.978 333.33C248.25 333.606 245.979 333.016 245.673 335.652C245.229 339.488 248.949 338.673 251.388 338.819C253.827 338.964 256.768 339.816 258.828 336.576C260.405 334.093 261.138 331.167 260.917 328.234C260.852 326.603 259.956 324.594 259.461 323.181C259.345 323.021 257.809 321.427 254.664 323.633Z" fill="#263238" stroke="#263238" stroke-miterlimit="10"/>
<path d="M251.388 338.819C253.819 338.964 256.768 339.816 258.828 336.576C260.405 334.093 261.137 331.167 260.917 328.234C260.837 327.282 260.626 326.346 260.291 325.453C259.584 325.379 258.87 325.411 258.173 325.547C256.207 325.94 254.431 326.923 252.662 330.461C250.893 333.999 251.482 336.758 248.927 336.955C246.372 337.152 245.673 335.652 245.673 335.652C245.229 339.488 248.978 338.673 251.388 338.819Z" fill="white" stroke="#263238" stroke-miterlimit="10"/>
<path d="M260.624 329.056C260.624 329.056 259.598 326.239 256.445 328.576C253.293 330.912 253.453 335.2 252.347 336.809C251.791 337.582 251.053 338.207 250.199 338.629C250.583 338.732 250.975 338.798 251.371 338.826C253.803 338.971 256.751 339.823 258.811 336.584C260.267 334.311 261 331.651 260.915 328.954L260.624 329.056Z" fill="white" stroke="#263238" stroke-miterlimit="10"/>
<path d="M240.337 245.277L231.855 275.976C231.855 275.976 249.327 287.661 268.678 285.666C288.028 283.671 301.299 269.534 301.299 269.534L288.814 243.078C288.814 243.078 282.699 247.941 266.414 247.628C250.128 247.315 240.337 245.277 240.337 245.277Z" fill="#263238" stroke="#263238" stroke-miterlimit="10"/>
<path d="M241.863 235.013L239.031 249.216C239.031 249.216 245.336 255.04 260.369 254.428C275.402 253.817 290.115 245.219 290.115 245.219L285.419 231.074C285.419 231.074 259.328 240.626 241.863 235.013Z" fill="white" stroke="#263238" stroke-miterlimit="10"/>
<path d="M268.91 243.305C278.629 241.667 284.344 239.432 287.605 237.663L285.421 231.111C285.421 231.111 259.329 240.663 241.865 235.05L240.816 240.321C244.398 242.046 254.197 245.788 268.91 243.305Z" fill="#263238" stroke="#263238" stroke-miterlimit="10"/>
<path d="M242.075 192.985C242.075 192.985 236.979 208.885 229.736 220.278C225.381 227.149 220.382 233.59 214.805 239.512C214.805 239.512 209.578 239.919 207.525 238.784C205.472 237.648 203.768 240.757 203.208 241.783C202.647 242.81 201.548 245.685 202.378 246.26C203.208 246.835 205.959 249.951 206.709 248.51C207.459 247.068 205.399 246.137 205.399 246.137C205.399 246.137 212.118 247.753 215.081 245.947C227.319 238.522 234.075 230.834 236.921 226.881C239.768 222.928 242.614 218.509 242.614 218.509C242.614 218.509 240.765 230.754 240.052 233.2C239.338 235.646 238.785 237.328 238.785 237.328C238.785 237.328 249.567 244.36 268.407 241.179C287.248 237.998 291.077 232.596 291.077 232.596C291.077 232.596 285.253 218.502 283.571 211.702C281.89 204.903 281.045 199.086 281.045 199.086C281.045 199.086 280.463 184.577 281.3 180.304C282.137 176.03 286.214 166.988 286.098 164.164C285.981 161.339 269.871 142.215 269.871 142.215C269.871 142.215 271.465 136.696 271.407 135.087C271.348 133.479 269.441 131.535 268.167 129.991C266.893 128.448 265.444 127.48 264.039 127.735C262.634 127.989 261.986 126.81 261.04 128.463C260.093 130.115 259.183 132.372 258.055 134.432C256.927 136.492 260.188 137.344 261.054 138.757C261.921 140.169 265.124 144.646 265.422 146.248C265.721 147.849 273.43 174.589 273.43 174.589L242.075 192.985Z" fill="white" stroke="#263238" stroke-miterlimit="10"/>
<path d="M291.105 232.589C291.105 232.589 285.281 218.494 283.599 211.695C281.917 204.895 281.073 199.079 281.073 199.079C281.073 199.079 280.49 184.57 281.328 180.296C282.165 176.023 286.242 166.981 286.125 164.157C286.06 162.591 281.029 155.952 276.588 150.383C273.257 151.376 270.303 153.353 268.114 156.054C270.444 164.251 273.422 174.56 273.422 174.56L242.074 192.985C242.074 192.985 236.978 208.885 229.734 220.278C227.871 223.226 225.971 225.935 224.18 228.337C224.862 230.449 226.185 232.297 227.965 233.622C228.628 234.103 229.225 234.525 229.771 234.896C232.396 232.452 234.792 229.771 236.927 226.888C239.795 222.943 242.62 218.516 242.62 218.516C242.62 218.516 240.771 230.761 240.057 233.207C239.344 235.653 238.783 237.328 238.783 237.328C238.783 237.328 249.565 244.36 268.406 241.179C287.246 237.998 291.105 232.589 291.105 232.589Z" fill="#FCC43E" stroke="#263238" stroke-miterlimit="10"/>
<path d="M261.697 129.155L263.153 134.673C263.203 134.858 263.291 135.03 263.412 135.178C263.534 135.326 263.685 135.446 263.856 135.532C264.027 135.617 264.215 135.665 264.406 135.672C264.597 135.68 264.788 135.647 264.965 135.576C265.141 135.508 265.301 135.405 265.434 135.272C265.568 135.139 265.672 134.98 265.741 134.804C265.809 134.629 265.84 134.441 265.832 134.253C265.824 134.065 265.777 133.881 265.693 133.712L263.065 128.499C263.065 128.499 261.646 127.946 261.697 129.155Z" fill="white" stroke="#263238" stroke-miterlimit="10"/>
<path d="M252.45 144.929C252.45 144.929 247.929 142.891 242.338 149.37C236.747 155.849 236.288 164.549 238.304 169.514C240.321 174.479 239.433 182.618 237.103 184.904C234.774 187.189 230.318 191.841 233.245 194.368C236.171 196.894 240.576 195.889 240.576 195.889C240.576 195.889 235.269 204.378 242.76 209.721C250.251 215.065 253.556 207.479 253.556 207.479C253.556 207.479 258.237 223.437 268.364 219.192C278.49 214.948 273.816 204.239 273.816 204.239C273.816 204.239 281.985 206.751 283.921 200.381C285.857 194.011 282.945 191.135 282.945 191.135C282.945 191.135 289.374 190.269 287.889 183.462C286.403 176.655 281.074 174.653 278.337 171.938C275.6 169.222 272.513 166.929 270.133 158.746C267.752 150.564 265.721 148.831 265.721 148.831C265.721 148.831 269.499 147.47 267.592 145.126C265.685 142.781 257.618 137.853 252.45 144.929Z" fill="#263238" stroke="#263238" stroke-miterlimit="10"/>
<path d="M345.043 339.029H352.352" stroke="#263238" stroke-miterlimit="10"/>
<path d="M15.25 339.029H332.076" stroke="#263238" stroke-miterlimit="10"/>
</svg>
