<svg width="414" height="400" viewBox="0 0 414 400" fill="none" xmlns="http://www.w3.org/2000/svg">
<path d="M53.3587 111.33C75.4212 69.8578 116.391 38.4818 167.396 34.0658C202.477 31.1033 237.439 40.8999 265.467 61.5458C279.394 71.9458 291.767 85.1858 299.986 100.298C309.419 117.658 312.169 137.674 321.875 154.954C333.943 176.434 356.608 185.298 371.831 203.858C384.362 219.146 388.665 239.634 387.228 259.106C384.601 294.65 363.1 328.394 331.473 346.61C304.735 362.01 272.505 366.258 241.439 364.858C193.531 362.706 145.838 347.402 108.106 318.738C70.3743 290.074 43.2567 247.698 36.8305 201.674C32.4609 170.402 38.8129 138.666 53.3587 111.33Z" fill="#4D44B5"/>
<path opacity="0.7" d="M53.3587 111.33C75.4212 69.8578 116.391 38.4818 167.396 34.0658C202.477 31.1033 237.439 40.8999 265.467 61.5458C279.394 71.9458 291.767 85.1858 299.986 100.298C309.419 117.658 312.169 137.674 321.875 154.954C333.943 176.434 356.608 185.298 371.831 203.858C384.362 219.146 388.665 239.634 387.228 259.106C384.601 294.65 363.1 328.394 331.473 346.61C304.735 362.01 272.505 366.258 241.439 364.858C193.531 362.706 145.838 347.402 108.106 318.738C70.3743 290.074 43.2567 247.698 36.8305 201.674C32.4609 170.402 38.8129 138.666 53.3587 111.33Z" fill="white"/>
<path d="M38.8047 126.487C39.7794 130.231 39.3003 123.343 41.2083 114.927C43.1164 106.511 46.3956 109.919 46.3956 109.919" stroke="#263238" stroke-linecap="round" stroke-linejoin="round"/>
<path d="M38.2109 117.888L44.1994 115.512" stroke="#263238" stroke-linecap="round" stroke-linejoin="round"/>
<path d="M49.1469 112.654C49.1469 112.654 45.5703 119.854 50.9641 122.878" stroke="#263238" stroke-linecap="round" stroke-linejoin="round"/>
<path d="M54.2266 110.639C54.2266 110.639 60.1407 113.839 56.4402 120.703" stroke="#263238" stroke-linecap="round" stroke-linejoin="round"/>
<path d="M50.1797 115.088L54.4171 118.08" stroke="#263238" stroke-linecap="round" stroke-linejoin="round"/>
<path d="M53.4998 113.768L50.1875 118.88" stroke="#263238" stroke-linecap="round" stroke-linejoin="round"/>
<path d="M72.53 190.386C73.336 185.629 70.008 181.14 65.0967 180.36C60.1854 179.579 55.5506 182.802 54.7446 187.559C53.9386 192.316 57.2666 196.805 62.1779 197.585C67.0892 198.366 71.724 195.143 72.53 190.386Z" stroke="#263238" stroke-linecap="round" stroke-linejoin="round"/>
<path d="M77.8732 201.87C83.2805 200.796 86.765 195.68 85.656 190.443C84.547 185.206 79.2645 181.831 73.8572 182.905C68.4499 183.979 64.9654 189.095 66.0744 194.332C67.1834 199.569 72.4659 202.944 77.8732 201.87Z" stroke="#263238" stroke-linecap="round" stroke-linejoin="round"/>
<path d="M71.8457 185.367L67.6992 186.799" stroke="#263238" stroke-linecap="round" stroke-linejoin="round"/>
<path d="M72.4247 187.023L66.4609 189.111" stroke="#263238" stroke-linecap="round" stroke-linejoin="round"/>
<path d="M72.6458 189.023L65.9883 191.503" stroke="#263238" stroke-linecap="round" stroke-linejoin="round"/>
<path d="M72.1766 191.752L66.1055 194.44" stroke="#263238" stroke-linecap="round" stroke-linejoin="round"/>
<path d="M71.1013 193.848L66.4922 195.704" stroke="#263238" stroke-linecap="round" stroke-linejoin="round"/>
<path d="M67.9872 175.671C67.7311 174.871 64.8071 174.375 64.6832 176.471C64.5593 178.567 67.7642 176.823 68.6728 175.671C68.6728 175.671 67.0208 177.823 67.7146 178.247" stroke="#263238" stroke-linecap="round" stroke-linejoin="round"/>
<path d="M84.1796 178.279L81.5859 183.503C81.5859 183.503 82.8828 180.887 84.2704 181.103C85.9803 181.399 84.8404 184.111 82.7754 183.111" stroke="#263238" stroke-linecap="round" stroke-linejoin="round"/>
<path d="M366.43 263.576L370.502 267.304" stroke="#263238" stroke-linecap="round" stroke-linejoin="round"/>
<path d="M370.501 262.6L367.09 267.536" stroke="#263238" stroke-linecap="round" stroke-linejoin="round"/>
<path d="M374.508 264.015L378.588 262.543" stroke="#263238" stroke-linecap="round" stroke-linejoin="round"/>
<path d="M380.547 258.432L383.025 260.552" stroke="#263238" stroke-linecap="round" stroke-linejoin="round"/>
<path d="M384.924 255.879L381.785 266.311" stroke="#263238" stroke-linecap="round" stroke-linejoin="round"/>
<path d="M194.836 204.976L205.797 197.672L220.31 198.656L221.218 216.48L210.563 223.856L197.413 222.928L194.836 204.976Z" stroke="#263238" stroke-linecap="round" stroke-linejoin="round"/>
<path d="M197.414 222.927L208.028 215.527L221.219 216.479" stroke="#263238" stroke-linecap="round" stroke-linejoin="round"/>
<path d="M208.027 215.528L205.797 197.672" stroke="#263238" stroke-linecap="round" stroke-linejoin="round"/>
<path d="M194.836 204.974L209.316 206.598L220.31 198.654" stroke="#263238" stroke-linecap="round" stroke-linejoin="round"/>
<path d="M209.316 206.6L210.564 223.856" stroke="#263238" stroke-linecap="round" stroke-linejoin="round"/>
<path d="M322.767 145.096L317.91 159.712L333.026 157.736L322.767 145.096Z" stroke="#263238" stroke-linecap="round" stroke-linejoin="round"/>
<path d="M322.77 145.096L325.471 158.64" stroke="#263238" stroke-linecap="round" stroke-linejoin="round"/>
<path d="M325.039 156.471L326.807 156.199L327.22 158.495" stroke="#263238" stroke-linecap="round" stroke-linejoin="round"/>
<path d="M132.406 278.848L139.956 282.44" stroke="#263238" stroke-linecap="round" stroke-linejoin="round"/>
<path d="M137.52 276.104L135.355 283.744" stroke="#263238" stroke-linecap="round" stroke-linejoin="round"/>
<path d="M138.57 272.374C138.694 272.25 138.846 272.156 139.015 272.099C139.183 272.042 139.363 272.024 139.539 272.047C139.716 272.069 139.885 272.132 140.032 272.229C140.179 272.326 140.301 272.455 140.388 272.606C141.147 273.758 139.661 276.174 139.661 276.174L142.692 275.054" stroke="#263238" stroke-linecap="round" stroke-linejoin="round"/>
<path d="M191.682 27.1992C198.893 31.1272 190.633 40.7272 190.633 46.3272C190.633 51.9272 198.893 51.1272 203.023 52.7272C204.675 52.7272 207.979 52.7272 207.888 56.7912" stroke="#263238" stroke-linecap="round" stroke-linejoin="round"/>
<path d="M183.645 32.2949C184.9 38.9109 192.731 36.5669 197.538 38.0789C205.798 40.6789 201.214 48.9349 198.752 53.9269C197.274 56.9029 195.803 61.0789 198.446 63.9029" stroke="#263238" stroke-linecap="round" stroke-linejoin="round"/>
<path d="M184.703 34.8634L193.302 27.9434" stroke="#263238" stroke-linecap="round" stroke-linejoin="round"/>
<path d="M188.07 36.9266L194.546 31.7266" stroke="#263238" stroke-linecap="round" stroke-linejoin="round"/>
<path d="M191.879 42.1913L197.347 38.0312" stroke="#263238" stroke-linecap="round" stroke-linejoin="round"/>
<path d="M190.75 48.4146L201.438 40.9746" stroke="#263238" stroke-linecap="round" stroke-linejoin="round"/>
<path d="M194.844 51.3194L202.294 46.0234" stroke="#263238" stroke-linecap="round" stroke-linejoin="round"/>
<path d="M198.016 62.5745L207.325 55.2305" stroke="#263238" stroke-linecap="round" stroke-linejoin="round"/>
<path d="M198.25 56.8001L204.321 52.6641" stroke="#263238" stroke-linecap="round" stroke-linejoin="round"/>
<path d="M76.7031 282.832C85.5725 279.396 89.8867 269.647 86.3392 261.057C82.7917 252.467 72.7258 248.288 63.8564 251.724C54.987 255.16 50.6727 264.909 54.2202 273.499C57.7677 282.09 67.8336 286.268 76.7031 282.832Z" stroke="#263238" stroke-linecap="round" stroke-linejoin="round"/>
<path d="M74.6293 251.07C80.6591 244.214 85.7886 240.334 87.7627 241.598C90.7694 243.51 85.3756 256.566 75.7196 270.75C66.0637 284.934 55.7965 294.886 52.7899 292.966C50.8075 291.71 52.476 285.614 56.606 277.542" stroke="#263238" stroke-linecap="round" stroke-linejoin="round"/>
<path d="M53.3526 270.719C44.9439 268.375 39.5749 265.639 39.9136 263.455C40.4009 259.999 54.9303 259.199 72.2845 261.719C89.6388 264.239 103.284 269.015 102.764 272.455C102.392 274.855 95.3299 275.951 85.294 275.583" stroke="#263238" stroke-linecap="round" stroke-linejoin="round"/>
<path d="M55.5566 258.584C49.2129 247.496 46.0411 238.848 48.1887 237.496C51.0136 235.728 61.9333 247.2 72.5804 263.096C83.2276 278.992 89.563 293.36 86.7463 295.136C84.8796 296.304 79.4693 291.68 72.9356 283.808" stroke="#263238" stroke-linecap="round" stroke-linejoin="round"/>
<path d="M90.1978 248.847C89.8898 249.302 89.4496 249.658 88.9327 249.871C88.4159 250.084 87.8455 250.143 87.2938 250.042C86.742 249.941 86.2336 249.684 85.8326 249.303C85.4316 248.922 85.1561 248.435 85.0409 247.903C84.9257 247.37 84.9759 246.817 85.1852 246.312C85.3945 245.808 85.7535 245.374 86.2169 245.067C86.6803 244.76 87.2273 244.592 87.7888 244.586C88.3503 244.58 88.9011 244.735 89.3718 245.031C89.6853 245.229 89.9554 245.485 90.1666 245.783C90.3779 246.082 90.5261 246.419 90.6029 246.773C90.6796 247.128 90.6834 247.494 90.6138 247.849C90.5443 248.205 90.4029 248.544 90.1978 248.847Z" fill="#263238"/>
<path d="M80.7915 291C80.4835 291.454 80.0433 291.811 79.5265 292.023C79.0096 292.236 78.4393 292.295 77.8875 292.194C77.3358 292.093 76.8273 291.836 76.4263 291.455C76.0254 291.075 75.7499 290.587 75.6347 290.055C75.5195 289.523 75.5697 288.969 75.779 288.465C75.9883 287.96 76.3473 287.527 76.8107 287.219C77.274 286.912 77.821 286.745 78.3825 286.738C78.944 286.732 79.4949 286.887 79.9655 287.184C80.279 287.381 80.5491 287.637 80.7604 287.936C80.9717 288.235 81.1199 288.571 81.1966 288.926C81.2734 289.28 81.2771 289.646 81.2076 290.002C81.1381 290.358 80.9967 290.697 80.7915 291Z" fill="#263238"/>
<path d="M65.608 262.4C65.3 262.855 64.8597 263.211 64.3429 263.424C63.826 263.636 63.2557 263.696 62.7039 263.595C62.1522 263.494 61.6437 263.236 61.2427 262.856C60.8418 262.475 60.5663 261.988 60.4511 261.455C60.3359 260.923 60.3861 260.37 60.5954 259.865C60.8047 259.36 61.1637 258.927 61.6271 258.62C62.0905 258.313 62.6374 258.145 63.1989 258.139C63.7604 258.133 64.3113 258.287 64.782 258.584C65.4133 258.985 65.8548 259.611 66.0097 260.327C66.1646 261.042 66.0201 261.788 65.608 262.4Z" fill="#263238"/>
<path d="M246.76 142.656H256.49L261.355 134.496L256.49 126.336H246.76L241.895 134.496L246.76 142.656Z" stroke="#263238" stroke-linecap="round" stroke-linejoin="round"/>
<path d="M245.345 160.566L240.48 152.406H230.75" stroke="#263238" stroke-linecap="round" stroke-linejoin="round"/>
<path d="M232.057 134.496H241.787L246.652 126.336L241.787 118.168H232.057L227.191 126.336L232.057 134.496Z" stroke="#263238" stroke-linecap="round" stroke-linejoin="round"/>
<path d="M246.76 126.336H256.49L261.355 118.168L256.49 110.008H246.76L241.895 118.168L246.76 126.336Z" stroke="#263238" stroke-linecap="round" stroke-linejoin="round"/>
<path d="M246.653 127.598C247.374 127.598 247.958 127.032 247.958 126.334C247.958 125.636 247.374 125.07 246.653 125.07C245.932 125.07 245.348 125.636 245.348 126.334C245.348 127.032 245.932 127.598 246.653 127.598Z" fill="#263238"/>
<path d="M226.332 110.464C227.053 110.464 227.638 109.898 227.638 109.2C227.638 108.501 227.053 107.936 226.332 107.936C225.612 107.936 225.027 108.501 225.027 109.2C225.027 109.898 225.612 110.464 226.332 110.464Z" fill="#263238"/>
<path d="M244.043 160.567C244.043 160.317 244.12 160.072 244.263 159.864C244.406 159.657 244.61 159.495 244.849 159.399C245.087 159.303 245.349 159.278 245.603 159.327C245.856 159.376 246.088 159.496 246.271 159.673C246.453 159.85 246.578 160.075 246.628 160.32C246.678 160.565 246.653 160.819 246.554 161.05C246.455 161.281 246.288 161.479 246.073 161.618C245.858 161.757 245.606 161.831 245.348 161.831C245.177 161.831 245.007 161.798 244.849 161.735C244.69 161.671 244.546 161.578 244.425 161.461C244.304 161.343 244.208 161.204 244.142 161.05C244.077 160.897 244.043 160.733 244.043 160.567Z" fill="#263238"/>
<path d="M230.75 153.671C231.471 153.671 232.055 153.105 232.055 152.407C232.055 151.708 231.471 151.143 230.75 151.143C230.03 151.143 229.445 151.708 229.445 152.407C229.445 153.105 230.03 153.671 230.75 153.671Z" fill="#263238"/>
<path d="M270.77 118.399C270.77 118.147 270.847 117.901 270.991 117.691C271.136 117.482 271.342 117.319 271.582 117.223C271.823 117.127 272.087 117.102 272.342 117.152C272.597 117.202 272.831 117.324 273.014 117.502C273.198 117.681 273.322 117.908 273.372 118.156C273.422 118.403 273.395 118.659 273.294 118.891C273.193 119.124 273.024 119.322 272.807 119.46C272.589 119.599 272.335 119.673 272.075 119.671C271.903 119.671 271.732 119.638 271.573 119.574C271.414 119.51 271.27 119.416 271.149 119.298C271.028 119.18 270.932 119.039 270.867 118.885C270.801 118.731 270.768 118.566 270.77 118.399Z" fill="#263238"/>
<path d="M240.383 153.671C241.104 153.671 241.688 153.105 241.688 152.407C241.688 151.708 241.104 151.143 240.383 151.143C239.662 151.143 239.078 151.708 239.078 152.407C239.078 153.105 239.662 153.671 240.383 153.671Z" fill="#263238"/>
<path d="M260.051 118.399C260.051 118.147 260.128 117.901 260.272 117.692C260.416 117.483 260.622 117.32 260.862 117.224C261.101 117.128 261.366 117.102 261.62 117.151C261.875 117.2 262.109 117.322 262.293 117.5C262.476 117.677 262.602 117.904 262.652 118.151C262.703 118.398 262.677 118.653 262.577 118.886C262.478 119.118 262.31 119.317 262.094 119.457C261.878 119.596 261.624 119.671 261.364 119.671C261.016 119.671 260.682 119.537 260.435 119.298C260.189 119.06 260.051 118.736 260.051 118.399Z" fill="#263238"/>
<path d="M245.348 142.663C245.346 142.411 245.422 142.164 245.566 141.953C245.709 141.743 245.914 141.578 246.155 141.481C246.395 141.384 246.66 141.358 246.915 141.407C247.171 141.456 247.405 141.577 247.59 141.755C247.774 141.934 247.899 142.161 247.95 142.409C248 142.656 247.973 142.913 247.873 143.145C247.772 143.378 247.603 143.577 247.386 143.716C247.168 143.855 246.913 143.928 246.653 143.927C246.307 143.925 245.977 143.791 245.732 143.554C245.488 143.318 245.35 142.997 245.348 142.663Z" fill="#263238"/>
<path d="M261.363 118.383H272.077" stroke="#263238" stroke-linecap="round" stroke-linejoin="round"/>
<path d="M246.652 142.664L240.383 152.408" stroke="#263238" stroke-linecap="round" stroke-linejoin="round"/>
<path d="M232.056 118.167L226.332 109.199" stroke="#263238" stroke-linecap="round" stroke-linejoin="round"/>
<path d="M301.07 86C302.193 82.3259 304.532 79.1116 307.727 76.8527C310.922 74.5937 314.796 73.4157 318.751 73.5004C322.706 73.585 326.523 74.9275 329.612 77.3209C332.701 79.7142 334.891 83.0255 335.845 86.744" stroke="#263238" stroke-linecap="round" stroke-linejoin="round"/>
<path d="M316.283 108.272C311.888 107.784 307.832 105.748 304.888 102.551C301.943 99.3542 300.316 95.2197 300.316 90.9355" stroke="#263238" stroke-linecap="round" stroke-linejoin="round"/>
<path d="M336.362 90.9355C336.362 95.5617 334.465 99.9984 331.089 103.27C327.712 106.542 323.132 108.381 318.355 108.384" stroke="#263238" stroke-linecap="round" stroke-linejoin="round"/>
<path d="M337.388 79.8719C343.021 79.1759 346.796 79.5519 347.383 81.1839C348.547 84.4319 336.496 91.4319 320.463 96.8239C304.431 102.216 290.496 103.944 289.323 100.688C288.704 98.9519 291.859 96.1439 297.377 93.0799" stroke="#263238" stroke-linecap="round" stroke-linejoin="round"/>
<path d="M240.385 67.9199L242.111 71.3039L245.968 71.8479L243.176 74.4879L243.837 78.2079L240.385 76.4479L236.932 78.2079L237.593 74.4879L234.801 71.8479L238.658 71.3039L240.385 67.9199Z" stroke="#263238" stroke-linecap="round" stroke-linejoin="round"/>
<path d="M118.43 58.904C118.428 61.9127 117.194 64.7977 114.998 66.9259C112.802 69.0541 109.824 70.2517 106.717 70.256C106.338 70.256 105.966 70.24 105.602 70.208C103.342 70.0003 101.192 69.161 99.4144 67.7921C97.637 66.4233 96.3083 64.5838 95.5901 62.4974C94.8718 60.4109 94.7948 58.1672 95.3684 56.0392C95.942 53.9111 97.1416 51.9902 98.8213 50.5101C100.501 49.0299 102.588 48.0542 104.83 47.7016C107.071 47.3489 109.37 47.6345 111.447 48.5236C113.525 49.4127 115.29 50.8671 116.53 52.7099C117.769 54.5527 118.43 56.7046 118.43 58.904Z" stroke="#263238" stroke-linecap="round" stroke-linejoin="round"/>
<path d="M116.556 60.9512C116.558 61.2997 116.453 61.6407 116.254 61.9312C116.055 62.2217 115.772 62.4485 115.44 62.5829C115.108 62.7174 114.743 62.7534 114.39 62.6864C114.037 62.6194 113.712 62.4524 113.457 62.2066C113.202 61.9607 113.028 61.6472 112.957 61.3055C112.887 60.9639 112.922 60.6096 113.059 60.2876C113.197 59.9655 113.43 59.6901 113.729 59.4964C114.028 59.3027 114.379 59.1992 114.739 59.1992C115.22 59.1992 115.681 59.3835 116.021 59.7119C116.362 60.0402 116.554 60.4858 116.556 60.9512Z" stroke="#263238" stroke-linecap="round" stroke-linejoin="round"/>
<path d="M100.244 65.4149C100.245 65.8318 100.15 66.2438 99.9673 66.6213C99.7846 66.9989 99.518 67.3327 99.1866 67.5989C97.6463 66.3674 96.46 64.772 95.7422 62.9669C96.1967 62.6965 96.7204 62.5552 97.2538 62.5589C97.6445 62.5536 98.0324 62.6235 98.3949 62.7647C98.7575 62.9058 99.0874 63.1154 99.3656 63.3811C99.6439 63.6468 99.8648 63.9635 100.016 64.3126C100.166 64.6618 100.244 65.0364 100.244 65.4149Z" stroke="#263238" stroke-linecap="round" stroke-linejoin="round"/>
<path d="M114.739 67.1997C112.573 69.1866 109.701 70.292 106.718 70.2877C106.338 70.2877 105.966 70.2717 105.603 70.2397C105.537 69.9319 105.503 69.6182 105.504 69.3037C105.504 68.2402 105.876 67.208 106.558 66.3745C107.24 65.5409 108.192 64.9549 109.261 64.7114C110.33 64.4678 111.453 64.5811 112.447 65.0327C113.441 65.4844 114.249 66.2479 114.739 67.1997Z" stroke="#263238" stroke-linecap="round" stroke-linejoin="round"/>
<path d="M103.876 54.3996C105.364 54.3996 106.569 53.232 106.569 51.7916C106.569 50.3512 105.364 49.1836 103.876 49.1836C102.389 49.1836 101.184 50.3512 101.184 51.7916C101.184 53.232 102.389 54.3996 103.876 54.3996Z" stroke="#263238" stroke-linecap="round" stroke-linejoin="round"/>
<path d="M106.373 59.2002C106.373 59.4391 106.3 59.6727 106.163 59.8713C106.026 60.07 105.831 60.2248 105.603 60.3162C105.376 60.4077 105.125 60.4316 104.883 60.385C104.641 60.3384 104.419 60.2233 104.244 60.0544C104.07 59.8854 103.951 59.6702 103.903 59.4359C103.855 59.2015 103.879 58.9586 103.974 58.7379C104.068 58.5172 104.228 58.3285 104.433 58.1958C104.638 58.063 104.879 57.9922 105.126 57.9922C105.29 57.9922 105.452 58.0234 105.603 58.0841C105.755 58.1449 105.892 58.2338 106.008 58.346C106.124 58.4582 106.216 58.5913 106.278 58.7379C106.341 58.8845 106.373 59.0416 106.373 59.2002Z" stroke="#263238" stroke-linecap="round" stroke-linejoin="round"/>
<path d="M116.228 52.2795C115.9 52.3836 115.557 52.435 115.212 52.4315C114.761 52.4315 114.314 52.3454 113.898 52.178C113.481 52.0107 113.103 51.7654 112.785 51.4563C112.466 51.1471 112.214 50.7802 112.042 50.3765C111.87 49.9727 111.783 49.5402 111.784 49.1035C111.775 48.965 111.775 48.826 111.784 48.6875C113.553 49.5045 115.081 50.7398 116.228 52.2795Z" stroke="#263238" stroke-linecap="round" stroke-linejoin="round"/>
<path d="M385.544 190.632L386.808 187.88L384.76 186.792C384.835 186.307 384.849 185.815 384.801 185.328L386.899 184.336L385.784 181.528L383.537 182.152C383.236 181.76 382.886 181.405 382.496 181.096L383.264 178.952L380.423 177.728L379.291 179.712C378.789 179.652 378.282 179.652 377.78 179.712L376.764 177.68L373.856 178.76L374.509 180.928C374.104 181.224 373.735 181.565 373.41 181.944L371.205 181.2L369.974 183.912L372.023 185.008C371.947 185.492 371.933 185.984 371.981 186.472L369.875 187.456L370.99 190.272L373.237 189.64C373.54 190.032 373.889 190.389 374.278 190.704L373.518 192.84L376.359 194.064L377.482 192.08C377.983 192.153 378.49 192.166 378.994 192.12L380.018 194.16L382.918 193.08L382.273 190.904C382.676 190.61 383.042 190.272 383.364 189.896L385.544 190.632ZM376.904 189.096C376.252 188.815 375.7 188.353 375.319 187.768C374.938 187.184 374.744 186.503 374.763 185.812C374.781 185.121 375.01 184.45 375.422 183.886C375.833 183.321 376.409 182.887 377.075 182.639C377.741 182.39 378.468 182.339 379.165 182.491C379.861 182.643 380.495 182.991 380.987 183.492C381.479 183.993 381.806 184.624 381.928 185.306C382.05 185.987 381.96 186.688 381.67 187.32C381.28 188.166 380.559 188.828 379.666 189.161C378.773 189.494 377.78 189.47 376.904 189.096Z" stroke="#263238" stroke-linecap="round" stroke-linejoin="round"/>
<path d="M370.444 204.75L372.162 201.014L369.387 199.526C369.486 198.869 369.502 198.203 369.436 197.542L372.294 196.198L370.799 192.382L367.751 193.238C367.344 192.703 366.87 192.22 366.339 191.798L367.38 188.886L363.489 187.198L361.961 189.886C361.283 189.792 360.595 189.773 359.913 189.83L358.525 187.07L354.577 188.542L355.46 191.486C354.912 191.888 354.413 192.35 353.974 192.862L350.975 191.886L349.257 195.622L352.033 197.11C351.934 197.767 351.917 198.433 351.983 199.094L349.125 200.438L350.645 204.254L353.693 203.406C354.102 203.939 354.577 204.423 355.105 204.846L354.064 207.75L357.93 209.414L359.458 206.718C360.136 206.817 360.824 206.835 361.507 206.774L362.894 209.534L366.843 208.07L365.959 205.118C366.507 204.719 367.006 204.26 367.446 203.75L370.444 204.75ZM358.715 202.662C357.828 202.28 357.079 201.651 356.561 200.855C356.044 200.06 355.781 199.134 355.807 198.194C355.833 197.254 356.147 196.343 356.708 195.576C357.269 194.809 358.052 194.22 358.959 193.884C359.865 193.548 360.854 193.48 361.801 193.688C362.747 193.897 363.609 194.373 364.276 195.056C364.943 195.738 365.386 196.598 365.549 197.525C365.712 198.451 365.587 199.404 365.191 200.262C364.929 200.832 364.553 201.346 364.086 201.775C363.618 202.205 363.068 202.54 362.467 202.763C361.865 202.986 361.224 203.092 360.58 203.075C359.937 203.057 359.303 202.917 358.715 202.662Z" stroke="#263238" stroke-linecap="round" stroke-linejoin="round"/>
<path d="M199.213 169.289C198.081 171.366 196.803 173.365 195.388 175.273C188.05 185.155 177.266 192.131 165.03 194.911C152.794 197.692 139.932 196.09 128.821 190.401C127.673 189.817 126.549 189.193 125.476 188.537C124.402 187.881 123.353 187.209 122.345 186.489C121.123 185.633 119.95 184.721 118.826 183.769C118.754 183.716 118.688 183.657 118.628 183.593C111.308 177.319 105.958 169.177 103.189 160.098C100.42 151.019 100.344 141.369 102.969 132.25C105.594 123.131 110.814 114.911 118.034 108.529C125.253 102.147 134.181 97.8604 143.796 96.1593C153.411 94.4582 163.327 95.4109 172.41 98.9087C181.493 102.406 189.377 108.308 195.161 115.94C200.945 123.571 204.396 132.624 205.12 142.065C205.844 151.506 203.811 160.953 199.254 169.329L199.213 169.289Z" fill="#4D44B5"/>
<mask id="mask0_586_159" style="mask-type:luminance" maskUnits="userSpaceOnUse" x="101" y="95" width="105" height="102">
<path d="M199.213 169.289C198.081 171.366 196.803 173.365 195.388 175.273C188.05 185.155 177.266 192.131 165.03 194.911C152.794 197.692 139.932 196.09 128.821 190.401C127.673 189.817 126.549 189.193 125.476 188.537C124.402 187.881 123.353 187.209 122.345 186.489C121.123 185.633 119.95 184.721 118.826 183.769C118.754 183.716 118.688 183.657 118.628 183.593C111.308 177.319 105.958 169.177 103.189 160.098C100.42 151.019 100.344 141.369 102.969 132.25C105.594 123.131 110.814 114.911 118.034 108.529C125.253 102.147 134.181 97.8604 143.796 96.1593C153.411 94.4582 163.327 95.4109 172.41 98.9087C181.493 102.406 189.377 108.308 195.161 115.94C200.945 123.571 204.396 132.624 205.12 142.065C205.844 151.506 203.811 160.953 199.254 169.329L199.213 169.289Z" fill="white"/>
</mask>
<g mask="url(#mask0_586_159)">
<g opacity="0.6">
<path d="M199.213 169.289C198.081 171.366 196.803 173.365 195.389 175.273L194.381 174.473L192.646 173.585L190.821 172.657L191.126 170.521L191.027 168.593C190.92 166.665 192.357 168.241 193.505 167.657C194.401 167.037 195.124 166.212 195.612 165.257C195.612 165.257 196.438 162.689 196.165 161.657C195.72 160.467 195.196 159.308 194.596 158.185L191.638 162.185L189.16 162.001L186.815 160.801L186.509 157.641L185.303 157.033L184.799 155.217L178.282 153.449L177.539 152.185C176.795 150.921 173.797 150.273 173.797 150.273L174.532 148.625L175.688 146.785C176.853 144.945 178.059 148.001 178.059 148.001L179.438 148.697L181.999 146.617L182.676 143.633L186.848 143.865C186.766 143.461 186.83 143.042 187.028 142.678C187.226 142.314 187.548 142.027 187.938 141.865C189.326 141.337 188.714 138.417 188.186 137.337C187.657 136.257 185.708 137.129 185.708 137.129C185.708 137.129 183.585 134.001 183.296 132.753C183.007 131.505 187.343 131.953 189.202 130.697C191.06 129.441 190.424 126.945 189.516 126.889C188.607 126.833 191.292 121.209 196.454 122.753C197.891 123.185 198.8 123.033 199.362 122.553C203.235 129.775 205.245 137.799 205.219 145.938C205.193 154.077 203.132 162.089 199.213 169.289Z" fill="white"/>
<path d="M163.093 147.648L161.326 149.8C161.326 149.8 160.574 148.064 159.5 149L157.848 150.424L156.651 153.672L154.503 155.016L153.19 154.352L151.951 153.712L150.604 153.024L149.316 155.424L148.267 157.344C148.778 158.287 149.414 159.161 150.158 159.944L152.438 163.84L155.213 165.2C156.371 165.242 157.523 165.375 158.658 165.6L160.566 166.568L159.889 170.568C159.889 170.568 158.451 172.832 157.493 172.208L156.527 171.592L154.957 176.856L154.891 179.752C154.891 179.752 153.958 180.128 153.016 180.432C152.075 180.736 152.669 180.576 150.695 181.168C148.721 181.76 148.878 181.736 147.276 182.176C145.91 182.639 144.595 183.234 143.352 183.952L143.492 186.736L139.718 187.272L137.603 186.184L138.123 184.424L138.371 181.672L138.082 179.616L137.174 177.8L139.718 175.568L139.156 174.168L137.71 171.384L134.654 172.984L133.085 173.784L129.533 172.24L129.145 170.152L127.955 166.4L126.849 164.064L124.883 161.488L124.387 159.272L125.494 157.24L126.08 156.168L124.271 153.808L123.776 152.128L120.728 149.448C120.728 149.448 121.612 149.392 121.413 148.2C121.215 147.008 123.156 145 123.156 145C124.255 145.56 127.551 147.784 127.551 147.784L130.433 148.168C130.433 148.168 131.012 148.168 131.573 147.112C132.229 146.141 133 145.247 133.87 144.448C133.87 144.448 132.54 139.976 133.49 139.376C134.439 138.776 135.406 135.848 135.406 135.848L136.166 134.448C136.166 134.448 134.373 133.688 134.035 132.768C133.696 131.848 129.277 133.072 129.277 133.072L126.229 135.12L123.825 136.92L122.785 138.832C122.785 138.832 120.662 136.36 120.654 137.744C120.492 139.163 120.17 140.561 119.695 141.912C119.695 141.912 120.133 142.136 119.555 143.208C118.977 144.28 118.349 144.224 117.077 144.376C115.419 144.392 113.762 144.283 112.121 144.048C112.121 144.048 111.295 147.008 111.865 147.52L112.427 148.016C112.427 148.016 111.543 150.168 110.667 149.72L108.536 148.632L105.554 149.8L102.25 153.336L101.515 153.192C99.4902 140.038 102.909 126.641 111.028 115.914C119.147 105.188 131.31 97.9995 144.872 95.9121C145.062 96.7121 145.268 97.4641 145.268 97.4641L144.442 101.416L143.385 103.368L142.476 105.04L141.196 107.392L144.475 110.32L143.773 113.784L141.997 114.864L141.485 117.464L144.533 123.232L145.359 125.496C144.849 126.58 144.598 127.761 144.624 128.952C144.624 128.952 144.996 131.112 146.623 131.968C148.25 132.824 150.39 133.832 150.39 133.832L150.216 137.032L149.481 137.832L150.703 141.28C154.429 142.696 154.074 143.88 154.429 142.696L154.792 141.52L157.328 140.632L160.558 144.368C160.933 144.363 161.304 144.45 161.636 144.621C161.968 144.791 162.251 145.04 162.457 145.344C163.399 146.496 164.869 145.496 163.093 147.648Z" fill="white"/>
<path d="M119.316 175.512C119.407 176.648 117.92 178.072 117.92 178.072L119.135 178.688L119.506 181.888L118.589 183.584C112.093 178.026 107.137 170.979 104.176 163.088L104.837 159.696L107.752 159.296C107.752 159.296 110.363 157.616 111.519 158.064C112.675 158.512 113.733 161.264 113.733 161.264C113.733 161.264 114.559 164.976 114.451 164.904H114.402H114.468L115.657 165.512L115.996 166.976L114.344 170.016H111.684C111.684 170.016 111.155 169.744 111.106 171.08C111.149 171.544 111.294 171.993 111.532 172.398C111.77 172.802 112.095 173.152 112.485 173.424L115.36 172.712L116.128 169.832L118.953 169.296C118.953 169.296 118.548 171.064 119.209 171.4L119.878 171.744L120.275 173.856C119.979 174.026 119.734 174.269 119.566 174.56C119.398 174.85 119.312 175.179 119.316 175.512Z" fill="white"/>
<path d="M132.978 180.041C132.722 179.353 132.615 178.753 130.855 177.857C129.096 176.961 129.203 177.281 128.51 178.025C128.211 178.408 127.803 178.697 127.336 178.858C126.869 179.018 126.364 179.043 125.883 178.929C124.727 178.681 125.33 179.945 125.33 179.945L125.61 183.361L122.348 186.481C123.355 187.201 124.399 187.883 125.478 188.529L126.172 186.465L131.591 188.001C130.442 187.673 131.12 186.153 131.12 186.153L129.963 185.561C129.963 185.561 133.234 180.713 132.978 180.041Z" fill="white"/>
<path d="M167.109 162.281L165.333 160.545L163.301 161.161L162.475 162.761L161.855 163.913L162.681 165.513L164.333 167.457L165.275 165.713C165.275 165.713 167.894 165.713 169.265 164.249C170.636 162.785 167.109 162.281 167.109 162.281Z" fill="white"/>
<path d="M161.887 154.449L165.191 156.129L165.323 155.377C165.495 154.774 165.799 154.215 166.215 153.737L163.687 151.145L161.887 154.449Z" fill="white"/>
<path d="M160.763 191.687L159.813 190.335L158.706 189.775H155.327L153.403 193.311C153.403 193.311 151.561 193.071 149.141 192.863C146.721 192.655 147.315 193.623 147.315 193.623L146.688 195.847C152.794 196.576 158.985 196.253 164.975 194.895C164.279 194.425 163.556 193.993 162.811 193.599L160.763 191.687Z" fill="white"/>
</g>
</g>
<path d="M199.213 169.289C198.081 171.366 196.803 173.365 195.388 175.273C188.05 185.155 177.266 192.131 165.03 194.911C152.794 197.692 139.932 196.09 128.821 190.401C127.673 189.817 126.549 189.193 125.476 188.537C124.402 187.881 123.353 187.209 122.345 186.489C121.123 185.633 119.95 184.721 118.826 183.769C118.754 183.716 118.688 183.657 118.628 183.593C111.308 177.319 105.958 169.177 103.189 160.098C100.42 151.019 100.344 141.369 102.969 132.25C105.594 123.131 110.814 114.911 118.034 108.529C125.253 102.147 134.181 97.8604 143.796 96.1593C153.411 94.4582 163.327 95.4109 172.41 98.9087C181.493 102.406 189.377 108.308 195.161 115.94C200.945 123.571 204.396 132.624 205.12 142.065C205.844 151.506 203.811 160.953 199.254 169.329L199.213 169.289Z" stroke="#263238" stroke-linecap="round" stroke-linejoin="round"/>
<path d="M164.975 194.897C158.985 196.255 152.794 196.578 146.688 195.849L147.315 193.625C147.315 193.625 146.721 192.657 149.141 192.865C151.561 193.073 153.403 193.313 153.403 193.313L155.327 189.777H158.706L159.813 190.337L160.763 191.689L162.811 193.601C163.556 193.995 164.279 194.427 164.975 194.897Z" stroke="#263238" stroke-linecap="round" stroke-linejoin="round"/>
<path d="M199.395 122.561C198.833 123.041 197.924 123.193 196.487 122.761C191.325 121.217 188.648 126.833 189.549 126.897C190.449 126.961 191.085 129.489 189.235 130.705C187.385 131.921 183.04 131.505 183.329 132.761C183.618 134.017 185.741 137.137 185.741 137.137C185.741 137.137 187.641 136.273 188.178 137.345C188.714 138.417 189.326 141.345 187.938 141.873C187.548 142.035 187.226 142.322 187.028 142.686C186.83 143.05 186.766 143.469 186.848 143.873L182.676 143.641L181.999 146.625L179.438 148.705L178.059 148.009C178.059 148.009 176.853 144.953 175.688 146.793L174.532 148.633L173.797 150.281C173.797 150.281 176.795 150.929 177.539 152.193L178.282 153.457L184.799 155.225L185.303 157.041L186.509 157.649L186.815 160.809L189.243 162.041L191.721 162.225L194.678 158.225C195.279 159.348 195.803 160.508 196.248 161.697C196.537 162.729 195.694 165.297 195.694 165.297C195.207 166.252 194.483 167.077 193.588 167.697C192.407 168.281 190.961 166.705 191.11 168.633L191.209 170.561L190.903 172.697L192.729 173.625L194.463 174.513L195.471 175.313" stroke="#263238" stroke-linecap="round" stroke-linejoin="round"/>
<path d="M101.578 153.192L102.313 153.336L105.617 149.8L108.599 148.632L110.73 149.72C111.606 150.168 112.49 148.016 112.49 148.016L111.928 147.52C111.358 147.008 112.184 144.048 112.184 144.048C113.825 144.283 115.482 144.392 117.14 144.376C118.445 144.224 119.065 144.272 119.618 143.208C120.171 142.144 119.758 141.912 119.758 141.912C120.233 140.561 120.555 139.163 120.717 137.744C120.717 136.36 122.848 138.832 122.848 138.832L123.888 136.92L126.218 135.128L129.266 133.08C129.266 133.08 133.685 131.848 134.023 132.776C134.362 133.704 136.154 134.456 136.154 134.456L135.395 135.856C135.395 135.856 134.42 138.768 133.478 139.384C132.537 140 133.858 144.456 133.858 144.456C132.989 145.255 132.218 146.149 131.562 147.12C130.984 148.192 130.422 148.176 130.422 148.176L127.539 147.792C127.539 147.792 124.235 145.568 123.145 145.008C123.145 145.008 121.204 147.016 121.402 148.208C121.6 149.4 120.717 149.456 120.717 149.456L123.764 152.136L124.26 153.816L126.069 156.176L125.483 157.248L124.376 159.28L124.871 161.496L126.837 164.072L127.952 166.4L129.158 170.168L129.546 172.256L133.098 173.8L134.668 173L137.724 171.4L139.169 174.184L139.731 175.584L137.187 177.816L138.096 179.632L138.385 181.688L138.137 184.44L137.617 186.2L139.731 187.288L143.506 186.76L143.365 183.968C144.609 183.25 145.923 182.655 147.289 182.192C148.891 181.752 148.734 181.776 150.709 181.184C152.683 180.592 152.08 180.752 153.03 180.448C153.98 180.144 154.905 179.768 154.905 179.768L154.971 176.872L156.54 171.608L157.507 172.224C158.465 172.848 159.902 170.584 159.902 170.584L160.579 166.584L158.63 165.6C157.495 165.376 156.343 165.242 155.186 165.2L152.468 163.816L150.188 159.92C149.444 159.137 148.808 158.263 148.297 157.32L149.346 155.4L150.634 153L151.981 153.688L153.22 154.328L154.533 154.992L156.681 153.648L157.878 150.4L159.53 148.976C160.604 148.032 161.356 149.776 161.356 149.776L163.123 147.624C164.899 145.472 163.429 146.472 162.52 145.368C162.314 145.064 162.031 144.815 161.699 144.645C161.367 144.474 160.996 144.387 160.621 144.392L157.391 140.656L154.822 141.6L154.459 142.776C154.103 143.96 154.459 142.776 150.733 141.36L149.511 137.912L150.246 137.112L150.42 133.912C150.42 133.912 148.28 132.896 146.653 132.048C145.026 131.2 144.654 129.032 144.654 129.032C144.628 127.841 144.879 126.66 145.389 125.576L144.563 123.312L141.515 117.544L142.027 114.944L143.803 113.864L144.505 110.4L141.317 107.472L142.597 105.12L143.506 103.448L144.563 101.496L145.389 97.5442C145.389 97.5442 145.183 96.8082 144.993 95.9922" stroke="#263238" stroke-linecap="round" stroke-linejoin="round"/>
<path d="M118.868 183.76C118.804 183.688 118.731 183.624 118.653 183.568L119.57 181.872L119.198 178.672L117.984 178.056C117.984 178.056 119.471 176.632 119.38 175.496C119.364 175.157 119.442 174.82 119.606 174.52C119.77 174.221 120.014 173.969 120.313 173.792L119.917 171.68L119.248 171.336C118.587 171 118.992 169.232 118.992 169.232L116.167 169.768L115.398 172.648L112.524 173.36C112.134 173.088 111.809 172.738 111.571 172.333C111.333 171.929 111.188 171.479 111.145 171.016C111.194 169.68 111.723 169.952 111.723 169.952H114.382L116.034 166.912L115.696 165.448L114.506 164.84" stroke="#263238" stroke-linecap="round" stroke-linejoin="round"/>
<path d="M114.432 164.841C114.564 164.913 113.713 161.201 113.713 161.201C113.713 161.201 112.656 158.489 111.499 158.001C110.343 157.513 107.733 159.233 107.733 159.233L104.817 159.633L104.156 163.025" stroke="#263238" stroke-linecap="round" stroke-linejoin="round"/>
<path d="M126.168 186.465L125.474 188.529C124.373 187.878 123.329 187.195 122.344 186.481L125.606 183.361L125.326 179.945C125.326 179.945 124.723 178.681 125.879 178.929C126.36 179.043 126.865 179.018 127.332 178.858C127.799 178.697 128.207 178.408 128.506 178.025C129.183 177.281 129.1 176.961 130.852 177.857C132.603 178.753 132.718 179.353 132.974 180.041C133.23 180.729 129.959 185.585 129.959 185.585L131.116 186.177C131.116 186.177 130.439 187.697 131.587 188.025L126.168 186.465Z" stroke="#263238" stroke-linecap="round" stroke-linejoin="round"/>
<path d="M163.299 161.161L165.331 160.545L167.107 162.281C167.107 162.281 170.617 162.721 169.246 164.201C167.875 165.681 165.256 165.665 165.256 165.665L164.298 167.409L162.646 165.465L161.82 163.865L162.44 162.713L163.299 161.161Z" stroke="#263238" stroke-linecap="round" stroke-linejoin="round"/>
<path d="M166.215 153.737C165.799 154.215 165.495 154.774 165.323 155.377L165.191 156.129L161.887 154.449L163.687 151.145L166.215 153.737Z" stroke="#263238" stroke-linecap="round" stroke-linejoin="round"/>
<path d="M338.023 340.87C333.595 344.438 299.49 367.11 250.822 363.454C248.203 341.998 238.217 253.854 249.575 240.03C249.575 240.03 277.13 227.302 302.513 232.646C327.896 237.99 337.775 243.11 339.584 247.542C340.955 250.894 338.997 313.31 338.023 340.87Z" fill="#263238"/>
<path d="M301.669 242.062C287.049 254.326 268.216 251.734 268.629 242.318C268.695 240.846 270.322 239.022 270.322 239.022L269.752 238.174L267.274 234.55C265.466 231.838 263.202 228.43 261.625 225.95C260.303 223.838 293.252 204.206 293.252 215.494C293.252 231.398 301.314 234.39 301.314 234.39C304.354 235.574 307.187 237.446 301.669 242.062Z" fill="white" stroke="#263238" stroke-linecap="round" stroke-linejoin="round"/>
<path d="M310.912 266.352C310.912 266.352 307.964 276.144 309.36 278.952" stroke="white" stroke-linecap="round" stroke-linejoin="round"/>
<path d="M307.468 237.918C307.468 247.366 278.368 256.622 269.844 247.142" stroke="white" stroke-linecap="round" stroke-linejoin="round"/>
<path d="M283.531 227.016C283.531 227.016 281.582 234.136 272.496 239.696C272.062 238.975 271.363 238.44 270.538 238.2C270.265 238.156 269.986 238.156 269.712 238.2L267.234 234.576C271.934 231.296 283.531 227.016 283.531 227.016Z" fill="#263238"/>
<path d="M287.611 218.263C287.611 218.263 287.512 225.287 285.959 226.719C274.436 237.423 263.169 238.271 261.311 235.447C248.797 216.439 251.754 211.447 250.482 208.191C248.227 202.479 245.46 193.151 246.683 187.503C249.408 174.887 273.941 165.103 286.859 177.791C293.054 183.863 295.012 197.039 293.707 208.015" fill="white"/>
<path d="M287.611 218.263C287.611 218.263 287.512 225.287 285.959 226.719C274.436 237.423 263.169 238.271 261.311 235.447C248.797 216.439 251.754 211.447 250.482 208.191C248.227 202.479 245.46 193.151 246.683 187.503C249.408 174.887 273.941 165.103 286.859 177.791C293.054 183.863 295.012 197.039 293.707 208.015" stroke="#263238" stroke-linecap="round" stroke-linejoin="round"/>
<path d="M252.059 202.32C252.059 202.32 248.614 200.824 247.871 202.608" stroke="#263238" stroke-linecap="round" stroke-linejoin="round"/>
<path d="M260.41 202.431C260.41 202.431 267.572 199.527 270.793 203.055" stroke="#263238" stroke-linecap="round" stroke-linejoin="round"/>
<path d="M268.365 207.351C268.481 208.391 267.96 209.295 267.192 209.383C266.424 209.471 265.714 208.679 265.598 207.639C265.482 206.599 266.003 205.687 266.771 205.607C267.539 205.527 268.217 206.311 268.365 207.351Z" fill="#263238"/>
<path d="M254.322 207.664C254.446 208.704 253.917 209.616 253.149 209.696C252.381 209.776 251.671 209 251.555 207.96C251.439 206.92 251.96 206.008 252.728 205.928C253.496 205.848 254.19 206.624 254.322 207.664Z" fill="#263238"/>
<path d="M254.671 204.928C255.67 206.488 255.125 209.152 253.804 212.808C252.482 216.464 253.647 217.784 258.718 218.152" fill="white"/>
<path d="M254.671 204.928C255.67 206.488 255.125 209.152 253.804 212.808C252.482 216.464 253.647 217.784 258.718 218.152" stroke="#263238" stroke-linecap="round" stroke-linejoin="round"/>
<path d="M258.715 224.479C258.715 224.479 265.323 223.895 268.346 222.287" stroke="#263238" stroke-linecap="round" stroke-linejoin="round"/>
<path d="M300.577 188.207C300.577 183.455 295.736 173.703 287.245 172.607C282.363 167.663 275.408 165.847 266.967 167.727C247.457 172.063 241.518 190.719 240.667 193.807C240.584 194.095 240.543 194.255 240.543 194.255L245.763 192.975L243.517 197.223L246.251 198.975L245.623 199.647L248.795 202.607L247.803 197.199C248.415 193.711 252.561 188.831 252.561 188.831C251.048 190.731 250.105 192.998 249.835 195.383C251.487 191.231 261.399 187.383 261.399 187.383C258.186 189.911 256.443 194.855 256.443 194.855C259.5 191.207 266.661 188.847 271.245 187.591C272.79 191.199 275.243 194.967 278.745 197.055C282.049 199.023 281.934 203.087 281.934 203.087C285.489 205.48 288.108 208.963 289.368 212.975L293.366 218.271C293.366 218.271 300.577 209.703 300.577 188.207Z" fill="#263238"/>
<path d="M283.751 204.447C282.413 201.671 287.27 194.151 290.714 195.079C292.647 195.607 295.174 199.023 295.67 202.607C296.166 206.191 293.547 213.007 290.755 214.487C288.979 215.447 287.517 212.831 287.517 212.831" fill="white"/>
<path d="M283.751 204.447C282.413 201.671 287.27 194.151 290.714 195.079C292.647 195.607 295.174 199.023 295.67 202.607C296.166 206.191 293.547 213.007 290.755 214.487C288.979 215.447 287.517 212.831 287.517 212.831" stroke="#263238" stroke-linecap="round" stroke-linejoin="round"/>
<path d="M73.0234 340.232L166.353 319.096L361.025 340.872L310.903 374.072L73.0234 340.232Z" fill="white"/>
<path d="M73.0234 340.232L166.353 319.096L361.025 340.872" fill="white"/>
<path d="M73.0234 340.232L166.353 319.096L361.025 340.872" stroke="#263238" stroke-linecap="round" stroke-linejoin="round"/>
<path d="M153.789 344.471L191.57 328.295L239.338 330.687L218.093 348.279L153.789 344.471Z" fill="white" stroke="#263238" stroke-linecap="round" stroke-linejoin="round"/>
<path d="M251.415 239.23C239.297 244.03 236.687 254.822 216.095 297.47C216.095 297.47 206.951 299.286 202.053 310.046C197.155 320.806 205.357 329.302 214.798 329.014C214.798 329.014 218.589 332.214 226.362 331.886C234.135 331.558 268.488 280.646 268.488 280.646L251.415 239.23Z" fill="#263238"/>
<path d="M219.703 299.975C225.122 304.647 228.236 311.503 226.584 319.103" stroke="white" stroke-linecap="round" stroke-linejoin="round"/>
<path d="M224.934 302.223C224.934 302.223 231.591 303.631 232.624 311.887" stroke="white" stroke-linecap="round" stroke-linejoin="round"/>
<path d="M244.411 278.062C241.265 270.546 240.178 262.369 241.255 254.326" stroke="white" stroke-linecap="round" stroke-linejoin="round"/>
<path d="M243.47 267.184C242.967 270.544 246.551 288.432 246.527 307.24" stroke="white" stroke-linecap="round" stroke-linejoin="round"/>
<path d="M334.047 242.768C349.204 250.144 351.004 272.84 336.706 299.976C326.604 319.128 312.662 347.408 303.84 349.304C295.018 351.2 286.411 345.88 286.411 345.88C286.411 345.88 278.977 345.544 276.731 340.424C270.585 326.432 286.205 308.752 292.317 312.984C292.317 312.984 311.943 271.648 315.52 269.04" fill="#263238"/>
<path d="M275.329 331.918C273.322 322.262 289.016 310.87 292.32 312.982C292.32 312.982 303.975 313.614 305.718 321.422" stroke="white" stroke-linecap="round" stroke-linejoin="round"/>
<path d="M318.023 333.975C324.846 322.319 336.708 299.975 336.708 299.975" stroke="white" stroke-linecap="round" stroke-linejoin="round"/>
<path d="M292.316 312.984C292.316 312.984 300.486 308.248 306.59 312.728" stroke="white" stroke-linecap="round" stroke-linejoin="round"/>
<path d="M295.109 307.231C295.109 307.231 299.619 297.631 304.195 288.831C308.771 280.031 319.245 266.999 323.598 266.367" stroke="white" stroke-linecap="round" stroke-linejoin="round"/>
<path d="M209.024 324.487C208.043 324.441 207.084 324.187 206.215 323.743C192.173 316.647 181.254 304.919 174.679 296.503C172.122 293.287 169.769 289.923 167.633 286.431L171.003 272.447C171.003 272.447 174.175 280.447 186.92 288.311C199.665 296.175 214.806 298.767 219.704 306.711C224.04 313.631 216.4 324.831 209.024 324.487Z" fill="white"/>
<mask id="mask1_586_159" style="mask-type:luminance" maskUnits="userSpaceOnUse" x="167" y="272" width="54" height="53">
<path d="M209.024 324.487C208.043 324.441 207.084 324.187 206.215 323.743C192.173 316.647 181.254 304.919 174.679 296.503C172.122 293.287 169.769 289.923 167.633 286.431L171.003 272.447C171.003 272.447 174.175 280.447 186.92 288.311C199.665 296.175 214.806 298.767 219.704 306.711C224.04 313.631 216.4 324.831 209.024 324.487Z" fill="white"/>
</mask>
<g mask="url(#mask1_586_159)">
<path opacity="0.4" d="M209.024 324.487C208.867 323.476 208.59 322.485 208.198 321.535C205.249 314.383 187.407 300.167 187.407 300.167C183.162 300.039 178.495 298.327 174.695 296.503C172.133 293.287 169.775 289.924 167.633 286.431L171.003 272.447C171.003 272.447 174.175 280.447 186.92 288.311C199.665 296.175 214.806 298.767 219.704 306.711C224.04 313.631 216.4 324.831 209.024 324.487Z" fill="#4D44B5"/>
</g>
<path d="M209.024 324.487C208.043 324.441 207.084 324.187 206.215 323.743C192.173 316.647 181.254 304.919 174.679 296.503C172.122 293.287 169.769 289.923 167.633 286.431L171.003 272.447C171.003 272.447 174.175 280.447 186.92 288.311C199.665 296.175 214.806 298.767 219.704 306.711C224.04 313.631 216.4 324.831 209.024 324.487Z" stroke="#263238" stroke-linecap="round" stroke-linejoin="round"/>
<path d="M177.222 285.584C177.222 285.584 175.48 293.04 170.887 291.368C168.409 290.464 163.635 283.296 162.734 279.68L177.222 285.584Z" fill="white" stroke="#263238" stroke-linecap="round" stroke-linejoin="round"/>
<path d="M156.977 239.671L160.727 237.799C160.727 237.799 171.324 237.887 177.899 243.063C183.871 247.767 186.903 255.135 186.903 255.135C186.903 255.135 210.105 242.727 233.803 249.847L243.467 302.015L199.036 304.831L171.308 279.319L156.977 239.671Z" fill="white" stroke="#263238" stroke-linecap="round" stroke-linejoin="round"/>
<path d="M246.526 304.103C246.526 304.103 241.314 303.951 234.343 304.175C223.803 304.495 209.241 305.647 202.583 309.399L202.269 309.295L196.173 307.231L196.049 307.055C194.926 305.455 185.865 292.855 172.921 287.727L154.617 238.191C154.617 238.191 173.615 238.991 183.998 255.615L189.21 257.439C189.21 257.439 220.226 248.543 237.589 251.743L246.526 304.103Z" fill="#4D44B5"/>
<mask id="mask2_586_159" style="mask-type:luminance" maskUnits="userSpaceOnUse" x="154" y="238" width="93" height="72">
<path d="M246.526 304.103C246.526 304.103 241.314 303.951 234.343 304.175C223.803 304.495 209.241 305.647 202.583 309.399L202.269 309.295L196.173 307.231L196.049 307.055C194.926 305.455 185.865 292.855 172.921 287.727L154.617 238.191C154.617 238.191 173.615 238.991 183.998 255.615L189.21 257.439C189.21 257.439 220.226 248.543 237.589 251.743L246.526 304.103Z" fill="white"/>
</mask>
<g mask="url(#mask2_586_159)">
<path opacity="0.3" d="M196.049 307.063C194.926 305.463 185.865 292.863 172.921 287.735L154.617 238.199C154.617 238.199 173.615 238.999 183.998 255.623L196.049 307.063Z" fill="black" fill-opacity="0.7"/>
<path opacity="0.3" d="M234.343 304.175C223.803 304.495 209.24 305.647 202.583 309.399L202.269 309.295L190.094 259.231C190.094 259.231 200.055 257.063 203.12 258.159C203.112 258.175 223.365 272.647 234.343 304.175Z" fill="black" fill-opacity="0.7"/>
</g>
<path d="M246.526 304.103C246.526 304.103 241.314 303.951 234.343 304.175C223.803 304.495 209.241 305.647 202.583 309.399L202.269 309.295L196.173 307.231L196.049 307.055C194.926 305.455 185.865 292.855 172.921 287.727L154.617 238.191C154.617 238.191 173.615 238.991 183.998 255.615L189.21 257.439C189.21 257.439 220.226 248.543 237.589 251.743L246.526 304.103Z" stroke="#263238" stroke-linecap="round" stroke-linejoin="round"/>
<path d="M189.227 257.447L201.179 305.471" stroke="#263238" stroke-linecap="round" stroke-linejoin="round"/>
<path d="M196.172 307.238L184.559 259.246" stroke="#263238" stroke-linecap="round" stroke-linejoin="round"/>
<path d="M166.667 286.47C164.016 285.758 158.672 270.326 161.117 263.678C161.117 263.678 164.024 258.79 165.247 258.454C167.097 257.934 174.564 258.086 174.2 259.302C173.374 262.118 167.642 262.07 167.642 262.07L165.783 265.366L165.858 267.182C165.858 267.182 168.559 265.278 169.55 265.334C170.062 265.334 172.705 266.614 174.803 267.686C176.596 268.606 177.694 269.11 177.281 269.942C175.951 272.71 170.293 270.742 170.293 270.742L168.162 273.854C168.162 273.854 170.219 274.198 171.119 274.294C172.02 274.39 179.495 279.214 179.272 279.814C178.388 282.166 171.301 279.622 171.301 279.622L170.046 280.638C170.046 280.638 175.266 281.942 175.828 282.134C176.654 282.43 179.834 284.798 179.784 285.07C179.404 287.15 175.018 285.622 175.018 285.622L171.177 285.47C170.592 285.97 169.888 286.322 169.129 286.494" fill="white"/>
<path d="M166.667 286.47C164.016 285.758 158.672 270.326 161.117 263.678C161.117 263.678 164.024 258.79 165.247 258.454C167.097 257.934 174.564 258.086 174.2 259.302C173.374 262.118 167.642 262.07 167.642 262.07L165.783 265.366L165.858 267.182C165.858 267.182 168.559 265.278 169.55 265.334C170.062 265.334 172.705 266.614 174.803 267.686C176.596 268.606 177.694 269.11 177.281 269.942C175.951 272.71 170.293 270.742 170.293 270.742L168.162 273.854C168.162 273.854 170.219 274.198 171.119 274.294C172.02 274.39 179.495 279.214 179.272 279.814C178.388 282.166 171.301 279.622 171.301 279.622L170.046 280.638C170.046 280.638 175.266 281.942 175.828 282.134C176.654 282.43 179.834 284.798 179.784 285.07C179.404 287.15 175.018 285.622 175.018 285.622L171.177 285.47C170.592 285.97 169.888 286.322 169.129 286.494" stroke="#263238" stroke-linecap="round" stroke-linejoin="round"/>
<path d="M165.825 267.184C165.825 267.184 163.347 269.2 162.711 269.784C162.075 270.368 162.232 272.224 162.232 272.224" stroke="#263238" stroke-linecap="round" stroke-linejoin="round"/>
<path d="M164.031 276.318C164.031 278.35 165.435 279.582 166.08 280.238C166.724 280.894 165.047 282.678 166.906 283.958" stroke="#263238" stroke-linecap="round" stroke-linejoin="round"/>
<path d="M286.379 340.727C281.134 342.111 275.434 333.183 268.479 323.439C263.887 317.039 258.749 310.215 252.843 305.839C252.372 305.495 251.893 305.159 251.414 304.839L254.867 288.039C262.036 291.679 266.48 297.511 273.923 303.503C285.9 313.159 296.514 319.087 299.454 323.359C302.395 327.631 295.366 338.351 286.379 340.727Z" fill="white"/>
<mask id="mask3_586_159" style="mask-type:luminance" maskUnits="userSpaceOnUse" x="251" y="288" width="50" height="53">
<path d="M286.379 340.727C281.134 342.111 275.434 333.183 268.479 323.439C263.887 317.039 258.749 310.215 252.843 305.839C252.372 305.495 251.893 305.159 251.414 304.839L254.867 288.039C262.036 291.679 266.48 297.511 273.923 303.503C285.9 313.159 296.514 319.087 299.454 323.359C302.395 327.631 295.366 338.351 286.379 340.727Z" fill="white"/>
</mask>
<g mask="url(#mask3_586_159)">
<path opacity="0.4" d="M268.48 323.43C263.887 317.03 258.75 310.206 252.844 305.83C253.622 305.869 254.4 305.754 255.132 305.494C255.132 305.494 264.466 312.83 268.48 323.43Z" fill="#4D44B5"/>
</g>
<path d="M286.379 340.727C281.134 342.111 275.434 333.183 268.479 323.439C263.887 317.039 258.749 310.215 252.843 305.839C252.372 305.495 251.893 305.159 251.414 304.839L254.867 288.039C262.036 291.679 266.48 297.511 273.923 303.503C285.9 313.159 296.514 319.087 299.454 323.359C302.395 327.631 295.366 338.351 286.379 340.727Z" stroke="#263238" stroke-linecap="round" stroke-linejoin="round"/>
<path d="M256.799 304.175C256.441 304.796 255.849 305.26 255.147 305.471C254.961 305.542 254.771 305.603 254.578 305.655H254.421C248.878 307.055 236.406 304.143 236.406 304.143C236.406 304.143 228.236 300.383 227.741 299.495C227.396 298.791 227.089 298.07 226.824 297.335L226.601 296.703C226.601 296.703 223.66 295.103 223.297 293.855C222.933 292.607 222.314 292.255 224.123 292.031C225.932 291.807 235.687 292.031 235.687 292.031L225.073 287.839C225.073 287.839 218.044 284.407 217.391 283.199C216.738 281.991 215.921 281.191 219.514 281.671C223.107 282.151 230.954 284.359 230.954 284.359L237.141 285.631L230.995 283.095C230.995 283.095 218.903 281.679 221.191 278.039H228.055C231.943 278.205 235.811 278.682 239.619 279.463C241.618 280.055 254.834 288.007 254.834 288.007" fill="white"/>
<mask id="mask4_586_159" style="mask-type:luminance" maskUnits="userSpaceOnUse" x="216" y="278" width="41" height="29">
<path d="M256.799 304.175C256.441 304.796 255.849 305.26 255.147 305.471C254.961 305.542 254.771 305.603 254.578 305.655H254.421C248.878 307.055 236.406 304.143 236.406 304.143C236.406 304.143 228.236 300.383 227.741 299.495C227.396 298.791 227.089 298.07 226.824 297.335L226.601 296.703C226.601 296.703 223.66 295.103 223.297 293.855C222.933 292.607 222.314 292.255 224.123 292.031C225.932 291.807 235.687 292.031 235.687 292.031L225.073 287.839C225.073 287.839 218.044 284.407 217.391 283.199C216.738 281.991 215.921 281.191 219.514 281.671C223.107 282.151 230.954 284.359 230.954 284.359L237.141 285.631L230.995 283.095C230.995 283.095 218.903 281.679 221.191 278.039H228.055C231.943 278.205 235.811 278.682 239.619 279.463C241.618 280.055 254.834 288.007 254.834 288.007" fill="white"/>
</mask>
<g mask="url(#mask4_586_159)">
<path opacity="0.4" d="M254.405 305.687C248.863 307.087 236.39 304.175 236.39 304.175C236.39 304.175 228.221 300.415 227.725 299.527C227.38 298.824 227.074 298.103 226.809 297.367L236.836 298.431C236.485 299.043 236.301 299.731 236.301 300.431C236.301 301.131 236.485 301.819 236.836 302.431C237.951 304.375 250.655 306.343 254.405 305.687Z" fill="#4D44B5"/>
</g>
<path d="M256.799 304.175C256.441 304.796 255.849 305.26 255.147 305.471C254.961 305.542 254.771 305.603 254.578 305.655H254.421C248.878 307.055 236.406 304.143 236.406 304.143C236.406 304.143 228.236 300.383 227.741 299.495C227.396 298.791 227.089 298.07 226.824 297.335L226.601 296.703C226.601 296.703 223.66 295.103 223.297 293.855C222.933 292.607 222.314 292.255 224.123 292.031C225.932 291.807 235.687 292.031 235.687 292.031L225.073 287.839C225.073 287.839 218.044 284.407 217.391 283.199C216.738 281.991 215.921 281.191 219.514 281.671C223.107 282.151 230.954 284.359 230.954 284.359L237.141 285.631L230.995 283.095C230.995 283.095 218.903 281.679 221.191 278.039H228.055C231.943 278.205 235.811 278.682 239.619 279.463C241.618 280.055 254.834 288.007 254.834 288.007" stroke="#263238" stroke-linecap="round" stroke-linejoin="round"/>
<path d="M226.586 296.734L238.654 298.454" stroke="#263238" stroke-linecap="round" stroke-linejoin="round"/>
<path d="M106.285 332.528L136.533 341.328L191.875 329.096C191.875 329.096 158.075 319.8 157.761 320.032C157.448 320.264 106.285 332.528 106.285 332.528Z" fill="#4D44B5"/>
<mask id="mask5_586_159" style="mask-type:luminance" maskUnits="userSpaceOnUse" x="106" y="320" width="86" height="22">
<path d="M106.285 332.528L136.533 341.328L191.875 329.096C191.875 329.096 158.075 319.8 157.761 320.032C157.448 320.264 106.285 332.528 106.285 332.528Z" fill="white"/>
</mask>
<g mask="url(#mask5_586_159)">
<path opacity="0.3" d="M106.285 332.528L136.533 341.328L191.875 329.096C191.875 329.096 158.075 319.8 157.761 320.032C157.448 320.264 106.285 332.528 106.285 332.528Z" fill="black" fill-opacity="0.7"/>
</g>
<path d="M106.285 332.528L136.533 341.328L191.875 329.096C191.875 329.096 158.075 319.8 157.761 320.032C157.448 320.264 106.285 332.528 106.285 332.528Z" stroke="#263238" stroke-linecap="round" stroke-linejoin="round"/>
<path d="M106.724 322.207C104.602 322.351 104.073 329.759 106.287 332.527L155.153 322.703L159.068 313.727L106.724 322.207Z" fill="#4D44B5"/>
<mask id="mask6_586_159" style="mask-type:luminance" maskUnits="userSpaceOnUse" x="104" y="313" width="56" height="20">
<path d="M106.724 322.207C104.602 322.351 104.073 329.759 106.287 332.527L155.153 322.703L159.068 313.727L106.724 322.207Z" fill="white"/>
</mask>
<g mask="url(#mask6_586_159)">
<path opacity="0.3" d="M106.724 322.207C104.602 322.351 104.073 329.759 106.287 332.527L155.153 322.703L159.068 313.727L106.724 322.207Z" fill="black" fill-opacity="0.7"/>
</g>
<path d="M106.724 322.207C104.602 322.351 104.073 329.759 106.287 332.527L155.153 322.703L159.068 313.727L106.724 322.207Z" stroke="#263238" stroke-linecap="round" stroke-linejoin="round"/>
<path d="M189.505 322.103C189.505 322.103 188.778 325.999 189.249 328.399L136.476 339.967L108.656 332.031C108.656 332.031 105.765 327.079 108.285 323.231L159.117 314.871L189.505 322.103Z" fill="white" stroke="#263238" stroke-linecap="round" stroke-linejoin="round"/>
<path d="M106.723 322.207L159.066 313.727L191.569 321.703L136.905 332.255L106.723 322.207Z" fill="#4D44B5" stroke="#263238" stroke-linecap="round" stroke-linejoin="round"/>
<path d="M108.582 326.944L136.261 334.928L181.567 326.096" stroke="#263238" stroke-linecap="round" stroke-linejoin="round"/>
<path d="M189.1 326.91L140.383 336.974" stroke="#263238" stroke-linecap="round" stroke-linejoin="round"/>
<path d="M109.234 330.086C109.656 330.126 130.099 336.222 130.099 336.222" stroke="#263238" stroke-linecap="round" stroke-linejoin="round"/>
<path d="M185.121 325.063L188.995 324.455" stroke="#263238" stroke-linecap="round" stroke-linejoin="round"/>
<path d="M135.361 337.702L133.305 337.254" stroke="#263238" stroke-linecap="round" stroke-linejoin="round"/>
<path d="M108.285 323.23C109.368 324.439 109.995 325.968 110.062 327.567C110.13 329.166 109.634 330.74 108.656 332.03C107.751 330.744 107.237 329.237 107.171 327.682C107.106 326.126 107.491 324.584 108.285 323.23Z" fill="#263238"/>
<mask id="mask7_586_159" style="mask-type:luminance" maskUnits="userSpaceOnUse" x="107" y="323" width="4" height="10">
<path d="M108.285 323.23C109.368 324.439 109.995 325.968 110.062 327.567C110.13 329.166 109.634 330.74 108.656 332.03C107.751 330.744 107.237 329.237 107.171 327.682C107.106 326.126 107.491 324.584 108.285 323.23Z" fill="white"/>
</mask>
<g mask="url(#mask7_586_159)">
<path opacity="0.3" d="M108.285 323.23C109.368 324.439 109.995 325.968 110.062 327.567C110.13 329.166 109.634 330.74 108.656 332.03C107.751 330.744 107.237 329.237 107.171 327.682C107.106 326.126 107.491 324.584 108.285 323.23Z" fill="white" fill-opacity="0.7"/>
</g>
<path d="M108.285 323.23C109.368 324.439 109.995 325.968 110.062 327.567C110.13 329.166 109.634 330.74 108.656 332.03C107.751 330.744 107.237 329.237 107.171 327.682C107.106 326.126 107.491 324.584 108.285 323.23Z" stroke="#263238" stroke-linecap="round" stroke-linejoin="round"/>
<path d="M221.34 334.928L274.163 337.024L269.017 354.632L204.035 352.232L221.34 334.928Z" fill="white"/>
<mask id="mask8_586_159" style="mask-type:luminance" maskUnits="userSpaceOnUse" x="204" y="334" width="71" height="21">
<path d="M221.34 334.928L274.163 337.024L269.017 354.632L204.035 352.232L221.34 334.928Z" fill="white"/>
</mask>
<g mask="url(#mask8_586_159)">
<path opacity="0.4" d="M221.34 334.928L274.163 337.024L269.017 354.632L204.035 352.232L221.34 334.928Z" fill="#4D44B5"/>
</g>
<path d="M221.34 334.928L274.163 337.024L269.017 354.632L204.035 352.232L221.34 334.928Z" stroke="#263238" stroke-linecap="round" stroke-linejoin="round"/>
</svg>
