<svg width="16" height="20" viewBox="0 0 16 20" fill="none" xmlns="http://www.w3.org/2000/svg">
<path d="M8.00024 0C5.87851 0 3.84368 0.842855 2.34339 2.34315C0.843099 3.84344 0.000244141 5.87827 0.000244141 8C0.000244141 13.4 7.05024 19.5 7.35024 19.76C7.53138 19.9149 7.76189 20.0001 8.00024 20.0001C8.2386 20.0001 8.46911 19.9149 8.65024 19.76C9.00024 19.5 16.0002 13.4 16.0002 8C16.0002 5.87827 15.1574 3.84344 13.6571 2.34315C12.1568 0.842855 10.122 0 8.00024 0ZM8.00024 17.65C5.87024 15.65 2.00024 11.34 2.00024 8C2.00024 6.4087 2.63239 4.88258 3.7576 3.75736C4.88282 2.63214 6.40895 2 8.00024 2C9.59154 2 11.1177 2.63214 12.2429 3.75736C13.3681 4.88258 14.0002 6.4087 14.0002 8C14.0002 11.34 10.1302 15.66 8.00024 17.65ZM8.00024 4C7.20912 4 6.43576 4.2346 5.77796 4.67412C5.12017 5.11365 4.60748 5.73836 4.30473 6.46927C4.00198 7.20017 3.92276 8.00444 4.0771 8.78036C4.23144 9.55628 4.61241 10.269 5.17182 10.8284C5.73123 11.3878 6.44396 11.7688 7.21988 11.9231C7.99581 12.0775 8.80007 11.9983 9.53098 11.6955C10.2619 11.3928 10.8866 10.8801 11.3261 10.2223C11.7656 9.56448 12.0002 8.79113 12.0002 8C12.0002 6.93913 11.5788 5.92172 10.8287 5.17157C10.0785 4.42143 9.06111 4 8.00024 4ZM8.00024 10C7.60468 10 7.218 9.8827 6.8891 9.66294C6.56021 9.44318 6.30386 9.13082 6.15248 8.76537C6.00111 8.39991 5.9615 7.99778 6.03867 7.60982C6.11584 7.22186 6.30633 6.86549 6.58603 6.58579C6.86574 6.30608 7.2221 6.1156 7.61006 6.03843C7.99803 5.96126 8.40016 6.00087 8.76561 6.15224C9.13106 6.30362 9.44342 6.55996 9.66318 6.88886C9.88295 7.21776 10.0002 7.60444 10.0002 8C10.0002 8.53043 9.78953 9.03914 9.41446 9.41421C9.03938 9.78929 8.53068 10 8.00024 10Z" fill="white"/>
</svg>
