<svg width="112" height="99" viewBox="0 0 112 99" fill="none" xmlns="http://www.w3.org/2000/svg">
<path d="M11.2296 35.3129L55.6992 7L101 35.3129L55.6992 61.8781L11.2296 35.3129Z" stroke="#4D44B5" stroke-width="11"/>
<path d="M97.8502 36.7913V62.0279" stroke="#4D44B5" stroke-width="8"/>
<path d="M25.5251 73.7742C30.8779 74.8318 32.6936 76.2906 36.6269 79.777C43.2959 85.2507 50.5448 86.714 59.2705 86.4118C66.8041 85.3503 72.6104 81.9237 78.1372 77.1453C80.9253 74.739 81.587 74.3331 85.5325 73.7742C88.3497 74.303 88.561 74.303 90.8148 76.4182C93.4208 80.1199 89.8761 84.1174 86.4481 87.5893C75.745 96.8024 64.7507 99.2573 50.6999 98.9793C39.5792 98.4347 30.909 93.4161 22.9852 86.3127C20.8159 83.6611 20.2292 82.3625 20.1724 79.0622C21.2993 74.8318 21.8627 74.8318 25.5251 73.7742Z" fill="#4D44B5"/>
</svg>
