<svg width="78" height="69" viewBox="0 0 78 69" fill="none" xmlns="http://www.w3.org/2000/svg">
<path d="M8 24.5794L38.6162 5L69.8048 24.5794L38.6162 42.9503L8 24.5794Z" stroke="white" stroke-width="8.4"/>
<path d="M66.2148 28.2427V45.6948" stroke="white" stroke-width="8.3"/>
<path d="M17.8415 51.1768C21.5268 51.9081 22.7769 52.917 25.4848 55.328C30.0762 59.1132 35.0669 60.1251 41.0744 59.9162C46.2611 59.1821 50.2586 56.8125 54.0636 53.5081C55.9832 51.844 56.4387 51.5633 59.1551 51.1768C61.0947 51.5425 61.2401 51.5425 62.7919 53.0053C64.586 55.565 62.1456 58.3295 59.7855 60.7304C52.4167 67.1016 44.8473 68.7993 35.1737 68.607C27.5174 68.2304 21.5481 64.7598 16.0928 59.8476C14.5992 58.0139 14.1953 57.1159 14.1562 54.8337C14.9321 51.9081 15.32 51.9081 17.8415 51.1768Z" fill="white"/>
</svg>
