<svg width="105" height="159" viewBox="0 0 105 159" fill="none" xmlns="http://www.w3.org/2000/svg">
<path d="M135.676 17.5872L32.9336 1.1875L7.43763 160.918L110.18 177.318L135.676 17.5872Z" fill="#FB7D5B"/>
<path d="M128.239 16.3997L25.4961 0L0.000134416 159.731L102.743 176.13L128.239 16.3997Z" fill="#FB7D5B"/>
<path opacity="0.1" d="M128.239 16.3997L25.4961 0L0.000134416 159.731L102.743 176.13L128.239 16.3997Z" fill="black"/>
<path d="M46.6615 45.1689L26.9062 42.0156L23.7529 61.7709L43.5082 64.9242L46.6615 45.1689Z" fill="white"/>
<path d="M69.0463 48.7392L49.291 45.5859L46.1377 65.3412L65.893 68.4945L69.0463 48.7392Z" fill="white"/>
<path d="M91.435 52.3154L71.6797 49.1621L68.5264 68.9174L88.2817 72.0707L91.435 52.3154Z" fill="#FB7D5B"/>
<path d="M113.81 55.8857L94.0547 52.7324L90.9014 72.4877L110.657 75.641L113.81 55.8857Z" fill="#FB7D5B"/>
<path d="M43.0444 67.8291L23.2891 64.6758L20.1358 84.4311L39.891 87.5844L43.0444 67.8291Z" fill="#37474F"/>
<path d="M65.4291 71.4033L45.6738 68.25L42.5205 88.0053L62.2758 91.1586L65.4291 71.4033Z" fill="#37474F"/>
<path d="M87.8217 74.9756L68.0664 71.8223L64.9131 91.5776L84.6684 94.7309L87.8217 74.9756Z" fill="#37474F"/>
<path d="M110.173 78.6904L90.418 75.5371L87.2647 95.2924L107.02 98.4457L110.173 78.6904Z" fill="white"/>
<path d="M39.4311 90.4853L19.6758 87.332L16.5225 107.087L36.2778 110.241L39.4311 90.4853Z" fill="#37474F"/>
<path d="M61.8119 94.0615L42.0566 90.9082L38.9033 110.663L58.6586 113.817L61.8119 94.0615Z" fill="#37474F"/>
<path d="M84.2006 97.6338L64.4453 94.4805L61.292 114.236L81.0473 117.389L84.2006 97.6338Z" fill="#37474F"/>
<path d="M106.576 101.206L86.8203 98.0527L83.667 117.808L103.422 120.961L106.576 101.206Z" fill="white"/>
<path d="M35.81 113.145L16.0547 109.992L12.9014 129.747L32.6567 132.901L35.81 113.145Z" fill="#37474F"/>
<path d="M58.1947 116.72L38.4395 113.566L35.2861 133.322L55.0414 136.475L58.1947 116.72Z" fill="#37474F"/>
<path d="M80.5873 120.292L60.832 117.139L57.6787 136.894L77.434 140.047L80.5873 120.292Z" fill="#37474F"/>
<path d="M102.962 123.864L83.207 120.711L80.0537 140.466L99.809 143.62L102.962 123.864Z" fill="white"/>
<path d="M32.1967 135.804L12.4414 132.65L9.28809 152.406L29.0434 155.559L32.1967 135.804Z" fill="#37474F"/>
<path d="M54.5815 139.378L34.8262 136.225L31.6729 155.98L51.4282 159.133L54.5815 139.378Z" fill="#37474F"/>
<path d="M76.9701 142.95L57.2148 139.797L54.0615 159.552L73.8168 162.705L76.9701 142.95Z" fill="white"/>
<path d="M99.3412 146.522L79.5859 143.369L76.4326 163.124L96.1879 166.278L99.3412 146.522Z" fill="white"/>
<path d="M32.5768 51.0813C32.5956 50.8922 32.6527 50.709 32.7444 50.5425C32.8361 50.3761 32.9606 50.23 33.1104 50.113C33.2602 49.9961 33.4321 49.9107 33.6158 49.8621C33.7995 49.8135 33.9912 49.8026 34.1792 49.8301C34.3642 49.8621 34.5409 49.9314 34.6983 50.0337C34.8557 50.1361 34.9907 50.2694 35.095 50.4255C35.1994 50.5817 35.2709 50.7574 35.3052 50.942C35.3395 51.1266 35.3359 51.3163 35.2946 51.4995C35.2757 51.6888 35.2186 51.8724 35.1269 52.0391C35.0352 52.2058 34.9107 52.3523 34.7609 52.4696C34.6112 52.587 34.4392 52.6728 34.2554 52.722C34.0716 52.7712 33.8797 52.7827 33.6913 52.7558C33.5062 52.7231 33.3296 52.6532 33.1722 52.5503C33.0148 52.4474 32.88 52.3136 32.7758 52.1571C32.6716 52.0005 32.6002 51.8245 32.566 51.6396C32.5318 51.4547 32.5355 51.2648 32.5768 51.0813ZM34.5599 51.3979C34.633 50.9402 34.4294 50.5166 34.0582 50.4574C33.687 50.3981 33.3821 50.7406 33.3114 51.183C33.236 51.6559 33.4419 52.0642 33.8131 52.1234C34.1843 52.1827 34.4893 51.8403 34.5599 51.3979ZM32.9301 55.0747L37.5313 50.5216C37.5676 50.4784 37.6151 50.446 37.6686 50.4278C37.722 50.4097 37.7794 50.4066 37.8345 50.4188C37.8771 50.4249 37.9181 50.4394 37.955 50.4615C37.9919 50.4836 38.0241 50.5128 38.0496 50.5475C38.0752 50.5821 38.0936 50.6215 38.1037 50.6633C38.1139 50.7051 38.1156 50.7486 38.1088 50.7911C38.0949 50.8675 38.0582 50.938 38.0035 50.9933L33.4024 55.5464C33.3633 55.5874 33.3147 55.6182 33.2609 55.636C33.2072 55.6538 33.1499 55.658 33.094 55.6484C33.0517 55.6424 33.011 55.6279 32.9743 55.6058C32.9377 55.5836 32.9058 55.5544 32.8807 55.5197C32.8556 55.4851 32.8377 55.4457 32.8281 55.404C32.8185 55.3623 32.8174 55.3191 32.8248 55.2769C32.8318 55.2015 32.8614 55.1298 32.9098 55.0715L32.9301 55.0747ZM35.6155 54.5856C35.6344 54.3965 35.6914 54.2132 35.7831 54.0468C35.8748 53.8804 35.9993 53.7343 36.1491 53.6173C36.2989 53.5004 36.4708 53.415 36.6545 53.3664C36.8382 53.3177 37.0299 53.3068 37.2179 53.3344C37.4026 53.367 37.5788 53.4367 37.7359 53.5393C37.8929 53.6418 38.0276 53.7751 38.1318 53.9311C38.236 54.087 38.3076 54.2625 38.3422 54.4468C38.3769 54.6312 38.3738 54.8206 38.3333 55.0038C38.3144 55.1927 38.2576 55.3758 38.1663 55.5423C38.0749 55.7087 37.9509 55.855 37.8017 55.9724C37.6525 56.0897 37.4811 56.1758 37.2978 56.2254C37.1146 56.275 36.9232 56.287 36.7351 56.2609C36.5465 56.2319 36.3659 56.1644 36.2044 56.0628C36.0428 55.9611 35.9039 55.8274 35.7961 55.67C35.6883 55.5125 35.6139 55.3346 35.5776 55.1472C35.5413 54.9599 35.5438 54.7671 35.585 54.5807L35.6155 54.5856ZM37.5986 54.9022C37.6717 54.4445 37.4681 54.0209 37.102 53.9625C36.7359 53.904 36.4208 54.2448 36.3502 54.6872C36.2747 55.1601 36.4806 55.5685 36.8519 55.6277C37.2231 55.687 37.4975 55.3397 37.5681 54.8973L37.5986 54.9022Z" fill="#37474F"/>
<path d="M75.0639 59.2713C75.2047 58.4832 75.6489 57.7817 76.3012 57.3174C76.9534 56.8531 77.7617 56.6631 78.5525 56.7881C79.242 56.8924 79.876 57.227 80.3512 57.7374C80.4267 57.8312 80.4641 57.9501 80.4559 58.0702C80.4478 58.1904 80.3946 58.303 80.3071 58.3857C80.2195 58.4684 80.1041 58.5152 79.9836 58.5165C79.8632 58.5179 79.7467 58.4739 79.6573 58.3932C79.3293 58.0321 78.8854 57.7971 78.4023 57.7288C77.8519 57.6441 77.2897 57.7704 76.8285 58.0824C76.3859 58.4012 76.0878 58.8824 75.9995 59.4207C75.9563 59.6867 75.9669 59.9588 76.0308 60.2207C76.0947 60.4826 76.2106 60.729 76.3715 60.9453C76.712 61.3868 77.2065 61.6836 77.7563 61.7765C78.2365 61.8611 78.7313 61.776 79.1557 61.5357C79.2679 61.4857 79.3944 61.4775 79.5121 61.5126C79.6299 61.5476 79.7312 61.6236 79.7979 61.7269C79.8499 61.8393 79.8596 61.9667 79.8253 62.0858C79.791 62.2048 79.7149 62.3075 79.611 62.3749C78.9993 62.7078 78.2938 62.8265 77.6069 62.7121C76.8155 62.5886 76.1048 62.1581 75.6287 61.514C75.1526 60.8699 74.9497 60.0641 75.0639 59.2713Z" fill="#37474F"/>
<path d="M81.2589 62.8314L82.0332 57.9803C82.0413 57.9203 82.0616 57.8625 82.0927 57.8106C82.1238 57.7586 82.1652 57.7134 82.2142 57.6779C82.2633 57.6423 82.319 57.6171 82.3781 57.6037C82.4372 57.5903 82.4984 57.5891 82.558 57.6L85.2429 58.0286C85.3534 58.0584 85.449 58.1281 85.5111 58.2242C85.5733 58.3203 85.5978 58.436 85.5797 58.549C85.5617 58.6621 85.5024 58.7644 85.4134 58.8364C85.3244 58.9084 85.2119 58.9448 85.0976 58.9388L82.8703 58.5833L82.6268 60.1088L84.5439 60.4148C84.6653 60.4341 84.774 60.5009 84.8461 60.6005C84.9182 60.7 84.9479 60.8241 84.9285 60.9455C84.9091 61.0669 84.8423 61.1756 84.7428 61.2477C84.6433 61.3198 84.5192 61.3495 84.3978 61.3301L82.4807 61.0241L82.2372 62.5496L84.4645 62.9051C84.5844 62.9283 84.6907 62.9968 84.7613 63.0965C84.8319 63.1962 84.8612 63.3193 84.8432 63.4401C84.8216 63.5589 84.7549 63.6647 84.6572 63.7356C84.5594 63.8065 84.438 63.8368 84.3184 63.8204L81.6538 63.3951C81.5888 63.3887 81.5258 63.3684 81.4693 63.3354C81.4129 63.3025 81.3642 63.2577 81.3267 63.2041C81.2892 63.1506 81.2637 63.0895 81.252 63.0252C81.2403 62.9609 81.2426 62.8948 81.2589 62.8314Z" fill="#37474F"/>
<path d="M99.8862 63.2361C100.027 62.448 100.471 61.7465 101.123 61.2822C101.776 60.8179 102.584 60.6279 103.375 60.7529C104.064 60.8573 104.698 61.1919 105.173 61.7023C105.249 61.7961 105.286 61.9149 105.278 62.035C105.27 62.1552 105.217 62.2679 105.129 62.3506C105.042 62.4333 104.926 62.48 104.806 62.4814C104.685 62.4828 104.569 62.4387 104.48 62.358C104.151 61.9976 103.707 61.7627 103.225 61.6936C102.674 61.6089 102.112 61.7352 101.651 62.0473C101.208 62.366 100.91 62.8473 100.822 63.3855C100.779 63.6516 100.789 63.9237 100.853 64.1856C100.917 64.4475 101.033 64.6939 101.194 64.9102C101.534 65.3517 102.029 65.6485 102.579 65.7413C103.059 65.825 103.553 65.74 103.978 65.5006C104.09 65.4506 104.217 65.4424 104.334 65.4774C104.452 65.5125 104.553 65.5885 104.62 65.6917C104.672 65.8042 104.682 65.9316 104.648 66.0506C104.613 66.1696 104.537 66.2723 104.433 66.3398C103.821 66.6715 103.116 66.7901 102.429 66.6769C101.638 66.5535 100.927 66.123 100.451 65.4789C99.9749 64.8347 99.772 64.0289 99.8862 63.2361Z" fill="#37474F"/>
<path d="M33.7526 74.1466L30.9427 78.6832C30.8968 78.7613 30.8279 78.8232 30.7454 78.8605C30.6628 78.8978 30.5708 78.9085 30.4819 78.8913C30.4224 78.8818 30.3655 78.8603 30.3147 78.8281C30.2126 78.7633 30.1395 78.6617 30.1107 78.5444C30.0818 78.4271 30.0993 78.3031 30.1596 78.1984L32.6131 74.262L30.4875 73.9227C30.3676 73.8995 30.2613 73.8309 30.1907 73.7313C30.1202 73.6316 30.0908 73.5085 30.1088 73.3877C30.128 73.2677 30.1941 73.1602 30.2925 73.0888C30.3909 73.0175 30.5136 72.9882 30.6337 73.0074L33.4558 73.4578C33.4835 73.4575 33.511 73.4619 33.5372 73.4708C33.5952 73.4949 33.6497 73.5264 33.6995 73.5645L33.6955 73.59C33.6955 73.59 33.7209 73.594 33.7211 73.6253C33.7213 73.6567 33.7425 73.6548 33.751 73.6666C33.7596 73.6784 33.747 73.692 33.7462 73.6971L33.7397 73.7378L33.7629 73.7884C33.7629 73.7884 33.758 73.819 33.7564 73.8291C33.7571 73.843 33.7549 73.8569 33.7499 73.8698C33.751 73.9303 33.7413 73.9906 33.7215 74.0478C33.7385 74.0783 33.7491 74.1119 33.7526 74.1466Z" fill="white"/>
<path d="M55.625 80.8805C55.5716 81.2214 55.4306 81.5426 55.2158 81.8126C55.001 82.0827 54.7197 82.2923 54.3996 82.421C54.0794 82.5497 53.7314 82.5931 53.3894 82.5469C53.0475 82.5007 52.7234 82.3665 52.4489 82.1575C52.1744 81.9484 51.9588 81.6717 51.8234 81.3543C51.6879 81.037 51.6372 80.6899 51.6761 80.3471C51.7151 80.0042 51.8424 79.6773 52.0456 79.3985C52.2488 79.1196 52.5209 78.8983 52.8354 78.7561C52.7343 78.5634 52.6805 78.3494 52.6783 78.1318C52.6761 77.9141 52.7256 77.6991 52.8228 77.5043C52.9199 77.3096 53.0619 77.1407 53.237 77.0115C53.4122 76.8823 53.6155 76.7965 53.8302 76.7612C54.045 76.726 54.2651 76.7422 54.4723 76.8085C54.6796 76.8749 54.8682 76.9895 55.0225 77.1429C55.1768 77.2964 55.2925 77.4843 55.3601 77.6911C55.4277 77.898 55.4452 78.118 55.4111 78.3329C55.3649 78.6271 55.2227 78.8978 55.0067 79.1027C55.2479 79.3254 55.4304 79.6042 55.5383 79.9142C55.6462 80.2243 55.6759 80.5562 55.625 80.8805ZM54.725 80.7368C54.77 80.4549 54.7022 80.1666 54.5364 79.9342C54.3705 79.7018 54.1198 79.5441 53.8385 79.4951C53.5537 79.451 53.2629 79.5208 53.0292 79.6893C52.7954 79.8579 52.6374 80.1118 52.5893 80.396C52.5481 80.6794 52.6206 80.9676 52.7908 81.1979C52.9611 81.4282 53.2154 81.5819 53.4985 81.6257C53.779 81.6705 54.0658 81.602 54.2958 81.4353C54.5258 81.2686 54.6802 81.0174 54.725 80.7368ZM53.5907 78.0424C53.5711 78.1651 53.6011 78.2906 53.674 78.3912C53.7469 78.4918 53.8568 78.5594 53.9795 78.579C54.1023 78.5986 54.2278 78.5686 54.3284 78.4957C54.429 78.4227 54.4966 78.3128 54.5161 78.1901C54.5339 78.0703 54.5041 77.9482 54.433 77.8502C54.3619 77.7521 54.2552 77.6857 54.1358 77.6653C54.0737 77.6533 54.0097 77.6539 53.9479 77.6673C53.886 77.6806 53.8275 77.7064 53.7758 77.743C53.7242 77.7796 53.6805 77.8262 53.6474 77.8802C53.6143 77.9341 53.5924 77.9942 53.5832 78.0568L53.5907 78.0424Z" fill="white"/>
<path d="M74.4081 82.0406C74.4988 81.5368 74.7771 81.0862 75.1868 80.7794C75.5966 80.4726 76.1074 80.3325 76.6163 80.3873C77.1253 80.4421 77.5945 80.6877 77.9296 81.0747C78.2647 81.4616 78.4407 81.9612 78.4221 82.4728C78.3978 82.6253 78.3726 82.7829 78.3474 82.9406C78.2622 83.5156 78.0729 84.0702 77.7889 84.5774C77.5006 85.1155 77.0501 85.549 76.5013 85.8164C76.097 85.9998 75.6491 86.0657 75.2091 86.0064C75.1485 85.9995 75.0899 85.9808 75.0366 85.9513C74.9833 85.9217 74.9364 85.8819 74.8985 85.8342C74.8605 85.7865 74.8324 85.7318 74.8157 85.6732C74.7989 85.6146 74.7939 85.5533 74.8009 85.4928C74.8187 85.3719 74.8825 85.2625 74.979 85.1876C75.0755 85.1126 75.1972 85.0778 75.3188 85.0905C75.5939 85.1271 75.8738 85.0889 76.129 84.98C76.3664 84.8671 76.5725 84.6976 76.7292 84.4865C76.7817 84.4252 76.8289 84.3594 76.8701 84.29C76.6043 84.3593 76.3269 84.3719 76.056 84.3269C75.5368 84.2372 75.0734 83.9476 74.7653 83.5202C74.4572 83.0927 74.329 82.5615 74.4081 82.0406ZM75.3234 82.1867C75.2896 82.3332 75.2862 82.4851 75.3136 82.633C75.341 82.7808 75.3984 82.9215 75.4824 83.0462C75.5665 83.1709 75.6752 83.277 75.802 83.3579C75.9287 83.4388 76.0707 83.4928 76.2192 83.5165C76.3677 83.5402 76.5195 83.5331 76.6651 83.4957C76.8107 83.4582 76.9471 83.3913 77.0658 83.2989C77.1844 83.2066 77.2828 83.0908 77.3549 82.9588C77.4269 82.8268 77.471 82.6814 77.4845 82.5317C77.5094 82.2549 77.4283 81.979 77.2576 81.7597C77.087 81.5404 76.8394 81.3941 76.565 81.3503C76.2906 81.3065 76.0098 81.3685 75.7793 81.5237C75.5488 81.679 75.3859 81.9159 75.3234 82.1867Z" fill="white"/>
<path d="M96.952 86.7097C96.9736 86.5748 97.0478 86.454 97.1584 86.3739C97.269 86.2937 97.4068 86.2608 97.5417 86.2823L100.084 86.6882C100.187 86.7346 100.272 86.8137 100.326 86.9132C100.379 87.0127 100.399 87.1271 100.381 87.2388C100.363 87.3504 100.309 87.4531 100.227 87.5309C100.145 87.6088 100.04 87.6575 99.9276 87.6696L97.3851 87.2637C97.2561 87.2435 97.1396 87.175 97.0593 87.0721C96.9789 86.9693 96.9405 86.8397 96.952 86.7097Z" fill="#37474F"/>
<path d="M29.9847 100.33C29.9751 100.391 29.9535 100.449 29.9213 100.5C29.889 100.552 29.8467 100.597 29.7969 100.632C29.7471 100.668 29.6907 100.693 29.6311 100.706C29.5714 100.719 29.5098 100.72 29.4497 100.709L29.3684 100.696L29.2685 101.322C29.2494 101.442 29.1833 101.549 29.0849 101.62C28.9865 101.692 28.8637 101.721 28.7437 101.702C28.6237 101.683 28.5162 101.617 28.4449 101.518C28.3735 101.42 28.3442 101.297 28.3634 101.177L28.4665 100.531L25.8782 100.118C25.7745 100.106 25.6799 100.053 25.6148 99.9719C25.5726 99.9289 25.5397 99.8777 25.518 99.8216C25.4964 99.7654 25.4864 99.7054 25.4886 99.6453C25.4909 99.5851 25.5054 99.5261 25.5313 99.4717C25.5572 99.4174 25.5939 99.3689 25.6391 99.3292L29.294 96.0329L29.2997 95.9973C29.3139 96.0023 29.3291 96.0038 29.3439 96.0017C29.3588 95.9995 29.3729 95.9937 29.3851 95.9849C29.3851 95.9849 29.3851 95.9849 29.4197 95.9643C29.4542 95.9438 29.4197 95.9643 29.4705 95.9724C29.5214 95.9806 29.4746 95.947 29.5051 95.9519L29.556 95.96C29.5667 95.9661 29.5794 95.9681 29.5915 95.9657L29.7288 95.9876C29.7413 95.9944 29.7556 95.9966 29.7695 95.9941C29.7695 95.9941 29.8051 95.9998 29.8204 96.0022L29.8509 96.0071L29.8918 96.0449C29.8918 96.0449 29.8918 96.0449 29.9284 96.0768L29.9538 96.0809L29.9837 96.1221L29.9789 96.1527C29.9912 96.1663 30.0011 96.182 30.008 96.199C30.0022 96.21 30.0002 96.2225 30.0023 96.2346C30.0035 96.2502 30.001 96.2659 29.995 96.2804C29.995 96.2804 29.9909 96.3058 29.9893 96.316C29.9924 96.3316 29.9898 96.3478 29.982 96.3617C29.982 96.3617 29.9779 96.3872 29.9747 96.4075L29.4406 99.7534L29.522 99.7664C29.5922 99.7649 29.6619 99.7793 29.7258 99.8086C29.7897 99.838 29.846 99.8815 29.8906 99.9358C29.9352 99.9902 29.9668 100.054 29.9831 100.122C29.9994 100.191 30 100.262 29.9847 100.33ZM28.9324 97.6126L26.9703 99.3852L28.6077 99.6466L28.9324 97.6126Z" fill="white"/>
<path d="M51.5599 101.769C51.7205 101.989 51.8359 102.239 51.8992 102.505C51.9624 102.77 51.9725 103.045 51.9286 103.314C51.8398 103.857 51.5412 104.343 51.0972 104.667C50.8783 104.827 50.6301 104.942 50.3667 105.006C50.1033 105.069 49.83 105.08 49.5624 105.038C49.2961 104.996 49.041 104.901 48.8121 104.759C48.5831 104.616 48.3849 104.43 48.2293 104.21C48.1915 104.16 48.1642 104.103 48.149 104.042C48.1338 103.982 48.1311 103.918 48.1409 103.857C48.1508 103.795 48.173 103.736 48.2064 103.683C48.2397 103.63 48.2834 103.584 48.3348 103.549C48.436 103.477 48.5615 103.447 48.6842 103.467C48.8069 103.486 48.917 103.553 48.9908 103.653C49.0764 103.774 49.1853 103.877 49.3111 103.955C49.437 104.034 49.5772 104.086 49.7236 104.11C49.87 104.133 50.0196 104.127 50.1636 104.092C50.3075 104.056 50.443 103.993 50.562 103.904C50.803 103.732 50.9664 103.471 51.0167 103.179C51.0637 102.884 50.9922 102.583 50.8178 102.342C50.6433 102.1 50.3802 101.937 50.086 101.888C49.9394 101.863 49.7893 101.868 49.6444 101.901C49.4995 101.934 49.3626 101.996 49.2416 102.082C49.1917 102.118 49.1351 102.145 49.0751 102.159C49.015 102.173 48.9528 102.176 48.8918 102.166C48.8309 102.156 48.7724 102.135 48.7199 102.102C48.6673 102.07 48.6217 102.027 48.5856 101.977C48.5549 101.941 48.541 101.897 48.5111 101.856C48.4812 101.815 48.5152 101.831 48.5152 101.831C48.5219 101.818 48.5242 101.804 48.5217 101.79C48.5257 101.764 48.5282 101.749 48.5306 101.734C48.5279 101.685 48.5357 101.637 48.5533 101.592L49.1426 99.5007C49.1623 99.4368 49.1952 99.3776 49.2392 99.3272C49.2832 99.2767 49.3372 99.236 49.3979 99.2078C49.3979 99.2078 49.4233 99.2118 49.4284 99.2126C49.4335 99.2134 49.4284 99.2126 49.4539 99.2167C49.5257 99.195 49.6013 99.1893 49.6755 99.1999L52.1062 99.5879C52.1724 99.5915 52.2372 99.6089 52.2963 99.6392C52.3554 99.6694 52.4075 99.7117 52.4492 99.7633C52.4909 99.815 52.5213 99.8748 52.5384 99.9389C52.5555 100.003 52.5589 100.07 52.5484 100.136C52.538 100.201 52.5139 100.264 52.4776 100.319C52.4414 100.375 52.3939 100.422 52.3382 100.459C52.2825 100.495 52.2199 100.519 52.1543 100.529C52.0888 100.539 52.0217 100.536 51.9576 100.518L49.9236 100.194L49.6921 100.991C49.8806 100.974 50.0706 100.98 50.2577 101.008C50.7723 101.088 51.2376 101.36 51.5599 101.769Z" fill="white"/>
<path d="M74.5219 106.967C74.4322 107.472 74.1546 107.923 73.7451 108.231C73.3356 108.538 72.8247 108.679 72.3154 108.625C71.8061 108.571 71.3362 108.326 71.0006 107.939C70.665 107.552 70.4886 107.052 70.507 106.54C70.5314 106.388 70.5565 106.23 70.5817 106.072C70.6677 105.498 70.8551 104.944 71.1351 104.435C71.4248 103.898 71.875 103.465 72.4227 103.196C72.829 103.013 73.2784 102.947 73.7201 103.007C73.7804 103.013 73.8387 103.032 73.8917 103.062C73.9447 103.091 73.9913 103.131 74.0288 103.179C74.0663 103.226 74.0939 103.281 74.1101 103.34C74.1263 103.398 74.1308 103.459 74.1232 103.519C74.1042 103.64 74.0402 103.749 73.9439 103.825C73.8477 103.901 73.7264 103.937 73.6045 103.927C73.3301 103.886 73.0498 103.923 72.795 104.032C72.5605 104.15 72.3554 104.318 72.1948 104.526C72.1436 104.585 72.1009 104.657 72.0539 104.722C72.3197 104.653 72.5971 104.64 72.8681 104.685C73.3863 104.776 73.8488 105.065 74.1575 105.491C74.4662 105.917 74.5969 106.447 74.5219 106.967ZM73.6066 106.821C73.6404 106.675 73.6437 106.523 73.6163 106.375C73.589 106.227 73.5315 106.086 73.4475 105.962C73.3635 105.837 73.2547 105.731 73.128 105.65C73.0012 105.569 72.8592 105.515 72.7107 105.491C72.5622 105.468 72.4105 105.475 72.2648 105.512C72.1192 105.55 71.9828 105.617 71.8642 105.709C71.7455 105.801 71.6471 105.917 71.5751 106.049C71.503 106.181 71.4589 106.326 71.4454 106.476C71.4205 106.753 71.5016 107.029 71.6723 107.248C71.843 107.467 72.0905 107.614 72.365 107.658C72.6394 107.701 72.9202 107.639 73.1507 107.484C73.3811 107.329 73.5441 107.092 73.6066 106.821Z" fill="white"/>
<path d="M93.492 109.505C93.3788 109.487 93.2773 109.424 93.21 109.332C93.1427 109.239 93.115 109.123 93.1331 109.01C93.1512 108.896 93.2135 108.795 93.3064 108.727C93.3993 108.66 93.5151 108.632 93.6284 108.651L96.954 109.181C97.0673 109.199 97.1688 109.262 97.2361 109.355C97.3034 109.448 97.3311 109.563 97.313 109.677C97.2949 109.79 97.2325 109.891 97.1397 109.959C97.0468 110.026 96.9309 110.054 96.8177 110.036L93.492 109.505ZM96.0642 107.699L96.0577 107.74C96.0218 107.879 95.9354 107.999 95.8153 108.078C95.6953 108.157 95.5502 108.188 95.4084 108.165C95.2667 108.143 95.1385 108.068 95.0489 107.956C94.9592 107.844 94.9147 107.702 94.9238 107.559L94.9303 107.518C94.9662 107.379 95.0526 107.259 95.1727 107.18C95.2928 107.101 95.4379 107.07 95.5796 107.093C95.7213 107.116 95.8495 107.19 95.9392 107.302C96.0288 107.414 96.0734 107.556 96.0642 107.699ZM95.5172 111.127L95.5099 111.172C95.474 111.311 95.3875 111.432 95.2675 111.51C95.1474 111.589 95.0023 111.62 94.8606 111.598C94.7188 111.575 94.5906 111.5 94.501 111.388C94.4114 111.276 94.3668 111.135 94.3759 110.991L94.3832 110.946C94.4191 110.807 94.5056 110.686 94.6256 110.607C94.7457 110.529 94.8908 110.498 95.0325 110.52C95.1743 110.543 95.3025 110.618 95.3921 110.73C95.4817 110.842 95.5263 110.983 95.5172 111.127Z" fill="#37474F"/>
<path d="M25.627 118.997L24.8518 123.853C24.8416 123.913 24.8196 123.97 24.7871 124.022C24.7547 124.073 24.7124 124.118 24.6628 124.153C24.6131 124.188 24.557 124.213 24.4976 124.227C24.4383 124.24 24.3768 124.242 24.3168 124.231C24.2573 124.223 24.2002 124.202 24.1489 124.171C24.0975 124.139 24.053 124.098 24.018 124.049C23.983 124 23.9582 123.945 23.945 123.886C23.9319 123.827 23.9307 123.767 23.9416 123.707L24.5909 119.639L24.2304 119.775C24.1553 119.808 24.072 119.819 23.991 119.804C23.8926 119.787 23.8024 119.739 23.7337 119.666C23.665 119.594 23.6216 119.501 23.6099 119.402C23.5981 119.303 23.6188 119.203 23.6687 119.116C23.7185 119.03 23.795 118.962 23.8867 118.922L25.0003 118.479L25.0308 118.484C25.0308 118.484 25.0563 118.488 25.0756 118.465L25.1264 118.473C25.1264 118.473 25.1518 118.477 25.1569 118.478C25.1778 118.476 25.1987 118.48 25.218 118.488L25.3044 118.502C25.3152 118.508 25.3278 118.51 25.34 118.507C25.3654 118.512 25.3705 118.512 25.3908 118.516C25.4013 118.513 25.4122 118.515 25.4213 118.52C25.4213 118.52 25.4529 118.552 25.4681 118.554L25.4946 118.584L25.5261 118.615C25.5387 118.624 25.5478 118.636 25.5518 118.651L25.5469 118.681L25.5768 118.723C25.5768 118.723 25.5768 118.723 25.5728 118.748C25.5687 118.773 25.5687 118.773 25.5663 118.789C25.5638 118.804 25.5606 118.824 25.5598 118.829C25.5564 118.843 25.5542 118.856 25.5533 118.87C25.5427 118.889 25.5393 118.91 25.5435 118.931L25.627 118.997Z" fill="white"/>
<path d="M48.2085 127.578C48.1997 127.638 48.179 127.696 48.1477 127.747C48.1163 127.799 48.075 127.844 48.0261 127.879C47.9773 127.915 47.9218 127.94 47.863 127.954C47.8042 127.967 47.7432 127.969 47.6837 127.959L44.7547 127.491C44.6915 127.482 44.6309 127.459 44.5772 127.424C44.5234 127.39 44.4775 127.344 44.4427 127.29C44.3748 127.188 44.3502 127.063 44.3743 126.943C44.3984 126.823 44.4692 126.717 44.5712 126.649L47.3583 124.835C47.5409 124.717 47.6831 124.545 47.7661 124.344C47.8492 124.143 47.8692 123.921 47.8235 123.708C47.7778 123.495 47.6686 123.301 47.5103 123.151C47.352 123.002 47.152 122.904 46.9368 122.87C46.6731 122.829 46.4035 122.884 46.1768 123.025L45.8852 123.218C45.783 123.271 45.6648 123.284 45.5536 123.255C45.4424 123.226 45.3461 123.156 45.2834 123.059C45.2208 122.963 45.1963 122.846 45.2147 122.733C45.2331 122.619 45.293 122.517 45.3829 122.445L45.6737 122.257C46.0894 121.985 46.592 121.879 47.0821 121.96C47.3579 122.005 47.6214 122.106 47.8557 122.259C48.09 122.411 48.2899 122.611 48.4427 122.845C48.7159 123.26 48.8219 123.763 48.7393 124.253C48.6947 124.529 48.5929 124.792 48.4406 125.027C48.2882 125.261 48.0887 125.461 47.8547 125.613L46.0797 126.769L47.829 127.049C47.9493 127.069 48.0566 127.136 48.1276 127.236C48.1987 127.335 48.2277 127.458 48.2085 127.578Z" fill="white"/>
<path d="M70.395 127.997C70.5564 128.215 70.6724 128.464 70.736 128.727C70.7996 128.991 70.8096 129.265 70.7653 129.532C70.705 129.939 70.5247 130.317 70.2474 130.62C69.9702 130.923 69.6088 131.136 69.2095 131.232C68.8102 131.328 68.3914 131.303 68.0067 131.159C67.6221 131.015 67.2892 130.76 67.0508 130.426C66.9777 130.325 66.9476 130.199 66.9673 130.076C66.9869 129.953 67.0546 129.843 67.1555 129.77C67.2563 129.697 67.3821 129.666 67.5052 129.686C67.6282 129.706 67.7383 129.773 67.8114 129.874C67.8977 129.993 68.0069 130.094 68.1326 130.171C68.2583 130.247 68.3979 130.298 68.5434 130.32C68.8378 130.366 69.1388 130.296 69.3827 130.125C69.5046 130.039 69.6078 129.928 69.6863 129.801C69.7649 129.674 69.8171 129.532 69.8399 129.385C69.8641 129.239 69.8583 129.091 69.8228 128.948C69.7874 128.805 69.7229 128.671 69.6335 128.554C69.5479 128.433 69.4393 128.331 69.314 128.253C69.1886 128.175 69.049 128.122 68.9032 128.098C68.8389 128.092 68.7771 128.07 68.7229 128.035C68.6686 128.001 68.6235 127.953 68.5911 127.897C68.5548 127.847 68.5286 127.791 68.5142 127.731C68.4998 127.671 68.4974 127.608 68.5072 127.548C68.5169 127.487 68.5386 127.428 68.5709 127.376C68.6033 127.323 68.6458 127.277 68.6958 127.241L69.6712 126.521L68.3389 126.308C68.2776 126.298 68.2189 126.275 68.1663 126.242C68.1136 126.209 68.068 126.166 68.032 126.115C67.9961 126.064 67.9705 126.007 67.9567 125.946C67.9429 125.886 67.9412 125.823 67.9517 125.762C67.9613 125.701 67.9829 125.643 68.0151 125.591C68.0474 125.539 68.0896 125.493 68.1395 125.458C68.1893 125.422 68.2457 125.397 68.3054 125.383C68.3652 125.369 68.427 125.367 68.4875 125.378L70.913 125.765C70.9935 125.777 71.0694 125.81 71.1333 125.86C71.1972 125.911 71.2469 125.977 71.2775 126.052C71.308 126.127 71.3185 126.21 71.3077 126.29C71.297 126.371 71.2654 126.447 71.2161 126.512C71.1854 126.549 71.152 126.584 71.1161 126.616L69.9287 127.522C70.1119 127.65 70.27 127.812 70.395 127.997Z" fill="white"/>
<path d="M93.0317 131.719L91.7988 132.909L92.5584 134.423C92.61 134.523 92.6205 134.639 92.5877 134.747C92.5549 134.855 92.4814 134.945 92.3829 135C92.2969 135.044 92.1997 135.061 92.1038 135.049C91.9661 135.015 91.8471 134.929 91.772 134.808L91.1734 133.56L90.1702 134.553C90.1215 134.6 90.0632 134.635 89.9994 134.658C89.9355 134.68 89.8676 134.688 89.8003 134.681C89.7068 134.664 89.6212 134.617 89.5556 134.548C89.5148 134.509 89.4824 134.462 89.4603 134.41C89.4382 134.358 89.427 134.302 89.4272 134.246C89.4275 134.189 89.4392 134.133 89.4617 134.081C89.4842 134.029 89.5171 133.983 89.5582 133.944L90.7614 132.744L89.9806 131.232C89.9537 131.183 89.9371 131.129 89.9319 131.074C89.9266 131.018 89.9328 130.963 89.95 130.91C89.9673 130.857 89.9953 130.808 90.0322 130.766C90.0691 130.724 90.1142 130.691 90.1647 130.667C90.2151 130.64 90.2703 130.624 90.3271 130.618C90.384 130.613 90.4413 130.619 90.4958 130.636C90.5502 130.653 90.6008 130.681 90.6446 130.717C90.6884 130.754 90.7246 130.799 90.7509 130.849L91.3986 132.084L92.3934 131.111C92.4818 131.032 92.597 130.99 92.7157 130.992C92.8343 130.995 92.9476 131.042 93.0327 131.125C93.1108 131.204 93.1546 131.311 93.1544 131.422C93.1542 131.533 93.1101 131.64 93.0317 131.719Z" fill="#37474F"/>
<path d="M20.8251 145.718C20.9876 145.746 21.1329 145.836 21.2297 145.969C21.3264 146.103 21.3668 146.269 21.3421 146.432C21.3149 146.594 21.2247 146.739 21.0912 146.835C20.9577 146.931 20.7918 146.97 20.6295 146.944C20.549 146.932 20.4718 146.904 20.4023 146.862C20.3329 146.819 20.2725 146.764 20.2248 146.698C20.177 146.632 20.1429 146.557 20.1243 146.478C20.1058 146.399 20.1032 146.317 20.1167 146.236C20.1426 146.074 20.2315 145.929 20.3642 145.832C20.4969 145.735 20.6626 145.694 20.8251 145.718Z" fill="white"/>
<path d="M40.7618 147.141C40.8628 146.443 41.1665 145.79 41.6352 145.263C41.8278 145.011 42.0847 144.817 42.3788 144.699C42.6729 144.582 42.9933 144.547 43.3059 144.597C43.6186 144.646 43.9119 144.78 44.1549 144.983C44.3979 145.186 44.5815 145.451 44.6862 145.75C44.9506 146.4 45.032 147.11 44.9214 147.803C44.8108 148.496 44.5124 149.145 44.0588 149.68C43.8672 149.933 43.6105 150.129 43.3161 150.248C43.0216 150.366 42.7006 150.402 42.3872 150.352C42.0739 150.302 41.78 150.168 41.537 149.964C41.2941 149.76 41.1111 149.493 41.0078 149.193C40.7272 148.548 40.6417 147.835 40.7618 147.141ZM44.0111 147.66C44.1022 147.145 44.0457 146.616 43.8482 146.132C43.7969 145.978 43.7076 145.84 43.5884 145.729C43.4692 145.619 43.3241 145.541 43.1666 145.502C43.0024 145.492 42.8383 145.522 42.6879 145.589C42.5375 145.655 42.4053 145.757 42.3024 145.885C41.972 146.286 41.7547 146.768 41.6728 147.281C41.5909 147.795 41.6474 148.32 41.8365 148.804C41.8944 148.958 41.9883 149.096 42.1104 149.206C42.2326 149.316 42.3793 149.396 42.5384 149.438C42.7 149.448 42.8616 149.418 43.0089 149.35C43.1561 149.283 43.2844 149.18 43.3823 149.051C43.7188 148.656 43.9367 148.174 44.0111 147.66Z" fill="white"/>
<path d="M63.8925 150.207C63.9209 150.078 63.9973 149.966 64.106 149.892C64.2148 149.818 64.3475 149.789 64.4773 149.81L67.0198 150.216C67.0823 150.225 67.1422 150.248 67.1961 150.281C67.25 150.314 67.2967 150.358 67.3336 150.409C67.3705 150.461 67.3968 150.519 67.411 150.581C67.4252 150.643 67.427 150.707 67.4164 150.769C67.4078 150.832 67.3866 150.892 67.3541 150.946C67.3215 151.001 67.2783 151.048 67.2271 151.085C67.1758 151.122 67.1176 151.148 67.0559 151.162C66.9942 151.176 66.9302 151.178 66.868 151.166L64.3255 150.761C64.2599 150.754 64.1964 150.735 64.1386 150.703C64.0809 150.672 64.0302 150.629 63.9897 150.577C63.9492 150.525 63.9196 150.465 63.9029 150.402C63.8862 150.338 63.8826 150.272 63.8925 150.207ZM63.649 151.732C63.6705 151.597 63.7447 151.476 63.8553 151.396C63.9659 151.316 64.1038 151.283 64.2386 151.305L66.7811 151.711C66.8842 151.757 66.9691 151.836 67.0227 151.936C67.0764 152.035 67.0958 152.149 67.0779 152.261C67.0601 152.373 67.0061 152.475 66.9241 152.553C66.8422 152.631 66.7369 152.68 66.6245 152.692L64.082 152.286C63.9522 152.266 63.8352 152.196 63.7548 152.092C63.6745 151.988 63.6369 151.858 63.6498 151.727L63.649 151.732Z" fill="#37474F"/>
<path d="M87.4508 155.038L86.2813 154.851C86.1612 154.832 86.0537 154.766 85.9824 154.667C85.9111 154.569 85.8818 154.446 85.9009 154.326C85.9226 154.207 85.9892 154.102 86.087 154.031C86.1848 153.96 86.3061 153.93 86.4257 153.946L87.5953 154.133L87.7771 152.994C87.7856 152.931 87.8066 152.871 87.8388 152.817C87.8709 152.763 87.9136 152.716 87.9643 152.679C88.015 152.642 88.0727 152.616 88.1338 152.601C88.195 152.587 88.2585 152.585 88.3204 152.595C88.4447 152.617 88.5557 152.686 88.6291 152.788C88.7026 152.891 88.7326 153.018 88.7127 153.143L88.5309 154.282L89.7005 154.469C89.8193 154.49 89.9252 154.557 89.996 154.655C90.0669 154.752 90.0973 154.874 90.0808 154.993C90.0617 155.113 89.9956 155.221 89.8972 155.292C89.7988 155.364 89.676 155.393 89.556 155.374L88.3865 155.187L88.2038 156.331C88.184 156.455 88.1158 156.566 88.014 156.64C87.9123 156.714 87.7854 156.744 87.6613 156.724C87.5996 156.715 87.5403 156.694 87.487 156.661C87.4336 156.629 87.3873 156.586 87.3506 156.536C87.314 156.485 87.2879 156.428 87.2737 156.367C87.2596 156.306 87.2577 156.243 87.2682 156.182L87.4508 155.038Z" fill="#37474F"/>
<path d="M60.8658 54.7069C60.8509 54.7999 60.7997 54.8833 60.7234 54.9386C60.6471 54.9939 60.552 55.0166 60.4589 55.0017L59.4419 54.8394C58.8189 55.9654 57.2265 58.9182 56.8463 59.7648C56.7921 59.8644 56.716 59.9503 56.6236 60.0161C56.5478 60.0626 56.4582 60.0814 56.37 60.0695C56.3078 60.0606 56.2482 60.0387 56.1951 60.005C56.1421 59.9714 56.0968 59.9268 56.0622 59.8743C56.0622 59.8743 55.1351 58.6261 54.8553 58.1903C54.4328 57.5701 54.7022 57.3524 54.7807 57.318C54.8463 57.289 54.9182 57.2771 54.9896 57.2836C55.0997 57.3125 55.2002 57.3699 55.2811 57.45L55.5778 57.8781C55.6617 58.0062 55.7429 58.1182 55.8249 58.2252L56.0591 58.5546L56.3241 58.9201C56.7165 58.1276 58.3986 55.0379 58.8395 54.2687C58.8729 54.2296 58.9117 54.1954 58.9547 54.1672C58.9939 54.1349 59.0394 54.1111 59.0883 54.0974C59.1372 54.0836 59.1884 54.0802 59.2387 54.0874L60.5506 54.2968C60.5988 54.3016 60.6455 54.3163 60.6878 54.3398C60.7301 54.3634 60.7672 54.3954 60.7967 54.4338C60.8262 54.4722 60.8476 54.5162 60.8595 54.5632C60.8713 54.6102 60.8735 54.6591 60.8658 54.7069Z" fill="#37474F"/>
<path d="M118.981 23.5886L32.0625 9.71484L28.7428 30.5126L115.661 44.3863L118.981 23.5886Z" fill="#455A64"/>
<path d="M78.7359 23.5596L77.4429 31.66C77.4081 31.861 77.2951 32.04 77.1288 32.1581C76.9624 32.2761 76.7561 32.3235 76.5549 32.29C76.4555 32.2756 76.36 32.2413 76.274 32.1893C76.188 32.1373 76.1134 32.0686 76.0544 31.9872C75.9955 31.9059 75.9534 31.8135 75.9307 31.7156C75.9081 31.6178 75.9053 31.5163 75.9225 31.4173L77.0003 24.6644L76.4 24.8971C76.2727 24.9508 76.1326 24.9664 75.9965 24.9422C75.8329 24.9121 75.6832 24.8302 75.5695 24.7086C75.4559 24.5871 75.3842 24.4323 75.365 24.267C75.3459 24.1016 75.3803 23.9345 75.4632 23.7902C75.5461 23.6459 75.6731 23.532 75.8255 23.4653L77.6761 22.7177C77.6761 22.7177 77.7168 22.7242 77.7361 22.7012C77.7554 22.6783 77.7816 22.6772 77.8087 22.6711L77.89 22.6841C77.9092 22.6799 77.9292 22.6831 77.946 22.693C77.979 22.6907 78.012 22.696 78.0426 22.7085L78.1952 22.7328C78.1952 22.7328 78.2358 22.7393 78.246 22.7409C78.2772 22.7466 78.3058 22.7622 78.3276 22.7852C78.3276 22.7852 78.3683 22.7917 78.3784 22.7933C78.3886 22.795 78.4279 22.843 78.4584 22.8478C78.4677 22.8683 78.4832 22.8854 78.5027 22.8966C78.5027 22.8966 78.5436 22.9344 78.5514 22.9513C78.5591 22.9682 78.5855 22.9985 78.5992 23.0111C78.6125 23.0304 78.6231 23.0514 78.6309 23.0735L78.6779 23.1384L78.6739 23.1638C78.6739 23.1638 78.669 23.1943 78.6666 23.2096C78.6641 23.2248 78.6906 23.2551 78.6865 23.2805C78.6825 23.306 78.6776 23.3365 78.676 23.3467C78.6706 23.3701 78.6668 23.3939 78.6646 23.4178C78.6594 23.4344 78.6576 23.4519 78.6593 23.4692C78.661 23.4865 78.6663 23.5033 78.6746 23.5185L78.7359 23.5596Z" fill="white"/>
<path d="M85.3989 32.9328C85.3845 33.0322 85.3502 33.1278 85.2982 33.2137C85.2462 33.2997 85.1775 33.3744 85.0961 33.4333C85.0148 33.4923 84.9224 33.5343 84.8245 33.557C84.7267 33.5797 84.6252 33.5825 84.5262 33.5653L79.6293 32.7836C79.5225 32.7687 79.4202 32.7306 79.3295 32.672C79.2389 32.6134 79.1622 32.5357 79.1047 32.4444C78.9925 32.2755 78.9517 32.069 78.9913 31.8701C79.0308 31.6713 79.1475 31.4961 79.3158 31.383L83.9715 28.3508C84.1845 28.2167 84.3656 28.0376 84.5021 27.826C84.6385 27.6145 84.727 27.3757 84.7614 27.1263C84.8325 26.6861 84.7393 26.2351 84.4996 25.8591C84.3618 25.6484 84.1809 25.4695 83.9688 25.334C83.7567 25.1986 83.5182 25.1098 83.2692 25.0734C82.8305 25.0048 82.3819 25.0982 82.007 25.3361L81.5182 25.6544C81.4337 25.7103 81.3389 25.7488 81.2394 25.7676C81.1399 25.7864 81.0376 25.7853 80.9385 25.7641C80.8394 25.7429 80.7456 25.7023 80.6624 25.6444C80.5793 25.5865 80.5085 25.5127 80.4542 25.4272C80.344 25.2557 80.3061 25.0477 80.3487 24.8484C80.3912 24.6491 80.5108 24.4747 80.6814 24.3632L81.1694 24.05C81.8586 23.5916 82.6962 23.4122 83.5127 23.5479C83.9737 23.622 84.4141 23.7918 84.8054 24.0465C85.1968 24.3012 85.5304 24.635 85.7849 25.0265C86.2403 25.7166 86.4178 26.5534 86.2818 27.369C86.2078 27.8295 86.0386 28.2696 85.7849 28.661C85.5311 29.0523 85.1985 29.3865 84.8083 29.642L81.8407 31.5722L84.7646 32.0389C84.8654 32.055 84.962 32.091 85.0487 32.1449C85.1354 32.1988 85.2105 32.2694 85.2696 32.3526C85.3286 32.4359 85.3705 32.53 85.3927 32.6297C85.4149 32.7293 85.417 32.8324 85.3989 32.9328Z" fill="white"/>
<path d="M93.3001 29.0114C93.5726 29.374 93.7692 29.7878 93.8781 30.228C93.9871 30.6683 94.0061 31.1261 93.934 31.5739C93.8278 32.2487 93.5236 32.8769 93.0601 33.3787C92.5965 33.8805 91.9944 34.2334 91.3301 34.3926C90.6657 34.5519 89.9691 34.5103 89.3284 34.2732C88.6877 34.0361 88.1318 33.6141 87.7312 33.0607C87.6701 32.9772 87.6261 32.8825 87.6019 32.782C87.5776 32.6814 87.5735 32.5771 87.5898 32.475C87.6061 32.3728 87.6425 32.2749 87.6969 32.1869C87.7512 32.099 87.8225 32.0226 87.9065 31.9623C88.076 31.8416 88.2861 31.7923 88.4916 31.8251C88.6971 31.8579 88.8814 31.9702 89.0049 32.1377C89.1482 32.3363 89.3293 32.5045 89.538 32.6327C89.7467 32.7609 89.9787 32.8464 90.2206 32.8844C90.7133 32.9622 91.2168 32.8442 91.6237 32.5557C91.8261 32.412 91.9976 32.2292 92.1281 32.018C92.2585 31.8068 92.3452 31.5716 92.3831 31.3263C92.424 31.0837 92.4149 30.8352 92.3561 30.5963C92.2974 30.3573 92.1904 30.1329 92.0417 29.9369C91.9 29.7362 91.7195 29.5658 91.511 29.4358C91.3025 29.3058 91.0702 29.2188 90.8276 29.1799C90.7197 29.1682 90.6161 29.1315 90.525 29.0725C90.4339 29.0136 90.3578 28.9342 90.3029 28.8406C90.2425 28.7574 90.1992 28.6631 90.1753 28.5631C90.1514 28.4631 90.1475 28.3594 90.1637 28.2579C90.1799 28.1563 90.2159 28.059 90.2698 27.9714C90.3236 27.8838 90.3941 27.8077 90.4774 27.7474L92.1039 26.5417L89.8817 26.187C89.6894 26.1401 89.5218 26.0226 89.4122 25.8577C89.3026 25.6929 89.2591 25.4928 89.2903 25.2974C89.3215 25.1019 89.4252 24.9254 89.5806 24.8028C89.736 24.6803 89.9319 24.6208 90.1293 24.6361L94.1973 25.2854C94.3758 25.3335 94.5314 25.4436 94.6361 25.596C94.7408 25.7484 94.7877 25.9331 94.7685 26.117C94.7455 26.2463 94.692 26.3682 94.6126 26.4728C94.5635 26.5363 94.507 26.5938 94.4445 26.6441L92.4307 28.153C92.7748 28.3784 93.0703 28.6703 93.3001 29.0114Z" fill="white"/>
<path d="M103.293 33.9463C103.277 34.0465 103.241 34.1424 103.187 34.2285C103.134 34.3147 103.064 34.3892 102.981 34.4479C102.898 34.5066 102.805 34.5482 102.706 34.5702C102.607 34.5923 102.504 34.5944 102.405 34.5764L102.283 34.5569L102.115 35.6044C102.083 35.8067 101.972 35.9879 101.806 36.1081C101.64 36.2283 101.433 36.2777 101.231 36.2454C101.029 36.2131 100.847 36.1018 100.727 35.9359C100.607 35.77 100.558 35.5632 100.59 35.3609L100.757 34.3134L96.4348 33.6235C96.2631 33.6021 96.1056 33.5174 95.993 33.3861C95.9233 33.3133 95.8692 33.2272 95.8337 33.1329C95.7982 33.0386 95.7821 32.9381 95.7865 32.8375C95.7909 32.7369 95.8156 32.6382 95.8591 32.5473C95.9026 32.4565 95.9641 32.3754 96.0398 32.3089L102.133 26.805C102.133 26.805 102.133 26.805 102.162 26.7836C102.182 26.7705 102.199 26.7537 102.212 26.7342C102.24 26.7329 102.267 26.7226 102.29 26.7049C102.29 26.7049 102.33 26.7113 102.347 26.6723C102.375 26.6597 102.407 26.6556 102.437 26.6607C102.442 26.6302 102.469 26.624 102.495 26.6281C102.52 26.6322 102.535 26.6346 102.586 26.6114C102.637 26.5882 102.627 26.6179 102.637 26.6195L102.871 26.6568C102.893 26.6676 102.918 26.6716 102.942 26.6682C102.942 26.6682 102.998 26.6771 103.019 26.7117L103.075 26.7206C103.095 26.7552 103.124 26.7702 103.132 26.7871L103.196 26.8392C103.196 26.8392 103.242 26.8465 103.238 26.8719L103.28 26.9359C103.292 26.9558 103.303 26.9767 103.312 26.9984C103.331 27.0208 103.346 27.0461 103.357 27.0734C103.356 27.0957 103.364 27.1174 103.379 27.1342C103.374 27.1647 103.372 27.1749 103.391 27.2196C103.41 27.2644 103.385 27.2603 103.382 27.2756C103.384 27.3033 103.379 27.331 103.369 27.3569C103.364 27.3874 103.363 27.3976 103.358 27.4281L102.465 33.0216L102.602 33.0435C102.709 33.0533 102.812 33.085 102.905 33.1366C102.999 33.1883 103.081 33.2587 103.145 33.3436C103.21 33.4284 103.257 33.5258 103.282 33.6295C103.308 33.7333 103.311 33.8411 103.293 33.9463ZM101.539 29.4165L98.2675 32.3673L100.998 32.8031L101.539 29.4165Z" fill="white"/>
<path d="M110.65 31.7821C110.922 32.1476 111.118 32.5641 111.227 33.0069C111.335 33.4497 111.354 33.9098 111.281 34.3599C111.206 34.8066 111.044 35.2342 110.804 35.6182C110.564 36.0022 110.25 36.335 109.881 36.5977C109.518 36.8686 109.104 37.0643 108.664 37.1731C108.224 37.282 107.766 37.3018 107.319 37.2316L107.288 37.2267C106.843 37.1547 106.417 36.9938 106.035 36.7537C105.653 36.5136 105.323 36.1991 105.065 35.829C105.001 35.7469 104.954 35.6523 104.928 35.5512C104.901 35.4501 104.896 35.3446 104.913 35.2415C104.929 35.1383 104.967 35.0396 105.023 34.9517C105.08 34.8638 105.154 34.7885 105.241 34.7306C105.409 34.6101 105.619 34.5608 105.823 34.5935C106.028 34.6262 106.211 34.7381 106.334 34.9052C106.478 35.1065 106.66 35.2774 106.87 35.4077C107.08 35.538 107.314 35.6251 107.558 35.6641C107.802 35.7031 108.052 35.6931 108.292 35.6347C108.533 35.5763 108.759 35.4707 108.958 35.324C109.359 35.0337 109.631 34.5979 109.715 34.1099C109.754 33.8665 109.746 33.6177 109.689 33.3777C109.632 33.1378 109.528 32.9114 109.384 32.7115C109.24 32.5117 109.057 32.3423 108.847 32.213C108.637 32.0838 108.404 31.9973 108.16 31.9584C107.672 31.8681 107.167 31.9751 106.757 32.2559C106.674 32.3169 106.58 32.3608 106.48 32.3851C106.379 32.4093 106.276 32.4135 106.174 32.3972C106.072 32.381 105.975 32.3447 105.887 32.2905C105.799 32.2363 105.724 32.1652 105.664 32.0814C105.616 32.0216 105.587 31.9439 105.54 31.879C105.493 31.8142 105.546 31.8383 105.546 31.8383C105.558 31.8186 105.562 31.7948 105.557 31.7722C105.563 31.7316 105.568 31.7011 105.572 31.6756C105.576 31.6502 105.572 31.6756 105.577 31.6451C105.579 31.5676 105.591 31.4906 105.613 31.4163L106.593 27.9225C106.667 27.7073 106.823 27.5298 107.027 27.4285C107.052 27.4326 107.068 27.435 107.083 27.4375C107.098 27.4399 107.108 27.4415 107.128 27.4185C107.246 27.3777 107.374 27.3675 107.497 27.3889L111.565 28.0382C111.772 28.0712 111.956 28.1847 112.079 28.3539C112.202 28.5231 112.252 28.7341 112.219 28.9404C112.186 29.1468 112.073 29.3316 111.903 29.4542C111.734 29.5768 111.523 29.6272 111.317 29.5943L107.854 29.0415L107.475 30.3732C107.788 30.3387 108.104 30.3454 108.415 30.393C108.862 30.4639 109.289 30.6233 109.673 30.8619C110.056 31.1004 110.389 31.4133 110.65 31.7821Z" fill="white"/>
</svg>
