<svg width="101" height="168" viewBox="0 0 101 168" fill="none" xmlns="http://www.w3.org/2000/svg">
<path d="M72.239 18.7612C70.2125 17.4985 67.3831 17.6388 64.2419 19.4471C62.4497 20.5184 60.8395 21.8682 59.4717 23.4457C59.1209 23.8354 58.778 24.2252 58.4584 24.6694L58.4038 24.7318C56.5886 27.0815 55.1743 29.7152 54.2182 32.5263C53.5331 34.5001 53.1699 36.5713 53.1426 38.6605C53.1426 42.1135 54.3273 44.5609 56.2604 45.7535L59.9549 47.8892C59.3747 47.5295 58.867 47.0642 58.4584 46.5173C57.3155 44.8355 56.7519 42.8271 56.8528 40.7962C56.8528 33.7266 61.8178 25.1215 67.9443 21.5828C69.6629 20.4762 71.6983 19.9667 73.7356 20.1331C74.4917 20.2165 75.2205 20.4639 75.8712 20.8579L72.239 18.7612Z" fill="#FB7D5B"/>
<path opacity="0.7" d="M72.239 18.7612C70.2125 17.4985 67.3831 17.6388 64.2419 19.4471C62.4497 20.5184 60.8395 21.8682 59.4717 23.4457C59.1209 23.8354 58.778 24.2252 58.4584 24.6694L58.4038 24.7318C56.5886 27.0815 55.1743 29.7152 54.2182 32.5263C53.5331 34.5001 53.1699 36.5713 53.1426 38.6605C53.1426 42.1135 54.3273 44.5609 56.2604 45.7535L59.9549 47.8892C59.3747 47.5295 58.867 47.0642 58.4584 46.5173C57.3155 44.8355 56.7519 42.8271 56.8528 40.7962C56.8528 33.7266 61.8178 25.1215 67.9443 21.5828C69.6629 20.4762 71.6983 19.9667 73.7356 20.1331C74.4917 20.2165 75.2205 20.4639 75.8712 20.8579L72.239 18.7612Z" fill="white"/>
<path d="M75.862 20.8593C75.2113 20.4652 74.4825 20.2178 73.7264 20.1344C71.6891 19.968 69.6537 20.4775 67.9351 21.5842C61.8086 25.1228 56.8436 33.7279 56.8436 40.7975C56.7427 42.8284 57.3063 44.8368 58.4492 46.5187C58.8578 47.0655 59.3655 47.5309 59.9458 47.8905C60.0008 47.932 60.061 47.9661 60.125 47.9918C61.0515 48.5171 62.1091 48.766 63.1727 48.7089C64.8608 48.6127 66.498 48.0955 67.9351 47.2046C74.0615 43.6659 79.0344 35.0686 79.0344 27.9912C79.0344 24.5071 77.8262 22.0362 75.862 20.8593Z" fill="#FB7D5B"/>
<path opacity="0.6" d="M75.862 20.8593C75.2113 20.4652 74.4825 20.2178 73.7264 20.1344C71.6891 19.968 69.6537 20.4775 67.9351 21.5842C61.8086 25.1228 56.8436 33.7279 56.8436 40.7975C56.7427 42.8284 57.3063 44.8368 58.4492 46.5187C58.8578 47.0655 59.3655 47.5309 59.9458 47.8905C60.0008 47.932 60.061 47.9661 60.125 47.9918C61.0515 48.5171 62.1091 48.766 63.1727 48.7089C64.8608 48.6127 66.498 48.0955 67.9351 47.2046C74.0615 43.6659 79.0344 35.0686 79.0344 27.9912C79.0344 24.5071 77.8262 22.0362 75.862 20.8593Z" fill="white"/>
<path d="M133.152 141.712V148.111L51.793 195.088V188.681C51.793 185.142 55.3239 180.24 59.681 177.722L125.24 139.849C127.867 138.344 130.182 138.04 131.616 138.804C132.117 139.098 132.527 139.525 132.798 140.039C133.07 140.553 133.192 141.132 133.152 141.712Z" fill="#263238"/>
<path d="M80.0336 109.037L79.9244 108.974C78.4902 108.156 76.1363 108.437 73.4706 109.98L7.88019 147.853C3.53088 150.363 0 155.273 0 158.765V165.172L51.7708 195.064V188.657C51.7708 185.118 55.3017 180.216 59.6588 177.698L125.241 139.848C127.868 138.344 130.183 138.04 131.617 138.804L80.0336 109.037Z" fill="#455A64"/>
<path d="M47.3104 171.97V163.427L17.7227 146.35V154.885L47.3104 171.97Z" fill="#FB7D5B"/>
<path opacity="0.15" d="M47.3104 171.97V163.427L17.7227 146.35V154.885L47.3104 171.97Z" fill="black"/>
<path d="M47.3125 171.97L69.4956 159.156V150.613L47.3125 163.427V171.97Z" fill="#FB7D5B"/>
<path opacity="0.25" d="M47.3125 171.97L69.4956 159.156V150.613L47.3125 163.427V171.97Z" fill="black"/>
<path d="M17.7227 146.349L39.9135 133.535L69.4935 150.613L47.3104 163.427L17.7227 146.349Z" fill="#FB7D5B"/>
<path d="M30.4688 144.907L39.9156 139.451L56.7517 149.179L47.3126 154.627L30.4688 144.907Z" fill="#FAFAFA"/>
<path d="M30.4688 144.906V146.348L47.3126 156.068V154.626L30.4688 144.906Z" fill="#F0F0F0"/>
<path d="M56.7516 149.18L47.3125 154.628V156.07L56.7516 150.614V149.18Z" fill="#E0E0E0"/>
<path d="M105.848 122.411V133.082L87.3594 143.76V133.082C87.3594 127.197 91.506 120.018 96.6114 117.072C99.1992 115.575 101.53 115.451 103.206 116.464C104.881 117.477 105.848 119.504 105.848 122.411Z" fill="#FB7D5B"/>
<path opacity="0.6" d="M105.848 122.411V133.082L87.3594 143.76V133.082C87.3594 127.197 91.506 120.018 96.6114 117.072C99.1992 115.575 101.53 115.451 103.206 116.464C104.881 117.477 105.848 119.504 105.848 122.411Z" fill="white"/>
<path d="M81.0784 103.689L80.9381 103.596C79.2701 102.653 76.963 102.817 74.422 104.258C69.3166 107.213 65.1777 114.391 65.1777 120.276V130.955L87.3608 143.761V133.082C87.3608 127.198 91.5074 120.019 96.6128 117.073C99.0603 115.662 101.289 115.467 102.934 116.293L81.0784 103.689Z" fill="#FB7D5B"/>
<path opacity="0.7" d="M81.0784 103.689L80.9381 103.596C79.2701 102.653 76.963 102.817 74.422 104.258C69.3166 107.213 65.1777 114.391 65.1777 120.276V130.955L87.3608 143.761V133.082C87.3608 127.198 91.5074 120.019 96.6128 117.073C99.0603 115.662 101.289 115.467 102.934 116.293L81.0784 103.689Z" fill="white"/>
<path d="M96.6047 124.042C98.6469 122.865 100.307 123.816 100.307 126.177C100.235 127.461 99.8629 128.709 99.2198 129.822C98.5766 130.935 97.6809 131.881 96.6047 132.584C94.5626 133.761 92.9102 132.803 92.9102 130.449C92.9786 129.165 93.3488 127.916 93.9908 126.803C94.6328 125.69 95.5283 124.744 96.6047 124.042Z" fill="#455A64"/>
<path d="M95.5595 50.7816L101.171 41.4282C101.171 41.4282 87.9988 33.8987 83.9769 31.498L78.3727 40.8514C84.312 44.3979 87.726 52.9874 87.726 64.4063C87.726 77.8361 83.1273 92.9496 75.6758 106.699L92.8704 116.629C100.322 102.88 104.921 87.7897 104.921 74.3364C104.921 62.9097 101.507 54.328 95.5595 50.7816Z" fill="#37474F"/>
<path d="M95.5602 50.781C101.507 54.3275 104.914 62.917 104.914 74.3359C104.914 87.7657 100.307 102.879 92.8633 116.629C93.3055 116.293 93.769 115.985 94.2507 115.709C96.8307 114.212 99.1612 114.095 100.837 115.101C101.539 115.522 102.544 116.083 103.175 116.465C103.753 116.786 104.241 117.247 104.594 117.806C112.326 102.996 115.834 89.0908 115.834 74.3359C115.834 58.2169 110.237 46.8136 101.141 41.3887L95.5602 50.781Z" fill="#263238"/>
<path d="M93.824 0.163786L89.5215 6.0564C89.9141 5.59274 90.4434 5.26531 91.0336 5.12107C91.6626 4.96273 92.316 4.92569 92.9588 5.01194C93.3991 5.06151 93.8345 5.14755 94.2605 5.26916C96.9002 6.0656 99.1884 7.74047 100.746 10.016C100.986 10.3833 101.197 10.7691 101.377 11.1696C101.645 11.7597 101.803 12.3935 101.845 13.0402C101.896 13.6889 101.717 14.3349 101.338 14.8641L105.757 8.89358C106.396 8.01281 106.467 6.72673 105.796 5.19901C104.975 3.58361 103.785 2.18433 102.323 1.11452C100.86 0.0447183 99.1665 -0.665511 97.3783 -0.958618C95.6869 -1.14569 94.4632 -0.68581 93.824 0.163786Z" fill="#FB7D5B"/>
<path opacity="0.25" d="M93.824 0.163786L89.5215 6.0564C89.9141 5.59274 90.4434 5.26531 91.0336 5.12107C91.6626 4.96273 92.316 4.92569 92.9588 5.01194C93.3991 5.06151 93.8345 5.14755 94.2605 5.26916C96.9002 6.0656 99.1884 7.74047 100.746 10.016C100.986 10.3833 101.197 10.7691 101.377 11.1696C101.645 11.7597 101.803 12.3935 101.845 13.0402C101.896 13.6889 101.717 14.3349 101.338 14.8641L105.757 8.89358C106.396 8.01281 106.467 6.72673 105.796 5.19901C104.975 3.58361 103.785 2.18433 102.323 1.11452C100.86 0.0447183 99.1665 -0.665511 97.3783 -0.958618C95.6869 -1.14569 94.4632 -0.68581 93.824 0.163786Z" fill="black"/>
<path d="M67.3294 76.9469C68.2029 76.5063 68.951 75.8521 69.5041 75.045L95.709 35.7454L72.1853 18.543L42.6911 55.3874C42.0744 56.1699 41.6715 57.0992 41.5219 58.0843C41.3118 59.4418 41.4212 60.8296 41.8415 62.1374C42.0189 62.7466 42.2377 63.3429 42.4962 63.9223C42.8791 64.792 43.3327 65.6288 43.8525 66.4244C47.387 71.6386 52.6211 75.465 58.6619 77.2509C59.5806 77.5099 60.5192 77.6924 61.468 77.7965C62.1952 77.8756 62.9272 77.9016 63.6582 77.8744C64.9345 77.8338 66.187 77.5174 67.3294 76.9469Z" fill="#455A64"/>
<path d="M70.8061 73.0874C72.0688 71.1699 72.1155 68.4107 70.6346 65.1292C67.5636 58.3792 59.1066 52.1904 51.7486 51.3096C48.1787 50.8887 45.513 51.7851 44.0944 53.5856L39.2385 59.6887C37.6016 61.7542 37.4146 64.8876 38.9657 68.512C41.9743 75.5271 50.595 81.8484 58.2102 82.5888C62.1074 82.963 65.0226 81.8094 66.4879 79.6036L70.8061 73.0874Z" fill="#FB7D5B"/>
<path d="M58.2098 82.5819C50.5868 81.8024 41.9583 75.5279 38.9341 68.4817C35.9098 61.4355 39.6434 56.3379 47.2976 57.0628C54.9517 57.7877 63.549 64.0778 66.5655 71.163C69.5819 78.2481 65.825 83.3301 58.2098 82.5819Z" fill="#FB7D5B"/>
<path opacity="0.25" d="M58.2098 82.5819C50.5868 81.8024 41.9583 75.5279 38.9341 68.4817C35.9098 61.4355 39.6434 56.3379 47.2976 57.0628C54.9517 57.7877 63.549 64.0778 66.5655 71.163C69.5819 78.2481 65.825 83.3301 58.2098 82.5819Z" fill="black"/>
<path d="M89.5507 6.08883L89.5117 6.1356L84.4453 13.1506C89.2863 14.6125 93.4845 17.6807 96.3475 21.8492L101.406 14.8342C101.785 14.3049 101.967 13.6597 101.92 13.0103C101.871 12.3614 101.711 11.7259 101.445 11.1319C101.266 10.7332 101.055 10.35 100.814 9.98606C99.2612 7.7061 96.9713 6.02995 94.3287 5.23924C93.9042 5.10993 93.4683 5.02119 93.027 4.97422C92.384 4.89204 91.7314 4.92903 91.1018 5.08335C90.4875 5.23707 89.9418 5.59081 89.5507 6.08883Z" fill="#263238"/>
<path d="M43.152 66.7196L33.7363 79.5103L49.3253 90.9292L58.7643 78.1073C59.6061 76.9538 59.6841 75.2468 58.8111 73.2514C57.0496 69.2606 52.1079 65.644 47.7664 65.1763C45.5995 64.9659 43.9938 65.566 43.152 66.7196Z" fill="#37474F"/>
<path d="M49.3448 90.9308L33.7559 79.512L36.1643 76.2227C37.0061 75.0691 38.6118 74.4767 40.7787 74.7106C45.1124 75.1782 50.0541 78.7949 51.8156 82.7856C52.6964 84.781 52.5951 86.488 51.7689 87.6416L49.3448 90.9308Z" fill="#FB7D5B"/>
<path d="M44.7342 92.4422C40.4004 91.9745 35.4588 88.3579 33.6972 84.3671C31.9357 80.3763 34.0246 77.5236 38.3739 77.999C42.7232 78.4745 47.6493 82.0833 49.4109 86.0663C51.1724 90.0493 49.0679 92.9176 44.7342 92.4422Z" fill="#FB7D5B"/>
<path opacity="0.25" d="M44.7342 92.4422C40.4004 91.9745 35.4588 88.3579 33.6972 84.3671C31.9357 80.3763 34.0246 77.5236 38.3739 77.999C42.7232 78.4745 47.6493 82.0833 49.4109 86.0663C51.1724 90.0493 49.0679 92.9176 44.7342 92.4422Z" fill="black"/>
<path d="M43.129 88.8094C41.9682 88.6159 40.8692 88.1517 39.9213 87.4543C38.9733 86.7569 38.203 85.8459 37.6729 84.7952C36.7921 82.8076 37.8288 81.389 40.0112 81.6229C41.1787 81.8144 42.2847 82.2783 43.2394 82.9771C44.1941 83.6759 44.9708 84.5898 45.5063 85.6448C46.3247 87.6246 45.2881 89.0198 43.129 88.8094Z" fill="#263238"/>
<path d="M86.1806 41.5725C94.1313 40.3402 99.5777 32.896 98.3454 24.9453C97.1132 16.9946 89.6689 11.5483 81.7182 12.7805C73.7676 14.0128 68.3212 21.457 69.5535 29.4077C70.7857 37.3584 78.2299 42.8047 86.1806 41.5725Z" fill="#455A64"/>
<path d="M98.8328 28.6363C96.814 27.3813 93.9768 27.5139 90.8435 29.33C89.0459 30.3937 87.4323 31.7414 86.0654 33.3207C85.7147 33.7182 85.3795 34.1002 85.06 34.5445L85.0054 34.6068C83.1872 36.9546 81.7727 39.5888 80.8198 42.4013C80.1347 44.3751 79.7715 46.4463 79.7441 48.5355C79.7441 51.9885 80.9289 54.4359 82.8619 55.6285L86.5565 57.772C85.9794 57.4078 85.4747 56.9401 85.0677 56.3923C83.9238 54.7136 83.3574 52.7081 83.4543 50.679C83.4543 43.6016 88.4272 34.9965 94.5536 31.4579C96.2722 30.3512 98.3076 29.8417 100.345 30.0081C101.1 30.0918 101.826 30.342 102.473 30.7408L98.8328 28.6363Z" fill="#FB7D5B"/>
<path opacity="0.7" d="M98.8328 28.6363C96.814 27.3813 93.9768 27.5139 90.8435 29.33C89.0459 30.3937 87.4323 31.7414 86.0654 33.3207C85.7147 33.7182 85.3795 34.1002 85.06 34.5445L85.0054 34.6068C83.1872 36.9546 81.7727 39.5888 80.8198 42.4013C80.1347 44.3751 79.7715 46.4463 79.7441 48.5355C79.7441 51.9885 80.9289 54.4359 82.8619 55.6285L86.5565 57.772C85.9794 57.4078 85.4747 56.9401 85.0677 56.3923C83.9238 54.7136 83.3574 52.7081 83.4543 50.679C83.4543 43.6016 88.4272 34.9965 94.5536 31.4579C96.2722 30.3512 98.3076 29.8417 100.345 30.0081C101.1 30.0918 101.826 30.342 102.473 30.7408L98.8328 28.6363Z" fill="white"/>
<path d="M102.457 30.7421C101.811 30.3433 101.084 30.0931 100.329 30.0094C98.2917 29.843 96.2563 30.3525 94.5377 31.4592C88.4112 34.9978 83.4384 43.6029 83.4384 50.6803C83.3415 52.7094 83.9079 54.7149 85.0518 56.3937C85.4588 56.9414 85.9635 57.4091 86.5406 57.7733C86.5997 57.8106 86.6623 57.842 86.7276 57.8668C87.6549 58.3908 88.7114 58.6421 89.7753 58.5917C91.463 58.487 93.0987 57.9676 94.5377 57.0796C100.664 53.5487 105.637 44.9436 105.637 37.8662C105.637 34.3821 104.421 31.9112 102.457 30.7421Z" fill="#FB7D5B"/>
<path opacity="0.6" d="M102.457 30.7421C101.811 30.3433 101.084 30.0931 100.329 30.0094C98.2917 29.843 96.2563 30.3525 94.5377 31.4592C88.4112 34.9978 83.4384 43.6029 83.4384 50.6803C83.3415 52.7094 83.9079 54.7149 85.0518 56.3937C85.4588 56.9414 85.9635 57.4091 86.5406 57.7733C86.5997 57.8106 86.6623 57.842 86.7276 57.8668C87.6549 58.3908 88.7114 58.6421 89.7753 58.5917C91.463 58.487 93.0987 57.9676 94.5377 57.0796C100.664 53.5487 105.637 44.9436 105.637 37.8662C105.637 34.3821 104.421 31.9112 102.457 30.7421Z" fill="white"/>
<path d="M94.5404 39.1369C97.0035 37.7105 99.0067 38.8641 99.0067 41.7169C98.9224 43.2671 98.4742 44.7757 97.6982 46.1204C96.9223 47.4651 95.8405 48.6081 94.5404 49.4568C92.0696 50.8832 90.0664 49.7296 90.0664 46.8768C90.1509 45.3257 90.6001 43.8165 91.3774 42.4716C92.1548 41.1268 93.2385 39.9842 94.5404 39.1369Z" fill="#455A64"/>
</svg>
