<svg width="144" height="165" viewBox="0 0 144 165" fill="none" xmlns="http://www.w3.org/2000/svg">
<path d="M152.876 71.8961C169.41 46.3142 163.116 12.8455 138.818 -2.85834C114.521 -18.5622 81.4202 -10.5544 64.8864 15.0275C48.3525 40.6094 54.6464 74.0781 78.9441 89.7819C103.242 105.486 136.342 97.478 152.876 71.8961Z" fill="#FF725E"/>
<g opacity="0.2">
<path d="M61.7646 32.7143C66.8507 32.3355 70.9451 30.7316 75.5317 28.4482C76.5819 27.9246 75.9175 26.4103 74.9489 26.4253C70.7453 26.5075 66.7299 26.4633 62.5123 26.9239C61.3782 27.0347 60.1582 27.0821 58.9035 27.1893C58.2325 29.0794 57.663 31.004 57.1976 32.9549C58.7688 32.9582 60.3406 32.8196 61.7646 32.7143Z" fill="black"/>
<path d="M67.5374 40.6757C78.7686 39.7423 89.7848 36.0052 99.8246 30.457C110.093 24.7133 119.196 17.099 126.664 8.00707C130.015 4.01806 132.969 -0.288392 135.483 -4.85108C133.887 -5.71493 132.244 -6.49078 130.563 -7.17518C128.637 -3.25668 126.281 0.434902 123.538 3.83115C117.423 11.4843 110.124 18.1109 101.918 23.4605C94.1204 28.6756 85.4995 32.5389 76.4176 34.8878C70.6683 36.3318 62.8647 38.0416 56.3896 36.9116C56.1994 38.111 56.0427 39.3163 55.9197 40.5275C59.7727 41.0382 63.6727 41.088 67.5374 40.6757Z" fill="white"/>
<path d="M87.8345 5.42221C92.8807 3.00414 101.466 -3.47571 103.039 -10.2303C101.205 -9.94313 99.388 -9.55657 97.5959 -9.07233C97.4414 -8.72183 97.2717 -8.36357 97.0837 -8.01891C95.0927 -4.43568 91.7586 -1.73008 88.4251 0.435481C84.5192 2.96541 77.5428 6.32866 71.7233 6.36521C70.9227 7.20573 70.1557 8.0521 69.3906 8.94727C75.2379 10.3628 82.9204 7.77673 87.8345 5.42221Z" fill="white"/>
<path d="M76.9056 57.7253C90.3956 55.5299 102.87 49.5225 114.669 42.2585C125.419 35.6326 135.329 27.4478 142.878 17.0935C145.387 13.7294 147.616 10.165 149.541 6.43621C146.858 3.33119 143.806 0.565471 140.452 -1.79953C137.761 3.16588 134.552 7.83225 130.877 12.1215C123.922 20.2594 115.316 26.7806 106.276 32.2708C96.7876 38.0741 86.5941 43.0727 75.8768 45.3904C70.5974 46.5145 65.2167 47.0946 59.819 47.1217C58.4186 47.1308 57.0222 47.0575 55.6779 47.0036C55.7436 50.819 56.2096 54.617 57.0682 58.3351C63.6757 59.0832 70.3565 58.8778 76.9056 57.7253Z" fill="black"/>
<path d="M103.697 83.8999C96.4558 86.8471 89.03 89.3173 81.4668 91.2949C82.6771 91.9798 83.9237 92.6157 85.1942 93.1933C102.547 89.4126 119.677 81.0404 134.49 71.8772C143.914 66.0581 152.783 59.384 160.983 51.9393C161.201 50.8485 161.395 49.7502 161.536 48.6218C152.984 56.3224 143.697 63.165 133.808 69.0511C124.196 74.8199 114.125 79.7864 103.697 83.8999Z" fill="black"/>
<path d="M92.3237 12.518C99.3862 9.03816 105.994 4.27425 110.728 -2.24196C112.662 -4.86737 114.278 -7.71233 115.544 -10.7175C113.921 -10.844 112.27 -10.9062 110.6 -10.8783C109.592 -8.3439 108.241 -5.96012 106.584 -3.79396C102.533 1.61566 97.0351 5.77621 91.1825 8.88839C82.8002 13.347 73.0715 16.8684 63.722 16.8967C63.0653 18.0046 62.4376 19.1245 61.862 20.2638C72.1491 20.9561 84.1819 16.5095 92.3237 12.518Z" fill="white"/>
<path d="M161.755 34.8403C158.756 38.7639 155.546 42.5211 152.138 46.0951C145.341 53.1945 137.752 59.4923 129.522 64.8656C120.733 70.3827 111.308 74.8149 101.453 78.0651C92.3949 81.1528 82.2741 84.6788 72.6287 84.9152C73.5503 85.7473 74.5007 86.5531 75.4828 87.3161C82.8726 86.9503 90.7787 84.0742 97.4757 82.0784C108.379 78.9578 118.861 74.5182 128.689 68.858C141.308 61.336 152.594 51.776 162.088 40.566L162.083 40.0214C162.057 38.2963 161.942 36.552 161.755 34.8403Z" fill="white"/>
<path d="M126.01 61.8158C137.883 54.2736 149.116 44.9897 158.176 34.0259C159.15 32.8484 160.126 31.616 161.064 30.384C159.781 23.7141 157.201 17.3611 153.47 11.6857C150.775 16.2638 147.66 20.5818 144.166 24.5842C136.121 33.703 126.768 41.5778 116.412 47.9518C105.786 54.6408 94.1497 59.8731 82.0186 62.4365C75.5224 63.7976 68.8918 64.4119 62.2561 64.2676C61.1072 64.2443 59.9442 64.1631 58.7705 64.0835C60.985 70.3435 64.3955 76.1132 68.8121 81.0714C73.7051 80.9644 78.58 80.44 83.3838 79.504C98.4801 76.494 112.824 70.1886 126.01 61.8158Z" fill="white"/>
<path d="M109.969 4.65923C106.443 7.57375 103.882 11.2101 99.9072 13.7177C95.9325 16.2253 91.0172 17.8109 87.4881 21.1404C85.7341 22.7845 87.7159 25.2239 89.6186 24.6756C94.5356 23.3187 99.7771 19.4804 104.101 16.6148C107.609 14.2648 111.5 10.5482 112.113 6.18523C112.268 5.07655 111.116 3.76117 109.969 4.65923Z" fill="black"/>
<path d="M127.612 84.384C126.783 85.0056 126.028 85.7214 125.364 86.5169C124.646 87.3613 125.622 88.736 126.565 88.0103C127.255 87.4793 128.007 87.0346 128.804 86.686C129.592 86.2841 130.321 85.7761 130.971 85.1761C131.124 85.0807 131.243 84.9379 131.308 84.7694C131.373 84.6008 131.381 84.4156 131.331 84.2419C131.282 84.0682 131.177 83.9153 131.033 83.8065C130.889 83.6976 130.713 83.6387 130.532 83.6387C129.501 83.5268 128.464 83.7915 127.612 84.384Z" fill="white"/>
<path d="M151.273 63.6562C146.403 67.3131 140.193 70.01 136.068 74.5583C135.142 75.5813 135.808 77.5807 137.279 77.3484C143.679 76.3845 149.663 71.398 154.747 67.4908L155.991 66.5127C157.594 63.3453 158.896 60.0339 159.879 56.6224C157.043 59.0512 154.198 61.4159 151.273 63.6562Z" fill="black"/>
<path d="M117.037 89.37C118.379 88.1043 116.837 86.4441 115.448 86.746C110.63 87.7879 106.088 90.8718 101.383 92.584C98.2854 93.7105 95.1571 94.7762 92.0098 95.752C94.5158 96.4868 97.0752 97.0259 99.6647 97.3642C106.163 95.9328 112.642 93.539 117.037 89.37Z" fill="white"/>
</g>
<path d="M132.001 87.4824C131.576 87.8766 131.103 88.2154 130.593 88.4907C129.271 89.3389 127.895 90.1 126.474 90.769C121.771 93.009 116.737 94.4727 111.566 95.1032C108.719 95.4304 105.849 95.516 102.988 95.3591C100.653 95.2101 98.3346 94.8773 96.0528 94.3637C95.075 94.1728 94.2156 93.8986 93.4528 93.6863C92.7997 93.5088 92.1574 93.2941 91.5288 93.0434C90.9752 92.8828 90.444 92.6531 89.9478 92.3598C89.997 92.216 92.2779 93.056 96.166 93.8121C98.4311 94.2391 100.723 94.5117 103.025 94.628C105.843 94.7402 108.667 94.6341 111.469 94.3107C116.562 93.6771 121.536 92.3107 126.238 90.2537C129.845 88.6688 131.902 87.3336 132.001 87.4824Z" fill="white"/>
<path d="M143.811 3.94072C144.026 4.09927 143.507 5.43191 142.298 7.80101L141.268 9.76145C140.889 10.4295 140.374 11.1778 139.868 11.9795C138.738 13.7942 137.506 15.5439 136.179 17.22L133.861 20.1544C133.042 21.1613 132.079 22.119 131.14 23.1604C129.115 25.353 126.979 27.4404 124.741 29.4147C119.552 33.8916 113.92 37.8282 107.934 41.1634C101.89 44.3991 95.5329 47.0121 88.9608 48.9623C86.0885 49.7785 83.1767 50.4482 80.2365 50.969C78.8531 51.1992 77.5326 51.4853 76.234 51.6264L72.5207 51.9947C70.392 52.2053 68.253 52.2944 66.1142 52.2615C65.1698 52.2565 64.2959 52.2845 63.5023 52.2295C62.7086 52.1745 61.9877 52.0594 61.2965 52.0326C58.6538 51.7598 57.2162 51.4855 57.2355 51.2153C57.2548 50.9452 58.7006 50.6947 61.2969 50.4782L63.4529 50.3443C64.2379 50.2697 65.0912 50.1412 66.0027 50.0367C67.8314 49.794 69.9173 49.6652 72.1868 49.198L75.7503 48.5958C76.9934 48.3759 78.2538 48.017 79.5742 47.7308C82.2322 47.1996 84.9819 46.3001 87.8967 45.4465C94.1422 43.3664 100.199 40.7591 106.003 37.6527C111.754 34.4399 117.22 30.7428 122.343 26.6016C124.632 24.6041 126.872 22.7779 128.761 20.8353C129.718 19.8731 130.7 19.0053 131.553 18.0805L133.992 15.4061C135.602 13.7509 136.848 12.0634 138.038 10.657C138.618 9.94784 139.191 9.29975 139.676 8.68129L140.963 6.93855C142.575 4.89589 143.572 3.80219 143.811 3.94072Z" fill="#FF725E"/>
<path d="M160.885 51.3077C160.885 51.3077 160.871 51.1736 160.89 50.9034L160.977 49.7067L161.386 45.1074L161.44 45.0337C161.44 45.0337 161.402 45.214 161.465 45.2319L161.413 45.1087L161.429 44.3428L161.456 44.3059L161.492 44.2568L161.434 44.3366C161.538 38.4202 160.66 32.5275 158.834 26.8987L158.883 26.6405C158.795 26.6702 158.809 26.9843 158.924 27.0216L158.833 26.888C156.149 18.7622 151.493 11.4283 145.281 5.54238C139.07 -0.343561 131.496 -4.59799 123.237 -6.84032L123.648 -6.97312L123.49 -6.75835L123.228 -6.82806C120.838 -7.52491 118.397 -8.03076 115.927 -8.34083C104.476 -9.80685 93.3984 -6.69315 84.8047 -1.75551C77.11 2.64927 70.5428 8.78018 65.6203 16.1544C62.2899 21.116 59.8051 26.5954 58.267 32.3697C57.721 34.3936 57.3931 36.0193 57.2215 37.125L56.9945 38.37C56.9743 38.5149 56.9391 38.6573 56.8895 38.7949C57.0648 36.6001 57.4249 34.424 57.9659 32.2897C59.3898 26.4367 61.8055 20.8708 65.1084 15.8334C70.0223 8.32265 76.6292 2.06902 84.3984 -2.42515C88.9845 -5.07662 93.9405 -7.02896 99.1028 -8.21769C107.133 -10.1283 115.523 -9.91437 123.445 -7.59703L123.018 -7.46717L123.172 -7.6758L123.416 -7.609C131.791 -5.33809 139.465 -1.00896 145.741 4.98443C152.016 10.9778 156.693 18.4452 159.346 26.7072L159.261 26.5781C159.353 26.6461 159.387 26.9464 159.305 26.9805L159.347 26.7178C161.152 32.4102 161.964 38.3711 161.745 44.3388L161.748 44.3983L161.694 44.4719L161.753 44.3922L161.711 45.1674L161.66 45.0443C161.715 45.085 161.733 45.2405 161.688 45.2637L161.738 45.1962L161.178 49.8074L161.017 50.9879C160.986 51.0991 160.941 51.2064 160.885 51.3077Z" fill="white"/>
<path d="M60.8355 69.3045C60.5445 68.7484 60.2884 68.1706 60.0171 67.6007C38.3457 82.8309 28.897 92.3042 27.8338 96.3258C27.7509 96.555 27.7389 96.8039 27.7995 97.04L27.8799 97.1751C27.9605 97.3484 28.3033 97.4877 28.4743 97.5001C31.2548 98.254 45.4991 97.554 112.308 57.227C152.513 32.9442 179.825 10.3686 187.197 1.30619C187.404 1.07968 187.534 0.793344 187.568 0.488405C187.601 0.183453 187.538 -0.124363 187.385 -0.390692C187.233 -0.657037 187 -0.868172 186.72 -0.993674C186.44 -1.11919 186.128 -1.1526 185.827 -1.0891C180.287 0.187065 169.367 4.30794 153.626 11.9801C153.867 12.3856 154.128 12.7772 154.36 13.1949C167.354 6.94554 175.888 4.00216 176.901 5.8403C178.918 9.52887 149.884 31.0985 112.029 53.9966C74.174 76.8948 41.842 92.4652 39.8203 88.7828C38.7265 86.7714 46.9643 79.3621 60.8355 69.3045Z" fill="#FF725E"/>
<path d="M150.512 7.32211C150.749 7.62998 150.976 7.97762 151.198 8.29322C171.247 -1.55497 186.171 -7.05323 190.883 -5.78319C191.611 -5.6296 192.27 -5.2454 192.761 -4.68765C193.253 -4.12991 193.552 -3.42841 193.613 -2.68736C193.767 -1.12337 194.232 3.62808 170.236 22.7644C154.8 35.0702 134.967 48.7091 114.449 61.0932C105.799 66.312 96.5668 71.7548 87.4423 76.8978C61.1029 91.7348 35.5689 104.133 27.1951 101.876C26.5264 101.723 25.8976 101.43 25.3495 101.017C24.8015 100.605 24.3466 100.081 24.0146 99.4806C23.6773 98.8605 23.4678 98.179 23.3985 97.4765C23.3293 96.7741 23.4016 96.0648 23.6113 95.3908C25.5063 88.2005 40.9302 75.7056 58.2729 63.5653C58.181 63.3174 58.0678 63.0726 57.9759 62.8247C28.8805 83.5526 11.5023 100.454 13.719 106.3C18.463 118.932 64.7335 97.5529 117.248 65.7765C169.763 34.0001 208.201 -0.924789 203.892 -8.75139C201.044 -13.9347 179.818 -7.11637 150.512 7.32211Z" fill="#FF725E"/>
<path d="M164.429 11.9064C164.859 11.8253 162.598 14.7074 162.523 14.7842C161.527 15.7562 160.478 16.6717 159.38 17.5265C156.522 19.9203 153.545 22.1686 150.552 24.3484C146.277 27.4028 141.563 29.9618 137.695 33.5714C137.614 33.6498 137.564 33.7541 137.554 33.8658C137.543 33.9775 137.573 34.0893 137.637 34.1813C137.701 34.2732 137.796 34.3393 137.905 34.3677C138.014 34.3961 138.129 34.3849 138.23 34.3362C147.407 30.5215 157.579 22.7009 164.575 15.446C165.575 14.4117 167.259 12.9146 166.449 11.3404C165.916 10.3025 165.041 10.178 164.046 10.7423C163.914 10.8132 163.81 10.9291 163.755 11.0693C163.7 11.2095 163.697 11.3647 163.746 11.5071C163.795 11.6496 163.893 11.7698 164.023 11.8463C164.152 11.9228 164.305 11.9506 164.454 11.9245L164.429 11.9064Z" fill="#FF725E"/>
<g opacity="0.3">
<path d="M60.8355 69.3045C60.5445 68.7484 60.2884 68.1706 60.0171 67.6007C38.3457 82.8309 28.897 92.3042 27.8338 96.3258C27.7509 96.555 27.7389 96.8039 27.7995 97.04L27.8799 97.1751C27.9605 97.3484 28.3033 97.4877 28.4743 97.5001C31.2548 98.254 45.4991 97.554 112.308 57.227C152.513 32.9442 179.825 10.3686 187.197 1.30619C187.404 1.07968 187.534 0.793344 187.568 0.488405C187.601 0.183453 187.538 -0.124363 187.385 -0.390692C187.233 -0.657037 187 -0.868172 186.72 -0.993674C186.44 -1.11919 186.128 -1.1526 185.827 -1.0891C180.287 0.187065 169.367 4.30794 153.626 11.9801C153.867 12.3856 154.128 12.7772 154.36 13.1949C167.354 6.94554 175.888 4.00216 176.901 5.8403C178.918 9.52887 149.884 31.0985 112.029 53.9966C74.174 76.8948 41.842 92.4652 39.8203 88.7828C38.7265 86.7714 46.9643 79.3621 60.8355 69.3045Z" fill="black"/>
<path d="M164.429 11.9064C164.859 11.8253 162.598 14.7074 162.523 14.7842C161.527 15.7562 160.478 16.6717 159.38 17.5265C156.522 19.9203 153.545 22.1686 150.552 24.3484C146.277 27.4028 141.563 29.9618 137.695 33.5714C137.614 33.6498 137.564 33.7541 137.554 33.8658C137.543 33.9775 137.573 34.0893 137.637 34.1813C137.701 34.2732 137.796 34.3393 137.905 34.3677C138.014 34.3961 138.129 34.3849 138.23 34.3362C147.407 30.5215 157.579 22.7009 164.575 15.446C165.575 14.4117 167.259 12.9146 166.449 11.3404C165.916 10.3025 165.041 10.178 164.046 10.7423C163.914 10.8132 163.81 10.9291 163.755 11.0693C163.7 11.2095 163.697 11.3647 163.746 11.5071C163.795 11.6496 163.893 11.7698 164.023 11.8463C164.152 11.9228 164.305 11.9506 164.454 11.9245L164.429 11.9064Z" fill="black"/>
</g>
<g opacity="0.3">
<path d="M150.512 7.32211C150.749 7.62998 150.976 7.97762 151.198 8.29322C171.247 -1.55497 186.171 -7.05323 190.883 -5.78319C191.611 -5.6296 192.27 -5.2454 192.761 -4.68765C193.253 -4.12991 193.552 -3.42841 193.613 -2.68736C193.767 -1.12337 194.232 3.62808 170.236 22.7644C154.8 35.0702 134.967 48.7091 114.449 61.0932C105.799 66.312 96.5668 71.7548 87.4423 76.8978C61.1029 91.7348 35.5689 104.133 27.1951 101.876C26.5264 101.723 25.8976 101.43 25.3495 101.017C24.8015 100.605 24.3466 100.081 24.0146 99.4806C23.6773 98.8605 23.4678 98.179 23.3985 97.4765C23.3293 96.7741 23.4016 96.0648 23.6113 95.3908C25.5063 88.2005 40.9302 75.7056 58.2729 63.5653C58.181 63.3174 58.0678 63.0726 57.9759 62.8247C28.8805 83.5526 11.5023 100.454 13.719 106.3C18.463 118.932 64.7335 97.5529 117.248 65.7765C169.763 34.0001 208.201 -0.924789 203.892 -8.75139C201.044 -13.9347 179.818 -7.11637 150.512 7.32211Z" fill="black"/>
</g>
<path d="M81.1491 94.1803C81.7842 94.45 81.9566 95.4494 81.5624 96.3815C81.1683 97.3135 80.3062 97.8905 79.6895 97.6344C79.0728 97.3782 78.8759 96.3607 79.27 95.4286C79.6642 94.4966 80.5124 93.8998 81.1491 94.1803Z" fill="#FF725E"/>
<path d="M43.2643 66.2779C43.8949 66.5538 44.0718 67.5471 43.6777 68.4791C43.2836 69.4111 42.4215 69.9882 41.8047 69.732C41.188 69.4758 40.9911 68.4583 41.3853 67.5263C41.7794 66.5943 42.6231 66.0036 43.2643 66.2779Z" fill="#FF725E"/>
<path d="M57.7755 76.6216C57.9731 76.6622 58.1532 76.763 58.2911 76.9102C58.429 77.0573 58.518 77.2435 58.5458 77.4432C58.5736 77.643 58.5389 77.8464 58.4464 78.0256C58.3539 78.2048 58.2082 78.351 58.0293 78.444C57.8504 78.5371 57.647 78.5724 57.4472 78.5452C57.2474 78.5181 57.0609 78.4297 56.9133 78.2922C56.7658 78.1547 56.6644 77.9749 56.6232 77.7775C56.5819 77.5801 56.6028 77.3748 56.683 77.1898C56.754 76.9705 56.9084 76.788 57.1128 76.6817C57.3172 76.5754 57.5553 76.5538 57.7755 76.6216Z" fill="#FF725E"/>
<path d="M70.8892 98.6658C71.0862 98.7079 71.2654 98.81 71.4021 98.9579C71.5389 99.1059 71.6265 99.2926 71.6529 99.4923C71.6794 99.692 71.6434 99.8951 71.5499 100.074C71.4564 100.252 71.31 100.397 71.1307 100.489C70.9514 100.581 70.7481 100.615 70.5486 100.587C70.3491 100.559 70.1632 100.47 70.0164 100.332C69.8696 100.194 69.7691 100.014 69.7287 99.8164C69.6882 99.6191 69.7098 99.414 69.7906 99.2294C69.8657 99.0119 70.0219 98.8319 70.2267 98.7269C70.4314 98.6219 70.6687 98.6 70.8892 98.6658Z" fill="#FF725E"/>
</svg>
