<svg width="98" height="150" viewBox="0 0 98 150" fill="none" xmlns="http://www.w3.org/2000/svg">
<path d="M117.099 43.4599C117.104 51.3667 114.596 59.0705 109.939 65.4599C106.167 70.6467 101.127 74.7791 95.3019 77.462C89.4767 80.1449 83.0606 81.2885 76.6671 80.7835C70.2737 80.2786 64.1166 78.1419 58.7848 74.5779C53.4529 71.0138 49.1245 66.1415 46.2135 60.4268C43.3024 54.7122 41.906 48.3463 42.1578 41.9379C42.4096 35.5295 44.3012 29.2928 47.6517 23.8242C51.0022 18.3556 55.6996 13.838 61.2947 10.7033C66.8898 7.56861 73.1955 5.92165 79.6088 5.91992C80.6088 5.91992 81.6588 5.91992 82.6588 6.03992C87.8036 6.45777 92.8064 7.93493 97.353 10.3786C101.9 12.8223 105.892 16.1797 109.079 20.2399C109.92 21.3026 110.701 22.4109 111.419 23.5599C115.15 29.5252 117.119 36.4238 117.099 43.4599Z" fill="#455A64"/>
<path d="M87.7076 61.1703C87.2276 62.4303 88.0176 62.4803 88.0676 63.0103C88.1176 63.5403 88.0676 64.5303 86.5476 66.0603C85.0276 67.5903 82.5476 67.2603 81.9776 67.8903C81.4076 68.5203 80.5576 71.2003 79.2976 72.0903C78.0376 72.9803 77.8276 72.4603 76.0476 72.8303C74.2676 73.2003 72.8976 75.5103 72.3676 76.6103C71.8376 77.7103 72.4776 79.5503 71.2176 79.6103C69.9576 79.6703 69.3776 76.9403 68.2176 75.4703C67.2192 74.1455 66.5694 72.5914 66.3276 70.9503C65.9676 69.2203 66.5376 65.5903 66.3276 64.1803C66.1176 62.7703 62.3276 60.2403 60.9776 58.5003C59.6276 56.7603 57.7176 53.3003 57.8276 52.1503C57.9823 51.0282 58.5404 50.0008 59.3976 49.2603C60.0276 48.7903 59.7676 48.5303 59.8676 48.1103C59.9676 47.6903 60.4976 47.5803 60.6076 47.0603C60.6309 46.6294 60.5687 46.1981 60.4245 45.7913C60.2804 45.3846 60.0571 45.0104 59.7676 44.6903C59.2376 44.4303 58.8776 45.3203 58.5576 45.1703C58.2376 45.0203 57.2976 43.9003 56.9276 43.8003C56.5576 43.7003 56.6676 44.4803 56.1476 43.4803C55.6276 42.4803 55.3576 39.9703 54.9376 39.5503C54.5176 39.1303 54.1976 40.2803 53.1976 39.5503C52.1976 38.8203 51.7876 37.3903 51.3676 37.1803C50.9476 36.9703 50.3676 37.2403 49.9376 36.4003C49.5076 35.5603 50.3176 34.0303 49.9376 34.1903C49.5576 34.3503 48.7376 35.5603 48.5276 34.4003C48.3176 33.2403 49.5776 29.4003 49.3676 27.2603C49.202 25.0456 49.9212 22.8556 51.3676 21.1703C51.3676 21.1703 51.5776 20.0103 51.7876 19.2803C51.9976 18.5503 56.5076 15.6003 57.0376 14.7603C57.2548 14.2918 57.3804 13.786 57.4076 13.2703C63.8361 8.52702 71.6186 5.97491 79.6076 5.9903C80.6076 5.9903 81.6576 5.9903 82.6576 6.1103C82.6918 6.15884 82.7286 6.20556 82.7676 6.25028C83.3554 6.96021 84.154 7.46457 85.0476 7.69029C86.3776 8.18029 86.6876 8.8103 86.4076 9.3303C86.282 9.54934 86.0972 9.72845 85.8742 9.84699C85.6513 9.96553 85.3994 10.0187 85.1476 10.0003C84.6276 10.0003 84.1476 9.75029 83.5776 10.1003C83.0076 10.4503 82.4476 12.3403 81.7176 12.4503C80.9876 12.5603 79.7176 10.7703 79.4076 10.2403C79.0976 9.7103 80.0376 8.60029 79.6076 8.07029C79.1776 7.54029 78.4276 7.6503 77.2376 7.5503C76.0476 7.4503 73.2376 7.90029 73.3876 8.35029C73.5376 8.80029 77.4476 8.28029 77.5476 9.19029C77.6476 10.1003 74.6476 11.6403 74.1176 11.5003C73.5876 11.3603 72.8976 10.4503 72.1176 10.3503C71.3376 10.2503 70.7176 10.8703 70.2276 10.9403C69.7376 11.0103 69.1776 10.4203 68.4376 10.5603C67.6976 10.7003 67.5276 11.3303 67.1476 11.5603C66.7676 11.7903 65.8476 11.8103 65.7476 12.3703C65.6476 12.9303 66.8976 13.2403 67.2176 13.5903C67.5376 13.9403 66.8276 15.1403 67.1476 15.3803C67.4676 15.6203 69.4176 13.9103 69.9076 13.4903C70.3976 13.0703 70.8176 11.2503 71.9076 11.2803C72.9976 11.3103 73.3076 13.1003 73.6576 13.2803C74.0076 13.4603 74.7776 12.8603 75.9376 13.1003C77.0976 13.3403 77.9376 15.8703 78.1076 16.6403C78.2776 17.4103 78.8076 18.1803 78.3876 18.5003C77.9358 18.5878 77.4699 18.5702 77.026 18.4488C76.5821 18.3274 76.1721 18.1055 75.8276 17.8003C75.5876 17.3103 77.0876 16.5703 76.9876 16.4003C76.7798 16.2558 76.5387 16.1663 76.2869 16.1401C76.0351 16.1138 75.7808 16.1517 75.5476 16.2503C75.0976 16.5203 74.8876 17.1003 74.3976 17.2503C73.9076 17.4003 72.6076 15.9203 72.2576 16.3403C71.9076 16.7603 72.6076 18.0903 72.9576 18.4003C73.3076 18.7103 74.6076 18.8903 74.7076 19.2403C74.8076 19.5903 73.8376 20.3603 72.6476 20.2903C71.4576 20.2203 70.4776 19.2903 70.0176 19.7003C69.5576 20.1103 69.8076 21.1003 69.4976 21.4503C69.1876 21.8003 67.4976 21.5503 66.6276 22.4503C65.7576 23.3503 65.3976 24.7303 64.5576 25.5003C63.7176 26.2703 63.3276 25.2903 62.2076 26.3703C61.0876 27.4503 60.9176 29.8703 60.8776 30.7103C60.8376 31.5503 60.8776 32.2203 60.5976 32.1103C60.3176 32.0003 59.9376 31.2703 59.8276 30.8203C59.7176 30.3703 60.0776 29.5903 60.0776 29.3103C59.4466 28.4332 58.5484 27.7842 57.5176 27.4603C56.5776 27.3203 55.7376 28.0903 55.0376 28.6503C54.3376 29.2103 53.0376 29.1003 52.6176 29.5603C52.1976 30.0203 51.8176 34.0403 52.1676 34.9903C52.5176 35.9403 52.9676 35.9303 54.0876 35.4403C55.2076 34.9503 54.5776 34.0003 55.2476 34.2103C55.5426 34.3267 55.7956 34.5291 55.974 34.7913C56.1523 35.0535 56.2477 35.3632 56.2476 35.6803C56.2476 36.2503 54.9176 37.5803 55.0976 37.9603C55.2776 38.3403 56.4276 37.8903 56.9876 38.0703C57.5476 38.2503 57.8276 38.5903 57.6476 40.0703C57.4676 41.5503 57.5776 42.6203 58.4176 43.0703C59.2576 43.5203 59.7376 42.3903 60.0976 42.5503C60.4576 42.7103 60.9976 43.5503 61.5176 43.4903C62.0376 43.4303 61.7776 42.9703 62.7776 42.6503C63.7776 42.3303 63.4076 42.1303 63.6176 41.5003C63.6517 41.338 63.7205 41.1851 63.8192 41.0519C63.9179 40.9187 64.0443 40.8085 64.1896 40.7287C64.3349 40.6489 64.4958 40.6015 64.6611 40.5897C64.8265 40.5779 64.9924 40.602 65.1476 40.6603C65.8276 40.9703 65.3576 41.4503 65.4076 41.9703C65.4576 42.4903 66.6676 42.5503 67.6076 42.8603C68.5476 43.1703 69.0776 42.8603 70.9676 43.4903C72.8576 44.1203 72.9676 46.0203 73.7576 46.3303C74.5476 46.6403 77.1676 46.1203 79.0576 47.4903C80.9476 48.8603 80.4276 51.3703 81.3676 52.1103C82.3076 52.8503 85.8376 53.8403 87.1976 54.1103C88.5576 54.3803 88.7776 53.4303 89.8776 53.6903C90.4166 53.7432 90.9205 53.9815 91.3035 54.3644C91.6864 54.7474 91.9247 55.2513 91.9776 55.7903C92.2776 57.0903 88.1776 59.9003 87.7076 61.1703Z" fill="#C7C7C7"/>
<path d="M59.5368 34.3096C59.5368 34.6096 60.4468 34.7296 61.5368 35.3096C62.6268 35.8896 62.9668 37.6495 63.5368 37.6195C64.1068 37.5895 63.9268 36.7795 64.1368 36.5695C64.2276 36.507 64.3018 36.4234 64.353 36.3258C64.4043 36.2283 64.4311 36.1197 64.4311 36.0095C64.4311 35.8993 64.4043 35.7908 64.353 35.6932C64.3018 35.5957 64.2276 35.512 64.1368 35.4495C63.5768 34.9895 63.0268 34.0095 62.0068 33.8695C60.9868 33.7295 60.8068 33.3096 60.3568 33.3396C60.2335 33.3315 60.1101 33.3526 59.9965 33.4009C59.8828 33.4492 59.7821 33.5235 59.7023 33.6179C59.6226 33.7122 59.5661 33.8239 59.5373 33.944C59.5086 34.0641 59.5084 34.1893 59.5368 34.3096Z" fill="#C7C7C7"/>
<path d="M65.2674 37.2508C65.1074 37.6808 65.2674 37.9908 66.3874 38.2508C67.5074 38.5108 68.5574 37.9708 68.2074 37.7408C67.8574 37.5108 67.3274 37.6208 67.5374 37.2308C67.7474 36.8408 67.6774 36.2908 66.7674 36.3908C65.8574 36.4908 65.4074 36.8708 65.2674 37.2508Z" fill="#C7C7C7"/>
<path d="M69.1873 37.3704C68.7973 37.4304 68.5873 38.0904 68.9773 38.5104C69.3673 38.9304 69.3573 38.8604 69.8173 38.5104C70.2773 38.1604 70.9673 37.9904 70.8173 37.6404C70.6673 37.2904 69.5373 37.3104 69.1873 37.3704Z" fill="#C7C7C7"/>
<path d="M72.2286 38.8006C72.3986 38.2806 73.2786 38.8006 73.6686 39.3506C73.8206 39.662 73.8996 40.004 73.8996 40.3506C73.8996 40.6971 73.8206 41.0391 73.6686 41.3506C73.4586 41.9506 73.3186 42.6506 72.8286 42.3506C72.3386 42.0506 72.8286 41.2306 72.8286 40.7406C72.8286 40.2506 72.0886 39.2306 72.2286 38.8006Z" fill="#C7C7C7"/>
<path d="M87.3176 9.59094C87.1376 10.0309 87.9876 10.1909 88.4776 10.4709C88.9676 10.7509 89.3476 10.9209 89.6276 10.4709C89.679 10.3686 89.707 10.2562 89.7095 10.1418C89.7119 10.0273 89.6889 9.91374 89.642 9.80933C89.595 9.70492 89.5254 9.61229 89.4381 9.53818C89.3509 9.46407 89.2482 9.41035 89.1376 9.38092C88.7576 9.28092 87.5376 9.17094 87.3176 9.59094Z" fill="#C7C7C7"/>
<path d="M93.9389 13.6891C94.2589 14.0291 94.8089 13.9691 95.1989 14.4591C95.5889 14.9491 95.4389 15.7891 95.9289 16.0391C96.4189 16.2891 96.7689 16.0391 96.8089 15.6891C96.8489 15.3391 96.1089 14.4591 96.1789 14.2791C96.2489 14.0991 97.1789 14.5291 97.3989 15.0591C97.6189 15.5891 97.1889 16.3191 97.6789 16.4591C98.1689 16.5991 98.0689 15.9691 98.2789 15.8291C98.4889 15.6891 98.9389 15.7591 98.9089 15.3391C98.7384 14.6935 98.3715 14.1169 97.8589 13.6891C97.4053 13.2892 96.8641 13.0014 96.2789 12.8491C95.9623 12.7569 95.6295 12.7342 95.3033 12.7825C94.9771 12.8309 94.6652 12.9491 94.3889 13.1291C94.0089 13.4391 93.7389 13.4791 93.9389 13.6891Z" fill="#C7C7C7"/>
<path d="M36.7073 43.4602C36.5898 47.3206 36.9968 51.1792 37.9172 54.9302L38.2472 56.3402L38.7073 57.7202L39.6373 60.4802L40.8273 63.1402C41.0373 63.5802 41.2172 64.0302 41.4472 64.4602L42.1672 65.7302C44.0712 69.1373 46.4257 72.2722 49.1672 75.0502L51.3072 77.0502C52.0072 77.7402 52.8372 78.2702 53.5972 78.8902C55.1746 80.0844 56.8245 81.1798 58.5372 82.1702C59.3872 82.6502 60.2872 83.0602 61.1572 83.5102L62.4873 84.1602C62.9273 84.3702 63.3973 84.5202 63.8573 84.7002L66.6272 85.7002L69.4772 86.4602L70.9072 86.8402L72.3672 87.0802L75.2872 87.5502L78.2872 87.7202L79.7572 87.8102C80.2572 87.8102 80.7573 87.8102 81.2373 87.7602L84.2373 87.6302C85.2373 87.5302 86.2373 87.3502 87.1773 87.2102C89.1297 86.905 91.0604 86.4741 92.9573 85.9202C93.8973 85.6202 94.8172 85.2602 95.7572 84.9202L97.1472 84.4102C97.5972 84.2202 98.0473 83.9902 98.4873 83.7802L101.167 82.5002L103.707 80.9602C104.563 80.4638 105.378 79.9021 106.147 79.2802C106.927 78.6802 107.747 78.1202 108.497 77.4702C110 76.1853 111.417 74.8023 112.737 73.3302C115.421 70.4209 117.684 67.1489 119.457 63.6102L120.717 60.9302C121.097 60.0202 121.397 59.0802 121.717 58.1502L122.217 56.7602C122.367 56.2902 122.467 55.7602 122.587 55.3302L123.307 52.4602C124.034 48.5852 124.269 44.634 124.007 40.7002C123.433 32.8465 120.725 25.2986 116.177 18.8702C111.669 12.5214 105.515 7.52208 98.3772 4.41016C105.175 7.93274 110.93 13.1774 115.067 19.6202C119.169 25.966 121.522 33.2828 121.887 40.8302C122.012 44.5666 121.703 48.3048 120.967 51.9702L120.247 54.6702C120.117 55.1202 120.017 55.5802 119.867 56.0202L119.377 57.3302C119.037 58.1902 118.747 59.0802 118.377 59.9302L117.147 62.4302C116.738 63.2682 116.277 64.0797 115.767 64.8602C115.267 65.6402 114.847 66.4702 114.267 67.2102C112.107 70.2358 109.585 72.9862 106.757 75.4002C106.047 76.0102 105.277 76.5302 104.537 77.0902L103.417 77.9202C103.037 78.1902 102.627 78.4102 102.237 78.6602C89.7473 86.8702 72.8272 87.3002 59.6272 80.2502C56.3371 78.4478 53.2809 76.2479 50.5272 73.7002C47.7681 71.1257 45.3668 68.1929 43.3872 64.9802L42.6172 63.7902C42.3772 63.3802 42.1873 62.9502 41.9573 62.5402L40.6572 60.0102L39.5372 57.4302L39.0173 56.1102L38.6272 54.7402C38.3672 53.8202 38.0872 52.9102 37.8472 51.9902L37.3472 49.1702C37.2572 48.7002 37.1572 48.2302 37.0872 47.7602L36.9573 46.3302L36.7073 43.4602Z" fill="#37474F"/>
<path d="M94.668 9.52998L99.748 11.94L103.318 1.24001L100.708 0L94.668 9.52998Z" fill="#37474F"/>
<path d="M76.2961 99.9395H81.7461V86.5995H76.2961V99.9395Z" fill="#37474F"/>
<path d="M59.0583 99.9297H98.9883V94.9797H59.0583V99.9297Z" fill="#37474F"/>
<path d="M130.572 115.799H15.6719V133.319H130.572V115.799Z" fill="#FF725E"/>
<path d="M71.2584 127.289C71.3102 127.242 71.378 127.215 71.4485 127.215C71.5189 127.215 71.5867 127.242 71.6385 127.289C72.4502 127.91 73.4368 128.26 74.4585 128.289C75.1237 128.302 75.7778 128.118 76.3384 127.759C76.5517 127.639 76.7312 127.467 76.8606 127.259C76.9899 127.051 77.0648 126.814 77.0785 126.569C77.0739 126.338 77.0063 126.113 76.8829 125.917C76.7596 125.721 76.5851 125.563 76.3784 125.459C75.7544 125.128 75.0777 124.909 74.3784 124.809C73.6749 124.711 72.9963 124.48 72.3784 124.129C72.1209 123.995 71.9037 123.794 71.7491 123.548C71.5945 123.302 71.508 123.02 71.4984 122.729C71.5104 122.424 71.5979 122.126 71.7533 121.862C71.9086 121.599 72.1268 121.378 72.3885 121.219C73.0068 120.828 73.7266 120.626 74.4585 120.639C75.4136 120.684 76.3348 121.007 77.1085 121.569C77.1374 121.586 77.1624 121.61 77.1819 121.637C77.2014 121.664 77.2148 121.696 77.2214 121.729C77.228 121.762 77.2276 121.796 77.2202 121.829C77.2128 121.861 77.1986 121.892 77.1785 121.919C77.1381 121.977 77.0768 122.016 77.0077 122.029C76.9386 122.043 76.8671 122.028 76.8084 121.989C76.1224 121.487 75.3069 121.192 74.4585 121.139C73.8399 121.129 73.2317 121.299 72.7085 121.629C72.5133 121.742 72.3491 121.902 72.2305 122.094C72.1119 122.286 72.0424 122.504 72.0284 122.729C72.0382 122.937 72.1025 123.139 72.2148 123.315C72.3272 123.49 72.4836 123.633 72.6685 123.729C73.2401 124.042 73.8634 124.248 74.5084 124.339C75.2792 124.437 76.0232 124.685 76.6985 125.069C76.9739 125.219 77.2055 125.438 77.3704 125.704C77.5353 125.971 77.6277 126.276 77.6385 126.589C77.6179 126.919 77.5158 127.239 77.3413 127.52C77.1668 127.801 76.9253 128.035 76.6385 128.199C75.9836 128.622 75.218 128.842 74.4384 128.829C73.2867 128.782 72.1784 128.377 71.2685 127.669C71.2404 127.647 71.2175 127.618 71.2016 127.586C71.1856 127.553 71.1768 127.518 71.1759 127.482C71.1749 127.445 71.1818 127.41 71.1961 127.376C71.2103 127.343 71.2316 127.313 71.2584 127.289Z" fill="white"/>
<path d="M83.9019 120.64C84.8944 120.637 85.863 120.945 86.672 121.52C86.7047 121.54 86.7324 121.568 86.7532 121.6C86.7739 121.633 86.7872 121.67 86.792 121.708C86.7968 121.746 86.793 121.785 86.7809 121.822C86.7687 121.858 86.7486 121.892 86.722 121.92C86.6983 121.951 86.6687 121.978 86.6348 121.998C86.6009 122.018 86.5634 122.031 86.5244 122.037C86.4456 122.048 86.3656 122.028 86.302 121.98C85.6048 121.472 84.7644 121.199 83.9019 121.2C83.4039 121.134 82.8976 121.176 82.4169 121.322C81.9363 121.468 81.4923 121.715 81.1147 122.046C80.737 122.378 80.4345 122.786 80.2272 123.243C80.0199 123.701 79.9127 124.197 79.9127 124.7C79.9127 125.202 80.0199 125.699 80.2272 126.156C80.4345 126.614 80.737 127.022 81.1147 127.353C81.4923 127.685 81.9363 127.932 82.4169 128.077C82.8976 128.223 83.4039 128.265 83.9019 128.2C84.7609 128.218 85.6003 127.943 86.282 127.42C86.3484 127.373 86.4308 127.353 86.5113 127.367C86.5918 127.38 86.6639 127.424 86.712 127.49C86.7413 127.514 86.765 127.545 86.7812 127.579C86.7974 127.614 86.8058 127.652 86.8058 127.69C86.8058 127.728 86.7974 127.766 86.7812 127.8C86.765 127.835 86.7413 127.865 86.712 127.89C85.903 128.465 84.9345 128.772 83.942 128.77C83.3722 128.826 82.797 128.763 82.2533 128.584C81.7095 128.404 81.2094 128.113 80.7851 127.729C80.3607 127.344 80.0216 126.875 79.7895 126.352C79.5574 125.829 79.4375 125.262 79.4375 124.69C79.4375 124.117 79.5574 123.551 79.7895 123.028C80.0216 122.504 80.3607 122.035 80.7851 121.651C81.2094 121.267 81.7095 120.975 82.2533 120.796C82.797 120.617 83.3722 120.553 83.942 120.61L83.9019 120.64Z" fill="white"/>
<path d="M89.3516 121.03C89.3542 120.955 89.3859 120.884 89.44 120.832C89.4941 120.779 89.5664 120.75 89.6416 120.75C89.7195 120.747 89.7954 120.775 89.8533 120.827C89.9112 120.88 89.9464 120.952 89.9516 121.03V128.52C89.9464 128.598 89.9112 128.671 89.8533 128.723C89.7954 128.775 89.7195 128.803 89.6416 128.8C89.5664 128.8 89.4941 128.771 89.44 128.719C89.3859 128.667 89.3542 128.595 89.3516 128.52V121.03Z" fill="white"/>
<path d="M93 121.029C93.0026 120.954 93.0343 120.883 93.0884 120.831C93.1425 120.778 93.2148 120.749 93.29 120.749H97.71C97.7519 120.741 97.795 120.743 97.8363 120.753C97.8775 120.764 97.916 120.784 97.9488 120.811C97.9816 120.838 98.008 120.872 98.0261 120.911C98.0442 120.949 98.0536 120.992 98.0536 121.034C98.0536 121.077 98.0442 121.119 98.0261 121.157C98.008 121.196 97.9816 121.23 97.9488 121.257C97.916 121.285 97.8775 121.304 97.8363 121.315C97.795 121.326 97.7519 121.327 97.71 121.319H93.6V124.499H97.19C97.2669 124.499 97.3407 124.53 97.3951 124.584C97.4495 124.638 97.48 124.712 97.48 124.789C97.4787 124.826 97.4702 124.862 97.4549 124.896C97.4396 124.929 97.4179 124.959 97.391 124.984C97.3641 125.009 97.3324 125.029 97.2979 125.042C97.2635 125.055 97.2268 125.06 97.19 125.059H93.6V128.229H97.71C97.7519 128.221 97.795 128.223 97.8363 128.233C97.8775 128.244 97.916 128.264 97.9488 128.291C97.9816 128.318 98.008 128.352 98.0261 128.391C98.0442 128.429 98.0536 128.472 98.0536 128.514C98.0536 128.557 98.0442 128.599 98.0261 128.637C98.008 128.676 97.9816 128.71 97.9488 128.737C97.916 128.765 97.8775 128.784 97.8363 128.795C97.795 128.806 97.7519 128.807 97.71 128.799H93.27C93.1975 128.797 93.1288 128.766 93.0785 128.714C93.0281 128.661 93 128.592 93 128.519V121.029Z" fill="white"/>
<path d="M54.2198 115.799H25.3398V133.319H54.2198V115.799Z" fill="#455A64"/>
<path d="M48.7795 118.25H30.7695V121.33H48.7795V118.25Z" fill="#FF725E"/>
<path d="M48.7795 123.02H30.7695V126.1H48.7795V123.02Z" fill="#FF725E"/>
<path d="M48.7795 127.799H30.7695V130.879H48.7795V127.799Z" fill="#FF725E"/>
<path d="M122.301 133.309H4.94141V151.279H122.301V133.309Z" fill="#37474F"/>
<path d="M101.542 139.139H73.3516V145.449H101.542V139.139Z" fill="#FF725E"/>
<path d="M15.8906 138.23C15.8919 138.193 15.9004 138.157 15.9157 138.123C15.931 138.09 15.9527 138.06 15.9796 138.035C16.0066 138.01 16.0382 137.99 16.0727 137.977C16.1072 137.964 16.1439 137.958 16.1806 137.96H20.5906C20.6282 137.957 20.666 137.962 20.7016 137.974C20.7372 137.986 20.7701 138.006 20.7981 138.031C20.8261 138.056 20.8487 138.087 20.8646 138.121C20.8805 138.155 20.8894 138.192 20.8906 138.23C20.8906 138.269 20.8828 138.307 20.8676 138.343C20.8524 138.379 20.8302 138.411 20.8022 138.438C20.7742 138.465 20.741 138.487 20.7047 138.501C20.6683 138.515 20.6295 138.521 20.5906 138.52H16.5406V141.7H20.1306C20.1725 141.692 20.2156 141.693 20.2569 141.704C20.2982 141.715 20.3366 141.734 20.3694 141.762C20.4022 141.789 20.4286 141.823 20.4467 141.861C20.4648 141.9 20.4742 141.942 20.4742 141.985C20.4742 142.027 20.4648 142.069 20.4467 142.108C20.4286 142.147 20.4022 142.181 20.3694 142.208C20.3366 142.235 20.2982 142.255 20.2569 142.265C20.2156 142.276 20.1725 142.278 20.1306 142.27H16.5406V145.44H20.6406C20.6795 145.438 20.7183 145.445 20.7547 145.459C20.791 145.473 20.8242 145.494 20.8522 145.521C20.8802 145.548 20.9024 145.581 20.9176 145.616C20.9328 145.652 20.9406 145.691 20.9406 145.73C20.9394 145.767 20.9305 145.804 20.9146 145.839C20.8987 145.873 20.8761 145.903 20.8481 145.929C20.8201 145.954 20.7873 145.973 20.7516 145.985C20.716 145.998 20.6782 146.002 20.6406 146H16.2006C16.1308 145.997 16.0646 145.968 16.0161 145.917C15.9677 145.867 15.9406 145.8 15.9406 145.73L15.8906 138.23Z" fill="white"/>
<path d="M23.771 139.17V145.76C23.771 145.837 23.7404 145.911 23.6861 145.965C23.6317 146.019 23.5579 146.05 23.481 146.05C23.4041 146.05 23.3303 146.019 23.2759 145.965C23.2215 145.911 23.191 145.837 23.191 145.76V138.38C23.1708 138.323 23.1707 138.262 23.1908 138.205C23.2108 138.149 23.2498 138.101 23.301 138.07C23.3659 138.029 23.4437 138.013 23.5195 138.026C23.5952 138.039 23.6635 138.079 23.711 138.14L28.911 144.89V138.34C28.9123 138.303 28.9208 138.267 28.9361 138.233C28.9514 138.2 28.9731 138.17 29.0001 138.145C29.027 138.12 29.0586 138.1 29.0931 138.087C29.1276 138.074 29.1642 138.069 29.201 138.07C29.2391 138.067 29.2774 138.072 29.3136 138.084C29.3498 138.096 29.3833 138.115 29.4121 138.14C29.4409 138.166 29.4645 138.196 29.4815 138.23C29.4984 138.265 29.5085 138.302 29.511 138.34V145.76C29.5085 145.798 29.4984 145.835 29.4815 145.869C29.4645 145.904 29.4409 145.934 29.4121 145.959C29.3833 145.984 29.3498 146.004 29.3136 146.016C29.2774 146.028 29.2391 146.033 29.201 146.03C29.1576 146.031 29.1144 146.023 29.0746 146.006C29.0348 145.989 28.9994 145.963 28.971 145.93C28.971 145.93 28.971 145.93 28.921 145.88L23.771 139.17Z" fill="white"/>
<path d="M35.9892 142.38C35.9511 142.383 35.9128 142.378 35.8766 142.366C35.8403 142.354 35.8069 142.335 35.778 142.31C35.7492 142.285 35.7257 142.254 35.7087 142.22C35.6917 142.186 35.6817 142.148 35.6792 142.11C35.6805 142.071 35.6895 142.032 35.7058 141.996C35.7221 141.96 35.7453 141.928 35.774 141.901C35.8028 141.874 35.8367 141.853 35.8736 141.839C35.9105 141.825 35.9498 141.819 35.9892 141.82H38.6692C38.7426 141.825 38.8113 141.858 38.8614 141.912C38.9115 141.966 38.9393 142.037 38.9391 142.11V144.91C38.9298 144.991 38.8906 145.066 38.8292 145.12C38.0245 145.704 37.0531 146.013 36.0591 146C35.4894 146.057 34.9142 145.993 34.3705 145.814C33.8267 145.635 33.3266 145.343 32.9023 144.959C32.4779 144.575 32.1388 144.106 31.9067 143.582C31.6746 143.059 31.5547 142.493 31.5547 141.92C31.5547 141.348 31.6746 140.782 31.9067 140.258C32.1388 139.735 32.4779 139.266 32.9023 138.882C33.3266 138.497 33.8267 138.206 34.3705 138.027C34.9142 137.847 35.4894 137.784 36.0591 137.84C37.0594 137.838 38.0338 138.157 38.8391 138.75C38.8655 138.775 38.8864 138.806 38.9007 138.839C38.915 138.873 38.9224 138.909 38.9224 138.945C38.9224 138.982 38.915 139.018 38.9007 139.051C38.8864 139.085 38.8655 139.115 38.8391 139.14C38.7793 139.192 38.703 139.22 38.6241 139.22C38.5453 139.22 38.469 139.192 38.4091 139.14C37.7215 138.622 36.8804 138.347 36.0192 138.36C35.5211 138.295 35.0148 138.337 34.5341 138.483C34.0534 138.629 33.6095 138.875 33.2318 139.207C32.8542 139.538 32.5517 139.946 32.3444 140.404C32.1371 140.861 32.0299 141.358 32.0299 141.86C32.0299 142.363 32.1371 142.859 32.3444 143.317C32.5517 143.774 32.8542 144.182 33.2318 144.514C33.6095 144.845 34.0534 145.092 34.5341 145.238C35.0148 145.384 35.5211 145.426 36.0192 145.36C36.8282 145.365 37.6197 145.125 38.2892 144.67V142.3L35.9892 142.38Z" fill="white"/>
<path d="M41.6611 146C41.6243 146.001 41.5876 145.995 41.5532 145.982C41.5187 145.969 41.4871 145.95 41.4601 145.925C41.4332 145.9 41.4115 145.87 41.3962 145.836C41.3809 145.803 41.3724 145.766 41.3711 145.73V138.23C41.3724 138.193 41.3809 138.157 41.3962 138.123C41.4115 138.09 41.4332 138.06 41.4601 138.035C41.4871 138.01 41.5187 137.99 41.5532 137.977C41.5876 137.964 41.6243 137.958 41.6611 137.96C41.6992 137.957 41.7375 137.962 41.7737 137.974C41.8099 137.986 41.8434 138.005 41.8722 138.03C41.901 138.055 41.9246 138.086 41.9416 138.12C41.9585 138.154 41.9686 138.192 41.9711 138.23V145.44H46.0811C46.12 145.438 46.1588 145.445 46.1952 145.459C46.2315 145.473 46.2647 145.494 46.2927 145.521C46.3207 145.548 46.3429 145.581 46.3581 145.616C46.3733 145.652 46.3811 145.691 46.3811 145.73C46.3799 145.767 46.371 145.804 46.3551 145.839C46.3392 145.873 46.3166 145.903 46.2886 145.929C46.2606 145.954 46.2278 145.973 46.1921 145.985C46.1565 145.998 46.1187 146.002 46.0811 146H41.6611Z" fill="white"/>
<path d="M48.3789 138.23C48.3841 138.155 48.4183 138.084 48.4742 138.034C48.5302 137.984 48.6036 137.957 48.6789 137.96C48.7165 137.957 48.7542 137.962 48.7899 137.974C48.8255 137.986 48.8584 138.006 48.8864 138.031C48.9144 138.056 48.937 138.087 48.9529 138.121C48.9688 138.155 48.9777 138.192 48.9789 138.23V145.73C48.9777 145.767 48.9688 145.804 48.9529 145.839C48.937 145.873 48.9144 145.903 48.8864 145.929C48.8584 145.954 48.8255 145.973 48.7899 145.985C48.7542 145.998 48.7165 146.002 48.6789 146C48.6036 146.002 48.5302 145.976 48.4742 145.925C48.4183 145.875 48.3841 145.805 48.3789 145.73V138.23Z" fill="white"/>
<path d="M51.6418 144.5C51.6924 144.45 51.7607 144.422 51.8318 144.422C51.903 144.422 51.9713 144.45 52.0218 144.5C52.8349 145.119 53.8207 145.469 54.8418 145.5C55.5102 145.513 56.1676 145.329 56.7318 144.97C56.9434 144.847 57.1208 144.672 57.2482 144.463C57.3756 144.253 57.4491 144.015 57.4618 143.77C57.4566 143.541 57.3885 143.317 57.2652 143.123C57.1418 142.929 56.9677 142.773 56.7618 142.67C56.1411 142.33 55.4632 142.106 54.7618 142.01C54.0587 141.916 53.3799 141.689 52.7618 141.34C52.5041 141.204 52.2871 141.001 52.1326 140.754C51.9781 140.506 51.8916 140.222 51.8818 139.93C51.8945 139.626 51.9825 139.33 52.1378 139.068C52.2931 138.807 52.511 138.587 52.7718 138.43C53.3879 138.032 54.1085 137.827 54.8418 137.84C55.7958 137.891 56.7155 138.214 57.4918 138.77C57.5208 138.789 57.5458 138.813 57.5656 138.841C57.5853 138.869 57.5993 138.9 57.6067 138.934C57.6141 138.967 57.6149 139.002 57.6089 139.036C57.6029 139.069 57.5903 139.102 57.5718 139.13C57.5299 139.186 57.4687 139.224 57.4003 139.237C57.3319 139.25 57.2611 139.237 57.2018 139.2C56.5121 138.698 55.6934 138.403 54.8418 138.35C54.2244 138.338 53.6166 138.505 53.0918 138.83C52.8991 138.945 52.7374 139.106 52.6206 139.297C52.5039 139.489 52.4356 139.706 52.4218 139.93C52.4263 140.14 52.4884 140.344 52.6013 140.52C52.7142 140.697 52.8736 140.839 53.0618 140.93C53.6272 141.249 54.2485 141.456 54.8918 141.54C55.6594 141.644 56.3997 141.895 57.0718 142.28C57.3471 142.428 57.5789 142.645 57.7439 142.91C57.9089 143.175 58.0013 143.478 58.0118 143.79C57.9913 144.121 57.8891 144.44 57.7146 144.721C57.5401 145.002 57.2986 145.236 57.0118 145.4C56.3526 145.822 55.5842 146.041 54.8018 146.03C53.6535 145.982 52.549 145.576 51.6418 144.87C51.6146 144.848 51.5926 144.82 51.5776 144.788C51.5625 144.756 51.5547 144.721 51.5547 144.685C51.5547 144.65 51.5625 144.615 51.5776 144.583C51.5926 144.551 51.6146 144.523 51.6418 144.5Z" fill="white"/>
<path d="M65.2192 142.26H60.7992V145.73C60.798 145.767 60.7891 145.804 60.7732 145.839C60.7573 145.873 60.7347 145.903 60.7067 145.929C60.6787 145.954 60.6458 145.973 60.6102 145.985C60.5746 145.998 60.5368 146.002 60.4992 146C60.4239 146.002 60.3505 145.976 60.2945 145.925C60.2385 145.875 60.2044 145.805 60.1992 145.73V138.23C60.2044 138.155 60.2385 138.084 60.2945 138.034C60.3505 137.984 60.4239 137.957 60.4992 137.96C60.5368 137.957 60.5746 137.962 60.6102 137.974C60.6458 137.986 60.6787 138.006 60.7067 138.031C60.7347 138.056 60.7573 138.087 60.7732 138.121C60.7891 138.155 60.798 138.192 60.7992 138.23V141.7H65.2192V138.23C65.2205 138.193 65.229 138.157 65.2443 138.123C65.2596 138.09 65.2813 138.06 65.3083 138.035C65.3352 138.01 65.3668 137.99 65.4013 137.977C65.4358 137.964 65.4724 137.958 65.5092 137.96C65.5473 137.957 65.5856 137.962 65.6218 137.974C65.658 137.986 65.6915 138.005 65.7203 138.03C65.7491 138.055 65.7727 138.086 65.7897 138.12C65.8066 138.154 65.8167 138.192 65.8192 138.23V145.73C65.8167 145.768 65.8066 145.805 65.7897 145.839C65.7727 145.874 65.7491 145.904 65.7203 145.929C65.6915 145.954 65.658 145.973 65.6218 145.985C65.5856 145.998 65.5473 146.002 65.5092 146C65.4724 146.001 65.4358 145.995 65.4013 145.982C65.3668 145.969 65.3352 145.95 65.3083 145.925C65.2813 145.9 65.2596 145.87 65.2443 145.836C65.229 145.803 65.2205 145.766 65.2192 145.73V142.26Z" fill="white"/>
<path d="M69.3603 99.9395H10.0703V115.799H69.3603V99.9395Z" fill="#263238"/>
<path d="M124.152 99.9395H69.3516V115.799H124.152V99.9395Z" fill="#263238"/>
<path d="M69.3603 101.59H10.0703V114.16H69.3603V101.59Z" fill="white"/>
<path d="M15.2305 104.17C21.4371 104.09 27.6471 104.03 33.8605 103.99L42.2905 103.93L60.9305 103.99C67.1405 103.99 63.1405 104.08 69.3505 104.17C63.1405 104.26 67.1405 104.32 60.9305 104.36L42.2905 104.41L33.8605 104.36C27.6471 104.32 21.4371 104.256 15.2305 104.17Z" fill="#DBDBDB"/>
<path d="M15.2305 106.64C21.4371 106.547 27.6471 106.487 33.8605 106.46L42.2905 106.4H60.9305C67.1405 106.4 63.1405 106.5 69.3505 106.59C63.1405 106.68 67.1405 106.74 60.9305 106.77L42.2905 106.83L33.8605 106.77C27.6471 106.777 21.4371 106.734 15.2305 106.64Z" fill="#DBDBDB"/>
<path d="M15.2305 109.099C21.4371 109.019 27.6471 108.959 33.8605 108.919L42.2905 108.869L60.9305 108.919C67.1405 108.919 63.1405 109.019 69.3505 109.099C63.1405 109.189 67.1405 109.259 60.9305 109.289L42.2905 109.339L33.8605 109.289C27.6471 109.256 21.4371 109.192 15.2305 109.099Z" fill="#DBDBDB"/>
<path d="M15.2305 111.57C21.4371 111.483 27.6471 111.423 33.8605 111.39L42.2905 111.33L60.9305 111.39C67.1405 111.39 63.1405 111.48 69.3505 111.57C63.1405 111.66 67.1405 111.72 60.9305 111.75L42.2905 111.81L33.8605 111.75C27.6471 111.723 21.4371 111.663 15.2305 111.57Z" fill="#DBDBDB"/>
<path d="M89.22 99.9395H81.5V115.799H89.22V99.9395Z" fill="#455A64"/>
</svg>
