<svg width="30" height="33" viewBox="0 0 30 33" fill="none" xmlns="http://www.w3.org/2000/svg">
<path d="M29.4205 4.47486C30.3032 3.52324 30.1626 2.1098 29.1002 1.31912C28.0378 0.528438 26.4598 0.654388 25.5771 1.60601L15 12.9765L4.42288 1.60601C3.54015 0.654388 1.96218 0.528438 0.899781 1.31912C-0.162618 2.1098 -0.303229 3.52324 0.579499 4.47486L11.7425 16.475L0.579499 28.4752C-0.303229 29.4269 -0.162618 30.8403 0.899781 31.631C1.96218 32.4217 3.54015 32.2957 4.42288 31.3441L15 19.9736L25.5771 31.3441C26.4598 32.2957 28.0378 32.4217 29.1002 31.631C30.1626 30.8403 30.3032 29.4269 29.4205 28.4752L18.2575 16.475L29.4205 4.47486Z" fill="white"/>
</svg>
