<svg width="130" height="168" viewBox="0 0 130 168" fill="none" xmlns="http://www.w3.org/2000/svg">
<path d="M58.6425 89.2667C50.5512 94.0573 40.7092 119.023 41.271 126.443C41.8329 133.862 54.0124 159.154 65.4446 161.095C76.8767 163.036 113.897 163.919 123.473 158.221C133.049 152.522 141.487 134.107 141.833 127.451C142.179 120.794 131.725 93.049 124.401 88.429C118.316 84.5765 63.1471 86.5981 58.6425 89.2667Z" fill="#FCC43E"/>
<path opacity="0.6" d="M74.1181 108.594C70.5114 112.813 64.3765 130.415 64.6473 135.832C64.9182 141.25 71.309 159.675 77.4239 161.034C83.5387 162.394 103.559 163.738 108.711 159.529C113.862 155.321 118.241 140.969 118.467 136.103C118.693 131.238 113.014 111.197 109.317 107.676C101.126 99.8606 82.0138 99.354 74.1181 108.594Z" fill="white"/>
<path d="M46.0073 127.833C44.3419 127.758 31.5052 129.193 29.5889 128.756C27.6727 128.32 16.5716 126.539 9.71938 129.373C0.0329076 133.386 -1.1409 142.335 0.770305 148.751C2.68151 155.167 13.2358 175.413 29.7745 177.264C46.3133 179.115 70.5671 163.313 73.4665 161.899C76.3659 160.484 66.5139 128.756 46.0073 127.833Z" fill="#FCC43E"/>
<g opacity="0.2">
<path d="M73.3951 157.736C72.6327 158.107 71.8602 158.453 71.0977 158.83C70.3352 159.206 69.658 159.572 68.9407 159.943C67.4692 160.706 65.9911 161.45 64.5063 162.175C61.5299 163.63 58.5201 165.021 55.4769 166.349C49.4122 169.003 43.2321 171.365 36.9768 173.532C35.2437 174.216 33.4172 174.634 31.5592 174.771C29.5683 174.785 27.5803 174.617 25.6199 174.27C25.6122 174.273 25.6056 174.278 25.6009 174.284C25.5963 174.291 25.5938 174.299 25.5938 174.307C25.5938 174.316 25.5963 174.324 25.6009 174.33C25.6056 174.337 25.6122 174.342 25.6199 174.345C27.2979 174.79 29.0064 175.11 30.7315 175.303C32.4168 175.431 34.1117 175.28 35.7478 174.857C37.3581 174.44 38.9332 173.853 40.4983 173.307C42.0633 172.76 43.6886 172.163 45.2738 171.566C51.5408 169.195 57.6958 166.55 63.7388 163.63C65.4343 162.807 67.1214 161.971 68.8002 161.122C69.6229 160.701 70.4506 160.289 71.2582 159.838C72.0658 159.386 72.9136 158.86 73.7413 158.363C73.8244 158.317 73.8859 158.24 73.9123 158.149C73.9386 158.058 73.9276 157.96 73.8817 157.876C73.8358 157.793 73.7588 157.732 73.6675 157.705C73.5763 157.679 73.4783 157.69 73.3951 157.736Z" fill="#030402"/>
<path d="M46.8836 172.496C46.5502 172.115 46.1692 171.778 45.7499 171.493L45.1479 171.132C45.2131 170.57 45.2733 170.008 45.3385 169.446C45.4363 168.87 45.4867 168.286 45.489 167.701C45.4893 167.683 45.4836 167.665 45.4728 167.651C45.462 167.637 45.4468 167.626 45.4295 167.622C45.4122 167.617 45.3938 167.619 45.3773 167.626C45.3609 167.633 45.3472 167.645 45.3385 167.661C45.1261 168.196 44.9583 168.748 44.8369 169.311C44.7015 169.782 44.5711 170.249 44.4406 170.721C44.0142 170.47 43.5778 170.219 43.1314 170.008C42.8956 169.903 42.6649 169.787 42.4291 169.677L42.1432 169.552C42.0127 169.492 41.8773 169.466 41.7519 169.416C41.7118 169.416 41.6867 169.461 41.7218 169.481C41.7569 169.502 41.8572 169.617 41.9375 169.672L42.2435 169.893C42.4492 170.038 42.6548 170.184 42.8555 170.334C43.2618 170.635 43.6681 170.931 44.0795 171.222L44.2851 171.378C43.9846 172.372 43.7962 173.397 43.7233 174.433C43.7246 174.529 43.7601 174.621 43.8233 174.694C43.8865 174.766 43.9734 174.814 44.0686 174.829C44.1637 174.843 44.2609 174.823 44.3428 174.773C44.4247 174.722 44.486 174.644 44.5159 174.553C44.7894 173.72 44.9743 172.861 45.0677 171.99L45.2633 172.15C45.6624 172.459 46.0889 172.731 46.5374 172.963C46.599 172.987 46.6667 172.99 46.7302 172.972C46.7937 172.954 46.8495 172.915 46.8888 172.862C46.9282 172.809 46.949 172.744 46.9481 172.678C46.9471 172.612 46.9245 172.548 46.8836 172.496Z" fill="#030402"/>
<path d="M54.1787 168.452C54.0056 167.907 53.8047 167.371 53.5767 166.847C53.4613 166.591 53.3409 166.345 53.2155 166.074C53.1298 165.838 53.0116 165.615 52.8644 165.412C52.6988 165.241 52.4631 165.442 52.6286 165.542C52.6286 165.578 52.6537 165.613 52.6637 165.653C52.6738 165.693 52.7239 165.874 52.7641 165.979C52.8243 166.169 52.8845 166.36 52.9396 166.551C53.06 166.967 53.1603 167.383 53.2657 167.8C53.371 168.216 53.4714 168.632 53.5667 169.054C53.638 169.476 53.7804 169.883 53.988 170.258C54.0115 170.316 54.0549 170.363 54.1105 170.392C54.166 170.42 54.2299 170.428 54.2907 170.413C54.3514 170.399 54.4049 170.363 54.4414 170.312C54.4779 170.262 54.495 170.2 54.4897 170.137C54.5147 169.559 54.4084 168.983 54.1787 168.452Z" fill="#030402"/>
<path d="M57.8135 168.111C57.5782 167.714 57.3061 167.339 57.0009 166.992C56.7049 166.671 56.3939 166.365 56.0829 166.059C55.7719 165.753 55.4208 165.478 55.0797 165.192C54.9192 165.059 54.7518 164.935 54.578 164.82L54.2871 164.63C54.1868 164.565 54.0764 164.524 53.9761 164.464C53.8757 164.404 53.9008 164.489 53.9309 164.524C53.961 164.56 54.0563 164.695 54.1316 164.77L54.3423 165.006C54.4877 165.167 54.6232 165.332 54.7737 165.508C55.0797 165.824 55.3455 166.17 55.6264 166.511C55.891 166.832 56.1388 167.167 56.3689 167.514C56.6247 167.885 56.9056 168.242 57.1765 168.603C57.2425 168.673 57.3319 168.716 57.4276 168.724C57.5234 168.732 57.6188 168.705 57.6957 168.647C57.7726 168.589 57.8256 168.505 57.8445 168.411C57.8635 168.317 57.8471 168.219 57.7985 168.136L57.8135 168.111Z" fill="#030402"/>
<path d="M68.1647 162.86C68.1363 162.281 68.0524 161.707 67.9139 161.144C67.7717 160.623 67.5749 160.119 67.327 159.639C67.1113 159.178 67.031 158.636 66.7802 158.195C66.7768 158.188 66.7717 158.183 66.7655 158.179C66.7593 158.176 66.7523 158.174 66.7451 158.174C66.738 158.174 66.7309 158.176 66.7247 158.179C66.7186 158.183 66.7135 158.188 66.71 158.195C66.595 158.666 66.6194 159.161 66.7802 159.619C66.8806 160.121 67.001 160.622 67.0963 161.159C67.1866 161.711 67.2319 162.27 67.2317 162.83C67.1961 163.405 67.252 163.982 67.3972 164.54C67.4177 164.604 67.4578 164.66 67.5119 164.699C67.566 164.739 67.6312 164.76 67.6982 164.76C67.7652 164.76 67.8304 164.739 67.8845 164.699C67.9386 164.66 67.9788 164.604 67.9992 164.54C68.1729 163.998 68.2294 163.425 68.1647 162.86Z" fill="#030402"/>
<path d="M72.6564 158.479C72.4407 158.174 72.2099 157.888 71.9691 157.607C71.8489 157.468 71.7181 157.339 71.5779 157.22C71.4552 157.095 71.3036 157.002 71.1364 156.95C71.1296 156.949 71.1228 156.949 71.1163 156.952C71.1099 156.954 71.104 156.958 71.0992 156.962C71.0943 156.967 71.0907 156.973 71.0884 156.98C71.0862 156.986 71.0854 156.993 71.0863 157C71.1215 157.154 71.1862 157.301 71.2769 157.431C71.3571 157.587 71.4424 157.737 71.5327 157.893C71.7038 158.188 71.8514 158.497 71.9741 158.816C72.0945 159.132 72.235 159.443 72.3403 159.769C72.4529 160.129 72.6007 160.476 72.7818 160.807C72.8174 160.868 72.8716 160.915 72.9364 160.943C73.0013 160.97 73.0732 160.975 73.1415 160.959C73.2097 160.942 73.2707 160.903 73.3153 160.849C73.3598 160.794 73.3856 160.727 73.3887 160.657C73.383 159.871 73.1264 159.109 72.6564 158.479Z" fill="#030402"/>
</g>
<path opacity="0.6" d="M8.15443 146.131C16.938 142.419 40.3591 169.382 30.4318 173.796C20.5046 178.21 -2.76103 150.741 8.15443 146.131Z" fill="white"/>
<path opacity="0.6" d="M21.4288 144.226C22.0995 142.286 21.3675 140.272 19.7939 139.728C18.2202 139.184 16.4008 140.316 15.7301 142.256C15.0594 144.197 15.7913 146.211 17.365 146.755C18.9386 147.299 20.758 146.167 21.4288 144.226Z" fill="white"/>
<path opacity="0.6" d="M10.1108 143.878C12.0252 143.878 13.5771 141.966 13.5771 139.609C13.5771 137.251 12.0252 135.34 10.1108 135.34C8.19643 135.34 6.64453 137.251 6.64453 139.609C6.64453 141.966 8.19643 143.878 10.1108 143.878Z" fill="white"/>
<path opacity="0.6" d="M5.10342 142.171C5.75053 144.032 5.19873 145.918 3.8644 146.385C2.53006 146.852 0.91983 145.718 0.272727 143.852C-0.374375 141.986 0.177418 140.105 1.51175 139.638C2.84609 139.172 4.45632 140.305 5.10342 142.171Z" fill="white"/>
<path opacity="0.6" d="M3.30958 152.822C3.10534 153.022 2.86077 153.176 2.59225 153.273C1.88176 151.814 1.27659 150.305 0.781361 148.759C0.640905 148.257 0.515499 147.756 0.410156 147.254C1.24065 147.448 1.99801 147.876 2.59225 148.488C3.97674 149.882 4.31284 151.824 3.30958 152.822Z" fill="white"/>
<path d="M137.185 127.833C138.851 127.758 151.687 129.193 153.604 128.756C155.52 128.32 166.621 126.539 173.473 129.373C183.16 133.386 184.333 142.335 182.422 148.751C180.511 155.167 169.957 175.413 153.418 177.264C136.879 179.115 112.626 163.313 109.726 161.899C106.827 160.484 116.679 128.756 137.185 127.833Z" fill="#FCC43E"/>
<g opacity="0.2">
<path d="M109.75 157.74C110.512 158.111 111.284 158.457 112.047 158.833C112.809 159.209 113.482 159.576 114.199 159.947C115.674 160.709 117.149 161.452 118.638 162.179C121.608 163.634 124.618 165.025 127.668 166.353C133.732 169.006 139.907 171.369 146.163 173.536C147.898 174.219 149.726 174.637 151.585 174.775C153.575 174.789 155.561 174.621 157.52 174.273C157.57 174.273 157.595 174.334 157.545 174.349C155.865 174.793 154.155 175.113 152.428 175.307C150.743 175.435 149.048 175.285 147.412 174.86C145.797 174.444 144.227 173.857 142.656 173.31C141.086 172.763 139.471 172.167 137.886 171.57C131.619 169.199 125.464 166.553 119.421 163.634C117.722 162.811 116.033 161.975 114.354 161.126C113.532 160.704 112.704 160.293 111.902 159.842C111.099 159.39 110.241 158.863 109.418 158.367C109.344 158.318 109.291 158.244 109.269 158.158C109.247 158.072 109.258 157.981 109.299 157.903C109.34 157.824 109.409 157.764 109.493 157.734C109.576 157.704 109.668 157.706 109.75 157.74Z" fill="#030402"/>
<path d="M121.574 160.656C121.75 160.515 121.65 160.189 121.399 160.269C120.396 160.605 119.476 161.151 118.7 161.87C118.7 160.982 118.816 160.094 118.75 159.206C118.747 159.198 118.742 159.192 118.736 159.187C118.729 159.182 118.721 159.18 118.713 159.18C118.704 159.18 118.696 159.182 118.69 159.187C118.683 159.192 118.678 159.198 118.675 159.206C118.523 159.796 118.41 160.396 118.339 161.002C118.267 161.448 118.22 161.899 118.199 162.351C117.843 162.689 117.508 163.047 117.195 163.425C116.805 163.851 116.497 164.346 116.287 164.884C116.252 164.995 116.378 165.045 116.458 165.005C116.866 164.658 117.248 164.283 117.602 163.881C117.802 163.675 118.008 163.475 118.224 163.274C118.391 164.31 118.787 165.295 119.382 166.158C119.498 166.339 119.824 166.214 119.739 165.998C119.277 164.984 118.94 163.918 118.735 162.823C118.775 162.787 118.816 162.747 118.856 162.717C119.749 161.99 120.692 161.358 121.574 160.656Z" fill="#030402"/>
<path d="M128.596 164.261C127.821 164.934 127.178 165.745 126.7 166.654C126.457 167.094 126.245 167.55 126.063 168.018C125.978 168.251 125.907 168.489 125.852 168.73C125.822 168.851 125.797 168.976 125.777 169.097C125.767 169.215 125.767 169.334 125.777 169.453C125.777 169.493 125.827 169.498 125.847 169.453C125.915 169.38 125.977 169.303 126.033 169.222L126.193 168.931C126.319 168.715 126.439 168.5 126.56 168.279C126.79 167.848 127.021 167.421 127.287 167.005C127.824 166.187 128.421 165.42 129.018 164.642C129.05 164.585 129.063 164.518 129.052 164.452C129.042 164.387 129.009 164.327 128.96 164.282C128.911 164.238 128.848 164.211 128.782 164.208C128.716 164.204 128.65 164.222 128.596 164.261Z" fill="#030402"/>
<path d="M130.22 164.918C129.901 165.348 129.666 165.835 129.528 166.353C129.342 166.881 129.206 167.425 129.121 167.978C128.976 168.956 128.966 170.19 129.483 171.073C129.623 171.314 129.954 171.073 129.869 170.882C129.8 170.414 129.761 169.941 129.753 169.468C129.772 168.979 129.83 168.492 129.929 168.013C130.024 167.511 130.155 167.01 130.29 166.543C130.466 166.068 130.569 165.569 130.596 165.063C130.594 165.021 130.58 164.98 130.555 164.945C130.53 164.91 130.495 164.884 130.455 164.868C130.415 164.853 130.372 164.849 130.33 164.858C130.289 164.867 130.25 164.888 130.22 164.918Z" fill="#030402"/>
</g>
<path d="M73.8427 136.676C74.2791 148.108 59.2954 152.863 52.3479 150.626C45.1445 148.303 39.9576 134.835 40.5546 123.207C41.4274 105.986 53.1455 88.3134 60.0429 88.8702C60.2527 88.8814 60.4562 88.9452 60.6348 89.0558C63.765 90.8567 58.9644 105.364 60.9408 110.43C63.0326 115.773 72.408 126.081 73.7223 135.291C73.7875 135.763 73.8226 136.219 73.8427 136.676Z" fill="#FCC43E"/>
<path opacity="0.2" d="M59.9515 89.4331C57.4087 91.7452 55.2707 94.4665 53.626 97.4843C53.5808 97.3087 53.5357 97.1281 53.4855 96.9475C53.3952 96.6415 52.8836 96.6867 52.9087 97.0278C52.9427 97.5034 53.0098 97.9761 53.1093 98.4424L53.0792 98.5026C52.6277 98.3722 52.1713 98.2618 51.7098 98.1715C51.6762 98.1651 51.6414 98.1716 51.6124 98.1897C51.5835 98.2079 51.5624 98.2363 51.5535 98.2693C51.5447 98.3023 51.5486 98.3375 51.5645 98.3677C51.5805 98.398 51.6073 98.421 51.6395 98.4324C52.0559 98.5728 52.4722 98.7283 52.8836 98.8888C50.8067 103.145 49.3667 107.683 48.6097 112.358C48.2467 112.367 47.8848 112.401 47.5262 112.458C47.3004 112.498 47.3556 112.869 47.5813 112.859C47.8945 112.848 48.208 112.86 48.5194 112.894C48.394 113.667 48.2786 114.439 48.1833 115.207C47.7465 115.227 47.312 115.282 46.8841 115.372C46.5931 115.438 46.6985 115.824 46.9543 115.874C47.3375 115.913 47.7231 115.925 48.1081 115.909C47.9927 116.963 47.8924 118.011 47.8322 119.044C47.432 125.542 48.5126 132.047 50.9924 138.066C50.4779 138.414 49.9899 138.8 49.5327 139.22C49.3872 139.35 49.5778 139.606 49.7384 139.491C50.2077 139.143 50.6949 138.82 51.1981 138.523C51.4339 139.084 51.6696 139.646 51.9355 140.193C51.4596 140.647 51.0569 141.171 50.7416 141.748C50.7141 141.798 50.7054 141.857 50.7171 141.913C50.7289 141.969 50.7602 142.019 50.8055 142.054C50.8509 142.089 50.9072 142.107 50.9645 142.104C51.0217 142.101 51.0761 142.078 51.1178 142.039C51.5242 141.668 51.8954 141.262 52.2766 140.865C54.068 144.43 56.3959 147.698 59.179 150.557C59.4198 150.803 59.7559 150.446 59.5502 150.186C57.0371 147.064 54.8739 143.676 53.0993 140.083C53.6113 139.725 54.0943 139.327 54.544 138.894C54.7296 138.688 54.544 138.287 54.253 138.392C53.6915 138.627 53.1806 138.967 52.7481 139.395C52.5324 138.939 52.3418 138.467 52.1462 138.006C52.4746 137.858 52.7859 137.675 53.0742 137.459C53.2598 137.309 53.0742 137.063 52.8635 137.098C52.5273 137.165 52.2049 137.289 51.9104 137.464C49.4696 131.643 48.3954 125.34 48.7702 119.039C48.8354 117.976 48.9357 116.917 49.0511 115.869C49.5992 115.901 50.1481 115.824 50.6664 115.643C50.867 115.548 50.7868 115.262 50.6112 115.202C50.1275 115.08 49.624 115.057 49.1314 115.137C49.2217 114.434 49.327 113.732 49.4424 113.035C49.7835 113.09 50.1296 113.155 50.4808 113.205C50.7466 113.245 50.9824 112.869 50.6814 112.729C50.3247 112.564 49.9435 112.459 49.5528 112.418C50.3055 108.06 51.6471 103.824 53.5407 99.8269C53.6743 100.112 53.8428 100.38 54.0423 100.624C54.0734 100.653 54.1122 100.673 54.154 100.68C54.1959 100.688 54.239 100.683 54.2782 100.667C54.3174 100.65 54.351 100.623 54.375 100.588C54.399 100.553 54.4124 100.511 54.4135 100.469C54.3757 100.127 54.2983 99.7901 54.1828 99.4657C54.5081 99.661 54.8671 99.7938 55.2412 99.857C55.4268 99.857 55.487 99.6312 55.3817 99.5159C55.0039 99.1662 54.5428 98.9192 54.0423 98.7985C55.711 95.5139 57.7782 92.4476 60.1973 89.6689C60.2167 89.6349 60.2242 89.5954 60.2186 89.5567C60.213 89.518 60.1946 89.4822 60.1664 89.4551C60.1382 89.428 60.1017 89.4111 60.0628 89.4072C60.0238 89.4032 59.9847 89.4123 59.9515 89.4331Z" fill="#030402"/>
<path opacity="0.2" d="M73.7371 135.04C73.1361 131.914 72.0513 128.902 70.5216 126.111C69.0669 123.306 67.3463 120.653 65.6408 117.999C64.793 116.685 63.9503 115.361 63.1326 114.021C62.3149 112.682 61.3819 111.242 60.9806 109.677C60.5442 107.967 60.7047 106.166 60.7148 104.405C60.7148 104.064 60.7499 103.602 60.79 103.081C61.0057 102.579 61.2665 102.103 61.4321 101.576C61.5575 101.195 61.6528 100.798 61.7581 100.412C61.8801 99.9987 61.9674 99.5758 62.019 99.1479C62.019 99.1228 61.9839 99.1078 61.9789 99.1479C61.8804 99.588 61.741 100.018 61.5625 100.432C61.397 100.818 61.1612 101.159 60.9907 101.541C60.9907 101.591 60.9505 101.641 60.9305 101.691C61.1562 99.6144 61.4873 97.2367 61.5224 96.6749C61.5224 96.5796 61.3719 96.5595 61.3568 96.6749C60.795 100.186 59.8971 103.402 59.8871 106.938C59.8744 107.77 59.9348 108.601 60.0676 109.421C60.2206 110.225 60.4821 111.005 60.8452 111.739C61.5469 113.129 62.3205 114.482 63.1627 115.792C66.3531 120.984 70.0401 126.015 71.9613 131.844C72.9646 134.854 73.5414 138.135 72.2873 141.149C71.1362 143.738 69.1914 145.894 66.7343 147.304C63.9377 148.89 60.8796 149.962 57.705 150.47C56.1801 150.775 54.6012 150.662 53.1351 150.144C51.7589 149.618 50.4944 148.836 49.408 147.841C44.6174 143.602 42.6812 137.141 41.2365 131.127C41.0358 130.304 40.8352 129.08 40.6395 128.258C40.6044 128.122 40.4088 128.187 40.4339 128.323C41.0057 131.774 41.5876 135.662 42.7765 138.967C43.7694 141.885 45.3008 144.59 47.2911 146.943C49.2575 149.206 51.9212 151.162 54.9711 151.503C56.6616 151.694 58.3471 151.312 59.9874 150.916C61.5876 150.543 63.1546 150.04 64.6726 149.411C67.5021 148.281 69.9676 146.397 71.8008 143.964C72.6371 142.813 73.2559 141.519 73.6267 140.146C74.0243 138.471 74.0619 136.73 73.7371 135.04Z" fill="#030402"/>
<path d="M134.38 148.392C133.342 149.389 132.102 150.15 130.743 150.624C123.545 152.946 107.613 147.714 109.369 135.289C110.673 126.079 120.058 115.771 122.15 110.428C124.242 105.086 118.764 89.2194 123.048 88.8582C123.702 88.8195 124.357 88.9116 124.974 89.1291C131.927 91.4015 141.739 107.489 142.531 123.195C143.033 132.761 139.612 143.561 134.38 148.392Z" fill="#FCC43E"/>
<path opacity="0.2" d="M138.459 120.22C137.79 120.179 137.119 120.192 136.452 120.26C136.487 119.759 136.512 119.287 136.533 118.801C136.994 118.939 137.471 119.023 137.952 119.051C138.233 119.051 138.243 118.685 138.012 118.595C137.544 118.421 137.055 118.309 136.558 118.264C136.558 117.672 136.588 117.075 136.583 116.483C136.562 111.041 135.452 105.658 133.317 100.652C132.876 99.6483 132.369 98.5749 131.812 97.5265C132.113 97.386 132.414 97.2405 132.7 97.085C132.986 96.9295 132.785 96.4329 132.479 96.5583C132.173 96.6837 131.842 96.8442 131.526 97.0048C129.66 93.6739 127.137 90.4836 123.716 89.1041C123.535 89.0288 123.425 89.3198 123.585 89.4151C126.66 91.2059 129.023 94.1555 130.809 97.386C130.307 97.6519 129.851 97.9277 129.374 98.1886C129.214 98.2789 129.324 98.5598 129.5 98.4896C130.001 98.2739 130.538 98.0682 131.06 97.8525C131.951 99.5457 132.719 101.301 133.357 103.105C135.035 107.939 135.816 113.039 135.66 118.153L135.238 118.108C135.068 118.108 134.988 118.324 135.168 118.374L135.67 118.52C135.67 119.122 135.605 119.724 135.559 120.321C135.148 120.351 134.742 120.376 134.335 120.376C134.125 120.376 134.135 120.677 134.335 120.697L135.534 120.797C134.947 128.081 132.665 135.058 129.49 141.62L128.848 141.504C128.647 141.469 128.552 141.765 128.762 141.815L129.314 141.976C129.154 142.307 128.993 142.638 128.812 142.979C128.461 142.859 128.12 142.753 127.784 142.653C127.609 142.598 127.548 142.854 127.709 142.919C128.025 143.044 128.326 143.19 128.627 143.34C127.583 145.377 126.47 147.373 125.286 149.33C125.264 149.375 125.26 149.427 125.275 149.476C125.29 149.524 125.323 149.565 125.366 149.59C125.41 149.615 125.462 149.623 125.511 149.612C125.56 149.601 125.603 149.572 125.632 149.53C126.873 147.614 128.043 145.641 129.144 143.611C129.89 144.039 130.659 144.427 131.446 144.775C131.617 144.845 131.757 144.584 131.627 144.464C130.957 143.902 130.191 143.469 129.364 143.185C129.54 142.849 129.715 142.513 129.866 142.182C130.533 142.412 131.18 142.683 131.872 142.924C132.133 143.024 132.304 142.603 132.058 142.472C131.436 142.159 130.777 141.925 130.097 141.775C133.402 135.219 135.77 128.161 136.417 120.872C137.129 120.919 137.843 120.864 138.539 120.707C138.81 120.632 138.75 120.24 138.459 120.22Z" fill="#030402"/>
<path opacity="0.2" d="M109.223 135.04C109.824 131.914 110.908 128.902 112.438 126.111C113.893 123.306 115.613 120.653 117.319 117.999C118.167 116.685 119.009 115.361 119.827 114.021C120.645 112.682 121.578 111.242 121.979 109.677C122.416 107.967 122.255 106.166 122.245 104.405C122.245 104.064 122.21 103.602 122.165 103.081C121.954 102.579 121.693 102.103 121.528 101.576C121.402 101.195 121.307 100.798 121.202 100.412C121.08 99.9987 120.992 99.5758 120.941 99.1479C120.941 99.1228 120.976 99.1078 120.981 99.1479C121.079 99.588 121.219 100.018 121.397 100.432C121.563 100.818 121.799 101.159 121.969 101.541C121.994 101.591 122.009 101.641 122.029 101.691C121.804 99.6144 121.472 97.2367 121.437 96.6749C121.437 96.5796 121.588 96.5595 121.603 96.6749C122.165 100.186 123.063 103.402 123.073 106.938C123.085 107.77 123.025 108.601 122.892 109.421C122.737 110.225 122.476 111.004 122.115 111.739C121.413 113.129 120.639 114.482 119.797 115.792C116.607 120.984 112.92 126.015 110.998 131.844C109.995 134.854 109.418 138.135 110.672 141.149C111.824 143.738 113.768 145.894 116.225 147.304C119.022 148.89 122.08 149.962 125.255 150.47C126.78 150.775 128.359 150.662 129.825 150.144C131.201 149.618 132.465 148.836 133.552 147.841C138.342 143.602 140.279 137.141 141.723 131.127C141.924 130.304 142.125 129.08 142.32 128.258C142.355 128.122 142.551 128.187 142.526 128.323C141.954 131.774 141.372 135.662 140.183 138.967C139.19 141.885 137.659 144.59 135.669 146.943C133.702 149.206 131.039 151.162 127.989 151.503C126.298 151.694 124.613 151.312 122.972 150.916C121.372 150.543 119.805 150.04 118.287 149.411C115.453 148.272 112.987 146.375 111.159 143.928C110.323 142.778 109.704 141.484 109.333 140.111C108.94 138.447 108.903 136.719 109.223 135.04Z" fill="#030402"/>
<path d="M73.2797 24.9656C74.0271 22.2668 72.3968 1.8204 60.7139 0.937527C47.2702 -0.0657323 35.8531 13.9799 36.6356 26.1344C37.4182 38.2889 49.3871 41.3539 58.1556 41.1833L73.2797 24.9656Z" fill="#FCC43E"/>
<path opacity="0.6" d="M63.4241 24.811C63.7702 23.5268 63.0278 13.8403 57.6453 13.429C51.4502 12.9273 46.1831 19.6091 46.5493 25.3778C46.9155 31.1465 52.4133 32.5862 56.4565 32.506L63.4241 24.811Z" fill="white"/>
<path d="M109.946 23.1409C109.38 20.397 112.359 0.106074 124.077 0.000731547C137.556 -0.11966 148.02 14.6433 146.415 26.7326C144.81 38.8219 132.685 41.0742 123.947 40.3318L109.946 23.1409Z" fill="#FCC43E"/>
<path opacity="0.6" d="M119.792 23.6128C119.531 22.3135 120.91 12.6923 126.313 12.6371C132.523 12.5769 137.349 19.5696 136.591 25.2982C135.834 31.0269 130.261 32.1003 126.233 31.7492L119.792 23.6128Z" fill="white"/>
<path d="M61.2056 92.7564C59.0085 91.8083 44.6167 81.6352 43.0366 73.0172C41.4564 64.3992 54.8399 28.5929 62.4998 21.9563C66.0965 18.8312 97.9299 12.6561 117.845 19.7241C121.562 21.0484 140.874 58.9365 139.916 69.0744C139.249 75.8113 125.204 91.417 121.346 93.3684C117.488 95.3197 69.7484 96.4383 61.2056 92.7564Z" fill="#FCC43E"/>
<path d="M86.2031 18.1243C87.1803 16.1932 88.505 14.4587 90.1108 13.0076C91.7411 11.578 95.408 9.43101 96.4414 10.3139C97.8409 11.4977 93.9082 12.7418 89.4587 15.9522C89.4587 15.9522 95.403 13.1581 96.8276 14.2166C98.2523 15.275 89.7597 16.6745 89.7597 16.6745L86.2031 18.1243Z" fill="#FCC43E"/>
<g opacity="0.2">
<path d="M91.9367 80.1514C91.9066 75.0248 91.8983 69.8998 91.9117 64.7765C91.9117 54.5182 91.9568 44.2548 91.9117 33.9915C91.9117 31.1121 91.8665 28.2328 91.8464 25.3484C91.8264 22.464 91.8464 19.5847 91.6508 16.7103C91.6508 16.697 91.6455 16.6843 91.6361 16.6748C91.6267 16.6654 91.6139 16.6602 91.6006 16.6602C91.5873 16.6602 91.5746 16.6654 91.5652 16.6748C91.5558 16.6843 91.5505 16.697 91.5505 16.7103C91.39 19.2736 91.3699 21.847 91.3398 24.4153C91.3097 26.9837 91.2846 29.547 91.2545 32.1154C91.2044 37.2521 91.1943 42.3837 91.1793 47.5204C91.1442 57.7687 91.0438 68.0271 91.3448 78.2753C91.4301 81.1497 91.5154 84.024 91.6408 86.8933C91.7662 89.7627 91.9668 92.637 92.1424 95.5063C92.1424 95.5916 92.2778 95.5866 92.2728 95.5063C92.0621 90.3997 91.9718 85.2681 91.9367 80.1514Z" fill="#030402"/>
<path d="M95.3822 52.5571C94.7598 52.4223 94.1272 52.3401 93.4911 52.3113C92.8396 52.2712 92.1862 52.2712 91.5347 52.3113C90.8977 52.3364 90.2706 52.4117 89.6386 52.4769C88.9909 52.5137 88.3513 52.6385 87.7374 52.8481C87.7073 52.8481 87.7023 52.9033 87.7374 52.9133C88.3477 53.0521 88.9726 53.1161 89.5984 53.1039C90.2506 53.1039 90.9027 53.1491 91.5548 53.1441C92.2069 53.139 92.8239 53.1441 93.456 53.0738C94.1053 53.029 94.7506 52.9384 95.3872 52.8029C95.4124 52.7934 95.4341 52.7763 95.4492 52.754C95.4643 52.7317 95.4721 52.7052 95.4716 52.6783C95.471 52.6513 95.4621 52.6252 95.4461 52.6035C95.4301 52.5818 95.4078 52.5656 95.3822 52.5571Z" fill="#030402"/>
<path d="M95.4162 39.7297C95.1466 39.5532 94.865 39.3956 94.5735 39.2582C94.2876 39.1027 94.0117 38.9472 93.7157 38.8117C93.4198 38.6763 93.0937 38.5409 92.7777 38.4154L93.1589 38.2349C93.674 38.0195 94.1765 37.7749 94.6638 37.5025C94.7742 37.4373 94.729 37.2416 94.5936 37.2567C94.0551 37.3282 93.5266 37.4611 93.0184 37.653C92.6322 37.7784 92.261 37.9289 91.8948 38.0894C91.3079 37.8938 90.721 37.7132 90.124 37.5426C89.5908 37.3371 89.0184 37.2531 88.4486 37.2968C88.4085 37.2968 88.4235 37.352 88.4486 37.362C89.0081 37.5556 89.5558 37.7817 90.0889 38.0392C90.405 38.1997 90.731 38.3502 91.0521 38.5007C90.6809 38.7064 90.3197 38.9271 89.9585 39.1528C89.7183 39.3067 89.4872 39.4741 89.2663 39.6545C89.0392 39.8072 88.832 39.9875 88.6493 40.1912C88.6442 40.1972 88.6413 40.2048 88.641 40.2126C88.6407 40.2205 88.643 40.2282 88.6476 40.2346C88.6523 40.2409 88.6589 40.2456 88.6665 40.2477C88.674 40.2498 88.6821 40.2494 88.6894 40.2464C88.9509 40.1705 89.2046 40.0698 89.4468 39.9454C89.6776 39.8451 89.9033 39.7448 90.1291 39.6344C90.6307 39.3886 91.1674 39.1829 91.6791 38.9422L91.8446 38.8669C92.3914 39.1027 92.9482 39.3033 93.5101 39.4839C93.806 39.5792 94.102 39.6444 94.3979 39.7197C94.7074 39.8117 95.0224 39.8837 95.341 39.9354C95.3683 39.9454 95.3984 39.9441 95.4247 39.9319C95.4511 39.9196 95.4715 39.8974 95.4815 39.8702C95.4914 39.8429 95.4902 39.8128 95.4779 39.7864C95.4657 39.7601 95.4435 39.7397 95.4162 39.7297Z" fill="#030402"/>
<path d="M94.3671 32.0787C93.4903 32.1247 92.6208 32.2642 91.7737 32.495C91.3573 32.6204 90.946 32.7659 90.5397 32.9264C90.349 32.9967 90.1685 33.087 89.9879 33.1722C89.7976 33.2356 89.6255 33.344 89.4862 33.4883C89.482 33.492 89.4786 33.4967 89.4762 33.5019C89.4739 33.507 89.4727 33.5127 89.4727 33.5184C89.4727 33.5241 89.4739 33.5297 89.4762 33.5349C89.4786 33.5401 89.482 33.5447 89.4862 33.5485C89.6544 33.5718 89.8256 33.5581 89.9879 33.5083C90.2036 33.4632 90.4193 33.423 90.63 33.3729L91.9091 33.0769C92.7619 32.8863 93.5795 32.6104 94.4173 32.3847C94.4553 32.3754 94.4884 32.3521 94.51 32.3194C94.5316 32.2867 94.5401 32.2471 94.5338 32.2085C94.5274 32.1698 94.5067 32.135 94.4759 32.1109C94.445 32.0869 94.4061 32.0754 94.3671 32.0787Z" fill="#030402"/>
<path d="M94.1021 22.7186C93.2625 22.5573 92.4086 22.4833 91.5538 22.4979C91.1374 22.4979 90.7161 22.4979 90.2997 22.538L89.6225 22.5731C89.4501 22.5533 89.2756 22.5847 89.1209 22.6634C89.1167 22.6662 89.1133 22.6699 89.111 22.6743C89.1086 22.6787 89.1074 22.6836 89.1074 22.6885C89.1074 22.6935 89.1086 22.6984 89.111 22.7028C89.1133 22.7071 89.1167 22.7109 89.1209 22.7136C89.2641 22.8002 89.4305 22.8405 89.5974 22.829L90.2144 22.8942C90.6308 22.9393 91.0522 22.9744 91.4685 22.9995C92.3382 23.0674 93.2127 23.0422 94.077 22.9243C94.1924 22.9092 94.2325 22.7437 94.1021 22.7186Z" fill="#030402"/>
</g>
<path opacity="0.6" d="M82.1929 62.604C77.7033 64.8061 71.0567 82.5387 74.5882 86.7424C78.1197 90.9461 103.974 91.3674 108.408 86.5719C112.842 81.7763 104.305 64.8613 101.084 62.8999C97.8638 60.9386 86.3715 60.5573 82.1929 62.604Z" fill="white"/>
<path d="M72.9299 61.732C70.9535 61.6668 69.2028 63.6483 69.1276 66.036C69.0523 68.4238 70.6325 70.5156 72.639 70.5808C74.6455 70.646 76.3661 68.6696 76.4413 66.2818C76.5166 63.8941 74.9114 61.7972 72.9299 61.732Z" fill="#263238"/>
<path d="M75.8496 64.0238C75.8044 63.9486 75.674 63.9887 75.7041 64.079C76.7676 67.465 75.3981 71.5232 71.4603 71.8944C71.447 71.8944 71.4343 71.8997 71.4249 71.9091C71.4154 71.9185 71.4102 71.9313 71.4102 71.9446C71.4102 71.9579 71.4154 71.9706 71.4249 71.98C71.4343 71.9894 71.447 71.9947 71.4603 71.9947C75.8345 72.401 77.8561 67.5152 75.8496 64.0238Z" fill="#263238"/>
<path d="M110.26 61.732C112.236 61.6668 113.987 63.6483 114.062 66.036C114.138 68.4238 112.558 70.5156 110.551 70.5808C108.544 70.646 106.824 68.6696 106.749 66.2818C106.673 63.8941 108.279 61.7972 110.26 61.732Z" fill="#263238"/>
<path d="M107.34 64.0238C107.385 63.9486 107.516 63.9887 107.486 64.079C106.422 67.465 107.792 71.5232 111.73 71.8944C111.743 71.8944 111.756 71.8997 111.765 71.9091C111.774 71.9185 111.78 71.9313 111.78 71.9446C111.78 71.9579 111.774 71.9706 111.765 71.98C111.756 71.9894 111.743 71.9947 111.73 71.9947C107.355 72.401 105.334 67.5152 107.34 64.0238Z" fill="#263238"/>
<path d="M74.4189 53.018C74.1581 51.9596 72.8589 51.9194 72.0111 52.11C70.8868 52.3234 69.8129 52.7472 68.8458 53.3591C67.8927 54.0463 68.0282 55.7067 69.4077 55.7519C70.4899 55.7234 71.5591 55.5079 72.5679 55.1148C73.4458 54.8138 74.7049 54.1717 74.4189 53.018Z" fill="#263238"/>
<path d="M108.772 53.018C109.033 51.9596 110.332 51.9194 111.18 52.11C112.304 52.3234 113.378 52.7472 114.345 53.3591C115.298 54.0463 115.163 55.7067 113.783 55.7519C112.701 55.7234 111.632 55.5079 110.623 55.1148C109.745 54.8138 108.486 54.1717 108.772 53.018Z" fill="#263238"/>
<path d="M91.6617 69.8679C89.4746 69.7977 83.9767 65.7997 84.674 63.5323C85.3712 61.265 96.8786 61.6663 98.4186 63.4069C99.9586 65.1476 92.8907 69.908 91.6617 69.8679Z" fill="#263238"/>
<path d="M127.346 75.2045C128.192 72.1474 126.401 68.9829 123.343 68.1362C120.286 67.2896 117.122 69.0815 116.275 72.1385C115.429 75.1956 117.22 78.3602 120.277 79.2068C123.335 80.0535 126.499 78.2616 127.346 75.2045Z" fill="#FF99BA"/>
<path d="M65.5899 77.5667C67.7521 75.2456 67.6233 71.6112 65.3022 69.449C62.9811 67.2869 59.3467 67.4157 57.1845 69.7368C55.0223 72.0578 55.1511 75.6922 57.4722 77.8544C59.7933 80.0166 63.4277 79.8878 65.5899 77.5667Z" fill="#FF99BA"/>
<g opacity="0.2">
<path d="M59.9897 24.7233C58.4515 26.4722 57.0904 28.3693 55.9265 30.3867C54.806 32.43 53.8175 34.5428 52.9669 36.7123C52.4652 37.9262 51.9937 39.1301 51.5974 40.3742C51.5723 40.4444 51.6827 40.4845 51.7178 40.4193C52.2897 39.4161 52.7863 38.3777 53.303 37.3443C53.8196 36.311 54.3514 35.2876 54.8731 34.2543C55.9231 32.1976 57.0251 30.1727 58.1788 28.1796C58.8107 27.05 59.5022 25.9549 60.2505 24.8989C60.3358 24.7584 60.1 24.5879 59.9897 24.7233Z" fill="#030402"/>
<path d="M61.0281 23.2935C59.7076 23.2114 58.3944 23.5428 57.2709 24.2416C56.7235 24.5723 56.2182 24.9681 55.766 25.4204C55.2988 25.8886 54.8678 26.3917 54.4769 26.9253C54.4468 26.9604 54.4769 27.0056 54.527 26.9755C55.4132 26.0879 56.467 25.3854 57.6271 24.9088C58.7522 24.4223 59.9106 24.0166 61.0933 23.6948C61.1466 23.6862 61.1942 23.6567 61.2257 23.613C61.2572 23.5693 61.27 23.5148 61.2614 23.4616C61.2528 23.4083 61.2233 23.3608 61.1796 23.3292C61.1358 23.2977 61.0814 23.2849 61.0281 23.2935Z" fill="#030402"/>
<path d="M63.1902 22.3253C62.5364 22.1401 61.8628 22.034 61.1837 22.0093C60.494 21.9756 59.8026 22.0177 59.122 22.1347C57.7877 22.3875 56.5088 22.8749 55.3448 23.5743C55.3096 23.5743 55.3448 23.6496 55.3748 23.6345C56.6196 23.184 57.9153 22.8891 59.2324 22.7567C59.8695 22.6714 60.5115 22.6363 61.1536 22.6012C61.7957 22.5661 62.493 22.6012 63.1601 22.6012C63.1905 22.5951 63.2181 22.5796 63.2391 22.5568C63.26 22.5339 63.273 22.505 63.2764 22.4743C63.2798 22.4435 63.2732 22.4125 63.2577 22.3857C63.2422 22.3589 63.2186 22.3377 63.1902 22.3253Z" fill="#030402"/>
<path d="M73.3341 18.6278C72.361 18.6278 71.3878 18.7281 70.4197 18.8184C69.47 18.8997 68.5297 19.0676 67.6105 19.32C66.7055 19.5928 65.8205 19.928 64.9619 20.3233C64.5464 20.518 64.1413 20.734 63.748 20.9704C63.3116 21.2262 62.9253 21.5523 62.4989 21.8131C62.4638 21.8131 62.4989 21.8934 62.534 21.8683C62.9678 21.6341 63.4209 21.4377 63.8884 21.2814C64.3198 21.1058 64.7663 20.9754 65.2077 20.8249C66.0899 20.5387 66.9876 20.3026 67.8965 20.1176C68.8044 19.912 69.7174 19.7013 70.6153 19.4505C71.5132 19.1996 72.4513 19.0291 73.3542 18.7482C73.3621 18.7469 73.3697 18.744 73.3765 18.7398C73.3833 18.7355 73.3892 18.73 73.3938 18.7235C73.3985 18.7169 73.4018 18.7096 73.4036 18.7017C73.4054 18.6939 73.4057 18.6859 73.4044 18.6779C73.403 18.67 73.4002 18.6625 73.3959 18.6557C73.3917 18.6489 73.3861 18.643 73.3796 18.6383C73.3731 18.6337 73.3657 18.6303 73.3579 18.6285C73.3501 18.6267 73.342 18.6265 73.3341 18.6278Z" fill="#030402"/>
<path d="M118.951 20.2426C118.263 19.6283 117.472 19.1409 116.614 18.8029C115.632 18.4179 114.608 18.1502 113.564 18.0053C112.5 17.8448 111.427 17.8648 110.353 17.7695C110.283 17.7695 110.273 17.8849 110.353 17.8949C111.357 18.0559 112.352 18.2702 113.333 18.537C114.315 18.763 115.273 19.0839 116.192 19.4951C116.97 19.8456 117.709 20.2742 118.4 20.7743C119.087 21.3299 119.745 21.9209 120.371 22.545C120.394 22.5674 120.424 22.5815 120.456 22.5851C120.488 22.5887 120.52 22.5817 120.547 22.5651C120.575 22.5484 120.596 22.5232 120.608 22.4933C120.619 22.4633 120.621 22.4304 120.612 22.3996C120.226 21.5658 119.659 20.8288 118.951 20.2426Z" fill="#030402"/>
<path d="M128.075 23.0979C127.066 22.2833 125.815 21.8279 124.519 21.8037C123.886 21.7691 123.252 21.8181 122.633 21.9492C122.309 22.015 121.993 22.1142 121.689 22.2452C121.504 22.3204 121.188 22.4257 121.118 22.6414C121.114 22.6473 121.111 22.6543 121.111 22.6615C121.111 22.6687 121.114 22.6757 121.118 22.6816C121.288 22.807 121.619 22.6816 121.825 22.6816C122.121 22.6414 122.417 22.6113 122.713 22.5863C123.297 22.5361 123.884 22.5361 124.469 22.5863C125.05 22.6408 125.627 22.7381 126.194 22.8772C126.771 23.0227 127.323 23.2384 127.895 23.4039C127.935 23.4279 127.984 23.4347 128.029 23.423C128.075 23.4112 128.114 23.3818 128.138 23.3412C128.162 23.3006 128.169 23.2522 128.157 23.2066C128.145 23.161 128.116 23.1219 128.075 23.0979Z" fill="#030402"/>
<path d="M128.062 26.2978C127.171 25.3926 126.124 24.6552 124.972 24.1208C124.411 23.8537 123.827 23.6404 123.226 23.4837C122.61 23.299 121.966 23.2276 121.325 23.273C121.245 23.273 121.189 23.4085 121.285 23.4486C121.821 23.6693 122.403 23.8048 122.96 23.9803C123.55 24.1619 124.129 24.3746 124.696 24.6174C125.828 25.1123 126.898 25.7368 127.886 26.4784C128.017 26.5737 128.177 26.4182 128.062 26.2978Z" fill="#030402"/>
<path d="M127.364 33.7722C126.251 31.6904 125.127 29.6137 123.913 27.5871C123.246 26.435 122.519 25.3182 121.736 24.2412C121.706 24.2011 121.626 24.2412 121.646 24.2814C122.554 26.4083 123.722 28.4349 124.821 30.4665C125.92 32.4981 127.033 34.64 128.187 36.6967C128.839 37.8605 129.506 39.0042 130.239 40.1128C130.239 40.1479 130.314 40.1128 130.299 40.0877C129.466 37.9179 128.486 35.8077 127.364 33.7722Z" fill="#030402"/>
</g>
<path opacity="0.2" d="M80.0186 95.0256C78.308 94.9754 76.6075 94.8601 74.9069 94.6494C73.2064 94.4387 71.5962 94.3133 69.9408 94.1477C68.2854 93.9822 66.6451 93.8869 65.0198 93.616C63.5395 93.3412 62.1122 92.8333 60.7911 92.1111C60.0738 91.7299 59.3815 91.3085 58.6993 90.8721L57.696 90.1999C57.3349 89.9541 56.9586 89.7434 56.5874 89.5077C56.5272 89.4675 56.457 89.5629 56.5122 89.613C56.7881 89.8638 57.0389 90.1146 57.3248 90.3655C57.6107 90.6163 57.9519 90.8671 58.2679 91.133C58.8448 91.5894 59.4367 92.0259 60.0487 92.4322C61.2891 93.2763 62.6602 93.9102 64.1069 94.3083C65.7582 94.6599 67.4362 94.8713 69.1232 94.9403C70.8387 95.0808 72.5694 95.1761 74.2899 95.2162C75.228 95.2413 76.166 95.2162 77.1041 95.2162C78.0421 95.2162 79.0604 95.2162 80.0386 95.161C80.0566 95.1584 80.0728 95.1487 80.0836 95.1341C80.0944 95.1195 80.099 95.1012 80.0963 95.0833C80.0936 95.0653 80.084 95.0492 80.0694 95.0383C80.0548 95.0275 80.0365 95.0229 80.0186 95.0256Z" fill="#030402"/>
<path opacity="0.2" d="M125.867 89.5665C124.914 90.4455 123.909 91.2664 122.857 92.0245C122.341 92.406 121.805 92.7609 121.252 93.0879C120.658 93.3841 120.009 93.5548 119.346 93.5895C116.537 93.9006 113.728 94.2266 110.918 94.5276C109.323 94.7032 107.728 94.8737 106.123 94.9439C105.982 94.9439 105.942 95.1847 106.098 95.2048C109.007 95.5961 111.942 95.2048 114.846 94.8988L119.251 94.4273C119.956 94.3871 120.651 94.233 121.307 93.9708C121.898 93.6748 122.453 93.313 122.963 92.8923C124.144 91.9861 125.176 90.9012 126.023 89.6768C126.063 89.5815 125.932 89.5063 125.867 89.5665Z" fill="#030402"/>
<path d="M89.5126 104.976C89.5553 106.01 89.4778 107.045 89.2818 108.061C88.4692 111.929 83.2171 115.942 83.2171 115.942C80.4481 115.505 77.4434 111.066 77.4434 111.066C77.4434 111.066 84.6869 107.79 85.5246 105.804C85.778 105.139 85.9842 104.456 86.1416 103.762C86.7586 101.254 87.3857 97.8731 88.2485 97.2109L89.964 97.7728C88.8454 99.5034 89.4424 102.152 89.5126 104.976Z" fill="#455A64"/>
<g style="mix-blend-mode:multiply" opacity="0.2">
<path d="M89.965 97.7591C88.8464 99.5048 89.4634 102.153 89.5135 104.978C88.343 104.71 87.2106 104.297 86.1426 103.749C86.7596 101.24 87.3866 97.8594 88.2494 97.1973L89.965 97.7591Z" fill="black"/>
</g>
<path d="M100.488 115.441C100.488 115.441 94.9701 111.81 93.9217 107.987C93.6848 107.095 93.5452 106.18 93.5053 105.258C93.3398 102.314 93.8464 99.4845 92.5723 97.7338L94.2477 97.0566C95.3513 97.7991 96.3746 102.645 97.2876 104.917C97.3556 105.101 97.4344 105.28 97.5234 105.454C98.4915 107.385 105.931 110.174 105.931 110.174C105.931 110.174 102.946 114.729 100.488 115.441Z" fill="#455A64"/>
<g style="mix-blend-mode:multiply" opacity="0.2">
<path d="M97.2876 104.906C97.0217 104.966 96.7609 105.016 96.5151 105.061C95.5222 105.238 94.5116 105.294 93.5053 105.227C93.3398 102.282 93.8464 99.4533 92.5723 97.7026L94.2477 97.0254C95.3513 97.8079 96.3746 102.654 97.2876 104.906Z" fill="black"/>
</g>
<path d="M92.2266 99.3884C92.6931 98.9119 81.9231 85.418 77.8047 86.0049C73.6863 86.5918 71.9256 95.7616 75.2966 99.3633C78.2411 102.514 90.8822 100.753 92.2266 99.3884Z" fill="#455A64"/>
<g style="mix-blend-mode:multiply" opacity="0.2">
<path d="M91.2539 99.5639C91.7556 99.4686 77.0879 92.9373 74.7353 96.8099C73.9577 98.0891 75.6081 102.674 91.2539 99.5639Z" fill="black"/>
</g>
<path d="M91.1387 99.2579C90.637 98.8014 101.001 84.9765 105.134 85.4329C109.268 85.8894 111.319 95.004 108.064 98.7061C105.214 101.947 92.5232 100.582 91.1387 99.2579Z" fill="#455A64"/>
<g style="mix-blend-mode:multiply" opacity="0.2">
<path d="M92.0967 99.3885C91.5951 99.3082 106.047 92.3205 108.52 96.1178C109.358 97.3819 107.853 102.027 92.0967 99.3885Z" fill="black"/>
</g>
<g style="mix-blend-mode:multiply" opacity="0.2">
<path d="M90.7088 98.6517C89.0183 95.5566 85.6122 93.7156 82.2613 92.9231C82.1309 92.893 82.0506 93.0886 82.176 93.1438C85.3664 94.5032 88.311 95.9679 90.4529 98.8172C90.4749 98.8511 90.5094 98.8749 90.5489 98.8834C90.5884 98.8919 90.6297 98.8843 90.6636 98.8624C90.6975 98.8404 90.7214 98.8059 90.7298 98.7664C90.7383 98.7269 90.7307 98.6856 90.7088 98.6517Z" fill="black"/>
</g>
<g style="mix-blend-mode:multiply" opacity="0.2">
<path d="M101.318 91.1977C99.4315 91.7445 97.6256 93.0187 96.1308 94.2677C94.7162 95.4516 93.2063 96.8912 92.3936 98.5767C92.377 98.5993 92.37 98.6276 92.3743 98.6554C92.3785 98.6831 92.3936 98.708 92.4162 98.7247C92.4388 98.7413 92.4671 98.7483 92.4949 98.744C92.5226 98.7398 92.5475 98.7247 92.5642 98.7021C93.9687 97.2875 95.1375 95.7425 96.7127 94.4934C98.2175 93.3096 99.8579 92.512 101.473 91.5338C101.514 91.5112 101.545 91.4738 101.56 91.4291C101.575 91.3844 101.572 91.3359 101.552 91.2932C101.532 91.2506 101.497 91.217 101.454 91.1992C101.41 91.1815 101.362 91.181 101.318 91.1977Z" fill="black"/>
</g>
<path d="M93.8544 99.2079C93.7163 99.6309 93.4708 100.011 93.142 100.311C92.8132 100.61 92.4122 100.82 91.9783 100.918C91.554 101.079 91.0893 101.097 90.6535 100.972C90.2177 100.846 89.8343 100.583 89.5604 100.221C88.955 99.4533 88.6325 98.5002 88.6475 97.5225C88.186 95.8019 90.1875 94.7284 91.8178 94.9692C92.3008 95.0203 92.7635 95.1905 93.1645 95.4646C93.5654 95.7386 93.8921 96.1079 94.1152 96.5393C94.5466 97.4673 94.2005 98.315 93.8544 99.2079Z" fill="#455A64"/>
</svg>
