<svg width="155" height="168" viewBox="0 0 155 168" fill="none" xmlns="http://www.w3.org/2000/svg">
<path d="M35.6843 168.01C37.7726 166.157 40.3517 164.946 43.1114 164.525C45.871 164.103 48.6937 164.488 51.2399 165.633C52.1494 164.182 53.3924 162.97 54.8653 162.098C56.3383 161.226 57.9984 160.718 59.7073 160.618C61.4161 160.518 63.1242 160.828 64.6889 161.522C66.2536 162.217 67.6297 163.275 68.7022 164.609L70.9668 171.198L13.5363 174.251C16.9751 173.781 20.2462 172.059 23.3998 170.515C27.2412 168.636 31.5466 166.936 35.6843 168.01Z" fill="#E0E0E0"/>
<path d="M78.9209 106.176C85.368 98.5252 96.8809 94.8228 108.288 94.3362C119.694 93.8496 131.168 96.1874 142.396 98.6258L142.603 98.7824C156.956 105.544 166.16 119.71 164.896 133.094C163.632 146.477 151.969 158.261 136.659 161.616C122.032 164.843 105.626 166.381 91.9268 159.911C86.6876 157.439 80.4027 152.584 77.5454 146.824C73.5307 138.726 71.2438 129.179 72.569 121.097C73.4636 115.767 75.2809 110.471 78.9209 106.176Z" fill="#F5F5F5"/>
<path d="M78.9209 106.176C78.9209 106.176 78.77 106.35 78.4848 106.696C78.3394 106.864 78.1661 107.082 77.9704 107.351C77.7747 107.619 77.5454 107.91 77.305 108.29C75.8907 110.406 74.7731 112.705 73.9836 115.125C72.688 118.955 72.0712 122.983 72.1608 127.026C72.399 132.376 73.5565 137.645 75.5828 142.602C76.142 143.983 76.7459 145.37 77.4224 146.768C78.1338 148.194 79.0002 149.537 80.0057 150.772C82.1536 153.374 84.6814 155.636 87.5039 157.484C93.3303 161.399 100.706 163.636 108.511 164.262C116.317 164.888 124.62 164.111 132.991 162.495C134.037 162.305 135.082 162.064 136.139 161.846C137.196 161.628 138.236 161.32 139.287 161.063C140.338 160.806 141.361 160.386 142.396 160.034L143.878 159.419C144.386 159.206 144.901 159.011 145.387 158.748C149.444 156.823 153.135 154.207 156.296 151.019C158.322 148.945 160.069 146.616 161.491 144.089C162.911 141.616 163.937 138.937 164.533 136.148C165.104 133.414 165.261 130.611 164.997 127.831C164.695 125.123 164.046 122.466 163.068 119.923C162.81 119.302 162.559 118.687 162.307 118.066C162.056 117.446 161.709 116.881 161.413 116.288C161.118 115.697 160.793 115.122 160.44 114.565C160.093 114.006 159.791 113.447 159.4 112.888L158.281 111.294C157.901 110.773 157.471 110.287 157.074 109.789L156.47 109.045C156.263 108.799 156.034 108.576 155.821 108.341L154.524 106.954C151.056 103.535 147.042 100.719 142.647 98.6205L142.441 98.4639C137.537 97.4069 132.823 96.4226 128.3 95.6676C124.018 94.9461 119.698 94.4737 115.361 94.2526C111.545 94.044 107.719 94.1488 103.921 94.5658C100.699 94.9423 97.5173 95.6087 94.4151 96.5568C88.79 98.3017 84.7585 100.751 82.3486 102.77L81.493 103.475L80.7885 104.146L80.1846 104.705L79.7261 105.214C79.4577 105.516 79.2565 105.746 79.1111 105.902L78.9098 106.137C78.9098 106.137 78.9881 106.064 79.1279 105.913L79.7541 105.242L80.2238 104.745L80.8277 104.185L81.5378 103.525L82.4101 102.821C84.8312 100.835 88.8571 98.4136 94.4654 96.6687C97.5696 95.7366 100.751 95.0834 103.971 94.7168C107.759 94.3126 111.574 94.2172 115.378 94.4316C119.702 94.6736 124.009 95.1629 128.277 95.8969C132.79 96.6407 137.498 97.6306 142.396 98.6932H142.346L142.552 98.8498C146.918 100.937 150.906 103.739 154.35 107.138L155.637 108.514C155.849 108.749 156.078 108.973 156.28 109.213L156.883 109.957C157.275 110.455 157.7 110.936 158.074 111.456C158.449 111.976 158.818 112.507 159.193 113.039C159.567 113.57 159.881 114.157 160.227 114.688C160.577 115.24 160.898 115.809 161.189 116.394L162.072 118.161L162.827 120.001C163.797 122.518 164.438 125.15 164.734 127.831C164.994 130.581 164.84 133.354 164.275 136.058C163.684 138.809 162.667 141.45 161.262 143.888C159.853 146.394 158.121 148.705 156.112 150.761C152.974 153.925 149.311 156.521 145.287 158.434C144.806 158.692 144.291 158.888 143.788 159.1L142.278 159.726C141.25 160.079 140.226 160.442 139.192 160.755C138.157 161.069 137.112 161.315 136.061 161.533C135.009 161.751 133.964 161.986 132.918 162.182C124.57 163.798 116.317 164.62 108.517 163.96C100.717 163.3 93.4198 161.113 87.6214 157.249C84.8143 155.41 82.2998 153.159 80.1623 150.571C79.1675 149.348 78.3088 148.02 77.6014 146.612C76.9248 145.219 76.293 143.815 75.7562 142.462C73.7337 137.547 72.5669 132.323 72.3062 127.015C72.2027 122.988 72.8006 118.974 74.0731 115.153C74.8487 112.731 75.9471 110.424 77.3386 108.296C77.579 107.932 77.8026 107.619 77.9983 107.351C78.1941 107.082 78.3562 106.859 78.496 106.685C78.7868 106.333 78.9209 106.176 78.9209 106.176Z" fill="#263238"/>
<path d="M142.282 98.1402C143.613 104.7 139.486 111.652 132.922 115.069C126.357 118.486 117.825 118.475 110.897 115.629C104.248 112.882 98.8615 107.755 95.7887 101.25C95.1233 99.8348 94.5921 98.1626 95.4699 96.8371C96.3478 95.5116 98.3663 95.0642 100.144 94.807C109.956 93.396 119.885 92.98 129.779 93.5654C134.426 93.8394 139.525 94.5441 142.517 97.6536" fill="#E0E0E0"/>
<path d="M95.2246 64.5627L81.7714 47.93L86.3117 37.6954L85.501 37.2871L80.7985 46.7164L78.3215 40.1394L77.5554 40.447L80.0604 48.0922L85.6575 55.1222L80.9607 54.3449V55.5864L86.39 56.4142L94.5257 65.5247L95.2246 64.5627Z" fill="#263238"/>
<path d="M141.783 66.0308L160.475 55.6172L160.078 44.4262L160.984 44.3535L161.828 54.8566L166.576 49.6778L167.174 50.2482L161.996 56.4114L154.179 60.8408L158.831 61.8755L158.367 63.0276L153.022 61.7692L142.074 67.1885L141.783 66.0308Z" fill="#263238"/>
<path d="M104.299 23.5892C107.044 18.0525 112.91 13.9418 119.083 14.1376C122.622 14.255 125.983 15.6923 129.058 17.4429C132.675 19.4992 136.013 22.0123 138.989 24.9203C140.867 26.7547 142.64 28.8016 143.535 31.2736C144.653 34.2713 144.312 37.6325 143.3 40.6582C142.288 43.6838 140.616 46.4354 138.955 49.1591L114.308 48.4488C112.239 49.6736 109.46 49.1199 107.57 47.6323C105.68 46.1446 104.545 43.9019 103.745 41.6369C101.682 35.8093 101.559 29.1316 104.299 23.5892Z" fill="#F5F5F5"/>
<path d="M104.238 23.5555C106.031 19.9688 108.988 17.0976 112.626 15.4125C116.584 13.6116 120.84 13.7738 124.854 15.323C129.277 17.0008 133.376 19.8363 136.943 22.9291C140.298 25.8541 143.731 29.288 144.212 33.9523C144.81 39.545 141.808 44.5784 139.012 49.1924C139.007 49.2042 138.998 49.2141 138.987 49.2211C138.976 49.228 138.963 49.2317 138.951 49.2316L122.444 48.7506L114.7 48.5269C114.51 48.5091 114.318 48.5379 114.141 48.6108C113.635 48.8378 113.106 49.0121 112.564 49.1309C111.896 49.2225 111.218 49.2017 110.557 49.0694C107.722 48.5101 105.771 46.273 104.563 43.7675C101.571 37.582 101.208 29.7857 104.255 23.5555C104.294 23.4716 104.417 23.5555 104.378 23.6226C101.951 28.6057 101.784 34.3941 103.226 39.6848C103.92 42.2351 104.904 44.9028 106.811 46.8323C108.717 48.7618 111.519 49.6007 114.079 48.5101C114.441 48.397 114.824 48.3683 115.198 48.4262L117.893 48.5045L126.28 48.745L134.863 48.9967L137.743 49.075C137.994 49.075 138.716 49.2427 138.945 49.1141C139.074 48.918 139.188 48.7124 139.286 48.4989L139.806 47.6376C140.169 47.0224 140.533 46.4072 140.88 45.7809C141.604 44.5193 142.245 43.2115 142.798 41.866C143.865 39.1591 144.475 36.1726 143.972 33.27C143.491 30.4736 141.908 28.1247 139.996 26.089C138.049 24.0395 135.915 22.1765 133.622 20.5242C129.294 17.3587 124.004 14.1653 118.463 14.2492C113.649 14.3163 109.142 16.9672 106.218 20.7088C105.503 21.6323 104.879 22.6231 104.356 23.6673C104.322 23.7065 104.177 23.6338 104.238 23.5555Z" fill="#263238"/>
<path d="M90.0399 67.4123C93.6185 60.2928 101.089 55.7515 108.833 53.8668C116.577 51.982 124.674 52.4071 132.625 52.9496L132.781 53.0502C143.316 56.7302 151.144 67.1662 151.742 78.3237C152.341 89.4811 145.631 100.694 135.527 105.443C125.876 109.995 114.402 108.737 104.332 105.208C100.479 103.86 96.6547 102.137 93.7415 99.2795C88.8937 94.5257 87.2945 87.3167 87.328 80.5272C87.3504 76.0251 88.0214 71.439 90.0399 67.4123Z" fill="#F5F5F5"/>
<path d="M90.0412 67.4141C89.7335 67.9927 89.4591 68.5883 89.2192 69.1982C88.5301 70.9459 88.0315 72.7628 87.7319 74.6175C87.2741 77.5544 87.1447 80.5331 87.3461 83.4987C87.4645 85.3526 87.7375 87.1935 88.1624 89.0019C88.6237 91.0358 89.3532 92.9992 90.3319 94.8407C91.3998 96.8822 92.8457 98.7023 94.5926 100.204C96.5119 101.791 98.6588 103.081 100.961 104.03C106.006 106.177 111.33 107.595 116.774 108.241C119.72 108.577 122.693 108.594 125.642 108.291C128.723 107.98 131.738 107.207 134.589 105.998C137.548 104.736 140.263 102.962 142.607 100.758C145.005 98.479 147.016 95.8251 148.562 92.9C149.583 90.9408 150.393 88.8786 150.977 86.7481C151.516 84.6419 151.826 82.4836 151.9 80.3109C151.927 78.1838 151.717 76.0605 151.274 73.9799C150.806 71.9594 150.133 69.9918 149.266 68.1076C148.401 66.288 147.365 64.5541 146.174 62.9287C145.878 62.5317 145.554 62.1513 145.252 61.7654L144.788 61.2062L144.29 60.6469C143.955 60.289 143.63 59.931 143.295 59.5843L142.238 58.6C141.894 58.2691 141.532 57.9573 141.153 57.666C140.779 57.3752 140.421 57.062 140.035 56.7879C139.285 56.2348 138.507 55.7214 137.703 55.2499C136.152 54.3198 134.513 53.5443 132.811 52.9346L132.654 52.8339H132.621C129.042 52.5934 125.603 52.4033 122.332 52.3921C119.232 52.3518 116.134 52.5388 113.061 52.9513C108.042 53.5809 103.214 55.272 98.8981 57.9121C97.314 58.8982 95.8373 60.0472 94.492 61.3404C93.4993 62.2988 92.5953 63.3452 91.7913 64.4667C91.4446 64.9086 91.2042 65.3448 90.9694 65.6971C90.7646 65.9971 90.5779 66.3089 90.4102 66.6311L90.1027 67.1904L90.002 67.3861C90.0444 67.3248 90.0836 67.2613 90.1194 67.196C90.1921 67.0617 90.304 66.8772 90.4438 66.6367C90.6129 66.319 90.7996 66.0109 91.0029 65.7139C91.2433 65.3616 91.4838 64.9309 91.836 64.4947C92.6485 63.387 93.5579 62.3539 94.5535 61.4075C95.8995 60.129 97.3742 58.9932 98.954 58.0183C103.279 55.4133 108.109 53.7585 113.123 53.1639C116.186 52.7542 119.275 52.5673 122.366 52.6046C125.631 52.6046 129.076 52.8227 132.637 53.0688H132.576L132.732 53.1695C134.418 53.7737 136.04 54.5437 137.575 55.4681C138.37 55.9378 139.14 56.4474 139.884 56.9949C140.259 57.2689 140.616 57.5541 141.002 57.8673C141.388 58.1805 141.735 58.4546 142.076 58.7901L143.116 59.7577L144.1 60.8147L144.592 61.346L145.05 61.9053C145.352 62.2856 145.671 62.6603 145.962 63.0518C147.139 64.6651 148.165 66.3838 149.026 68.1859C149.88 70.053 150.543 72.0017 151.005 74.0023C151.444 76.0606 151.651 78.1617 151.621 80.2661C151.546 82.416 151.241 84.5517 150.709 86.6362C150.13 88.7546 149.328 90.8055 148.316 92.7546C146.785 95.6546 144.793 98.2859 142.417 100.545C140.099 102.725 137.415 104.48 134.488 105.73C131.661 106.931 128.67 107.7 125.614 108.012C122.684 108.31 119.73 108.295 116.802 107.967C111.383 107.333 106.081 105.932 101.056 103.806C98.7746 102.866 96.6452 101.592 94.738 100.025C93.0112 98.5431 91.5773 96.7505 90.5108 94.74C89.5375 92.9138 88.8081 90.9677 88.3413 88.9516C87.9137 87.1544 87.6351 85.325 87.5082 83.4819C87.296 80.5275 87.4085 77.5586 87.8437 74.6287C88.1277 72.7784 88.6075 70.9637 89.2751 69.2149C89.5044 68.6165 89.7001 68.1635 89.8343 67.8671C89.9685 67.5707 90.0412 67.4141 90.0412 67.4141Z" fill="#263238"/>
<path d="M117.086 63.6157C117.438 63.2899 117.889 63.0928 118.367 63.0565C118.765 63.0294 119.164 63.0991 119.53 63.2595C119.895 63.4199 120.217 63.6663 120.467 63.9777C120.716 64.2892 120.887 64.6564 120.965 65.0481C121.042 65.4398 121.024 65.8445 120.911 66.2275C120.792 66.6453 120.576 67.0287 120.279 67.3461C120.037 67.561 119.755 67.726 119.449 67.8316C119.143 67.9373 118.819 67.9815 118.496 67.9618C118.173 67.942 117.857 67.8587 117.566 67.7166C117.275 67.5745 117.015 67.3763 116.801 67.1336C116.413 66.6126 116.228 65.9683 116.281 65.3209C116.333 64.6735 116.62 64.0674 117.086 63.6157Z" fill="#263238"/>
<path d="M124.382 27.2682C124.737 26.9434 125.189 26.7465 125.668 26.7089C126.068 26.6816 126.468 26.7514 126.835 26.9124C127.202 27.0734 127.524 27.3208 127.775 27.6334C128.025 27.9461 128.197 28.3147 128.274 28.7078C128.351 29.101 128.332 29.507 128.218 29.8912C128.101 30.3107 127.882 30.6949 127.581 31.0097C127.339 31.2246 127.057 31.3896 126.751 31.4952C126.445 31.6009 126.121 31.6451 125.798 31.6254C125.475 31.6056 125.159 31.5223 124.868 31.3802C124.577 31.2381 124.317 31.0399 124.103 30.7972C123.711 30.276 123.523 29.6297 123.575 28.9798C123.626 28.3298 123.914 27.7211 124.382 27.2682Z" fill="#263238"/>
<path d="M108.466 24.7743C108.785 24.4873 109.19 24.3158 109.618 24.2878C111.15 24.148 112.766 25.7642 112.324 27.2351C112.207 27.6266 111.603 27.8895 111.34 28.1579C110.898 28.5434 110.322 28.7396 109.736 28.704C109.15 28.6684 108.602 28.404 108.209 27.9678C107.855 27.4959 107.685 26.9106 107.732 26.3223C107.78 25.734 108.041 25.1833 108.466 24.7743Z" fill="#263238"/>
<path d="M126.81 35.6526C127.01 35.474 127.264 35.3676 127.531 35.3506C128.487 35.2667 129.494 36.2734 129.209 37.1906C129.136 37.4311 128.761 37.5989 128.599 37.7499C128.464 37.8712 128.306 37.9644 128.134 38.0242C127.962 38.084 127.78 38.1092 127.599 38.0983C127.417 38.0873 127.24 38.0406 127.077 37.9606C126.913 37.8806 126.768 37.7691 126.648 37.6324C126.43 37.3391 126.326 36.9763 126.356 36.6119C126.385 36.2476 126.547 35.9066 126.81 35.6526Z" fill="#263238"/>
<path d="M121.884 37.9824C122.086 37.806 122.338 37.6983 122.605 37.6748C123.562 37.5909 124.568 38.5976 124.283 39.5148C124.21 39.7609 123.836 39.9231 123.668 40.0741C123.532 40.1954 123.374 40.2886 123.203 40.3484C123.031 40.4082 122.849 40.4334 122.668 40.4225C122.486 40.4116 122.309 40.3648 122.145 40.2848C121.982 40.2048 121.836 40.0933 121.716 39.9567C121.5 39.6631 121.399 39.3011 121.429 38.938C121.46 38.5749 121.622 38.2354 121.884 37.9824Z" fill="#263238"/>
<path d="M116.282 38.8564C116.482 38.6778 116.736 38.5714 117.004 38.5544C117.954 38.4649 118.961 39.4772 118.681 40.3888C118.608 40.6348 118.234 40.8026 118.066 40.948C117.931 41.0693 117.772 41.1626 117.601 41.2224C117.429 41.2822 117.247 41.3073 117.066 41.2964C116.884 41.2855 116.707 41.2387 116.544 41.1588C116.38 41.0788 116.234 40.9673 116.115 40.8306C115.9 40.5366 115.799 40.1749 115.829 39.8121C115.86 39.4493 116.021 39.1099 116.282 38.8564Z" fill="#263238"/>
<path d="M111.355 38.3466C111.554 38.168 111.808 38.0616 112.076 38.0446C113.026 37.9551 114.033 38.9674 113.753 39.879C113.681 40.1251 113.306 40.2873 113.138 40.4383C113.003 40.5596 112.845 40.6528 112.673 40.7126C112.501 40.7724 112.319 40.7976 112.138 40.7867C111.957 40.7757 111.779 40.7289 111.616 40.649C111.453 40.569 111.307 40.4575 111.187 40.3208C110.972 40.0268 110.871 39.6651 110.902 39.3024C110.933 38.9396 111.093 38.6002 111.355 38.3466Z" fill="#263238"/>
<path d="M106.771 36.6192C106.968 36.4366 107.223 36.3279 107.492 36.3115C108.442 36.2277 109.449 37.2343 109.169 38.1515C109.097 38.392 108.722 38.5598 108.554 38.7108C108.418 38.8311 108.26 38.9233 108.088 38.9822C107.916 39.0411 107.734 39.0656 107.553 39.0542C107.372 39.0427 107.195 38.9957 107.031 38.9156C106.868 38.8356 106.723 38.7242 106.603 38.5878C106.386 38.2955 106.284 37.9342 106.315 37.5718C106.346 37.2093 106.508 36.8705 106.771 36.6192Z" fill="#263238"/>
<path d="M116.678 72.0591C117.029 71.7329 117.481 71.5357 117.959 71.4998C118.357 71.4728 118.756 71.5424 119.122 71.7028C119.487 71.8632 119.809 72.1096 120.058 72.4211C120.308 72.7325 120.479 73.0997 120.557 73.4914C120.634 73.8832 120.615 74.2878 120.503 74.6709C120.385 75.0903 120.166 75.4744 119.865 75.7894C119.624 76.0049 119.343 76.1704 119.037 76.2763C118.731 76.3823 118.408 76.4267 118.085 76.407C117.762 76.3872 117.446 76.3037 117.156 76.1612C116.866 76.0188 116.606 75.8202 116.393 75.5769C116.005 75.056 115.82 74.4116 115.873 73.7643C115.925 73.1169 116.212 72.5107 116.678 72.0591Z" fill="#263238"/>
<path d="M116.13 81.6055C116.484 81.2814 116.937 81.0847 117.416 81.0462C117.814 81.0205 118.212 81.091 118.577 81.2518C118.942 81.4126 119.263 81.659 119.512 81.97C119.762 82.2811 119.933 82.6478 120.011 83.0389C120.089 83.4301 120.071 83.8342 119.96 84.2172C119.839 84.6353 119.621 85.0187 119.322 85.3358C119.08 85.5507 118.798 85.7157 118.492 85.8213C118.186 85.927 117.863 85.9712 117.539 85.9515C117.216 85.9317 116.9 85.8484 116.61 85.7063C116.319 85.5642 116.059 85.366 115.845 85.1233C115.459 84.6014 115.276 83.9576 115.328 83.3109C115.38 82.6642 115.665 82.0583 116.13 81.6055Z" fill="#263238"/>
<path d="M116.273 33.1979C116.276 33.2295 116.276 33.2614 116.273 33.293C116.27 33.7807 116.146 34.2601 115.913 34.6885C115.68 35.1169 115.344 35.4811 114.937 35.7488C114.529 36.0166 114.062 36.1796 113.576 36.2234C113.09 36.2672 112.601 36.1904 112.152 35.9999L100.343 31.0839C99.8894 30.8934 99.4642 30.6412 99.0795 30.3345L94.7069 26.8278C94.612 26.7556 94.5458 26.6521 94.5201 26.5356C94.4944 26.4192 94.5109 26.2974 94.5666 26.1919C94.6223 26.0865 94.7137 26.0043 94.8244 25.9599C94.9351 25.9156 95.0579 25.912 95.171 25.9498C97.7878 26.7663 101.618 27.924 102.725 28.0862C104.022 28.2763 110.693 29.7137 113.908 30.4128C114.557 30.545 115.143 30.8914 115.572 31.3964C116.001 31.9014 116.248 32.5358 116.273 33.1979Z" fill="#FCC43E"/>
<path d="M112.623 33.2357C112.657 33.2357 112.796 33.1071 112.925 32.8163C113.081 32.4242 113.135 31.9991 113.082 31.5806C113.029 31.162 112.871 30.7637 112.623 30.4226C112.422 30.1653 112.248 30.0646 112.226 30.087C112.485 30.5664 112.673 31.0806 112.785 31.6138C112.815 32.1596 112.76 32.7066 112.623 33.2357Z" fill="#263238"/>
<path d="M110.516 32.9461C110.544 32.9461 110.706 32.8399 110.874 32.5546C111.094 32.1752 111.201 31.7403 111.181 31.3019C111.162 30.8654 111.02 30.4431 110.773 30.0827C110.577 29.8142 110.404 29.6968 110.382 29.7247C110.641 30.223 110.813 30.7621 110.891 31.3186C110.862 31.8789 110.735 32.4297 110.516 32.9461Z" fill="#263238"/>
<path d="M108.577 33.5035C108.605 33.5818 109.192 33.3301 109.483 32.6534C109.594 32.4653 109.655 32.2519 109.66 32.0335C109.665 31.8151 109.613 31.5991 109.511 31.4062C109.427 31.4063 109.483 31.9655 109.22 32.5248C108.957 33.0841 108.532 33.4364 108.577 33.5035Z" fill="#263238"/>
<path d="M110.795 34.9193C110.829 34.992 111.259 34.813 111.561 34.36C111.863 33.907 111.857 33.4316 111.785 33.4316C111.712 33.4316 111.583 33.8008 111.321 34.2034C111.058 34.6061 110.75 34.8522 110.795 34.9193Z" fill="#263238"/>
<path d="M106.056 32.47C106.056 32.47 106.274 32.3862 106.509 32.1177C106.812 31.7574 107.015 31.3233 107.096 30.8593C107.177 30.3934 107.131 29.9141 106.962 29.4724C106.827 29.1424 106.682 28.9746 106.648 28.9914C106.808 29.5831 106.863 30.1983 106.811 30.809C106.655 31.4014 106.399 31.9631 106.056 32.47Z" fill="#263238"/>
<path d="M103.945 31.7938C103.984 31.8609 104.504 31.4918 104.65 30.7703C104.795 30.0489 104.499 29.5008 104.432 29.5455C104.365 29.5903 104.51 30.1048 104.365 30.7088C104.219 31.3128 103.884 31.7099 103.945 31.7938Z" fill="#263238"/>
<path d="M102.241 31.2338C102.709 30.9298 103.047 30.4618 103.188 29.9217C103.328 29.3815 103.262 28.8082 103.002 28.3145C103.02 28.8273 102.986 29.3407 102.901 29.8469C102.732 30.3317 102.511 30.7968 102.241 31.2338Z" fill="#263238"/>
<path d="M101.38 30.0807C101.431 30.1366 101.721 29.9185 101.811 29.5214C101.9 29.1243 101.727 28.7832 101.654 28.8167C101.582 28.8503 101.598 29.1299 101.526 29.4599C101.453 29.7899 101.313 30.0248 101.38 30.0807Z" fill="#263238"/>
<path d="M130.458 57.0446C131.802 64.7035 132.195 72.4992 131.627 80.2544C135.183 81.0921 138.89 81.0556 142.429 80.1481C142.992 75.8545 143.231 71.5248 143.145 67.1954C143.089 64.4382 142.849 61.53 141.266 59.2761L136.2 57.0391L130.458 57.0446Z" fill="#FCC43E"/>
<g opacity="0.3">
<path d="M141.598 59.7563C140.86 61.065 139.317 61.1098 137.818 61.2048C136.303 61.2605 134.818 60.7681 133.636 59.8178C132.445 58.9006 131.131 58.3917 130.465 57.0215C133.776 57.9219 138.338 58.7552 141.648 59.6557" fill="black"/>
</g>
<path d="M131.305 62.4368C131.862 62.5034 132.422 62.5295 132.983 62.5151C134.023 62.5151 135.465 62.5543 137.059 62.6158C138.652 62.6773 140.089 62.7445 141.135 62.806C141.692 62.8666 142.253 62.8797 142.812 62.8451C142.263 62.7096 141.701 62.6272 141.135 62.599C140.095 62.4872 138.652 62.3809 137.053 62.3194C135.454 62.2579 134.011 62.2746 132.96 62.3194C132.406 62.3068 131.852 62.3461 131.305 62.4368Z" fill="white"/>
<path d="M131.669 66.8638C132.227 66.9105 132.788 66.9105 133.346 66.8638C134.392 66.8638 135.834 66.8303 137.428 66.8638C139.022 66.8974 140.459 66.9254 141.504 66.9645C142.063 67.0055 142.623 67.0055 143.182 66.9645C142.631 66.8386 142.069 66.7655 141.504 66.7464C140.464 66.6569 139.016 66.5786 137.417 66.5618C135.818 66.5451 134.375 66.5954 133.329 66.6625C132.771 66.6805 132.215 66.7478 131.669 66.8638Z" fill="white"/>
<path d="M132.133 70.8802C133.964 71.1143 135.806 71.2469 137.652 71.2772C139.494 71.4122 141.342 71.4477 143.188 71.3835C141.354 71.1565 139.51 71.024 137.663 70.9864C135.823 70.8582 133.977 70.8227 132.133 70.8802Z" fill="white"/>
<path d="M132.134 75.373C132.631 75.555 133.147 75.6807 133.671 75.7477C134.923 75.9743 136.187 76.1274 137.457 76.2064C138.727 76.2823 140 76.2823 141.27 76.2064C141.798 76.2069 142.323 76.1449 142.836 76.0218C142.313 75.9833 141.788 75.9833 141.265 76.0218C140.292 76.0218 138.95 76.0218 137.474 75.9267C135.998 75.8316 134.678 75.6806 133.699 75.5576C133.183 75.457 132.66 75.3953 132.134 75.373Z" fill="white"/>
<path d="M99.081 46.2553C99.383 44.6893 100.691 43.4589 102.168 42.8493C103.671 42.3065 105.26 42.0394 106.859 42.0607C118.601 41.5742 130.298 42.8549 141.962 44.13C143.841 44.4209 146.525 45.6121 147.073 47.2955C147.621 48.9789 146.039 50.7406 145.765 52.4911C145.384 54.9631 146.106 57.8154 143.97 59.1185C141.7 60.4943 138.809 59.5491 136.287 58.7326C125.695 55.327 114.392 54.7791 103.521 57.1442C102.045 57.4686 100.093 57.6364 99.4277 56.2774C98.8965 55.1924 99.6458 53.9508 99.8415 52.754C100.199 50.584 98.6617 48.414 99.081 46.2553Z" fill="#FCC43E"/>
<g opacity="0.3">
<path d="M121.755 49.6894C127.106 50.4389 132.379 51.8986 137.781 51.9713C139.548 51.9713 141.421 51.8259 142.847 50.78C144.272 49.7342 145.743 46.4177 144.664 45.0195C144.991 45.1871 145.309 45.3738 145.614 45.5788C146.671 46.3562 147.13 46.9882 147.186 48.0228C147.146 48.8326 146.923 49.6226 146.531 50.3326C146.202 50.9677 145.956 51.6425 145.799 52.3404C145.704 52.9514 145.648 53.5678 145.631 54.186C145.575 55.4164 145.693 56.5461 145.072 57.9051C139.587 54.2531 132.273 53.0395 125.697 52.5529C119.122 52.0663 112.501 52.3628 105.948 51.6637C110.662 48.968 116.404 48.9288 121.755 49.6894Z" fill="black"/>
</g>
<path d="M139.572 52.6322C139.999 52.4425 140.38 52.1642 140.691 51.8157C141.489 51.0169 142.067 50.0245 142.368 48.9354C142.664 47.8365 142.664 46.6788 142.368 45.5798C142.275 45.1196 142.085 44.6847 141.809 44.3047C141.764 44.3047 141.988 44.8024 142.15 45.6246C142.37 46.6914 142.333 47.7953 142.041 48.8448C141.749 49.8943 141.212 50.8591 140.472 51.6591C139.964 52.2967 139.544 52.5931 139.572 52.6322Z" fill="white"/>
<path d="M138.951 59.4646C139.193 59.2352 139.383 58.9568 139.51 58.648C140.255 57.1961 140.425 55.5163 139.985 53.9445C139.917 53.6137 139.78 53.3011 139.582 53.0273C139.903 54.09 140.011 55.2054 139.901 56.3099C139.791 57.4144 139.464 58.4864 138.939 59.4646H138.951Z" fill="white"/>
<path d="M135.486 52.1338C135.831 51.8522 136.117 51.5066 136.331 51.1159C136.895 50.1997 137.26 49.1753 137.404 48.1088C137.547 47.0424 137.466 45.9576 137.164 44.9248C137.052 44.4914 136.863 44.0821 136.605 43.7168C136.554 43.7168 136.761 44.1978 136.946 44.9752C137.421 47.0188 137.13 49.1658 136.129 51.0097C135.771 51.7144 135.453 52.1003 135.486 52.1338Z" fill="white"/>
<path d="M135.453 52.1504C135.328 52.443 135.293 52.7662 135.352 53.0788C135.451 53.8131 135.598 54.5399 135.794 55.2544C135.984 55.9468 135.947 56.6819 135.688 57.3516C135.547 57.6128 135.384 57.8617 135.201 58.0954C135.201 58.1234 135.582 57.9724 135.872 57.4411C136.038 57.1348 136.139 56.7979 136.169 56.4512C136.202 56.0315 136.172 55.6092 136.079 55.1984C135.895 54.3371 135.638 53.6045 135.554 53.0564C135.47 52.5083 135.487 52.156 135.453 52.1504Z" fill="white"/>
<path d="M130.673 50.8091C131.029 50.5809 131.33 50.2773 131.556 49.9199C132.154 49.0877 132.51 48.1064 132.585 47.0844C132.654 46.0605 132.441 45.0375 131.97 44.1258C131.798 43.739 131.542 43.3952 131.221 43.1191C131.182 43.1527 131.478 43.5274 131.78 44.2377C132.185 45.1293 132.361 46.1083 132.291 47.0853C132.22 48.0623 131.906 49.0061 131.377 49.8304C130.98 50.412 130.639 50.742 130.673 50.8091Z" fill="white"/>
<path d="M130.714 52.9832C130.786 52.9496 130.686 52.6029 130.714 52.1834C130.742 51.764 130.82 51.4172 130.747 51.3781C130.675 51.3389 130.423 51.6801 130.423 52.1778C130.423 52.6756 130.647 53.0447 130.714 52.9832Z" fill="white"/>
<path d="M130.594 57.3126C130.594 57.3406 130.829 57.1952 131.075 56.8652C131.39 56.4282 131.596 55.9218 131.674 55.3887C131.756 54.8576 131.708 54.3144 131.534 53.806C131.394 53.4201 131.232 53.2187 131.204 53.2467C131.432 53.9261 131.495 54.6498 131.389 55.3585C131.283 56.0672 131.011 56.7407 130.594 57.3238V57.3126Z" fill="white"/>
<path d="M124.759 50.1184C125.087 49.8707 125.356 49.5537 125.548 49.19C126.069 48.3403 126.369 47.3733 126.42 46.3776C126.471 45.3819 126.271 44.3894 125.839 43.4911C125.686 43.1104 125.454 42.767 125.156 42.4844C125.117 42.4844 125.38 42.8982 125.654 43.575C126.017 44.4572 126.179 45.4088 126.13 46.3614C126.08 47.3139 125.82 48.2437 125.369 49.0838C125.022 49.7325 124.726 50.0905 124.759 50.1184Z" fill="white"/>
<path d="M124.551 52.0784C124.629 52.0393 124.551 51.7149 124.579 51.3234C124.607 50.9319 124.791 50.6355 124.73 50.5796C124.668 50.5236 124.344 50.7921 124.288 51.2898C124.232 51.7876 124.489 52.1231 124.551 52.0784Z" fill="white"/>
<path d="M124.718 56.0753C124.718 56.0753 124.914 55.9746 125.098 55.7006C125.329 55.3323 125.469 54.9144 125.506 54.4814C125.546 54.0486 125.479 53.6126 125.311 53.2118C125.182 52.9042 125.037 52.7532 125.009 52.7756C125.195 53.3151 125.266 53.8879 125.216 54.4565C125.166 55.0251 124.996 55.5768 124.718 56.0753Z" fill="white"/>
<path d="M120.045 49.6496C120.134 49.6496 120.045 47.9718 120.185 45.964C120.324 43.9562 120.677 42.3232 120.593 42.3008C120.434 42.6313 120.327 42.9839 120.274 43.3466C119.898 45.0606 119.766 46.8193 119.883 48.5702C119.881 48.9362 119.936 49.3002 120.045 49.6496Z" fill="white"/>
<path d="M119.21 51.748C119.277 51.7815 119.551 51.3453 119.557 50.7245C119.562 50.1037 119.299 49.6675 119.232 49.701C119.165 49.7346 119.277 50.1764 119.266 50.7245C119.255 51.2726 119.132 51.7144 119.21 51.748Z" fill="white"/>
<path d="M118.317 55.7695C118.403 55.2278 118.437 54.679 118.417 54.1308C118.495 53.5883 118.519 53.0395 118.49 52.4922C118.237 52.9966 118.112 53.5555 118.126 54.1197C118.049 54.6768 118.114 55.2446 118.317 55.7695Z" fill="white"/>
<path d="M112.793 49.6896C112.599 48.4713 112.524 47.2369 112.569 46.004C112.718 44.7807 112.983 43.5746 113.363 42.4023C113.136 42.6946 112.966 43.0265 112.86 43.3811C112.226 45.0586 112.082 46.8821 112.446 48.6382C112.496 49.0071 112.614 49.3635 112.793 49.6896Z" fill="white"/>
<path d="M113.278 52.1572C113.591 51.8138 113.782 51.3762 113.821 50.9127C113.859 50.4492 113.743 49.9861 113.49 49.5957C113.412 49.6293 113.591 50.1885 113.53 50.8876C113.468 51.5867 113.205 52.1124 113.278 52.1572Z" fill="white"/>
<path d="M111.159 55.5841C111.237 55.0281 111.28 54.4677 111.288 53.9063C111.398 53.3526 111.471 52.792 111.506 52.2285C111.226 52.7362 111.052 53.2947 110.992 53.8712C110.933 54.4476 110.989 55.0301 111.159 55.5841Z" fill="white"/>
<path d="M106.703 50.2152C106.611 49.8069 106.476 49.4094 106.301 49.0296C105.928 48.112 105.645 47.1605 105.456 46.1885C105.279 45.2186 105.306 44.2225 105.535 43.2635C105.708 42.5253 105.915 42.089 105.87 42.0723C105.606 42.4012 105.416 42.7825 105.311 43.1908C105.018 44.1741 104.96 45.2125 105.143 46.2221C105.335 47.2166 105.652 48.1826 106.088 49.0967C106.246 49.4936 106.453 49.8693 106.703 50.2152Z" fill="white"/>
<path d="M104.517 56.4006C105.132 55.7447 105.592 54.9593 105.864 54.102C106.225 53.2804 106.394 52.387 106.356 51.4902C106.272 51.4902 106.105 52.6535 105.59 54.0014C105.076 55.3492 104.444 56.3671 104.517 56.4006Z" fill="white"/>
<path d="M101.016 56.9157C101.016 56.9157 100.949 56.7367 100.87 56.4011C100.782 55.9303 100.795 55.4459 100.909 54.9806C101.093 54.283 101.344 53.6049 101.659 52.956C102.07 52.1292 102.23 51.1995 102.117 50.2827C101.886 49.4162 101.608 48.563 101.284 47.7269C101.088 47.0405 101.021 46.3235 101.088 45.6128C101.174 44.9543 101.326 44.306 101.541 43.6777C101.426 43.82 101.335 43.9807 101.273 44.1531C101.075 44.6112 100.943 45.0952 100.881 45.5904C100.781 46.3384 100.83 47.0989 101.027 47.8275C101.234 48.6441 101.67 49.455 101.832 50.361C101.934 51.2251 101.786 52.1003 101.407 52.8833C101.099 53.5513 100.865 54.2508 100.708 54.9694C100.605 55.4643 100.624 55.9769 100.764 56.4626C100.809 56.632 100.896 56.7876 101.016 56.9157Z" fill="white"/>
<path d="M144.263 52.8046C144.55 52.5905 144.788 52.3179 144.962 52.0048C145.435 51.2799 145.765 50.4712 145.934 49.6223C146.095 48.7723 146.095 47.8997 145.934 47.0497C145.889 46.6947 145.773 46.3524 145.593 46.043C145.803 47.207 145.816 48.398 145.633 49.5664C145.362 50.7155 144.899 51.8104 144.263 52.8046Z" fill="white"/>
<path d="M144.255 54.3427C144.334 54.3427 144.311 54.063 144.328 53.7834C144.345 53.5038 144.389 53.2241 144.328 53.1906C144.266 53.157 144.071 53.4031 144.048 53.7498C144.026 54.0966 144.183 54.3762 144.255 54.3427Z" fill="white"/>
<path d="M143.434 59.1972C143.997 58.7139 144.404 58.0742 144.603 57.3593C144.802 56.6444 144.784 55.8865 144.552 55.1816C144.546 55.8869 144.467 56.5897 144.317 57.2789C144.081 57.9436 143.785 58.5856 143.434 59.1972Z" fill="white"/>
<path d="M107.201 13.6286C108.526 11.8216 110.468 10.5624 112.658 10.0884C114.836 9.62899 117.076 9.54013 119.284 9.82559C126.62 10.5191 133.928 12.9687 139.587 17.6833C145.245 22.398 149.092 29.5511 148.891 36.9222C148.846 38.7734 148.516 40.7029 147.387 42.1738C146.257 43.6447 144.144 44.4724 142.472 43.6726C141.102 43.0127 140.369 41.4356 140.14 39.9479C139.911 38.4602 140.079 36.8999 139.956 35.3787C139.52 29.8475 135.22 25.1887 130.159 22.9069C125.099 20.6251 119.39 20.3399 113.843 20.4685C112.441 20.4806 111.039 20.4172 109.644 20.2784C107.967 20.1441 107.083 20.4294 106.289 19.4562C105.16 17.5547 105.959 15.4686 107.201 13.6286Z" fill="#455A64"/>
<path d="M127.89 3.82964C133.303 2.44265 136.635 1.26818 142.21 0.943799C143.552 0.865501 145.006 0.83195 146.074 1.66526C146.733 2.27514 147.223 3.04607 147.494 3.90234C151.129 13.1303 153.019 24.7184 148.713 33.6555L113.487 11.8831C117.222 7.77249 122.478 5.23341 127.89 3.82964Z" fill="#455A64"/>
<path d="M144.217 43.9628C144.47 43.9517 144.72 43.9161 144.966 43.8565C145.684 43.7063 146.354 43.3817 146.918 42.9114C147.786 42.135 148.399 41.113 148.673 39.9808C149.062 38.5003 149.172 36.9603 148.998 35.4395C148.884 31.5019 147.741 27.6627 145.682 24.3044C144.484 22.3233 143.037 20.5038 141.376 18.8907C139.581 17.1743 137.572 15.6968 135.399 14.4948C131.167 12.1902 126.535 10.7135 121.75 10.1437C120.632 9.99831 119.575 9.91442 118.535 9.83612C117.52 9.75043 116.501 9.71683 115.482 9.73545C113.639 9.74357 111.823 10.172 110.17 10.9882C109.454 11.3498 108.783 11.7927 108.168 12.3081C107.626 12.7769 107.144 13.3103 106.731 13.8964C106.075 14.8485 105.724 15.978 105.725 17.1346C105.738 17.8591 105.911 18.5717 106.234 19.2207C106.346 19.4442 106.475 19.6592 106.62 19.8638C106.62 19.8638 106.497 19.6345 106.284 19.1983C105.993 18.5494 105.842 17.846 105.842 17.1346C105.856 16.0072 106.213 14.9107 106.866 13.9915C107.273 13.4201 107.75 12.9016 108.286 12.4479C108.895 11.9516 109.557 11.524 110.26 11.1728C111.889 10.3818 113.677 9.97252 115.488 9.97594C116.466 9.97594 117.473 10.0095 118.513 10.0878C119.553 10.1661 120.626 10.2612 121.717 10.4122C126.463 10.9936 131.057 12.4641 135.259 14.7465C137.407 15.9405 139.395 17.4026 141.175 19.0976C142.822 20.6872 144.258 22.4823 145.447 24.4387C147.503 27.7532 148.66 31.5469 148.802 35.4451C148.986 36.9407 148.893 38.4574 148.528 39.9193C148.272 41.0282 147.687 42.0339 146.851 42.8051C146.309 43.2761 145.663 43.6115 144.966 43.7838C144.48 43.9237 144.217 43.946 144.217 43.9628Z" fill="#263238"/>
<path d="M136.605 27.8176C137.114 27.7776 137.615 27.6646 138.092 27.482C139.286 27.1303 140.39 26.5256 141.33 25.7091C142.274 24.8693 142.895 23.7259 143.085 22.4766C143.141 22.1058 143.141 21.7288 143.085 21.358C143.074 21.2182 143.032 21.0826 142.962 20.9609C142.989 21.4594 142.971 21.9592 142.907 22.4542C142.667 23.6339 142.053 24.7049 141.156 25.5078C140.241 26.2933 139.186 26.9004 138.047 27.2975C137.558 27.4449 137.076 27.6185 136.605 27.8176Z" fill="#263238"/>
<path d="M130.16 22.9063C130.303 22.9243 130.448 22.9109 130.585 22.8671C130.963 22.7843 131.326 22.6467 131.664 22.4589C132.734 21.7784 133.68 20.9196 134.46 19.9198C134.891 19.3558 135.205 18.7111 135.383 18.0239C135.535 17.4773 135.618 16.9135 135.629 16.3461C135.64 15.9615 135.608 15.5769 135.534 15.1996C135.523 15.0579 135.481 14.9203 135.41 14.7969C135.36 14.7969 135.489 15.3897 135.41 16.3405C135.352 17.5708 134.939 18.7578 134.219 19.7576C133.464 20.7226 132.573 21.5739 131.575 22.2855C131.12 22.529 130.647 22.7365 130.16 22.9063Z" fill="#263238"/>
<path d="M127.935 11.7383C127.787 11.76 127.645 11.8094 127.516 11.8837C127.15 12.0571 126.802 12.265 126.476 12.5045C125.382 13.2955 124.542 14.3876 124.057 15.6476C123.573 16.9077 123.465 18.2814 123.747 19.6016C123.827 19.9968 123.947 20.3828 124.105 20.7537C124.154 20.8944 124.227 21.0252 124.323 21.1396C124.373 21.1396 124.105 20.5468 123.948 19.5625C123.732 18.2826 123.862 16.968 124.325 15.7554C124.788 14.5428 125.567 13.4763 126.582 12.6667C127.381 12.0347 127.957 11.7886 127.935 11.7383Z" fill="#263238"/>
<path d="M119.435 10.3555C119.285 10.3956 119.144 10.4598 119.015 10.5456C118.648 10.7542 118.304 10.9997 117.986 11.2783C116.922 12.1987 116.146 13.4065 115.75 14.7569C115.358 16.1068 115.358 17.5401 115.75 18.8899C115.87 19.2947 116.031 19.6863 116.231 20.0588C116.37 20.3161 116.471 20.4503 116.488 20.4391C116.505 20.4279 116.203 19.8463 115.929 18.834C115.587 17.5207 115.606 16.1396 115.984 14.8363C116.362 13.5331 117.085 12.356 118.076 11.4293C118.881 10.7134 119.463 10.4058 119.435 10.3555Z" fill="#263238"/>
<path d="M139.917 37.1339C140.043 37.1967 140.179 37.2383 140.319 37.2569C140.688 37.3287 141.062 37.3717 141.438 37.3856C142.707 37.4247 143.969 37.1821 145.133 36.6753C146.329 36.2167 147.36 35.4126 148.097 34.3655C148.258 34.1524 148.374 33.9083 148.436 33.6484C148.499 33.3886 148.507 33.1186 148.46 32.8555C148.382 33.3579 148.191 33.836 147.901 34.2536C147.142 35.2197 146.138 35.9651 144.994 36.4124C143.862 36.8973 142.646 37.1575 141.415 37.1786C140.52 37.201 139.922 37.078 139.917 37.1339Z" fill="#263238"/>
<path d="M108.822 12.3008C108.625 12.6637 108.496 13.0599 108.442 13.4697C108.074 15.4469 108.455 17.4903 109.51 19.2022C109.712 19.5636 109.975 19.8872 110.287 20.1585C109.554 18.9992 109.026 17.7222 108.727 16.3835C108.551 15.4314 108.525 14.4578 108.649 13.4976C108.728 13.1021 108.786 12.7026 108.822 12.3008Z" fill="#263238"/>
<path d="M145.726 -4.78327C146.806 -5.65612 148.177 -6.08594 149.562 -5.98571C150.947 -5.92444 152.261 -5.35039 153.247 -4.37501C153.728 -3.88364 154.084 -3.28354 154.285 -2.62547C154.485 -1.9674 154.524 -1.27072 154.399 -0.594343C154.168 0.241165 153.705 0.994519 153.066 1.57919C152.426 2.16386 151.634 2.55613 150.781 2.71095C149.104 3.0521 147.549 3.17514 146.034 2.34183V2.19083C145.094 1.91679 144.457 0.244567 144.256 -1.11446C144.176 -1.80007 144.269 -2.49463 144.526 -3.13524C144.783 -3.77586 145.195 -4.34229 145.726 -4.78327Z" fill="#455A64"/>
<path d="M114.994 10.3443L115.111 10.2437L115.446 9.94165C115.878 9.55604 116.329 9.19387 116.8 8.85668C118.537 7.6211 120.414 6.5943 122.391 5.79747C123.649 5.27175 125.053 4.774 126.59 4.30421C128.128 3.83443 129.777 3.34227 131.533 2.90604C135.365 1.90521 139.288 1.29252 143.242 1.07722C144.184 1.01431 145.118 1.29439 145.87 1.8658C146.5 2.33064 146.974 2.9763 147.229 3.71698C148.808 7.41388 149.96 11.2793 150.662 15.2379C150.964 16.9506 151.134 18.6838 151.171 20.4224C151.171 20.8306 151.171 21.2333 151.171 21.6248C151.171 22.0163 151.126 22.3966 151.104 22.7769C151.064 23.5263 150.964 24.2478 150.88 24.9357C150.623 27.0979 150.191 29.2358 149.588 31.3282C149.422 31.8987 149.222 32.459 148.99 33.006C148.912 33.1905 148.845 33.3303 148.8 33.4198C148.755 33.5093 148.727 33.5596 148.733 33.5652C148.765 33.5244 148.795 33.4814 148.822 33.4366C148.902 33.3043 148.974 33.168 149.04 33.0283C149.296 32.4939 149.514 31.9427 149.694 31.3785C150.34 29.2897 150.804 27.1491 151.081 24.9804C151.165 24.2869 151.277 23.5711 151.322 22.8105C151.322 22.4302 151.394 22.0443 151.4 21.6472C151.405 21.2501 151.4 20.8474 151.4 20.4392C151.374 18.6861 151.211 16.9378 150.913 15.21C150.226 11.2257 149.078 7.33501 147.491 3.61631C147.179 2.74364 146.592 1.99574 145.819 1.48457C145.046 0.97341 144.128 0.726498 143.203 0.780809C139.236 1.00287 135.302 1.62685 131.461 2.64318C129.694 3.09619 128.039 3.57716 126.506 4.07491C125.082 4.51642 123.68 5.02974 122.307 5.61291C120.322 6.43008 118.444 7.48753 116.716 8.7616C116.254 9.10959 115.811 9.48301 115.39 9.88014C115.245 10.0144 115.144 10.1262 115.077 10.1989C115.01 10.2716 114.988 10.3387 114.994 10.3443Z" fill="#263238"/>
<path d="M184 174.564C182.188 172.92 168.115 160.465 164.027 161.142C163.267 154.637 155.522 151.159 149.003 151.724C142.483 152.288 136.489 155.515 130.07 156.824C113.592 160.18 95.8386 150.745 80.0649 156.584C77.8062 157.479 75.6095 158.523 73.4893 159.71L66.2203 163.575C62.5914 165.504 59.0688 167.775 55.1379 168.977C43.9549 172.417 2.97471 169.307 0.0168109 174.542" fill="#F5F5F5"/>
<path d="M-1.95503e-05 174.563L0.083858 174.462C0.153835 174.357 0.236461 174.261 0.329891 174.177C0.704967 173.849 1.13453 173.59 1.59913 173.411C3.40156 172.755 5.28082 172.334 7.19065 172.158C12.1503 171.52 19.3969 171.302 28.3322 171.118C32.8054 171.017 37.7036 170.933 42.9596 170.665C45.582 170.519 48.2995 170.34 51.0841 169.954C52.5011 169.779 53.9017 169.489 55.2721 169.087C56.6694 168.64 58.0318 168.091 59.3483 167.443C62.0155 166.146 64.6044 164.563 67.3498 163.148L75.7371 158.719C77.1695 157.971 78.6444 157.308 80.1544 156.733C81.6995 156.179 83.2846 155.743 84.896 155.43C88.2055 154.845 91.5731 154.657 94.9271 154.871C102.381 155.279 109.527 156.856 116.51 157.455C119.925 157.799 123.365 157.809 126.782 157.483C128.429 157.302 130.062 157.011 131.669 156.61C133.257 156.219 134.795 155.732 136.293 155.234C139.301 154.233 142.187 153.176 145.072 152.516C147.957 151.856 150.826 151.543 153.509 152.091C156.087 152.522 158.513 153.599 160.56 155.223C161.483 156.001 162.269 156.927 162.886 157.964C163.434 158.96 163.794 160.048 163.949 161.174V161.269H164.044C164.96 161.237 165.869 161.441 166.683 161.862C167.487 162.216 168.268 162.621 169.02 163.075C170.491 163.942 171.816 164.859 173.035 165.732C175.467 167.482 177.469 169.087 179.085 170.413C180.701 171.738 181.92 172.784 182.748 173.495L183.681 174.305L184 174.574L183.698 174.283L182.781 173.455C181.97 172.734 180.757 171.671 179.152 170.335C177.547 168.998 175.551 167.376 173.125 165.609C171.906 164.731 170.586 163.802 169.104 162.93C168.349 162.468 167.564 162.055 166.756 161.694C165.909 161.255 164.963 161.043 164.01 161.079L164.122 161.163C163.967 160.01 163.601 158.895 163.043 157.874C162.419 156.818 161.624 155.872 160.689 155.078C158.616 153.42 156.155 152.319 153.537 151.879C152.153 151.613 150.739 151.526 149.333 151.621C147.872 151.729 146.423 151.953 144.999 152.293C142.097 152.953 139.201 154.004 136.204 154.999C134.7 155.497 133.168 155.973 131.596 156.37C129.999 156.762 128.378 157.048 126.743 157.225C123.343 157.545 119.919 157.532 116.522 157.186C109.566 156.588 102.42 155.005 94.9327 154.597C91.5545 154.38 88.1625 154.568 84.8289 155.156C83.202 155.47 81.6018 155.91 80.0425 156.47C78.5132 157.051 77.0196 157.721 75.5693 158.478L67.182 162.913C64.431 164.334 61.8421 165.922 59.1918 167.208C57.9019 167.844 56.5653 168.381 55.1938 168.813C53.8376 169.211 52.4522 169.501 51.0505 169.68C48.2827 170.066 45.5652 170.24 42.9428 170.402C37.698 170.681 32.7998 170.771 28.3266 170.888C19.3802 171.101 12.1448 171.353 7.1795 172.007C5.26651 172.197 3.38667 172.637 1.58798 173.316C1.12088 173.505 0.691097 173.776 0.318691 174.115C0.227199 174.206 0.146526 174.308 0.078258 174.417L-1.95503e-05 174.563Z" fill="#263238"/>
</svg>
