<svg width="104" height="168" viewBox="0 0 104 168" fill="none" xmlns="http://www.w3.org/2000/svg">
<g opacity="0.5">
<path d="M131.323 82.1757C121.434 115.937 90.6796 120.339 90.6796 120.339C87.488 125.125 81.9866 137.833 81.9866 137.833L43.7881 129.887C43.7881 129.887 43.8111 116.039 42.7933 110.377C42.7933 110.377 16.339 94.0734 20.7422 59.1712C23.8076 34.8918 48.128 3.17525 88.1268 11.4886L88.5373 11.574C128.527 19.9321 138.183 58.7404 131.323 82.1757Z" fill="#FFC727"/>
</g>
<g opacity="0.7">
<path d="M126.547 81.3909C117.513 112.277 89.3816 116.275 89.3816 116.275C86.4623 120.651 80.3489 137.499 80.3489 137.499L45.4193 130.232C45.4193 130.232 46.5247 112.343 45.5928 107.166C45.5928 107.166 21.3943 92.2581 25.4202 60.3297C28.2213 38.1444 50.4739 9.14345 87.047 16.7441L87.4276 16.8233C124.005 24.4405 132.846 59.9099 126.547 81.3909Z" fill="#FFC727"/>
</g>
<path d="M55.3568 72.744L53.0703 72.6973L51.7926 135.158L54.0791 135.204L55.3568 72.744Z" fill="white"/>
<path d="M94.147 80.8186L70.4492 138.623L72.5653 139.491L96.2631 81.6861L94.147 80.8186Z" fill="white"/>
<path d="M70.5785 96.8861C67.1601 96.1749 64.69 92.3284 63.3375 87.7878C62.8526 88.2299 62.2783 88.5626 61.6535 88.7631C61.0287 88.9636 60.368 89.0273 59.7164 88.95C54.1411 87.7901 54.2969 75.7377 54.3023 75.225L55.0766 75.2459C55.0533 75.3578 54.9308 87.1757 59.8791 88.2052C60.8643 88.4101 61.9998 87.93 63.1327 87.0132C62.1095 83.3339 61.9075 79.4747 62.5411 75.7086C63.2072 72.5068 64.7759 70.9176 66.8582 71.3508C69.2839 71.8554 70.2653 74.0997 69.5573 77.5031C68.6609 81.2101 66.7353 84.5884 64.0025 87.2487C65.2526 91.6824 67.5601 95.4873 70.7172 96.1441C73.1056 96.6409 75.8821 95.2719 78.5213 92.317C78.7566 92.0467 78.9935 91.7689 79.2245 91.4822C77.4854 88.6131 77.0588 84.413 77.8398 80.6588C78.6984 76.5315 80.7747 74.2615 83.2451 74.7754C83.7205 74.8736 84.1592 75.1021 84.512 75.4354C84.8649 75.7687 85.118 76.1937 85.243 76.6627C86.3139 79.8989 83.9445 86.6475 80.1496 91.5267C80.9705 92.7904 82.2588 93.6772 83.7323 93.9928C87.9866 94.8779 93.5715 84.1263 93.6396 84.0236L94.344 84.3804C94.0997 84.8435 88.4209 95.7469 83.6218 94.7485C82.036 94.4031 80.6411 93.467 79.7204 92.1304L79.1397 92.7882C77.1144 95.0377 73.9968 97.5972 70.5785 96.8861ZM83.1303 75.5146C80.7196 75.0131 79.2026 78.038 78.6266 80.807C78.0055 83.7924 78.1765 87.986 79.7542 90.8449C83.2496 86.2071 85.5235 79.8435 84.5593 76.9176C84.4806 76.5714 84.304 76.2551 84.0507 76.0064C83.7974 75.7576 83.4779 75.587 83.1303 75.5146ZM66.7104 72.0987C64.5161 71.6422 63.6288 74.2608 63.295 75.8655C62.7144 79.3847 62.8858 82.9871 63.798 86.4353C66.2627 83.9209 67.9931 80.7805 68.8019 77.3537C69.1621 75.6222 69.36 72.6499 66.6955 72.0956L66.7104 72.0987Z" fill="white"/>
<path d="M86.7907 138.91L38.9492 128.957L33.4714 155.289L81.3129 165.241L86.7907 138.91Z" fill="#455A64"/>
<path d="M75.8641 164.076C72.0116 168.483 65.6869 171.824 55.4021 169.684C45.1173 167.545 40.6602 161.946 38.8672 156.379L75.8641 164.076Z" fill="#455A64"/>
<path d="M75.8641 164.076C74.7176 165.394 73.3881 166.541 71.9162 167.482L39.5132 158.102C39.267 157.549 39.0493 156.984 38.861 156.409L75.8641 164.076Z" fill="#37474F"/>
<path d="M87.1426 144.222L35.5287 138.367L36.0069 136.068L87.6208 141.924L87.1426 144.222Z" fill="#37474F"/>
<path d="M85.6973 151.172L34.0834 145.316L34.5601 143.025L86.1755 148.873L85.6973 151.172Z" fill="#37474F"/>
<path d="M84.252 158.121L32.6381 152.266L33.1148 149.974L84.7302 155.822L84.252 158.121Z" fill="#37474F"/>
<g opacity="0.5">
<path d="M34.4518 53.6809C36.1452 54.3369 40.305 45.7571 52.2175 37.303C57.5062 33.5522 75.1176 31.1658 75.0609 25.5243C75.0043 19.8828 59.2146 22.3834 50.0733 29.3818C35.3583 40.6401 32.8972 53.0694 34.4518 53.6809Z" fill="white"/>
<path d="M96.7388 107.938C98.2192 109.656 108.424 103.533 114.244 94.9089C119.08 87.7547 121.66 77.9741 119.653 76.9569C117.645 75.9397 113.397 89.2119 109.767 93.6738C105.182 99.3153 95.1487 106.112 96.7388 107.938Z" fill="white"/>
</g>
</svg>
