<svg width="112" height="105" viewBox="0 0 112 105" fill="none" xmlns="http://www.w3.org/2000/svg">
<path d="M22.9019 45.3106L20.6406 76.4604C20.6406 76.4604 30.9918 82.3114 62.5274 84.3728C93.4937 86.3972 102.769 81.0768 102.769 81.0768L105.777 39.6504L22.9025 45.31L22.9019 45.3106Z" fill="#263238"/>
<path d="M102.768 81.1304C103.753 68.233 86.1945 56.3744 63.5486 54.6434C40.9027 52.9124 21.7455 61.9646 20.7596 74.862C19.7738 87.7594 37.3327 99.6181 59.9786 101.349C82.6244 103.08 101.782 94.0278 102.768 81.1304Z" fill="#263238"/>
<path d="M60.592 93.7173C40.8728 92.2344 24.329 80.0884 21.167 69.2266C21.167 69.2266 20.8756 73.2427 20.7545 74.911C19.818 87.8124 37.4182 99.6513 60.0662 101.354C82.7142 103.057 101.833 93.979 102.77 81.0776C102.891 79.4093 103.139 75.9935 103.139 75.9935C98.4427 86.2641 80.3112 95.2002 60.592 93.7173Z" fill="#FFC100"/>
<path opacity="0.2" d="M21.998 57.758C21.998 57.758 46.6681 101.468 92.9036 94.9059C92.9036 94.9059 100.433 90.8292 102.223 84.0278L102.69 82.1651L104.486 57.423L22.4487 51.5508L21.998 57.7574V57.758Z" fill="black"/>
<path d="M0.38223 40.3047L0 45.5687L59.3744 93.5513L127.535 55.1578L127.918 49.8938L0.38223 40.3047Z" fill="#263238"/>
<path opacity="0.4" d="M0.38223 40.3047L0 45.5687L59.3744 93.5513L127.535 55.1578L127.918 49.8938L0.38223 40.3047Z" fill="black"/>
<path d="M0.382812 40.3052C0.628144 41.2902 59.9286 87.9928 59.9286 87.9928L127.919 49.8944L67.082 4.7207L0.382812 40.3052Z" fill="#263238"/>
<path opacity="0.4" d="M71.1835 43.6097C70.9806 46.4022 67.1825 48.3921 62.6993 48.0553C58.2167 47.7185 54.7469 45.1816 54.9499 42.3891C55.1522 39.5965 58.9509 37.6066 63.4335 37.9434C67.9161 38.2802 71.3858 40.8171 71.1835 43.6097Z" fill="black"/>
<path d="M63.9907 42.9997C64.4469 36.847 65.6814 30.2873 69.6842 25.4249C74.1105 20.0482 81.4728 17.2739 88.1925 16.6966C91.7398 16.3919 95.3265 16.6657 98.7726 17.5852C102.58 18.6011 106.125 20.3765 109.776 21.8328C113.158 23.1812 116.803 24.3467 120.475 24.2837C122.138 24.2552 123.94 23.9856 125.382 23.0903C126.725 22.2568 127.698 20.9823 128.757 19.8295C130.088 18.38 131.691 17.1866 133.115 15.8303C134.518 14.494 135.864 13.0947 137.128 11.6215C139.783 8.52856 142.063 5.1242 143.829 1.4297C144.347 0.345999 142.755 -0.608077 142.234 0.480467C139.066 7.10562 134.255 12.5265 128.756 17.2442C127.495 18.326 126.531 19.6926 125.305 20.809C124.037 21.9642 122.398 22.3392 120.731 22.3967C117.044 22.5252 113.389 21.2791 110.005 19.9143C106.289 18.4163 102.671 16.613 98.7714 15.6456C95.3235 14.7902 91.7283 14.511 88.1925 14.8163C81.3856 15.4039 73.9948 18.0311 69.1942 23.1648C64.2209 28.4834 62.669 35.9087 62.1438 42.9997C62.0541 44.2064 63.9017 44.2009 63.9907 42.9997Z" fill="#FFC100"/>
<path opacity="0.1" d="M67.9834 7.39033C67.5339 6.03344 5.03078 39.0217 5.21918 40.9389C5.40757 42.8561 44.01 73.5649 45.3481 73.5649C49.8592 73.5649 44.2178 53.9766 50.2462 37.8714C56.2753 21.7661 69.6783 12.5078 67.9828 7.39033H67.9834Z" fill="white"/>
</svg>
