<svg width="16" height="16" viewBox="0 0 16 16" fill="none" xmlns="http://www.w3.org/2000/svg">
<path d="M4.5 3C3.12521 3 2 4.12521 2 5.5C2 6.44081 2.53337 7.25521 3.30664 7.68164C1.40666 8.2085 0 9.93474 0 12H1C1 10.07 2.57 8.5 4.5 8.5C5.03512 8.5 5.5488 8.63007 6.01367 8.86133C6.01038 8.90786 6 8.95268 6 9C6 9.53592 6.21722 10.0225 6.56445 10.3828C5.63783 10.8946 5 11.8711 5 13H6C6 11.8891 6.88909 11 8 11C9.11091 11 10 11.8891 10 13H11C11 11.8711 10.3622 10.8946 9.43555 10.3828C9.78278 10.0225 10 9.53592 10 9C10 8.95268 9.98962 8.90786 9.98633 8.86133C10.4512 8.63007 10.9649 8.5 11.5 8.5C13.43 8.5 15 10.07 15 12H16C16 9.93474 14.5933 8.2085 12.6934 7.68164C13.4666 7.25521 14 6.44081 14 5.5C14 4.12521 12.8748 3 11.5 3C10.1252 3 9 4.12521 9 5.5C9 6.43459 9.52611 7.24501 10.291 7.67383C10.0772 7.73528 9.8695 7.8142 9.66797 7.90625C9.30918 7.36264 8.69533 7 8 7C7.30467 7 6.69082 7.36264 6.33203 7.90625C6.1305 7.8142 5.92276 7.73528 5.70898 7.67383C6.47389 7.24501 7 6.43459 7 5.5C7 4.12521 5.87479 3 4.5 3ZM4.5 4C5.33435 4 6 4.66565 6 5.5C6 6.33435 5.33435 7 4.5 7C3.66565 7 3 6.33435 3 5.5C3 4.66565 3.66565 4 4.5 4ZM11.5 4C12.3343 4 13 4.66565 13 5.5C13 6.33435 12.3343 7 11.5 7C10.6657 7 10 6.33435 10 5.5C10 4.66565 10.6657 4 11.5 4ZM8 8C8.55821 8 9 8.44179 9 9C9 9.55821 8.55821 10 8 10C7.44179 10 7 9.55821 7 9C7 8.44179 7.44179 8 8 8Z" fill="white"/>
</svg>
