<svg width="106" height="153" viewBox="0 0 106 153" fill="none" xmlns="http://www.w3.org/2000/svg">
<path d="M91.0769 175.943L5.7543 148.709C5.24139 148.554 4.7627 148.295 4.34962 147.95C3.93654 147.606 3.5984 147.182 3.35736 146.708C3.11632 146.234 2.97782 145.72 2.95095 145.2C2.92408 144.679 3.00944 144.164 3.20145 143.688L52.4563 13.5763C52.8536 12.5666 53.6245 11.7543 54.6208 11.2958C55.617 10.8373 56.7681 10.7648 57.8526 11.0924L143.17 38.3243C143.683 38.4798 144.162 38.7384 144.575 39.0832C144.988 39.4281 145.327 39.8515 145.568 40.3256C145.81 40.7997 145.949 41.314 145.976 41.8346C146.004 42.3553 145.919 42.8707 145.728 43.3472L96.4732 173.459C96.0749 174.468 95.3038 175.279 94.3079 175.738C93.312 176.196 92.1614 176.269 91.0769 175.943Z" fill="#2E353A"/>
<path opacity="0.2" d="M91.0769 175.943L5.7543 148.709C5.24139 148.554 4.7627 148.295 4.34962 147.95C3.93654 147.606 3.5984 147.182 3.35736 146.708C3.11632 146.234 2.97782 145.72 2.95095 145.2C2.92408 144.679 3.00944 144.164 3.20145 143.688L52.4563 13.5763C52.8536 12.5666 53.6245 11.7543 54.6208 11.2958C55.617 10.8373 56.7681 10.7648 57.8526 11.0924L143.17 38.3243C143.683 38.4798 144.162 38.7384 144.575 39.0832C144.988 39.4281 145.327 39.8515 145.568 40.3256C145.81 40.7997 145.949 41.314 145.976 41.8346C146.004 42.3553 145.919 42.8707 145.728 43.3472L96.4732 173.459C96.0749 174.468 95.3038 175.279 94.3079 175.738C93.312 176.196 92.1614 176.269 91.0769 175.943Z" fill="white"/>
<path d="M118.435 38.2173L78.3339 25.5837C78.1577 25.5315 77.9932 25.4442 77.8511 25.3276C77.709 25.211 77.5926 25.0678 77.5096 24.9072C77.4265 24.7467 77.3786 24.5725 77.3691 24.3962C77.3595 24.2198 77.3885 24.0452 77.4541 23.8838L80.2793 16.516C80.416 16.1734 80.681 15.8978 81.0234 15.742C81.3658 15.5863 81.7615 15.5613 82.1345 15.672L122.236 28.3056C122.412 28.3585 122.576 28.4464 122.718 28.5636C122.859 28.6807 122.975 28.8244 123.058 28.9853C123.14 29.1462 123.187 29.3205 123.196 29.497C123.205 29.6734 123.175 29.8479 123.109 30.009L120.29 37.3559C120.157 37.7024 119.894 37.9827 119.551 38.142C119.208 38.3013 118.81 38.3281 118.435 38.2173Z" fill="#4D44B5"/>
<path opacity="0.2" d="M118.435 38.2173L78.3339 25.5837C78.1577 25.5315 77.9932 25.4442 77.8511 25.3276C77.709 25.211 77.5926 25.0678 77.5096 24.9072C77.4265 24.7467 77.3786 24.5725 77.3691 24.3962C77.3595 24.2198 77.3885 24.0452 77.4541 23.8838L80.2793 16.516C80.416 16.1734 80.681 15.8978 81.0234 15.742C81.3658 15.5863 81.7615 15.5613 82.1345 15.672L122.236 28.3056C122.412 28.3585 122.576 28.4464 122.718 28.5636C122.859 28.6807 122.975 28.8244 123.058 28.9853C123.14 29.1462 123.187 29.3205 123.196 29.497C123.205 29.6734 123.175 29.8479 123.109 30.009L120.29 37.3559C120.157 37.7024 119.894 37.9827 119.551 38.142C119.208 38.3013 118.81 38.3281 118.435 38.2173Z" fill="black"/>
<path d="M104.588 25.0856L98.2333 23.056L99.3699 20.0532C99.687 19.2468 100.302 18.598 101.097 18.2317C101.892 17.8653 102.811 17.8073 103.677 18.0687C104.087 18.1928 104.47 18.3993 104.8 18.6747C105.13 18.9502 105.401 19.2884 105.594 19.6673C105.788 20.0461 105.899 20.4571 105.922 20.8734C105.944 21.2896 105.877 21.7017 105.725 22.0828L104.588 25.0856Z" fill="#4D44B5"/>
<path opacity="0.4" d="M104.588 25.0856L98.2333 23.056L99.3699 20.0532C99.687 19.2468 100.302 18.598 101.097 18.2317C101.892 17.8653 102.811 17.8073 103.677 18.0687C104.087 18.1928 104.47 18.3993 104.8 18.6747C105.13 18.9502 105.401 19.2884 105.594 19.6673C105.788 20.0461 105.899 20.4571 105.922 20.8734C105.944 21.2896 105.877 21.7017 105.725 22.0828L104.588 25.0856Z" fill="white"/>
<path d="M91.5469 170.029L9.37162 143.805L57.3887 17.0001L139.558 43.223L91.5469 170.029Z" fill="white"/>
<path d="M109.881 39.6346L84.0854 31.473C83.6702 31.3477 83.2828 31.1397 82.9486 30.8627C82.6143 30.5856 82.3407 30.2458 82.1455 29.8652C81.9503 29.4847 81.838 29.072 81.8159 28.6543C81.7939 28.2365 81.8625 27.823 82.0173 27.4408L83.5163 23.5181C83.8385 22.7079 84.4628 22.0561 85.2694 21.6879C86.0759 21.3196 87.0078 21.2608 87.8862 21.5228L113.687 29.6862C114.103 29.8116 114.49 30.0196 114.825 30.2967C115.159 30.5738 115.433 30.9137 115.629 31.2942C115.825 31.6748 115.938 32.0875 115.96 32.5055C115.983 32.9235 115.915 33.3373 115.761 33.7201L114.262 37.6428C113.937 38.4531 113.31 39.1042 112.502 39.4717C111.694 39.8392 110.761 39.8972 109.881 39.6346ZM87.4814 22.5455C86.902 22.3724 86.2873 22.4109 85.7552 22.6536C85.223 22.8963 84.8111 23.3261 84.5984 23.8604L83.0994 27.7832C82.9967 28.0353 82.9509 28.3083 82.965 28.5842C82.9791 28.8601 83.0528 29.1326 83.1814 29.3841C83.31 29.6355 83.4904 29.8602 83.711 30.0433C83.9316 30.2265 84.1872 30.364 84.4613 30.4469L110.268 38.612C110.849 38.7855 111.465 38.7469 111.999 38.5036C112.532 38.2602 112.945 37.8293 113.158 37.2935L114.657 33.3708C114.758 33.1182 114.802 32.8453 114.787 32.5697C114.772 32.2942 114.697 32.0221 114.568 31.7713C114.439 31.5204 114.258 31.2963 114.038 31.1136C113.817 30.9309 113.562 30.7935 113.288 30.7106L87.4814 22.5455Z" fill="#4D44B5"/>
<g opacity="0.4">
<path d="M109.951 39.617L84.0932 31.3364C83.6771 31.2091 83.2882 31.0004 82.9518 30.7239C82.6154 30.4474 82.3391 30.1094 82.141 29.7318C81.9429 29.3543 81.8274 28.9458 81.8021 28.5329C81.7768 28.1201 81.8423 27.7123 81.9942 27.336L83.4628 23.4741C83.7788 22.6766 84.3981 22.0381 85.2018 21.6812C86.0055 21.3243 86.9369 21.2742 87.8173 21.5404L113.681 29.8227C114.097 29.9502 114.486 30.1589 114.823 30.4354C115.16 30.712 115.436 31.05 115.635 31.4276C115.833 31.8052 115.949 32.2138 115.975 32.6268C116.001 33.0399 115.937 33.4481 115.785 33.8248L114.317 37.6868C113.998 38.4843 113.376 39.1222 112.571 39.4783C111.766 39.8344 110.833 39.8838 109.951 39.617ZM87.4204 22.5471C86.8397 22.3712 86.2253 22.404 85.695 22.6392C85.1648 22.8744 84.7561 23.2954 84.5475 23.8215L83.0789 27.6834C82.9781 27.9316 82.9344 28.2009 82.9506 28.4735C82.9669 28.7461 83.0427 29.0159 83.1732 29.2654C83.3037 29.5149 83.4859 29.7383 83.7079 29.9211C83.9298 30.1038 84.1866 30.2418 84.4613 30.3261L110.33 38.6102C110.912 38.7865 111.528 38.7536 112.06 38.5178C112.592 38.2819 113.001 37.8598 113.21 37.3324L114.679 33.4705C114.778 33.2218 114.82 32.9526 114.803 32.6803C114.785 32.408 114.709 32.1386 114.578 31.8898C114.447 31.6409 114.264 31.418 114.042 31.2356C113.82 31.0533 113.564 30.9155 113.289 30.8312L87.4204 22.5471Z" fill="white"/>
</g>
<path d="M110.906 31.0493L89.1239 24.2344C89.0272 24.2062 88.9369 24.1589 88.859 24.0956C88.781 24.0323 88.7171 23.9545 88.6714 23.8672C88.6257 23.7799 88.5993 23.6852 88.594 23.5892C88.5887 23.4932 88.6045 23.3981 88.6404 23.3103L89.4169 21.2968C89.4934 21.1112 89.6396 20.9623 89.8276 20.8786C90.0156 20.7949 90.2323 20.7822 90.4364 20.843L112.218 27.6579C112.315 27.6859 112.405 27.7332 112.483 27.7964C112.56 27.8597 112.624 27.9375 112.669 28.0248C112.714 28.112 112.74 28.2067 112.745 28.3025C112.75 28.3983 112.733 28.493 112.696 28.5803L111.92 30.5938C111.845 30.7794 111.7 30.9285 111.513 31.0126C111.325 31.0967 111.109 31.1098 110.906 31.0493Z" fill="#4D44B5"/>
<path d="M123.15 57.2761L62.2276 38.3154L64.5988 32.2038L125.522 51.1645L123.15 57.2761Z" fill="#4D44B5"/>
<path d="M95.6424 59.0589L55.1477 46.5808L55.7608 45.0243L96.2555 57.5024L95.6424 59.0589Z" fill="#4D44B5"/>
<path d="M93.766 63.914L53.2712 51.4356L53.8803 49.8722L94.3752 62.3507L93.766 63.914Z" fill="#4D44B5"/>
<path d="M91.8793 68.7676L51.3845 56.2891L51.9936 54.7257L92.4885 67.2042L91.8793 68.7676Z" fill="#4D44B5"/>
<path d="M90.0018 73.6156L49.5071 61.1375L50.1147 59.5792L90.6094 72.0574L90.0018 73.6156Z" fill="#4D44B5"/>
<path d="M116.798 81.6984L99.9971 76.3326L106.002 60.4725L122.803 65.8384L116.798 81.6984Z" fill="#4D44B5"/>
<path d="M86.1098 83.6328L45.6149 71.1543L46.2295 69.5926L86.7243 82.0711L86.1098 83.6328Z" fill="#4D44B5"/>
<path d="M84.2283 88.4808L43.7336 76.0027L44.3467 74.4461L84.8414 86.9243L84.2283 88.4808Z" fill="#4D44B5"/>
<path d="M82.3533 93.3363L41.8586 80.8582L42.4663 79.2999L82.961 91.7781L82.3533 93.3363Z" fill="#4D44B5"/>
<path d="M80.4691 98.1894L39.9743 85.7109L40.5835 84.1476L81.0783 96.6261L80.4691 98.1894Z" fill="#4D44B5"/>
<path d="M107.266 106.272L90.4642 100.906L96.4652 85.0391L113.266 90.405L107.266 106.272Z" fill="#4D44B5"/>
<path d="M105.562 94.5307C105.917 93.5921 105.337 92.6959 103.947 92.2521C103.414 92.055 102.849 91.9767 102.293 92.0232C101.736 92.0696 101.204 92.2395 100.735 92.5202L99.8891 91.4098C100.569 91.0141 101.337 90.7768 102.138 90.715C102.938 90.6533 103.751 90.7688 104.517 91.053C106.742 91.7631 107.82 93.2062 107.196 94.8464C106.274 97.2852 103.466 96.5949 102.75 98.4882L101.198 97.9929C102.084 95.6367 104.926 96.2086 105.562 94.5307ZM100.087 100.289C100.181 100.03 100.376 99.8219 100.629 99.707C100.883 99.5921 101.176 99.5795 101.449 99.6717C101.579 99.7078 101.701 99.7708 101.805 99.8565C101.91 99.9422 101.996 100.049 102.056 100.168C102.117 100.287 102.15 100.417 102.155 100.548C102.16 100.679 102.135 100.808 102.084 100.926C101.986 101.179 101.795 101.383 101.546 101.497C101.297 101.611 101.009 101.628 100.739 101.543C100.609 101.508 100.487 101.445 100.381 101.36C100.275 101.275 100.188 101.169 100.126 101.05C100.064 100.931 100.029 100.801 100.022 100.67C100.015 100.538 100.037 100.409 100.087 100.289Z" fill="white"/>
<path d="M76.5838 108.202L36.0891 95.7234L36.7022 94.1668L77.1969 106.645L76.5838 108.202Z" fill="#4D44B5"/>
<path d="M74.6996 113.055L34.2048 100.576L34.8194 99.0145L75.3142 111.493L74.6996 113.055Z" fill="#4D44B5"/>
<path d="M72.8192 117.908L32.3298 105.432L32.9389 103.868L73.4338 116.347L72.8192 117.908Z" fill="#4D44B5"/>
<path d="M70.9393 122.758L30.4446 110.28L31.0522 108.722L71.5469 121.2L70.9393 122.758Z" fill="#4D44B5"/>
<path d="M97.7397 130.841L80.9385 125.475L86.9379 109.613L103.739 114.979L97.7397 130.841Z" fill="#4D44B5"/>
<path d="M96.0367 119.098C96.3908 118.165 95.8125 117.263 94.4163 116.818C93.8845 116.621 93.3199 116.544 92.7646 116.59C92.2094 116.637 91.678 116.807 91.2103 117.088L90.3735 115.945C91.0531 115.549 91.8213 115.312 92.622 115.25C93.4228 115.188 94.2358 115.304 95.0017 115.588C97.2267 116.298 98.3008 117.734 97.6878 119.355C96.7644 121.799 93.9582 121.103 93.2422 122.996L91.7126 122.508C92.5514 120.231 95.401 120.776 96.0367 119.098ZM90.571 124.824C90.6669 124.567 90.8614 124.36 91.1146 124.246C91.3677 124.132 91.6602 124.12 91.932 124.212C92.0613 124.248 92.1823 124.311 92.2868 124.396C92.3913 124.482 92.4768 124.587 92.5372 124.706C92.5977 124.825 92.6318 124.954 92.6371 125.084C92.6424 125.215 92.6188 125.343 92.568 125.461C92.4719 125.715 92.2803 125.919 92.0312 126.034C91.782 126.148 91.4938 126.164 91.2237 126.079C91.0929 126.044 90.9701 125.982 90.8637 125.897C90.7574 125.812 90.6702 125.706 90.6081 125.586C90.546 125.467 90.5105 125.337 90.5041 125.205C90.4977 125.074 90.5205 124.944 90.571 124.824Z" fill="white"/>
<path d="M67.0512 132.775L26.5563 120.297L27.1709 118.735L67.6658 131.214L67.0512 132.775Z" fill="#4D44B5"/>
<path d="M65.1684 137.629L24.6735 125.15L25.2881 123.589L65.783 136.067L65.1684 137.629Z" fill="#4D44B5"/>
<path d="M63.2869 142.477L22.7922 129.999L23.4053 128.442L63.9 140.92L63.2869 142.477Z" fill="#4D44B5"/>
<path d="M61.4066 147.332L20.9118 134.854L21.5264 133.292L62.0212 145.77L61.4066 147.332Z" fill="#4D44B5"/>
<path d="M88.2069 155.415L71.4057 150.049L77.4066 134.182L94.2079 139.548L88.2069 155.415Z" fill="#4D44B5"/>
<path d="M86.5037 143.672C86.8594 142.734 86.2796 141.838 84.8834 141.392C84.3517 141.195 83.7869 141.117 83.2317 141.164C82.6764 141.211 82.145 141.381 81.6774 141.662L80.8344 140.541C81.514 140.145 82.2822 139.908 83.0829 139.846C83.8837 139.784 84.6967 139.9 85.4626 140.184C87.6875 140.894 88.7601 142.335 88.1409 143.977C87.219 146.416 84.4113 145.726 83.6954 147.619L82.1435 147.124C83.0201 144.8 85.8681 145.35 86.5037 143.672ZM81.0351 149.409C81.1299 149.15 81.3242 148.942 81.5778 148.827C81.8314 148.712 82.1249 148.699 82.3975 148.792C82.5274 148.828 82.649 148.891 82.7538 148.977C82.8587 149.062 82.9443 149.168 83.0047 149.288C83.0651 149.407 83.0988 149.537 83.1035 149.668C83.1082 149.799 83.0838 149.928 83.032 150.046C82.9348 150.299 82.743 150.502 82.4942 150.617C82.2455 150.731 81.9578 150.748 81.6878 150.663C81.5574 150.628 81.4352 150.565 81.3294 150.48C81.2237 150.395 81.1368 150.289 81.0749 150.17C81.0129 150.051 80.9773 149.921 80.9704 149.79C80.9635 149.658 80.9856 149.529 81.0351 149.409Z" fill="white"/>
<path opacity="0.7" d="M123.15 57.2761L62.2276 38.3154L64.5988 32.2038L125.522 51.1645L123.15 57.2761Z" fill="white"/>
<path opacity="0.7" d="M95.6424 59.0589L55.1477 46.5808L55.7608 45.0243L96.2555 57.5024L95.6424 59.0589Z" fill="white"/>
<path opacity="0.7" d="M93.766 63.914L53.2712 51.4356L53.8803 49.8722L94.3752 62.3507L93.766 63.914Z" fill="white"/>
<path opacity="0.7" d="M91.8793 68.7676L51.3845 56.2891L51.9936 54.7257L92.4885 67.2042L91.8793 68.7676Z" fill="white"/>
<path opacity="0.7" d="M90.0018 73.6156L49.5071 61.1375L50.1147 59.5792L90.6094 72.0574L90.0018 73.6156Z" fill="white"/>
<path opacity="0.7" d="M116.798 81.6984L99.9971 76.3326L106.002 60.4725L122.803 65.8384L116.798 81.6984Z" fill="white"/>
<path opacity="0.7" d="M86.1098 83.6328L45.6149 71.1543L46.2295 69.5926L86.7243 82.0711L86.1098 83.6328Z" fill="white"/>
<path opacity="0.7" d="M84.2283 88.4808L43.7336 76.0027L44.3467 74.4461L84.8414 86.9243L84.2283 88.4808Z" fill="white"/>
<path opacity="0.7" d="M82.3533 93.3363L41.8586 80.8582L42.4663 79.2999L82.961 91.7781L82.3533 93.3363Z" fill="white"/>
<path opacity="0.7" d="M80.4691 98.1894L39.9743 85.7109L40.5835 84.1476L81.0783 96.6261L80.4691 98.1894Z" fill="white"/>
<path opacity="0.7" d="M107.266 106.272L90.4642 100.906L96.4652 85.0391L113.266 90.405L107.266 106.272Z" fill="white"/>
<path opacity="0.7" d="M76.5838 108.202L36.0891 95.7234L36.7022 94.1668L77.1969 106.645L76.5838 108.202Z" fill="white"/>
<path opacity="0.7" d="M74.6996 113.055L34.2048 100.576L34.8194 99.0145L75.3142 111.493L74.6996 113.055Z" fill="white"/>
<path opacity="0.7" d="M72.8192 117.908L32.3298 105.432L32.9389 103.868L73.4338 116.347L72.8192 117.908Z" fill="white"/>
<path opacity="0.7" d="M70.9393 122.758L30.4446 110.28L31.0522 108.722L71.5469 121.2L70.9393 122.758Z" fill="white"/>
<path opacity="0.7" d="M97.7397 130.841L80.9385 125.475L86.9379 109.613L103.739 114.979L97.7397 130.841Z" fill="white"/>
<path opacity="0.7" d="M67.0512 132.775L26.5563 120.297L27.1709 118.735L67.6658 131.214L67.0512 132.775Z" fill="white"/>
<path opacity="0.7" d="M65.1684 137.629L24.6735 125.15L25.2881 123.589L65.783 136.067L65.1684 137.629Z" fill="white"/>
<path opacity="0.7" d="M63.2869 142.477L22.7922 129.999L23.4053 128.442L63.9 140.92L63.2869 142.477Z" fill="white"/>
<path opacity="0.7" d="M61.4066 147.332L20.9118 134.854L21.5264 133.292L62.0212 145.77L61.4066 147.332Z" fill="white"/>
<path opacity="0.7" d="M88.2069 155.415L71.4057 150.049L77.4066 134.182L94.2079 139.548L88.2069 155.415Z" fill="white"/>
</svg>
