<svg width="119" height="153" viewBox="0 0 119 153" fill="none" xmlns="http://www.w3.org/2000/svg">
<path d="M89.4865 11.3582L-19.8867 20.1582L-6.92443 181.264L102.449 172.464L89.4865 11.3582Z" fill="white"/>
<path d="M102.442 172.472C102.365 171.5 97.08 106.338 89.378 11.3732L89.4973 11.4741L-19.867 20.277L-19.7569 20.1486C-14.8944 80.7826 -10.3989 136.747 -6.83005 181.261L-6.93096 181.17L102.452 172.454L-6.92638 181.362H-7.02271V181.266C-10.6099 136.77 -15.1192 80.8056 -20 20.1577V20.0385H-19.8853L89.4836 11.2539H89.5936V11.364C97.1718 106.329 102.365 171.5 102.442 172.472Z" fill="#263238"/>
<path d="M81.186 41.4714L-6.875 48.5566L-6.71386 50.5594L81.3471 43.4742L81.186 41.4714Z" fill="#E0E0E0"/>
<path d="M37.7105 49.3395L-6.52344 52.8984L-6.3623 54.9012L37.8717 51.3422L37.7105 49.3395Z" fill="#E0E0E0"/>
<path d="M75.0935 55.0254L2.17188 60.8926L2.33301 62.8953L75.2546 57.0282L75.0935 55.0254Z" fill="#E0E0E0"/>
<path d="M25.4477 68.5873L2.9375 70.3984L3.09864 72.4012L25.6089 70.59L25.4477 68.5873Z" fill="#E0E0E0"/>
<path d="M-5.36159 65.5981L-5.82031 60.0017L-0.223886 59.543L0.234837 65.1394L-5.36159 65.5981ZM-5.31572 60.4237L-4.93956 65.1027L-0.260585 64.7265L-0.636742 60.0476L-5.31572 60.4237Z" fill="#E0E0E0"/>
<path d="M-4.59596 75.1216L-5.05469 69.5251L0.541739 69.0664L1.00046 74.6628L-4.59596 75.1216ZM-4.5501 69.9472L-4.17394 74.6261L0.50504 74.25L0.12889 69.571L-4.5501 69.9472Z" fill="#E0E0E0"/>
<path d="M53.3738 75.5717L3.67578 79.5703L3.83692 81.573L53.535 77.5744L53.3738 75.5717Z" fill="#E0E0E0"/>
<path d="M-3.85768 84.2928L-4.31641 78.7009L1.27543 78.2422L1.73416 83.834L-3.85768 84.2928ZM-3.81181 79.1184L-3.43566 83.7973L1.24332 83.4212L0.867171 78.7422L-3.81181 79.1184Z" fill="#E0E0E0"/>
<path d="M84.5493 83.2663L-3.51172 90.3516L-3.35058 92.3543L84.7104 85.2691L84.5493 83.2663Z" fill="#E0E0E0"/>
<path d="M41.0699 91.1324L-3.16406 94.6914L-3.00293 96.6941L41.2311 93.1352L41.0699 91.1324Z" fill="#E0E0E0"/>
<path d="M78.4568 96.8204L5.53516 102.688L5.69629 104.69L78.6179 98.8231L78.4568 96.8204Z" fill="#E0E0E0"/>
<path d="M28.811 110.382L6.30078 112.193L6.46192 114.196L28.9721 112.385L28.811 110.382Z" fill="#E0E0E0"/>
<path d="M-1.99831 107.392L-2.45703 101.801L3.1348 101.342L3.59353 106.934L-1.99831 107.392ZM-1.95244 102.218L-1.57628 106.897L3.1027 106.521L2.72654 101.842L-1.95244 102.218Z" fill="#E0E0E0"/>
<path d="M-1.23268 116.916L-1.69141 111.324L3.90043 110.865L4.35915 116.457L-1.23268 116.916ZM-1.18681 111.741L-0.810658 116.42L3.86832 116.044L3.49216 111.365L-1.18681 111.741Z" fill="#E0E0E0"/>
<path d="M56.7371 117.365L7.03906 121.363L7.2002 123.366L56.8983 119.367L56.7371 117.365Z" fill="#E0E0E0"/>
<path d="M-0.494401 126.086L-0.953125 120.494L4.63871 120.035L5.09743 125.627L-0.494401 126.086ZM-0.453118 120.916L-0.0769684 125.595L4.60202 125.219L4.22586 120.54L-0.453118 120.916Z" fill="#E0E0E0"/>
<path d="M87.9087 125.055L-0.152344 132.141L0.00879172 134.143L88.0698 127.058L87.9087 125.055Z" fill="#E0E0E0"/>
<path d="M44.4332 132.918L0.199219 136.477L0.360355 138.479L44.5943 134.92L44.4332 132.918Z" fill="#E0E0E0"/>
<path d="M81.82 138.606L8.89844 144.473L9.05957 146.475L81.9812 140.608L81.82 138.606Z" fill="#E0E0E0"/>
<path d="M32.1704 152.165L9.66016 153.977L9.82129 155.979L32.3315 154.168L32.1704 152.165Z" fill="#E0E0E0"/>
<path d="M1.35716 149.178L0.898438 143.586L6.49486 143.127L6.95359 148.719L1.35716 149.178ZM1.40304 144.008L1.77919 148.687L6.45358 148.333L6.07742 143.654L1.40304 144.008Z" fill="#E0E0E0"/>
<path d="M2.12279 158.701L1.66406 153.109L7.26049 152.65L7.71921 158.242L2.12279 158.701ZM2.16866 153.531L2.54481 158.21L7.22379 157.834L6.84764 153.155L2.16866 153.531Z" fill="#E0E0E0"/>
<path d="M23.6939 36.6124L23.8636 38.7225L16.1112 39.3464L15.3359 29.7132L22.9049 29.0664L23.0746 31.1765L18.2075 31.5664L18.336 33.1949L22.6296 32.8509L22.7902 34.8922L18.5011 35.2362L18.6433 37.0023L23.6939 36.6124Z" fill="#4D44B5"/>
<path d="M31.3954 38.1173L29.1523 35.2824L27.4229 38.4338L24.3036 38.6861L27.4275 33.5209L23.6797 29.0162L26.7531 28.7685L28.9091 31.4016L30.5881 28.4612L33.5422 28.2227L30.5514 33.1585L34.5377 37.865L31.3954 38.1173Z" fill="#4D44B5"/>
<path d="M41.2584 35.4327L37.1758 35.763L36.5657 37.6988L33.7812 37.9236L37.2675 27.9234L39.9419 27.6895L44.9879 37.0015L42.1438 37.2309L41.2584 35.4327ZM40.2951 33.4831L38.8043 30.4923L37.8134 33.7033L40.2951 33.4831Z" fill="#4D44B5"/>
<path d="M54.4949 36.2584L54.0362 31.1436L51.9123 35.4877L50.6967 35.584L47.903 31.7583L48.3021 36.7354L45.7792 36.9373L45.0039 27.3041L47.2517 27.1206L51.0912 32.4188L53.9536 26.5839L56.2059 26.4004L57.0087 36.0336L54.4949 36.2584Z" fill="#4D44B5"/>
<path d="M116.616 34.2852C116.613 34.3426 116.604 34.3996 116.588 34.4549C116.561 34.5833 116.529 34.7439 116.483 34.9411C116.433 35.1968 116.368 35.4495 116.29 35.698C116.203 35.9916 116.121 36.3265 115.988 36.6889L115.786 37.2577C115.717 37.4549 115.63 37.6522 115.547 37.8632C115.382 38.2852 115.171 38.721 114.955 39.1797C114.463 40.1652 113.9 41.1141 113.272 42.0192C112.629 42.9148 111.924 43.764 111.162 44.5606C110.799 44.9184 110.465 45.2624 110.12 45.556C109.951 45.7074 109.79 45.8588 109.63 46.0147L109.171 46.3909C108.877 46.6386 108.588 46.8496 108.341 47.0101C108.133 47.1746 107.918 47.3278 107.694 47.4689L107.276 47.7303C107.229 47.7638 107.179 47.7915 107.125 47.8129C107.125 47.8129 107.166 47.7716 107.258 47.7074L107.666 47.423C107.841 47.3037 108.056 47.1569 108.295 46.9643C108.533 46.7716 108.822 46.5835 109.111 46.3312L109.57 45.9505C109.726 45.8129 109.882 45.6615 110.052 45.5147C110.391 45.2165 110.721 44.8725 111.079 44.5147C112.597 42.9289 113.868 41.1244 114.85 39.1614C115.07 38.7027 115.281 38.2761 115.446 37.8586C115.533 37.6522 115.625 37.4549 115.694 37.2577C115.763 37.0604 115.836 36.8769 115.9 36.698C116.043 36.3402 116.134 36.0054 116.226 35.7164C116.318 35.4274 116.391 35.1751 116.442 34.9687C116.492 34.7622 116.538 34.6154 116.57 34.5099C116.576 34.4333 116.591 34.3578 116.616 34.2852Z" fill="#263238"/>
<path d="M116.442 39.8732C116.42 39.9689 116.386 40.0613 116.341 40.1484C116.267 40.3228 116.148 40.5751 115.997 40.8732C115.592 41.6611 115.121 42.4131 114.589 43.121C114.059 43.8349 113.471 44.5038 112.832 45.121C112.584 45.3504 112.373 45.5339 112.231 45.6531C112.159 45.7214 112.079 45.78 111.992 45.8274C111.992 45.8274 112.29 45.5293 112.763 45.0476C113.377 44.4204 113.95 43.7538 114.478 43.0522C115.002 42.3465 115.48 41.608 115.91 40.8411C116.24 40.2402 116.419 39.864 116.442 39.8732Z" fill="#263238"/>
<path d="M78.3992 9.02639L76.3711 10.4961L78.6645 13.6608L80.6926 12.1911L78.3992 9.02639Z" fill="#263238"/>
<path d="M80.1749 9.18829L76.0005 12.2159L73.5234 8.80297C74.6241 7.4419 76.0662 6.39717 77.7024 5.77539L80.1749 9.18829Z" fill="#4D44B5"/>
<path d="M76.7 11.7118C76.6312 11.7576 75.9982 11.0053 75.2826 10.0283C74.567 9.05117 74.0348 8.19336 74.1036 8.19336C74.1725 8.19336 74.8055 8.88145 75.5211 9.84935C76.2367 10.8173 76.7688 11.6613 76.7 11.7118Z" fill="#263238"/>
<path d="M77.496 11.1345C77.4272 11.1803 76.8033 10.3868 76.0969 9.36839C75.6432 8.76862 75.2484 8.12649 74.918 7.45092C75.0005 7.3867 75.6382 8.17571 76.3446 9.19407C77.051 10.2124 77.5556 11.0886 77.496 11.1345Z" fill="#263238"/>
<path d="M78.5585 10.3628C78.4897 10.4133 77.8612 9.60592 77.1548 8.57379C76.6931 7.96889 76.2993 7.31511 75.9805 6.62421C76.0585 6.56458 76.6961 7.36734 77.4025 8.40406C78.1089 9.44077 78.6273 10.3169 78.5585 10.3628Z" fill="#263238"/>
<path d="M79.5241 9.64411C79.4553 9.69457 78.8269 8.9285 78.1159 7.94224C77.4048 6.95599 76.8865 6.10735 76.9507 6.06606C77.0149 6.02478 77.648 6.78167 78.359 7.76793C79.07 8.75418 79.5884 9.59824 79.5241 9.64411Z" fill="#263238"/>
<path d="M111.757 14.091L110.184 12.1426L107.143 14.5985L108.717 16.5468L111.757 14.091Z" fill="#263238"/>
<path d="M111.7 15.8677L108.457 11.8539L111.737 9.20703C113.156 10.2321 114.276 11.6179 114.98 13.2209L111.7 15.8677Z" fill="#4D44B5"/>
<path d="M108.999 12.5524C108.948 12.4881 109.668 11.8138 110.604 11.0477C111.54 10.2817 112.347 9.70827 112.402 9.77249C112.457 9.83671 111.733 10.511 110.797 11.2771C109.861 12.0432 109.054 12.5936 108.999 12.5524Z" fill="#263238"/>
<path d="M109.616 13.2941C109.565 13.2253 110.327 12.5648 111.308 11.8079C111.878 11.3221 112.492 10.892 113.143 10.5234C113.217 10.606 112.46 11.2849 111.478 12.0418C110.496 12.7987 109.666 13.3583 109.616 13.2941Z" fill="#263238"/>
<path d="M110.436 14.3137C110.385 14.2449 111.156 13.5797 112.156 12.8182C112.735 12.3264 113.366 11.8988 114.037 11.543C114.101 11.6164 113.335 12.2953 112.335 13.0568C111.335 13.8182 110.486 14.3871 110.436 14.3137Z" fill="#263238"/>
<path d="M111.214 15.2404C111.159 15.1762 111.888 14.5065 112.838 13.745C113.787 12.9835 114.599 12.4193 114.65 12.4881C114.7 12.5569 113.975 13.2175 113.026 13.979C112.076 14.7404 111.264 15.3047 111.214 15.2404Z" fill="#263238"/>
<path d="M96.5631 4.14719L93.6055 3.90039L93.2206 8.51288L96.1782 8.75968L96.5631 4.14719Z" fill="#263238"/>
<path d="M98.0326 5.67068L91.9453 5.1615L92.3582 0.193521C94.396 -0.182593 96.4973 -0.00840998 98.4454 0.698116L98.0326 5.67068Z" fill="#4D44B5"/>
<path d="M98.5184 0.70636C98.5551 0.765994 97.1698 1.38527 95.3578 1.23389C93.5459 1.08251 92.2752 0.27516 92.3257 0.220113C92.3761 0.165066 93.6422 0.811867 95.3808 0.935722C97.1193 1.05958 98.4909 0.62379 98.5184 0.70636Z" fill="#263238"/>
<path d="M93.9562 5.29872C93.8736 5.29872 93.8874 4.33081 93.9883 3.15648C94.0892 1.98215 94.2314 1.028 94.314 1.03717C94.3965 1.04635 94.3828 2.00049 94.2865 3.17941C94.1901 4.35833 94.0387 5.3033 93.9562 5.29872Z" fill="#263238"/>
<path d="M95.1124 5.42253C95.0298 5.42253 95.0436 4.45463 95.1445 3.27112C95.2455 2.08761 95.3877 1.13347 95.4702 1.14264C95.5528 1.15182 95.539 2.11055 95.4427 3.29406C95.3464 4.47756 95.195 5.43171 95.1124 5.42253Z" fill="#263238"/>
<path d="M96.2726 5.50066C96.19 5.50066 96.2038 4.52817 96.3047 3.34925C96.4056 2.17033 96.5478 1.21159 96.6304 1.22077C96.7129 1.22994 96.6992 2.18868 96.6029 3.37218C96.5065 4.55569 96.3643 5.50983 96.2726 5.50066Z" fill="#263238"/>
<path d="M97.2392 5.58292C97.1566 5.58292 97.1749 4.53244 97.2804 3.2526C97.3859 1.97276 97.5419 0.958984 97.6245 0.958984C97.707 0.958984 97.6841 2.00487 97.5786 3.28471C97.4731 4.56455 97.3171 5.58751 97.2392 5.58292Z" fill="#263238"/>
<path d="M92.8638 5.21182C92.7812 5.21182 92.7996 4.16135 92.9097 2.88151C93.0198 1.60167 93.1666 0.587891 93.2491 0.587891C93.3317 0.587891 93.3134 1.63378 93.2079 2.91362C93.1023 4.19346 92.9464 5.21182 92.8638 5.21182Z" fill="#263238"/>
<path d="M114.173 30.474C113.815 34.7209 112.206 38.7664 109.55 42.0996C106.894 45.4327 103.31 47.9039 99.2502 49.2009C95.1904 50.4979 90.8372 50.5626 86.7407 49.3868C82.6441 48.2109 78.988 45.8473 76.2341 42.5946C73.4803 39.3418 71.7522 35.3458 71.2683 31.1114C70.7844 26.877 71.5664 22.5942 73.5154 18.804C75.4645 15.0138 78.4931 11.8863 82.2188 9.81653C85.9444 7.7468 90.1999 6.82772 94.4477 7.17538C97.2739 7.4067 100.027 8.19327 102.548 9.49004C105.07 10.7868 107.311 12.5683 109.144 14.7325C110.976 16.8967 112.363 19.4011 113.226 22.1023C114.089 24.8034 114.411 27.6483 114.173 30.474Z" fill="#4D44B5"/>
<path d="M105.494 41.3216C112.572 34.2436 112.572 22.7681 105.494 15.6901C98.4161 8.6122 86.9405 8.61221 79.8626 15.6901C72.7847 22.7681 72.7847 34.2437 79.8626 41.3216C86.9405 48.3995 98.4161 48.3995 105.494 41.3216Z" fill="white"/>
<path d="M110.741 30.015C110.741 30.015 110.741 29.9141 110.741 29.7169C110.741 29.5196 110.741 29.226 110.741 28.8591C110.741 28.6664 110.741 28.4554 110.741 28.2214C110.741 27.9875 110.704 27.7352 110.686 27.4599C110.658 26.824 110.585 26.1908 110.466 25.5654C110.184 23.8438 109.643 22.1749 108.86 20.6158C107.733 18.3275 106.135 16.3035 104.17 14.6765C102.205 13.0495 99.9191 11.8563 97.4608 11.1753C96.7249 10.9696 95.9753 10.8163 95.2177 10.7165C94.8324 10.6707 94.447 10.5973 94.0525 10.5743L92.8598 10.5376C92.6626 10.5376 92.4607 10.5376 92.2589 10.5376L91.6534 10.5789C91.2497 10.6156 90.8369 10.6248 90.4286 10.6753C89.6035 10.79 88.7868 10.9586 87.9836 11.1798C87.158 11.4001 86.3487 11.6775 85.5616 12.0101C85.1625 12.1845 84.7817 12.3955 84.3872 12.5835C83.9916 12.7753 83.61 12.9945 83.245 13.2395C82.4867 13.711 81.7603 14.232 81.0707 14.7992C80.383 15.3974 79.7377 16.0427 79.1394 16.7304C77.9081 18.1311 76.9092 19.7201 76.1807 21.4369C75.4452 23.2153 74.9813 25.0941 74.8045 27.0104C74.67 28.9324 74.8247 30.8637 75.2632 32.7399C75.6989 34.5614 76.4254 36.3009 77.4146 37.8913C77.8901 38.6672 78.4189 39.409 78.9972 40.1115C79.5824 40.7861 80.2123 41.4206 80.8826 42.0107C81.2023 42.3141 81.5442 42.5931 81.9055 42.8455C82.2587 43.1024 82.6028 43.3685 82.9652 43.607C83.6863 44.065 84.4372 44.4742 85.2129 44.8318C85.9699 45.1892 86.75 45.4957 87.5478 45.7493C87.9423 45.8685 88.3414 45.9465 88.7359 46.0474L89.3277 46.1896C89.5249 46.2309 89.7222 46.2493 89.9194 46.2768L91.1029 46.4373C91.4974 46.4786 91.8873 46.474 92.2773 46.4924C93.0426 46.5189 93.8088 46.4944 94.5709 46.419C97.1153 46.1598 99.5757 45.3638 101.79 44.0836C104.004 42.8034 105.921 41.0681 107.415 38.9923C108.446 37.5831 109.256 36.0256 109.819 34.3729C110.041 33.775 110.218 33.1618 110.351 32.538C110.415 32.2674 110.489 32.0197 110.53 31.7903C110.571 31.5609 110.594 31.3316 110.622 31.1664C110.677 30.7995 110.723 30.515 110.75 30.3132C110.778 30.1114 110.805 30.0242 110.805 30.0242C110.81 30.1205 110.81 30.2169 110.805 30.3132C110.782 30.5196 110.75 30.804 110.704 31.171C110.681 31.3637 110.654 31.5747 110.626 31.8041C110.599 32.0334 110.521 32.2628 110.461 32.5564C110.335 33.1794 110.165 33.7926 109.952 34.3913C109.404 36.062 108.603 37.6385 107.576 39.0657C106.07 41.1887 104.126 42.9641 101.875 44.2722C99.6247 45.5802 97.1198 46.3905 94.5296 46.6484C93.7585 46.7268 92.9831 46.7544 92.2085 46.7309C91.8185 46.7309 91.4195 46.7309 91.0204 46.6805L89.8231 46.5199C89.6213 46.4878 89.4148 46.474 89.2176 46.4328L88.6166 46.286C88.2176 46.1896 87.8093 46.1071 87.4102 45.9878C85.77 45.4778 84.2032 44.7561 82.7496 43.841C82.3826 43.6024 82.034 43.3318 81.6716 43.0749C81.3065 42.8167 80.9601 42.5331 80.6349 42.2263C79.9528 41.6283 79.3121 40.9846 78.7174 40.2996C78.1288 39.5846 77.5893 38.8306 77.1027 38.0427C76.0965 36.4271 75.3577 34.6597 74.9146 32.8087C74.4711 30.9006 74.3165 28.9368 74.4559 26.9829C74.6434 25.0339 75.1227 23.1241 75.8779 21.3176C76.63 19.5649 77.6618 17.9459 78.933 16.524C79.542 15.827 80.198 15.1726 80.8963 14.5652C81.598 13.9899 82.3366 13.4612 83.1074 12.9826C83.4802 12.736 83.8695 12.5153 84.2725 12.3221C84.6716 12.1248 85.0615 11.9138 85.4606 11.7395C87.0433 11.0822 88.7036 10.6305 90.4011 10.3954C90.8139 10.345 91.2314 10.3312 91.6442 10.2991L92.236 10.2578C92.4378 10.2578 92.6397 10.2578 92.8461 10.2578L94.0525 10.2991C94.4516 10.3266 94.8415 10.4 95.236 10.4459C96.0103 10.5453 96.7767 10.6986 97.5297 10.9046C100.021 11.602 102.336 12.8217 104.319 14.4826C106.303 16.1435 107.91 18.2077 109.034 20.5378C109.803 22.1188 110.326 23.8081 110.585 25.5471C110.697 26.1775 110.763 26.8153 110.782 27.4554C110.782 27.7306 110.819 27.9875 110.819 28.2214C110.819 28.4554 110.819 28.6802 110.791 28.8591C110.791 29.226 110.759 29.515 110.75 29.7215C110.741 29.9279 110.741 30.015 110.741 30.015Z" fill="#263238"/>
<path d="M106.356 28.8865C104.938 28.7901 103.796 28.6296 103.801 28.5241C103.805 28.4186 104.957 28.3589 106.379 28.3956C107.801 28.4323 108.939 28.5929 108.929 28.758C108.92 28.9232 107.769 28.9828 106.356 28.8865Z" fill="#263238"/>
<path d="M101.921 37.9564C100.981 36.8921 100.283 35.9747 100.361 35.9013C100.439 35.8279 101.279 36.6031 102.283 37.6261C103.288 38.6491 103.962 39.5665 103.839 39.6812C103.715 39.7959 102.857 39.0206 101.921 37.9564Z" fill="#263238"/>
<path d="M92.3805 41.2856C92.4631 39.8727 92.6145 38.7259 92.72 38.7305C92.8255 38.7351 92.8943 39.8865 92.8759 41.3039C92.8576 42.7214 92.7062 43.8728 92.5365 43.8636C92.3668 43.8544 92.3025 42.703 92.3805 41.2856Z" fill="#263238"/>
<path d="M83.268 36.9511C84.3185 36.0016 85.2313 35.2951 85.3047 35.3685C85.3781 35.4419 84.6166 36.3135 83.6028 37.3089C82.5891 38.3044 81.6808 39.0154 81.5661 38.8915C81.4514 38.7677 82.2129 37.9007 83.268 36.9511Z" fill="#263238"/>
<path d="M79.8515 27.456C81.2689 27.5202 82.4111 27.6578 82.4111 27.7633C82.4111 27.8688 81.2552 27.9514 79.8377 27.9514C78.4202 27.9514 77.2734 27.8092 77.2734 27.6395C77.2734 27.4697 78.4157 27.3917 79.8515 27.456Z" fill="#263238"/>
<path d="M84.0654 18.2901C85.0287 19.3314 85.7443 20.2397 85.6709 20.3085C85.5975 20.3773 84.7168 19.6296 83.7122 18.6295C82.7076 17.6295 81.9874 16.7258 82.1067 16.6112C82.2259 16.4965 83.1067 17.2488 84.0654 18.2901Z" fill="#263238"/>
<path d="M93.5238 14.7486C93.4733 16.166 93.3449 17.3174 93.2394 17.3128C93.1339 17.3082 93.0421 16.1614 93.0284 14.744C93.0146 13.3265 93.143 12.1751 93.3128 12.1797C93.4825 12.1843 93.5742 13.3311 93.5238 14.7486Z" fill="#263238"/>
<path d="M102.736 18.8855C101.704 19.858 100.805 20.5828 100.732 20.5094C100.658 20.436 101.41 19.5507 102.392 18.5139C103.374 17.4772 104.277 16.7708 104.392 16.8901C104.507 17.0093 103.768 17.913 102.736 18.8855Z" fill="#263238"/>
<path d="M98.5155 19.3262C98.3797 21.9838 98.0732 24.63 97.5981 27.2483C97.4658 28.1999 97.1953 29.1272 96.7953 30.0007C96.3859 30.884 95.6489 31.5733 94.7402 31.9227C94.2853 32.0831 93.7919 32.0986 93.3278 31.9672C92.8637 31.8358 92.4517 31.5638 92.1484 31.1888L98.5155 19.3262Z" fill="#E0E0E0"/>
<path d="M92.4102 27.0523L99.8919 16.543L94.8919 28.69L92.8184 29.1303L92.4102 27.0523Z" fill="#4D44B5"/>
<g opacity="0.4">
<path d="M99.8934 16.543L94.0859 27.4331L94.8933 28.69L99.8934 16.543Z" fill="black"/>
</g>
<path d="M94.93 29.3048C94.8941 29.7222 94.7354 30.1196 94.4737 30.4467C94.2121 30.7739 93.8594 31.0162 93.4602 31.143C93.061 31.2699 92.6331 31.2755 92.2306 31.1593C91.8281 31.0431 91.4691 30.8103 91.199 30.4901C90.9288 30.17 90.7595 29.777 90.7126 29.3607C90.6656 28.9444 90.7431 28.5236 90.9352 28.1513C91.1273 27.7791 91.4254 27.4721 91.7919 27.2692C92.1584 27.0662 92.5768 26.9765 92.9942 27.0112C93.2721 27.0343 93.5426 27.112 93.7904 27.2399C94.0382 27.3677 94.2583 27.5432 94.4381 27.7563C94.6179 27.9694 94.7539 28.2158 94.8384 28.4815C94.9228 28.7473 94.9539 29.027 94.93 29.3048Z" fill="#FAFAFA"/>
<path d="M94.9281 29.305C94.9006 29.305 94.9282 29.117 94.8502 28.7959C94.7537 28.3453 94.5139 27.9382 94.1667 27.6353C93.9136 27.4178 93.611 27.2659 93.2854 27.1931C92.9597 27.1203 92.6212 27.1288 92.2997 27.2178C92.0286 27.2986 91.7778 27.4362 91.564 27.6215C91.3503 27.8068 91.1784 28.0355 91.06 28.2924C90.9416 28.5493 90.8793 28.8285 90.8772 29.1114C90.8752 29.3943 90.9334 29.6743 91.0481 29.9329C91.1628 30.1915 91.3312 30.4227 91.5423 30.6111C91.7533 30.7995 92.0021 30.9407 92.272 31.0254C92.5419 31.1101 92.8267 31.1363 93.1076 31.1022C93.3884 31.0682 93.6588 30.9747 93.9006 30.828C94.2929 30.586 94.5969 30.2241 94.7676 29.7959C94.8869 29.4931 94.9006 29.3004 94.9281 29.305C94.9561 29.4823 94.9387 29.6638 94.8777 29.8326C94.7374 30.3134 94.4299 30.7282 94.0107 31.0023C93.699 31.2116 93.3388 31.3375 92.9646 31.368C92.5904 31.3985 92.2146 31.3326 91.873 31.1766C91.4488 30.9859 91.0942 30.6683 90.8581 30.2676C90.6219 29.8668 90.5159 29.4027 90.5547 28.9392C90.5934 28.4757 90.775 28.0356 91.0744 27.6797C91.3738 27.3237 91.7763 27.0694 92.2263 26.9518C92.5897 26.8563 92.9714 26.8546 93.3356 26.9469C93.6999 27.0391 94.0347 27.2223 94.3089 27.4793C94.681 27.8167 94.9216 28.275 94.9878 28.7729C95.0142 28.9525 94.9937 29.1358 94.9281 29.305Z" fill="#263238"/>
<path d="M94.3929 29.2578C94.3674 29.5688 94.2502 29.8653 94.0563 30.1097C93.8623 30.3541 93.6002 30.5356 93.3031 30.6311C93.0061 30.7266 92.6874 30.7319 92.3873 30.6463C92.0872 30.5606 91.8193 30.388 91.6173 30.1501C91.4153 29.9123 91.2884 29.6198 91.2526 29.3099C91.2168 28.9999 91.2737 28.6862 91.4161 28.4086C91.5585 28.1309 91.7801 27.9017 92.0527 27.75C92.3254 27.5982 92.6369 27.5307 92.9479 27.556C93.1546 27.5727 93.3559 27.6301 93.5404 27.7247C93.7249 27.8193 93.8889 27.9494 94.0231 28.1075C94.1573 28.2655 94.259 28.4485 94.3225 28.6458C94.3859 28.8432 94.4099 29.0512 94.3929 29.2578Z" fill="#455A64"/>
<path d="M71.9123 39.226C71.8739 39.1893 71.8386 39.1494 71.8068 39.1068L71.527 38.749C71.3773 38.5641 71.2379 38.3712 71.1095 38.171C70.9536 37.937 70.7701 37.6755 70.6003 37.3682C70.5086 37.2168 70.4169 37.0563 70.3205 36.9095C70.2242 36.7627 70.1416 36.5608 70.0499 36.3728C69.8526 36.0104 69.6875 35.5975 69.504 35.1709C68.7487 33.2902 68.3385 31.2888 68.293 29.2626C68.293 28.8038 68.293 28.3451 68.3251 27.9414C68.3251 27.735 68.3251 27.5332 68.3664 27.3405C68.4077 27.1478 68.4122 26.9689 68.4352 26.7946C68.4673 26.4414 68.5407 26.1295 68.5866 25.8542C68.6324 25.579 68.6921 25.3451 68.7425 25.157C68.793 24.9689 68.8297 24.8359 68.8618 24.6983C68.8722 24.6459 68.8892 24.595 68.9122 24.5469C68.9098 24.5995 68.9021 24.6517 68.8893 24.7028C68.8664 24.8221 68.8343 24.9643 68.7976 25.1616C68.7407 25.3914 68.6963 25.6242 68.6645 25.8588C68.6232 26.1341 68.559 26.446 68.5315 26.7763C68.5315 26.9506 68.4948 27.1341 68.4719 27.3222C68.4489 27.5102 68.4719 27.7121 68.4398 27.9185C68.4077 28.3268 68.4398 28.7671 68.4398 29.2304C68.4947 31.2413 68.9015 33.227 69.6416 35.0975C69.8205 35.5195 69.9811 35.9324 70.1691 36.2948C70.2609 36.4783 70.3435 36.6618 70.4352 36.8315L70.7013 37.2902C70.8664 37.6021 71.0453 37.8636 71.1921 38.0976C71.3389 38.3315 71.4765 38.5563 71.5912 38.6893L71.8481 39.0609C71.8786 39.1119 71.9004 39.1678 71.9123 39.226Z" fill="#263238"/>
<path d="M67.2674 35.1206C67.0224 34.421 66.8202 33.7071 66.6618 32.9829C66.4644 32.2683 66.3112 31.5421 66.2031 30.8086C66.451 31.5077 66.6548 32.2216 66.8132 32.9462C67.0132 33.66 67.165 34.3864 67.2674 35.1206Z" fill="#263238"/>
</svg>
