<svg width="32" height="32" viewBox="0 0 32 32" fill="none" xmlns="http://www.w3.org/2000/svg">
<path d="M27.6 25.8L22 20.2C23.3 18.5 24.1 16.4 24.1 14.1C24.1 8.59998 19.6 4.09998 14.1 4.09998C8.6 4.09998 4 8.59998 4 14.1C4 19.6 8.5 24.1 14 24.1C16.3 24.1 18.5 23.3 20.2 21.9L25.8 27.5C26 27.7 26.4 27.9 26.7 27.9C27 27.9 27.3 27.8 27.6 27.5C28.1 27.1 28.1 26.3 27.6 25.8ZM6.5 14.1C6.5 9.99998 9.9 6.59998 14 6.59998C18.1 6.59998 21.5 9.99998 21.5 14.1C21.5 18.2 18.1 21.6 14 21.6C9.9 21.6 6.5 18.3 6.5 14.1Z" fill="#4D44B5"/>
</svg>
