<svg width="46" height="46" viewBox="0 0 46 46" fill="none" xmlns="http://www.w3.org/2000/svg">
<g clip-path="url(#clip0_735_5701)">
<path d="M44.7501 0.503469C45.6576 1.13237 46.1337 2.21948 45.963 3.30659L40.213 40.6816C40.0783 41.5531 39.5482 42.3167 38.7755 42.748C38.0029 43.1792 37.0775 43.2332 36.2599 42.8917L25.5146 38.4265L19.3603 45.0839C18.5607 45.9554 17.3029 46.2429 16.1978 45.8117C15.0927 45.3804 14.374 44.3113 14.374 43.1253V35.6144C14.374 35.255 14.5087 34.9136 14.7513 34.6531L29.8091 18.2207C30.3302 17.6546 30.3123 16.7832 29.7732 16.2441C29.2341 15.705 28.3626 15.6691 27.7966 16.1812L9.52242 32.416L1.58922 28.4449C0.636873 27.9687 0.0259358 27.0164 -0.00101735 25.9562C-0.0279705 24.896 0.529061 23.9078 1.44547 23.3777L41.6955 0.377687C42.6568 -0.17036 43.8427 -0.116453 44.7501 0.503469Z" fill="#4D44B5"/>
</g>
<defs>
<clipPath id="clip0_735_5701">
<rect width="46" height="46" fill="white"/>
</clipPath>
</defs>
</svg>
