<svg width="30" height="30" viewBox="0 0 40 40" fill="none" xmlns="http://www.w3.org/2000/svg">
<path d="M26.1758 10.8749C26.1758 11.2187 26.1524 11.5624 26.1094 11.9023C26.1289 11.7656 26.1485 11.6249 26.1641 11.4882C26.0703 12.1679 25.8906 12.8281 25.6289 13.4609C25.6797 13.3359 25.7344 13.2109 25.7852 13.0859C25.5235 13.7031 25.1875 14.2812 24.7774 14.8124C24.8594 14.707 24.9414 14.6015 25.0235 14.496C24.6172 15.0195 24.1446 15.4921 23.6211 15.8984C23.7266 15.8163 23.832 15.7343 23.9375 15.6523C23.4063 16.0585 22.8281 16.3984 22.211 16.6601C22.336 16.6093 22.461 16.5546 22.586 16.5038C21.9531 16.7656 21.293 16.9452 20.6133 17.039C20.75 17.0195 20.8906 16.9999 21.0274 16.9843C20.3438 17.0741 19.6563 17.0741 18.9727 16.9843C19.1094 17.0038 19.25 17.0234 19.3867 17.039C18.707 16.9452 18.0469 16.7656 17.4141 16.5038C17.5391 16.5546 17.6641 16.6093 17.7891 16.6601C17.1719 16.3984 16.5938 16.0624 16.0625 15.6523C16.168 15.7343 16.2734 15.8163 16.3789 15.8984C15.8555 15.4921 15.3828 15.0195 14.9766 14.496C15.0586 14.6015 15.1406 14.707 15.2227 14.8124C14.8164 14.2812 14.4766 13.7031 14.2149 13.0859C14.2656 13.2109 14.3203 13.3359 14.3711 13.4609C14.1094 12.8281 13.9297 12.1679 13.8359 11.4882C13.8555 11.6249 13.875 11.7656 13.8906 11.9023C13.8008 11.2187 13.8008 10.5312 13.8906 9.84759C13.8711 9.98431 13.8516 10.1249 13.8359 10.2617C13.9297 9.58196 14.1094 8.92181 14.3711 8.28899C14.3203 8.41399 14.2656 8.53899 14.2149 8.66399C14.4766 8.04681 14.8125 7.46868 15.2227 6.93743C15.1406 7.0429 15.0586 7.14837 14.9766 7.25384C15.3828 6.7304 15.8555 6.25774 16.3789 5.85149C16.2734 5.93352 16.168 6.01556 16.0625 6.09759C16.5938 5.69134 17.1719 5.35149 17.7891 5.08977C17.6641 5.14056 17.5391 5.19524 17.4141 5.24602C18.0469 4.98431 18.707 4.80462 19.3867 4.71087C19.25 4.7304 19.1094 4.74993 18.9727 4.76556C19.6563 4.67571 20.3438 4.67571 21.0274 4.76556C20.8906 4.74602 20.75 4.72649 20.6133 4.71087C21.293 4.80462 21.9531 4.98431 22.586 5.24602C22.461 5.19524 22.336 5.14056 22.211 5.08977C22.8281 5.35149 23.4063 5.68743 23.9375 6.09759C23.832 6.01556 23.7266 5.93352 23.6211 5.85149C24.1446 6.25774 24.6172 6.7304 25.0235 7.25384C24.9414 7.14837 24.8594 7.0429 24.7774 6.93743C25.1836 7.46868 25.5235 8.04681 25.7852 8.66399C25.7344 8.53899 25.6797 8.41399 25.6289 8.28899C25.8906 8.92181 26.0703 9.58196 26.1641 10.2617C26.1445 10.1249 26.125 9.98431 26.1094 9.84759C26.1524 10.1874 26.1719 10.5312 26.1758 10.8749C26.1797 11.6913 26.8906 12.4765 27.7383 12.4374C28.5821 12.3984 29.3047 11.7499 29.3008 10.8749C29.293 9.00384 28.7305 7.08977 27.6289 5.56634C27.3321 5.15618 27.0156 4.75384 26.6641 4.39056C26.3086 4.02337 25.918 3.70696 25.5117 3.39837C24.7735 2.83587 23.9492 2.42181 23.0742 2.10149C19.5469 0.808525 15.293 1.96087 12.9063 4.86712C12.5781 5.26556 12.2656 5.67962 12 6.12493C11.7344 6.56634 11.5273 7.03509 11.3359 7.51165C10.9766 8.39446 10.793 9.33196 10.7188 10.2812C10.5742 12.1406 11.0586 14.082 12.0273 15.6757C12.9609 17.2148 14.3711 18.5351 16.0195 19.2812C16.5039 19.4999 17 19.7031 17.5156 19.8476C18.0274 19.9882 18.5469 20.0663 19.0742 20.1288C20.0352 20.2421 21.0156 20.164 21.9649 19.9726C25.5703 19.2382 28.5899 16.1327 29.1485 12.4882C29.2305 11.957 29.293 11.4257 29.293 10.8867C29.2969 10.0702 28.5703 9.28509 27.7305 9.32415C26.8867 9.35149 26.1758 9.99993 26.1758 10.8749ZM31.3594 35.3007C30.5938 35.3007 29.8281 35.3007 29.0625 35.3007C27.2383 35.3007 25.418 35.3007 23.5938 35.3007C21.3985 35.3007 19.2031 35.3007 17.0039 35.3007C15.1094 35.3007 13.2149 35.3007 11.3164 35.3007C10.4297 35.3007 9.54297 35.3085 8.65625 35.3007C8.5586 35.3007 8.46094 35.2929 8.36719 35.2812C8.50391 35.3007 8.64453 35.3202 8.78125 35.3359C8.625 35.3124 8.47657 35.2695 8.33203 35.2109C8.45703 35.2617 8.58203 35.3163 8.70703 35.3671C8.55078 35.3007 8.40625 35.2148 8.26953 35.1093C8.375 35.1913 8.48047 35.2734 8.58594 35.3554C8.46875 35.2577 8.35938 35.1523 8.26563 35.0351C8.34766 35.1406 8.42969 35.246 8.51172 35.3515C8.40625 35.2148 8.32422 35.0702 8.25391 34.914C8.30469 35.039 8.35938 35.164 8.41016 35.289C8.35157 35.1445 8.3125 34.9921 8.28516 34.8398C8.30469 34.9765 8.32422 35.1171 8.33985 35.2538C8.27735 34.7812 8.32031 34.2812 8.32031 33.8046C8.32031 33.246 8.32031 32.6913 8.32031 32.1327C8.32031 31.7148 8.34375 31.3007 8.39844 30.8867C8.37891 31.0234 8.35938 31.164 8.34375 31.3007C8.45313 30.4999 8.66407 29.7148 8.98047 28.9687C8.92969 29.0937 8.875 29.2187 8.82422 29.3437C9.12891 28.6327 9.51954 27.9648 9.99219 27.3515C9.91016 27.457 9.82813 27.5624 9.7461 27.6679C10.2188 27.0624 10.7617 26.5156 11.3711 26.0429C11.2656 26.1249 11.1602 26.207 11.0547 26.289C11.668 25.8163 12.3359 25.4257 13.0469 25.121C12.9219 25.1718 12.7969 25.2265 12.6719 25.2773C13.418 24.9648 14.1992 24.7499 15.0039 24.6406C14.8672 24.6601 14.7266 24.6796 14.5899 24.6952C15.168 24.621 15.7422 24.6171 16.3242 24.6171C17.0391 24.6171 17.7539 24.6171 18.4688 24.6171C20.1367 24.6171 21.8047 24.6171 23.4727 24.6171C24.1172 24.6171 24.7578 24.6132 25.4024 24.6952C25.2656 24.6757 25.125 24.6562 24.9883 24.6406C25.7891 24.7499 26.5742 24.9609 27.3203 25.2773C27.1953 25.2265 27.0703 25.1718 26.9453 25.121C27.6563 25.4257 28.3242 25.8163 28.9375 26.289C28.8321 26.207 28.7266 26.1249 28.6211 26.0429C29.2266 26.5156 29.7735 27.0585 30.2461 27.6679C30.1641 27.5624 30.0821 27.457 30 27.3515C30.4727 27.9648 30.8633 28.6327 31.168 29.3437C31.1172 29.2187 31.0625 29.0937 31.0117 28.9687C31.3242 29.7148 31.5391 30.496 31.6485 31.3007C31.6289 31.164 31.6094 31.0234 31.5938 30.8867C31.668 31.4765 31.6719 32.0624 31.6719 32.6562C31.6719 33.3007 31.6719 33.9452 31.6719 34.5898C31.6719 34.8124 31.6797 35.0351 31.6524 35.2538C31.6719 35.1171 31.6914 34.9765 31.7071 34.8398C31.6836 34.996 31.6406 35.1445 31.5821 35.289C31.6328 35.164 31.6875 35.039 31.7383 34.914C31.6719 35.0702 31.586 35.2148 31.4805 35.3515C31.5625 35.246 31.6446 35.1406 31.7266 35.0351C31.6289 35.1523 31.5235 35.2616 31.4063 35.3554C31.5117 35.2734 31.6172 35.1913 31.7227 35.1093C31.586 35.2148 31.4414 35.2968 31.2852 35.3671C31.4102 35.3163 31.5352 35.2617 31.6602 35.2109C31.5156 35.2695 31.3633 35.3085 31.211 35.3359C31.3477 35.3163 31.4883 35.2968 31.625 35.2812C31.5391 35.2929 31.4492 35.2968 31.3594 35.3007C30.9571 35.3046 30.543 35.4726 30.2539 35.7577C29.9844 36.0273 29.7774 36.4726 29.7969 36.8632C29.836 37.6992 30.4844 38.4374 31.3594 38.4257C32.8789 38.4023 34.2149 37.4101 34.6602 35.9531C34.836 35.3749 34.7969 34.7538 34.7969 34.1601C34.7969 32.8007 34.8399 31.4531 34.6055 30.1054C34.2617 28.1327 33.2696 26.2773 31.9102 24.8202C30.5508 23.3632 28.7227 22.2929 26.7891 21.8163C25.6797 21.5429 24.5625 21.4999 23.4297 21.4999C22.2656 21.4999 21.1055 21.4999 19.9414 21.4999C18.793 21.4999 17.6484 21.4999 16.5 21.4999C15.3399 21.4999 14.1875 21.5546 13.0586 21.8554C11.1406 22.3632 9.33594 23.4452 8.00391 24.914C6.66016 26.3945 5.6875 28.2538 5.37109 30.2382C5.16016 31.5702 5.20312 32.9062 5.20312 34.2499C5.20312 34.8671 5.16797 35.5117 5.39062 36.1015C5.67969 36.8593 6.14063 37.457 6.81641 37.9062C7.34375 38.2538 8.01172 38.4218 8.63672 38.4296C8.94141 38.4335 9.2461 38.4296 9.55079 38.4296C10.332 38.4296 11.1094 38.4296 11.8906 38.4296C13 38.4296 14.1055 38.4296 15.2149 38.4296C16.5039 38.4296 17.793 38.4296 19.082 38.4296C20.4063 38.4296 21.7266 38.4296 23.0508 38.4296C24.2617 38.4296 25.4688 38.4296 26.6797 38.4296C27.6289 38.4296 28.5781 38.4296 29.5235 38.4296C30.0664 38.4296 30.6094 38.4296 31.1524 38.4296C31.2227 38.4296 31.293 38.4296 31.3633 38.4296C32.1797 38.4296 32.9649 37.7109 32.9258 36.8671C32.8867 36.0156 32.2383 35.3007 31.3594 35.3007Z" fill="#4D44B5"/>
</svg>
